<?xml version="1.0" standalone="no"?>
<!DOCTYPE svg PUBLIC "-//W3C//DTD SVG 20010904//EN"
 "http://www.w3.org/TR/2001/REC-SVG-20010904/DTD/svg10.dtd">
<svg version="1.0" xmlns="http://www.w3.org/2000/svg"
 width="178.000000pt" height="178.000000pt" viewBox="0 0 178.000000 178.000000"
 preserveAspectRatio="xMidYMid meet">
<metadata>
Created by potrace 1.14, written by Peter Selinger 2001-2017
</metadata>
<g transform="translate(0.000000,178.000000) scale(0.100000,-0.100000)"
fill="#000000" stroke="none">
<path d="M540 1740 c-20 -38 -23 -61 -24 -155 -1 -96 2 -115 22 -153 12 -23
22 -46 22 -51 0 -26 99 -180 151 -232 32 -34 59 -66 59 -70 0 -15 -26 -10 -51
9 -25 19 -82 45 -108 48 -9 1 -49 11 -88 23 -40 12 -81 21 -91 21 -27 0 -135
-56 -157 -81 -11 -12 -15 -20 -10 -17 90 50 195 67 231 38 8 -8 32 -14 52 -15
36 -2 140 -52 169 -81 8 -8 18 -12 23 -9 4 3 10 -4 13 -15 5 -18 0 -20 -48
-20 -30 0 -57 -5 -60 -10 -4 -6 -10 -8 -14 -6 -4 3 -24 1 -44 -5 -31 -8 -38
-16 -48 -52 -17 -65 -72 -186 -97 -213 -55 -61 -73 -104 -78 -188 -5 -70 -2
-93 16 -144 23 -64 60 -112 60 -78 0 9 -4 24 -10 34 -22 38 -37 103 -34 148 5
96 9 106 82 217 24 37 56 97 72 133 15 36 32 70 38 76 10 10 102 29 102 22 0
-2 -16 -10 -35 -18 -24 -11 -40 -26 -51 -53 -9 -21 -22 -51 -29 -68 -22 -50
-37 -106 -41 -149 -8 -105 -14 -148 -30 -215 -15 -66 -15 -76 -1 -110 9 -20
19 -51 22 -68 4 -18 10 -33 14 -33 4 0 13 -17 20 -37 7 -21 25 -57 40 -79 14
-23 31 -50 37 -60 7 -11 15 -16 19 -12 4 4 -9 40 -29 82 -20 41 -36 80 -36 88
0 7 -9 38 -21 68 -17 45 -19 61 -10 85 6 17 8 50 5 75 -7 60 -7 58 5 113 6 26
15 67 21 91 5 25 15 59 23 78 8 18 17 49 21 69 7 41 40 89 60 89 7 0 39 14 71
31 56 30 58 30 43 8 -26 -41 -6 -89 38 -89 20 0 23 4 18 28 -5 25 -3 27 26 27
27 0 31 -3 28 -25 -1 -14 1 -26 5 -27 21 -8 38 0 53 23 16 24 16 27 0 55 -16
27 -16 28 1 22 10 -3 27 -12 38 -20 11 -7 36 -18 55 -23 41 -11 64 -44 86
-122 67 -245 71 -263 60 -335 -2 -18 0 -45 6 -61 9 -23 5 -45 -21 -127 -18
-55 -43 -120 -57 -144 -13 -24 -24 -47 -24 -52 0 -19 32 5 46 35 8 17 26 51
39 76 14 25 25 51 25 58 0 6 4 12 10 12 5 0 12 17 16 38 4 20 13 50 21 66 13
25 13 38 -1 110 -14 73 -25 153 -31 225 -3 35 -11 62 -48 160 -26 70 -37 86
-62 97 l-30 13 31 1 c44 0 61 -17 97 -100 18 -42 47 -96 65 -122 18 -26 32
-51 32 -57 0 -6 4 -11 9 -11 8 0 33 -50 38 -80 14 -68 10 -123 -13 -190 -27
-76 -25 -100 4 -59 36 51 46 93 46 194 0 97 -1 102 -34 150 -18 28 -37 52 -41
55 -6 4 -27 44 -74 140 -7 14 -15 42 -19 62 -9 48 -29 68 -71 68 -19 0 -37 5
-40 11 -4 6 -23 10 -44 9 -20 -1 -42 -2 -48 -1 -17 1 -17 31 0 31 7 0 29 12
48 26 45 34 112 63 152 66 18 1 41 8 52 15 33 22 110 16 166 -13 88 -44 67
-10 -24 40 -58 31 -87 35 -152 18 -27 -7 -68 -18 -90 -24 -22 -5 -48 -14 -57
-19 -10 -5 -24 -9 -31 -9 -8 0 -22 -9 -32 -20 -20 -22 -55 -27 -55 -7 0 13 49
71 66 78 13 6 80 102 99 141 8 18 19 40 24 48 5 8 21 44 36 79 26 60 27 71 23
170 -5 101 -27 181 -50 181 -12 0 -10 -13 8 -55 10 -26 14 -63 12 -122 -2 -88
-16 -126 -101 -273 -15 -25 -33 -59 -41 -76 -21 -47 -33 -48 -39 -3 -7 56 -59
157 -99 196 -49 47 -79 47 -127 1 -44 -44 -81 -109 -102 -182 l-17 -61 -21 45
c-12 25 -26 52 -31 60 -26 40 -97 167 -104 185 -17 45 -17 178 -1 222 23 61
13 77 -15 23z"/>
</g>
</svg>
