<svg width="747" height="1112" viewBox="0 0 747 1112" fill="none" xmlns="http://www.w3.org/2000/svg">
<rect width="747" height="1112" rx="50" fill="black"/>
<line y1="-0.5" x2="107.48" y2="-0.5" transform="matrix(-0.707107 -0.707107 -0.707107 0.707107 729 107)" stroke="#161616"/>
<line y1="-0.5" x2="124.451" y2="-0.5" transform="matrix(-0.707107 -0.707107 -0.707107 0.707107 728 119)" stroke="#161616"/>
<line y1="-0.5" x2="89.0955" y2="-0.5" transform="matrix(-0.707107 -0.707107 -0.707107 0.707107 729 94)" stroke="#161616"/>
<line y1="-0.5" x2="70.7107" y2="-0.5" transform="matrix(-0.707107 -0.707107 -0.707107 0.707107 729 81)" stroke="#161616"/>
<line y1="-0.5" x2="50.9117" y2="-0.5" transform="matrix(-0.707107 -0.707107 -0.707107 0.707107 728 67)" stroke="#161616"/>
<line y1="-0.5" x2="178.191" y2="-0.5" transform="matrix(-0.707107 -0.707107 -0.707107 0.707107 727 157)" stroke="#161616"/>
<line y1="-0.5" x2="195.161" y2="-0.5" transform="matrix(-0.707107 -0.707107 -0.707107 0.707107 726 169)" stroke="#161616"/>
<line y1="-0.5" x2="214.96" y2="-0.5" transform="matrix(-0.707107 -0.707107 -0.707107 0.707107 727 183)" stroke="#161616"/>
<line y1="-0.5" x2="161.22" y2="-0.5" transform="matrix(-0.707107 -0.707107 -0.707107 0.707107 728 145)" stroke="#161616"/>
<line y1="-0.5" x2="142.836" y2="-0.5" transform="matrix(-0.707107 -0.707107 -0.707107 0.707107 728 132)" stroke="#161616"/>
<line y1="-0.5" x2="288.5" y2="-0.5" transform="matrix(-0.707107 -0.707107 -0.707107 0.707107 727 235)" stroke="#161616"/>
<line y1="-0.5" x2="308.299" y2="-0.5" transform="matrix(-0.707107 -0.707107 -0.707107 0.707107 728 249)" stroke="#161616"/>
<line y1="-0.5" x2="271.529" y2="-0.5" transform="matrix(-0.707107 -0.707107 -0.707107 0.707107 728 223)" stroke="#161616"/>
<line y1="-0.5" x2="253.144" y2="-0.5" transform="matrix(-0.707107 -0.707107 -0.707107 0.707107 728 210)" stroke="#161616"/>
<line y1="-0.5" x2="234.759" y2="-0.5" transform="matrix(-0.707107 -0.707107 -0.707107 0.707107 728 197)" stroke="#161616"/>
<line y1="-0.5" x2="360.624" y2="-0.5" transform="matrix(-0.707107 -0.707107 -0.707107 0.707107 726 286)" stroke="#161616"/>
<line y1="-0.5" x2="381.838" y2="-0.5" transform="matrix(-0.707107 -0.707107 -0.707107 0.707107 728 301)" stroke="#161616"/>
<line y1="-0.5" x2="397.394" y2="-0.5" transform="matrix(-0.707107 -0.707107 -0.707107 0.707107 726 312)" stroke="#161616"/>
<line y1="-0.5" x2="343.654" y2="-0.5" transform="matrix(-0.707107 -0.707107 -0.707107 0.707107 727 274)" stroke="#161616"/>
<line y1="-0.5" x2="323.855" y2="-0.5" transform="matrix(-0.707107 -0.707107 -0.707107 0.707107 726 260)" stroke="#161616"/>
<line y1="-0.5" x2="473.762" y2="-0.5" transform="matrix(-0.707107 -0.707107 -0.707107 0.707107 728 366)" stroke="#161616"/>
<line y1="-0.5" x2="490.732" y2="-0.5" transform="matrix(-0.707107 -0.707107 -0.707107 0.707107 727 378)" stroke="#161616"/>
<line y1="-0.5" x2="453.963" y2="-0.5" transform="matrix(-0.707107 -0.707107 -0.707107 0.707107 727 352)" stroke="#161616"/>
<line y1="-0.5" x2="435.578" y2="-0.5" transform="matrix(-0.707107 -0.707107 -0.707107 0.707107 727 339)" stroke="#161616"/>
<line y1="-0.5" x2="418.607" y2="-0.5" transform="matrix(-0.707107 -0.707107 -0.707107 0.707107 728 327)" stroke="#161616"/>
<line y1="-0.5" x2="545.886" y2="-0.5" transform="matrix(-0.707107 -0.707107 -0.707107 0.707107 727 417)" stroke="#161616"/>
<line y1="-0.5" x2="562.857" y2="-0.5" transform="matrix(-0.707107 -0.707107 -0.707107 0.707107 726 429)" stroke="#161616"/>
<line y1="-0.5" x2="582.656" y2="-0.5" transform="matrix(-0.707107 -0.707107 -0.707107 0.707107 727 443)" stroke="#161616"/>
<line y1="-0.5" x2="528.916" y2="-0.5" transform="matrix(-0.707107 -0.707107 -0.707107 0.707107 728 405)" stroke="#161616"/>
<line y1="-0.5" x2="510.531" y2="-0.5" transform="matrix(-0.707107 -0.707107 -0.707107 0.707107 728 392)" stroke="#161616"/>
<line y1="-0.5" x2="654.781" y2="-0.5" transform="matrix(-0.707107 -0.707107 -0.707107 0.707107 726 494)" stroke="#161616"/>
<line y1="-0.5" x2="675.994" y2="-0.5" transform="matrix(-0.707107 -0.707107 -0.707107 0.707107 728 509)" stroke="#161616"/>
<line y1="-0.5" x2="639.224" y2="-0.5" transform="matrix(-0.707107 -0.707107 -0.707107 0.707107 728 483)" stroke="#161616"/>
<line y1="-0.5" x2="620.84" y2="-0.5" transform="matrix(-0.707107 -0.707107 -0.707107 0.707107 728 470)" stroke="#161616"/>
<line y1="-0.5" x2="602.455" y2="-0.5" transform="matrix(-0.707107 -0.707107 -0.707107 0.707107 728 457)" stroke="#161616"/>
<line y1="-0.5" x2="728.32" y2="-0.5" transform="matrix(-0.707107 -0.707107 -0.707107 0.707107 726 546)" stroke="#161616"/>
<line y1="-0.5" x2="746.705" y2="-0.5" transform="matrix(-0.707107 -0.707107 -0.707107 0.707107 726 559)" stroke="#161616"/>
<line y1="-0.5" x2="765.089" y2="-0.5" transform="matrix(-0.707107 -0.707107 -0.707107 0.707107 726 572)" stroke="#161616"/>
<line y1="-0.5" x2="708.521" y2="-0.5" transform="matrix(-0.707107 -0.707107 -0.707107 0.707107 725 532)" stroke="#161616"/>
<line y1="-0.5" x2="690.136" y2="-0.5" transform="matrix(-0.707107 -0.707107 -0.707107 0.707107 725 519)" stroke="#161616"/>
<line y1="-0.5" x2="838.629" y2="-0.5" transform="matrix(-0.707107 -0.707107 -0.707107 0.707107 726 624)" stroke="#161616"/>
<line y1="-0.5" x2="857.013" y2="-0.5" transform="matrix(-0.707107 -0.707107 -0.707107 0.707107 726 637)" stroke="#161616"/>
<line y1="-0.5" x2="820.244" y2="-0.5" transform="matrix(-0.707107 -0.707107 -0.707107 0.707107 726 611)" stroke="#161616"/>
<line y1="-0.5" x2="804.687" y2="-0.5" transform="matrix(-0.707107 -0.707107 -0.707107 0.707107 728 600)" stroke="#161616"/>
<line y1="-0.5" x2="784.888" y2="-0.5" transform="matrix(-0.707107 -0.707107 -0.707107 0.707107 727 586)" stroke="#161616"/>
<line y1="-0.5" x2="916.41" y2="-0.5" transform="matrix(-0.707107 -0.707107 -0.707107 0.707107 729 679)" stroke="#161616"/>
<line y1="-0.5" x2="930.552" y2="-0.5" transform="matrix(-0.707107 -0.707107 -0.707107 0.707107 726 689)" stroke="#161616"/>
<line y1="-0.5" x2="950.351" y2="-0.5" transform="matrix(-0.707107 -0.707107 -0.707107 0.707107 727 703)" stroke="#161616"/>
<line y1="-0.5" x2="896.611" y2="-0.5" transform="matrix(-0.707107 -0.707107 -0.707107 0.707107 728 665)" stroke="#161616"/>
<line y1="-0.5" x2="876.812" y2="-0.5" transform="matrix(-0.707107 -0.707107 -0.707107 0.707107 727 651)" stroke="#161616"/>
<line y1="-0.5" x2="997.021" y2="-0.5" transform="matrix(-0.707107 -0.707107 -0.707107 0.707107 727 755)" stroke="#161616"/>
<line y1="-0.5" x2="1001.26" y2="-0.5" transform="matrix(-0.707107 -0.707107 -0.707107 0.707107 728 769)" stroke="#161616"/>
<line y1="-0.5" x2="989.949" y2="-0.5" transform="matrix(-0.707107 -0.707107 -0.707107 0.707107 727 742)" stroke="#161616"/>
<line y1="-0.5" x2="978.636" y2="-0.5" transform="matrix(-0.707107 -0.707107 -0.707107 0.707107 727 729)" stroke="#161616"/>
<line y1="-0.5" x2="965.908" y2="-0.5" transform="matrix(-0.707107 -0.707107 -0.707107 0.707107 726 715)" stroke="#161616"/>
<line y1="-0.5" x2="1001.26" y2="-0.5" transform="matrix(-0.707107 -0.707107 -0.707107 0.707107 728 808)" stroke="#161616"/>
<line y1="-0.5" x2="998.435" y2="-0.5" transform="matrix(-0.707107 -0.707107 -0.707107 0.707107 728 821)" stroke="#161616"/>
<line y1="-0.5" x2="998.435" y2="-0.5" transform="matrix(-0.707107 -0.707107 -0.707107 0.707107 728 834)" stroke="#161616"/>
<line y1="-0.5" x2="997.021" y2="-0.5" transform="matrix(-0.707107 -0.707107 -0.707107 0.707107 726 793)" stroke="#161616"/>
<line y1="-0.5" x2="998.435" y2="-0.5" transform="matrix(-0.707107 -0.707107 -0.707107 0.707107 726 780)" stroke="#161616"/>
<line y1="-0.5" x2="308.299" y2="-0.5" transform="matrix(0.707107 0.707107 0.707107 -0.707107 21 867)" stroke="#161616"/>
<line y1="-0.5" x2="328.098" y2="-0.5" transform="matrix(0.707107 0.707107 0.707107 -0.707107 21 854)" stroke="#161616"/>
<line y1="-0.5" x2="380.423" y2="-0.5" transform="matrix(0.707107 0.707107 0.707107 -0.707107 21 815)" stroke="#161616"/>
<line y1="-0.5" x2="397.394" y2="-0.5" transform="matrix(0.707107 0.707107 0.707107 -0.707107 22 803)" stroke="#161616"/>
<line y1="-0.5" x2="417.193" y2="-0.5" transform="matrix(0.707107 0.707107 0.707107 -0.707107 21 789)" stroke="#161616"/>
<line y1="-0.5" x2="363.453" y2="-0.5" transform="matrix(0.707107 0.707107 0.707107 -0.707107 20 827)" stroke="#161616"/>
<line y1="-0.5" x2="345.068" y2="-0.5" transform="matrix(0.707107 0.707107 0.707107 -0.707107 20 840)" stroke="#161616"/>
<line y1="-0.5" x2="492.146" y2="-0.5" transform="matrix(0.707107 0.707107 0.707107 -0.707107 21 737)" stroke="#161616"/>
<line y1="-0.5" x2="511.945" y2="-0.5" transform="matrix(0.707107 0.707107 0.707107 -0.707107 20 723)" stroke="#161616"/>
<line y1="-0.5" x2="472.347" y2="-0.5" transform="matrix(0.707107 0.707107 0.707107 -0.707107 21 750)" stroke="#161616"/>
<line y1="-0.5" x2="453.963" y2="-0.5" transform="matrix(0.707107 0.707107 0.707107 -0.707107 21 763)" stroke="#161616"/>
<line y1="-0.5" x2="435.578" y2="-0.5" transform="matrix(0.707107 0.707107 0.707107 -0.707107 21 776)" stroke="#161616"/>
<line y1="-0.5" x2="565.685" y2="-0.5" transform="matrix(0.707107 0.707107 0.707107 -0.707107 20 684)" stroke="#161616"/>
<line y1="-0.5" x2="585.484" y2="-0.5" transform="matrix(0.707107 0.707107 0.707107 -0.707107 20 671)" stroke="#161616"/>
<line y1="-0.5" x2="603.869" y2="-0.5" transform="matrix(0.707107 0.707107 0.707107 -0.707107 20 658)" stroke="#161616"/>
<line y1="-0.5" x2="550.129" y2="-0.5" transform="matrix(0.707107 0.707107 0.707107 -0.707107 20 697)" stroke="#161616"/>
<line y1="-0.5" x2="528.916" y2="-0.5" transform="matrix(0.707107 0.707107 0.707107 -0.707107 21 711)" stroke="#161616"/>
<line y1="-0.5" x2="677.408" y2="-0.5" transform="matrix(0.707107 0.707107 0.707107 -0.707107 20 606)" stroke="#161616"/>
<line y1="-0.5" x2="692.965" y2="-0.5" transform="matrix(0.707107 0.707107 0.707107 -0.707107 21 594)" stroke="#161616"/>
<line y1="-0.5" x2="654.781" y2="-0.5" transform="matrix(0.707107 0.707107 0.707107 -0.707107 22 621)" stroke="#161616"/>
<line y1="-0.5" x2="639.224" y2="-0.5" transform="matrix(0.707107 0.707107 0.707107 -0.707107 21 633)" stroke="#161616"/>
<line y1="-0.5" x2="618.011" y2="-0.5" transform="matrix(0.707107 0.707107 0.707107 -0.707107 22 647)" stroke="#161616"/>
<line y1="-0.5" x2="749.533" y2="-0.5" transform="matrix(0.707107 0.707107 0.707107 -0.707107 21 555)" stroke="#161616"/>
<line y1="-0.5" x2="767.918" y2="-0.5" transform="matrix(0.707107 0.707107 0.707107 -0.707107 21 542)" stroke="#161616"/>
<line y1="-0.5" x2="786.303" y2="-0.5" transform="matrix(0.707107 0.707107 0.707107 -0.707107 20 528)" stroke="#161616"/>
<line y1="-0.5" x2="731.148" y2="-0.5" transform="matrix(0.707107 0.707107 0.707107 -0.707107 21 568)" stroke="#161616"/>
<line y1="-0.5" x2="712.764" y2="-0.5" transform="matrix(0.707107 0.707107 0.707107 -0.707107 20 580)" stroke="#161616"/>
<line y1="-0.5" x2="859.842" y2="-0.5" transform="matrix(0.707107 0.707107 0.707107 -0.707107 21 477)" stroke="#161616"/>
<line y1="-0.5" x2="878.227" y2="-0.5" transform="matrix(0.707107 0.707107 0.707107 -0.707107 21 464)" stroke="#161616"/>
<line y1="-0.5" x2="842.871" y2="-0.5" transform="matrix(0.707107 0.707107 0.707107 -0.707107 20 489)" stroke="#161616"/>
<line y1="-0.5" x2="820.244" y2="-0.5" transform="matrix(0.707107 0.707107 0.707107 -0.707107 22 504)" stroke="#161616"/>
<line y1="-0.5" x2="804.687" y2="-0.5" transform="matrix(0.707107 0.707107 0.707107 -0.707107 21 516)" stroke="#161616"/>
<line y1="-0.5" x2="931.967" y2="-0.5" transform="matrix(0.707107 0.707107 0.707107 -0.707107 21 425)" stroke="#161616"/>
<line y1="-0.5" x2="950.351" y2="-0.5" transform="matrix(0.707107 0.707107 0.707107 -0.707107 22 413)" stroke="#161616"/>
<line y1="-0.5" x2="967.322" y2="-0.5" transform="matrix(0.707107 0.707107 0.707107 -0.707107 21 399)" stroke="#161616"/>
<line y1="-0.5" x2="913.582" y2="-0.5" transform="matrix(0.707107 0.707107 0.707107 -0.707107 20 437)" stroke="#161616"/>
<line y1="-0.5" x2="896.611" y2="-0.5" transform="matrix(0.707107 0.707107 0.707107 -0.707107 20 450)" stroke="#161616"/>
<line y1="-0.5" x2="998.435" y2="-0.5" transform="matrix(0.707107 0.707107 0.707107 -0.707107 22 348)" stroke="#161616"/>
<line y1="-0.5" x2="1001.26" y2="-0.5" transform="matrix(0.707107 0.707107 0.707107 -0.707107 20 333)" stroke="#161616"/>
<line y1="-0.5" x2="999.849" y2="-0.5" transform="matrix(0.707107 0.707107 0.707107 -0.707107 21 360)" stroke="#161616"/>
<line y1="-0.5" x2="992.778" y2="-0.5" transform="matrix(0.707107 0.707107 0.707107 -0.707107 21 373)" stroke="#161616"/>
<line y1="-0.5" x2="981.464" y2="-0.5" transform="matrix(0.707107 0.707107 0.707107 -0.707107 21 386)" stroke="#161616"/>
<line y1="-0.5" x2="998.435" y2="-0.5" transform="matrix(0.707107 0.707107 0.707107 -0.707107 22 296)" stroke="#161616"/>
<line y1="-0.5" x2="998.435" y2="-0.5" transform="matrix(0.707107 0.707107 0.707107 -0.707107 21 282)" stroke="#161616"/>
<line y1="-0.5" x2="999.849" y2="-0.5" transform="matrix(0.707107 0.707107 0.707107 -0.707107 21 269)" stroke="#161616"/>
<line y1="-0.5" x2="999.849" y2="-0.5" transform="matrix(0.707107 0.707107 0.707107 -0.707107 20 307)" stroke="#161616"/>
<line y1="-0.5" x2="999.849" y2="-0.5" transform="matrix(0.707107 0.707107 0.707107 -0.707107 20 320)" stroke="#161616"/>
<line y1="-0.5" x2="1001.26" y2="-0.5" transform="matrix(0.707107 0.707107 0.707107 -0.707107 20 216)" stroke="#161616"/>
<line y1="-0.5" x2="999.849" y2="-0.5" transform="matrix(0.707107 0.707107 0.707107 -0.707107 22 205)" stroke="#161616"/>
<line y1="-0.5" x2="1001.26" y2="-0.5" transform="matrix(0.707107 0.707107 0.707107 -0.707107 20 229)" stroke="#161616"/>
<line y1="-0.5" x2="999.849" y2="-0.5" transform="matrix(0.707107 0.707107 0.707107 -0.707107 21 243)" stroke="#161616"/>
<line y1="-0.5" x2="1001.26" y2="-0.5" transform="matrix(0.707107 0.707107 0.707107 -0.707107 21 256)" stroke="#161616"/>
<line y1="-0.5" x2="1001.26" y2="-0.5" transform="matrix(0.707107 0.707107 0.707107 -0.707107 21 165)" stroke="#161616"/>
<line y1="-0.5" x2="1001.26" y2="-0.5" transform="matrix(0.707107 0.707107 0.707107 -0.707107 21 152)" stroke="#161616"/>
<line y1="-0.5" x2="999.849" y2="-0.5" transform="matrix(0.707107 0.707107 0.707107 -0.707107 22 140)" stroke="#161616"/>
<line y1="-0.5" x2="999.849" y2="-0.5" transform="matrix(0.707107 0.707107 0.707107 -0.707107 22 179)" stroke="#161616"/>
<line y1="-0.5" x2="1001.26" y2="-0.5" transform="matrix(0.707107 0.707107 0.707107 -0.707107 21 191)" stroke="#161616"/>
<line y1="-0.5" x2="107.48" y2="-0.5" transform="matrix(0.707107 0.707107 0.707107 -0.707107 19 1008)" stroke="#161616"/>
<line y1="-0.5" x2="124.451" y2="-0.5" transform="matrix(0.707107 0.707107 0.707107 -0.707107 20 996)" stroke="#161616"/>
<line y1="-0.5" x2="89.0955" y2="-0.5" transform="matrix(0.707107 0.707107 0.707107 -0.707107 19 1021)" stroke="#161616"/>
<line y1="-0.5" x2="70.7107" y2="-0.5" transform="matrix(0.707107 0.707107 0.707107 -0.707107 19 1034)" stroke="#161616"/>
<line y1="-0.5" x2="50.9117" y2="-0.5" transform="matrix(0.707107 0.707107 0.707107 -0.707107 20 1048)" stroke="#161616"/>
<line y1="-0.5" x2="178.191" y2="-0.5" transform="matrix(0.707107 0.707107 0.707107 -0.707107 21 958)" stroke="#161616"/>
<line y1="-0.5" x2="195.161" y2="-0.5" transform="matrix(0.707107 0.707107 0.707107 -0.707107 22 946)" stroke="#161616"/>
<line y1="-0.5" x2="214.96" y2="-0.5" transform="matrix(0.707107 0.707107 0.707107 -0.707107 21 932)" stroke="#161616"/>
<line y1="-0.5" x2="161.22" y2="-0.5" transform="matrix(0.707107 0.707107 0.707107 -0.707107 20 970)" stroke="#161616"/>
<line y1="-0.5" x2="142.836" y2="-0.5" transform="matrix(0.707107 0.707107 0.707107 -0.707107 20 983)" stroke="#161616"/>
<line y1="-0.5" x2="288.5" y2="-0.5" transform="matrix(0.707107 0.707107 0.707107 -0.707107 21 880)" stroke="#161616"/>
<line y1="-0.5" x2="271.529" y2="-0.5" transform="matrix(0.707107 0.707107 0.707107 -0.707107 20 892)" stroke="#161616"/>
<line y1="-0.5" x2="253.144" y2="-0.5" transform="matrix(0.707107 0.707107 0.707107 -0.707107 20 905)" stroke="#161616"/>
<line y1="-0.5" x2="234.759" y2="-0.5" transform="matrix(0.707107 0.707107 0.707107 -0.707107 20 918)" stroke="#161616"/>
<line x1="18.6464" y1="106.646" x2="94.6464" y2="30.6465" stroke="#161616"/>
<line x1="19.6464" y1="118.646" x2="107.646" y2="30.6465" stroke="#161616"/>
<line x1="18.6464" y1="93.6465" x2="81.6464" y2="30.6465" stroke="#161616"/>
<line x1="18.6464" y1="80.6465" x2="68.6464" y2="30.6465" stroke="#161616"/>
<line x1="19.6464" y1="66.6465" x2="55.6464" y2="30.6465" stroke="#161616"/>
<line x1="20.6464" y1="156.646" x2="146.646" y2="30.6465" stroke="#161616"/>
<line x1="21.6464" y1="168.646" x2="159.646" y2="30.6465" stroke="#161616"/>
<line x1="20.6464" y1="182.646" x2="172.646" y2="30.6465" stroke="#161616"/>
<line x1="19.6464" y1="144.646" x2="133.646" y2="30.6465" stroke="#161616"/>
<line x1="19.6464" y1="131.646" x2="120.646" y2="30.6465" stroke="#161616"/>
<line x1="20.6464" y1="234.646" x2="224.646" y2="30.6465" stroke="#161616"/>
<line x1="19.6464" y1="248.646" x2="237.646" y2="30.6465" stroke="#161616"/>
<line x1="19.6464" y1="222.646" x2="211.646" y2="30.6465" stroke="#161616"/>
<line x1="19.6464" y1="209.646" x2="198.646" y2="30.6465" stroke="#161616"/>
<line x1="19.6464" y1="196.646" x2="185.646" y2="30.6465" stroke="#161616"/>
<line x1="21.6464" y1="285.646" x2="276.646" y2="30.6465" stroke="#161616"/>
<line x1="19.6464" y1="300.646" x2="289.646" y2="30.6465" stroke="#161616"/>
<line x1="21.6464" y1="311.646" x2="302.646" y2="30.6465" stroke="#161616"/>
<line x1="20.6464" y1="273.646" x2="263.646" y2="30.6465" stroke="#161616"/>
<line x1="21.6464" y1="259.646" x2="250.646" y2="30.6465" stroke="#161616"/>
<line x1="19.6464" y1="365.646" x2="354.646" y2="30.6465" stroke="#161616"/>
<line x1="20.6464" y1="377.646" x2="367.646" y2="30.6465" stroke="#161616"/>
<line x1="20.6464" y1="351.646" x2="341.646" y2="30.6465" stroke="#161616"/>
<line x1="20.6464" y1="338.646" x2="328.646" y2="30.6465" stroke="#161616"/>
<line x1="19.6464" y1="326.646" x2="315.646" y2="30.6465" stroke="#161616"/>
<line x1="20.6464" y1="416.646" x2="406.646" y2="30.6465" stroke="#161616"/>
<line x1="21.6464" y1="428.646" x2="419.646" y2="30.6465" stroke="#161616"/>
<line x1="20.6464" y1="442.646" x2="432.646" y2="30.6465" stroke="#161616"/>
<line x1="19.6464" y1="404.646" x2="393.646" y2="30.6465" stroke="#161616"/>
<line x1="19.6464" y1="391.646" x2="380.646" y2="30.6465" stroke="#161616"/>
<line x1="21.6464" y1="493.646" x2="484.646" y2="30.6465" stroke="#161616"/>
<line x1="19.6464" y1="508.646" x2="497.646" y2="30.6465" stroke="#161616"/>
<line x1="19.6464" y1="482.646" x2="471.646" y2="30.6465" stroke="#161616"/>
<line x1="19.6464" y1="469.646" x2="458.646" y2="30.6465" stroke="#161616"/>
<line x1="19.6464" y1="456.646" x2="445.646" y2="30.6465" stroke="#161616"/>
<line x1="21.6464" y1="545.646" x2="536.646" y2="30.6464" stroke="#161616"/>
<line x1="21.6464" y1="558.646" x2="549.646" y2="30.6464" stroke="#161616"/>
<line x1="21.6464" y1="571.646" x2="562.646" y2="30.6465" stroke="#161616"/>
<line x1="22.6464" y1="531.646" x2="523.646" y2="30.6465" stroke="#161616"/>
<line x1="22.6464" y1="518.647" x2="510.646" y2="30.6465" stroke="#161616"/>
<line x1="21.6464" y1="623.646" x2="614.646" y2="30.6464" stroke="#161616"/>
<line x1="21.6464" y1="636.646" x2="627.646" y2="30.6464" stroke="#161616"/>
<line x1="21.6464" y1="610.646" x2="601.646" y2="30.6464" stroke="#161616"/>
<line x1="19.6464" y1="599.646" x2="588.646" y2="30.6465" stroke="#161616"/>
<line x1="20.6464" y1="585.646" x2="575.646" y2="30.6464" stroke="#161616"/>
<line x1="18.6464" y1="678.646" x2="666.646" y2="30.6464" stroke="#161616"/>
<line x1="21.6464" y1="688.646" x2="679.646" y2="30.6464" stroke="#161616"/>
<line x1="20.6464" y1="702.646" x2="692.646" y2="30.6465" stroke="#161616"/>
<line x1="19.6464" y1="664.646" x2="653.646" y2="30.6465" stroke="#161616"/>
<line x1="20.6464" y1="650.646" x2="640.646" y2="30.6464" stroke="#161616"/>
<line x1="20.6464" y1="754.646" x2="725.646" y2="49.6464" stroke="#161616"/>
<line x1="19.6464" y1="768.646" x2="727.646" y2="60.6465" stroke="#161616"/>
<line x1="20.6464" y1="741.646" x2="720.646" y2="41.6465" stroke="#161616"/>
<line x1="20.6464" y1="728.646" x2="712.646" y2="36.6464" stroke="#161616"/>
<line x1="21.6464" y1="714.646" x2="704.646" y2="31.6465" stroke="#161616"/>
<line x1="19.6464" y1="807.646" x2="727.646" y2="99.6465" stroke="#161616"/>
<line x1="19.6464" y1="820.646" x2="725.646" y2="114.646" stroke="#161616"/>
<line x1="19.6464" y1="833.646" x2="725.646" y2="127.646" stroke="#161616"/>
<line x1="21.6464" y1="792.646" x2="726.646" y2="87.6464" stroke="#161616"/>
<line x1="21.6464" y1="779.646" x2="727.646" y2="73.6465" stroke="#161616"/>
<line x1="727.354" y1="867.354" x2="509.354" y2="1085.35" stroke="#161616"/>
<line x1="727.354" y1="854.354" x2="495.354" y2="1086.35" stroke="#161616"/>
<line x1="727.354" y1="815.354" x2="458.354" y2="1084.35" stroke="#161616"/>
<line x1="726.354" y1="803.354" x2="445.354" y2="1084.35" stroke="#161616"/>
<line x1="727.354" y1="789.354" x2="432.354" y2="1084.35" stroke="#161616"/>
<line x1="728.354" y1="827.354" x2="471.354" y2="1084.35" stroke="#161616"/>
<line x1="728.354" y1="840.354" x2="484.354" y2="1084.35" stroke="#161616"/>
<line x1="727.354" y1="737.354" x2="379.354" y2="1085.35" stroke="#161616"/>
<line x1="728.354" y1="723.354" x2="366.354" y2="1085.35" stroke="#161616"/>
<line x1="727.354" y1="750.354" x2="393.354" y2="1084.35" stroke="#161616"/>
<line x1="727.354" y1="763.354" x2="406.354" y2="1084.35" stroke="#161616"/>
<line x1="727.354" y1="776.354" x2="419.354" y2="1084.35" stroke="#161616"/>
<line x1="728.354" y1="684.354" x2="328.354" y2="1084.35" stroke="#161616"/>
<line x1="728.354" y1="671.354" x2="314.354" y2="1085.35" stroke="#161616"/>
<line x1="728.354" y1="658.354" x2="301.354" y2="1085.35" stroke="#161616"/>
<line x1="728.354" y1="697.354" x2="339.354" y2="1086.35" stroke="#161616"/>
<line x1="727.354" y1="711.354" x2="353.354" y2="1085.35" stroke="#161616"/>
<line x1="728.354" y1="606.354" x2="249.354" y2="1085.35" stroke="#161616"/>
<line x1="727.354" y1="594.354" x2="237.354" y2="1084.35" stroke="#161616"/>
<line x1="726.354" y1="621.354" x2="263.354" y2="1084.35" stroke="#161616"/>
<line x1="727.354" y1="633.354" x2="275.354" y2="1085.35" stroke="#161616"/>
<line x1="726.354" y1="647.354" x2="289.354" y2="1084.35" stroke="#161616"/>
<line x1="727.354" y1="555.354" x2="197.354" y2="1085.35" stroke="#161616"/>
<line x1="727.354" y1="542.354" x2="184.354" y2="1085.35" stroke="#161616"/>
<line x1="728.354" y1="528.354" x2="172.354" y2="1084.35" stroke="#161616"/>
<line x1="727.354" y1="568.354" x2="210.354" y2="1085.35" stroke="#161616"/>
<line x1="728.354" y1="580.354" x2="224.354" y2="1084.35" stroke="#161616"/>
<line x1="727.354" y1="477.354" x2="119.354" y2="1085.35" stroke="#161616"/>
<line x1="727.354" y1="464.354" x2="106.354" y2="1085.35" stroke="#161616"/>
<line x1="728.354" y1="489.354" x2="132.354" y2="1085.35" stroke="#161616"/>
<line x1="726.354" y1="504.354" x2="146.354" y2="1084.35" stroke="#161616"/>
<line x1="727.354" y1="516.354" x2="158.354" y2="1085.35" stroke="#161616"/>
<line x1="727.354" y1="425.354" x2="68.3536" y2="1084.35" stroke="#161616"/>
<line x1="726.354" y1="413.354" x2="54.3536" y2="1085.35" stroke="#161616"/>
<line x1="727.354" y1="399.354" x2="43.3535" y2="1083.35" stroke="#161616"/>
<line x1="728.354" y1="437.354" x2="82.3535" y2="1083.35" stroke="#161616"/>
<line x1="728.354" y1="450.354" x2="94.3536" y2="1084.35" stroke="#161616"/>
<line x1="726.354" y1="348.354" x2="20.3536" y2="1054.35" stroke="#161616"/>
<line x1="728.354" y1="333.354" x2="20.3536" y2="1041.35" stroke="#161616"/>
<line x1="727.354" y1="360.354" x2="20.3535" y2="1067.35" stroke="#161616"/>
<line x1="727.354" y1="373.354" x2="25.3536" y2="1075.35" stroke="#161616"/>
<line x1="727.354" y1="386.354" x2="33.3535" y2="1080.35" stroke="#161616"/>
<line x1="726.354" y1="296.354" x2="20.3536" y2="1002.35" stroke="#161616"/>
<line x1="727.354" y1="282.354" x2="21.3536" y2="988.354" stroke="#161616"/>
<line x1="727.354" y1="269.354" x2="20.3535" y2="976.354" stroke="#161616"/>
<line x1="728.354" y1="307.354" x2="21.3535" y2="1014.35" stroke="#161616"/>
<line x1="728.354" y1="320.354" x2="21.3535" y2="1027.35" stroke="#161616"/>
<line x1="728.354" y1="216.354" x2="20.3536" y2="924.354" stroke="#161616"/>
<line x1="726.354" y1="205.354" x2="19.3535" y2="912.354" stroke="#161616"/>
<line x1="728.354" y1="229.354" x2="20.3536" y2="937.354" stroke="#161616"/>
<line x1="727.354" y1="243.354" x2="20.3535" y2="950.354" stroke="#161616"/>
<line x1="727.354" y1="256.354" x2="19.3536" y2="964.354" stroke="#161616"/>
<line x1="727.354" y1="165.354" x2="19.3536" y2="873.354" stroke="#161616"/>
<line x1="727.354" y1="152.354" x2="19.3536" y2="860.354" stroke="#161616"/>
<line x1="726.354" y1="140.354" x2="19.3535" y2="847.354" stroke="#161616"/>
<line x1="726.354" y1="179.354" x2="19.3535" y2="886.354" stroke="#161616"/>
<line x1="727.354" y1="191.354" x2="19.3536" y2="899.354" stroke="#161616"/>
<line x1="729.354" y1="1008.35" x2="653.354" y2="1084.35" stroke="#161616"/>
<line x1="728.354" y1="996.354" x2="640.354" y2="1084.35" stroke="#161616"/>
<line x1="729.354" y1="1021.35" x2="666.354" y2="1084.35" stroke="#161616"/>
<line x1="729.354" y1="1034.35" x2="679.354" y2="1084.35" stroke="#161616"/>
<line x1="728.354" y1="1048.35" x2="692.354" y2="1084.35" stroke="#161616"/>
<line x1="727.354" y1="958.354" x2="601.354" y2="1084.35" stroke="#161616"/>
<line x1="726.354" y1="946.354" x2="588.354" y2="1084.35" stroke="#161616"/>
<line x1="727.354" y1="932.354" x2="575.354" y2="1084.35" stroke="#161616"/>
<line x1="728.354" y1="970.354" x2="614.354" y2="1084.35" stroke="#161616"/>
<line x1="728.354" y1="983.354" x2="627.354" y2="1084.35" stroke="#161616"/>
<line x1="727.354" y1="880.354" x2="523.354" y2="1084.35" stroke="#161616"/>
<line x1="728.354" y1="892.354" x2="536.354" y2="1084.35" stroke="#161616"/>
<line x1="728.354" y1="905.354" x2="549.354" y2="1084.35" stroke="#161616"/>
<line x1="728.354" y1="918.354" x2="562.354" y2="1084.35" stroke="#161616"/>
<path d="M446.76 427.329C446.76 453.174 435.357 469.952 420.684 480.303C405.966 490.686 387.919 494.622 374.724 494.622C361.527 494.622 343.001 490.685 327.804 480.295C312.653 469.936 300.792 453.157 300.792 427.329C300.792 401.399 312.744 371.236 328.079 347.523C335.74 335.676 344.214 325.487 352.406 318.273C360.64 311.022 368.425 306.919 374.724 306.919C381.019 306.919 388.684 311.017 396.738 318.266C404.751 325.478 412.989 335.665 420.414 347.511C435.274 371.222 446.76 401.389 446.76 427.329Z" fill="#451B75" stroke="black" stroke-width="2"/>
<path d="M374.377 480.556L374.738 480.689L375.096 480.546C389.273 474.875 399.942 472.32 407.963 471.996C415.965 471.673 421.256 473.573 424.804 476.741C428.37 479.924 430.319 484.518 431.365 489.872C432.412 495.229 432.532 501.229 432.532 507.125C432.532 529.887 408.523 548.808 374.724 548.808C357.877 548.808 342.668 544.079 331.698 536.484C320.724 528.887 314.071 518.491 314.071 507.125C314.071 495.41 316.676 484.242 325.263 478.237C333.851 472.232 348.84 471.097 374.377 480.556Z" fill="#451B75" stroke="black" stroke-width="2"/>
<path d="M358.586 577.868L358.548 578.003V578.143C358.548 581.438 359.41 584.866 360.279 587.939C360.43 588.474 360.58 588.995 360.726 589.502C361.443 591.986 362.062 594.133 362.197 595.85C362.277 596.869 362.169 597.587 361.915 598.073C361.688 598.508 361.286 598.87 360.475 599.07C359.622 599.281 358.353 599.3 356.511 598.997C354.681 598.696 352.357 598.089 349.431 597.113C341.17 594.36 333.041 587.315 333.041 575.298C333.041 569.378 336.42 563.455 341.057 558.971C345.709 554.472 351.401 551.636 355.754 551.636C357.818 551.636 359.153 552.393 360.043 553.646C360.976 554.961 361.493 556.93 361.611 559.457C361.847 564.501 360.479 571.246 358.586 577.868Z" fill="#451B75" stroke="black" stroke-width="2"/>
<path d="M387.897 577.868L387.936 578.003V578.143C387.936 581.438 387.074 584.866 386.205 587.939C386.054 588.474 385.904 588.995 385.758 589.502C385.041 591.986 384.422 594.133 384.287 595.85C384.207 596.869 384.315 597.587 384.569 598.073C384.796 598.508 385.198 598.87 386.009 599.07C386.862 599.281 388.131 599.3 389.973 598.997C391.803 598.696 394.126 598.089 397.053 597.113C405.314 594.36 413.443 587.315 413.443 575.298C413.443 569.378 410.064 563.455 405.427 558.971C400.775 554.472 395.083 551.636 390.73 551.636C388.666 551.636 387.33 552.393 386.441 553.646C385.507 554.961 384.991 556.93 384.873 559.457C384.637 564.501 386.005 571.246 387.897 577.868Z" fill="#451B75" stroke="black" stroke-width="2"/>
<circle cx="373.776" cy="541.151" r="33.1466" fill="#451B75" stroke="black" stroke-width="2"/>
<path d="M456.814 415.602L452.373 420.598C451.226 421.888 449.69 422.77 447.998 423.108C446.6 423.387 445.302 424.033 444.26 425.006C440.948 428.098 436.378 432.678 436.378 433.969C436.378 435.248 437.276 442.457 437.937 447.531C438.148 449.151 439.091 450.583 440.492 451.423C442.065 452.367 444.011 452.442 445.652 451.622L452.503 448.196L460.121 443.117C460.73 442.711 461.281 442.223 461.758 441.667L466.259 436.415C466.573 436.05 466.853 435.656 467.095 435.24L472.662 425.698C473.13 424.894 473.736 424.179 474.45 423.583L477.212 421.282C478.418 420.277 479.302 418.939 479.753 417.435L481.079 413.015C481.614 411.232 482.754 409.69 484.304 408.658L486.14 407.433C487.101 406.793 487.911 405.953 488.516 404.97L494.806 394.748C495.059 394.338 495.274 393.905 495.449 393.455L501.462 377.992C501.703 377.372 502.02 376.785 502.408 376.243C505.723 371.61 511.544 363.545 512.259 362.83C513.018 362.071 514.472 356.823 515.105 354.293L516.743 346.104C516.914 345.246 517.225 344.422 517.664 343.664L527.027 327.492C527.299 327.023 527.522 326.527 527.693 326.013L529.83 319.603C530.128 318.708 530.583 317.872 531.172 317.135L532.485 315.494C533.52 314.201 534.127 312.619 534.225 310.966L534.929 298.995C534.991 297.939 535.333 296.918 535.92 296.038C536.572 295.059 536.921 293.909 536.921 292.732V280.309V255.647L535.024 239.523L532.178 217.707L531.403 209.953C531.289 208.812 530.93 207.709 530.353 206.718L524.59 196.839L520.796 188.303L517.401 182.871C516.585 181.566 515.063 180.88 513.545 181.133C511.708 181.439 510.362 183.028 510.362 184.89V186.856C510.362 187.807 510.584 188.746 511.009 189.597L516.053 199.685L519.789 206.41C520.449 207.598 520.796 208.935 520.796 210.295V213.921C520.796 215.163 521.085 216.388 521.64 217.499L523.745 221.709C524.301 222.82 524.59 224.044 524.59 225.286V238.574C524.274 244.898 523.641 257.924 523.641 259.442C523.641 260.959 523.009 268.294 522.693 271.772L520.967 292.48C520.855 293.829 520.402 295.127 519.651 296.254L518.107 298.569C517.381 299.658 516.934 300.909 516.803 302.211L516.311 307.132C516.144 308.81 515.45 310.391 514.33 311.651L509.367 317.235C508.77 317.907 508.29 318.674 507.949 319.504L502.094 333.721C501.916 334.156 501.699 334.574 501.446 334.97L495.186 344.808L490.628 350.885C489.883 351.879 489.379 353.032 489.157 354.254L488.234 359.332C487.854 361.421 486.18 363.032 484.079 363.333C482.176 363.604 480.607 364.957 480.036 366.792C479.019 370.061 477.727 374.036 477.164 375.161C476.216 377.058 474.319 383.697 474.319 384.646C474.319 385.167 472.824 386.018 471.376 386.704C470.21 387.257 469.137 388.003 468.297 388.983L465.811 391.884C464.568 393.334 463.885 395.181 463.885 397.09V401.22C463.885 402.688 463.055 404.031 461.742 404.688C460.697 405.21 459.944 406.175 459.69 407.315L458.644 412.022C458.349 413.352 457.719 414.584 456.814 415.602Z" fill="#451B75" stroke="black" stroke-width="2"/>
<path d="M432.553 485.888L430.687 487.221C428.342 488.896 427.079 491.702 427.381 494.568L428.293 503.236C428.575 505.917 430.836 507.953 433.532 507.953H444.914C446.104 507.953 447.759 506.4 448.876 505.119C449.415 504.5 449.997 503.916 450.664 503.439L462.936 494.674L473.37 487.086L482.906 481.884C483.502 481.559 484.137 481.311 484.796 481.146L493.842 478.885C494.731 478.663 495.576 478.289 496.339 477.78L502.922 473.391C503.454 473.037 504.026 472.747 504.626 472.529L512.832 469.545C513.708 469.227 514.633 469.064 515.566 469.064H521.744H536.802C539.271 469.064 541.601 467.924 543.117 465.975L545.401 463.039C546.655 461.426 548.48 460.354 550.499 460.043L558.867 458.756C559.411 458.672 559.945 458.533 560.46 458.34L564.853 456.692C566.426 456.102 568.146 456.022 569.767 456.465L576.18 458.214C577.188 458.489 578.24 458.563 579.277 458.434L585.295 457.682C589.089 457.049 596.867 456.164 597.626 457.682C598.384 459.199 601.104 460.211 602.368 460.527L607.68 462.045C608.559 462.296 609.388 462.696 610.132 463.227L614.863 466.607C615.384 466.979 615.947 467.285 616.538 467.53C619.894 468.925 625.388 471.472 626.081 472.858C626.47 473.636 627.873 473.782 629.447 473.655C632.125 473.438 634.896 473.91 636.936 475.658L639.967 478.256C640.194 478.451 640.444 478.616 640.711 478.75L642.748 479.768C644.242 480.515 646 479.429 646 477.758C646 477.061 645.676 476.403 645.123 475.977L634.941 468.145C634.102 467.499 633.399 466.693 632.873 465.773L631.682 463.688C630.534 461.68 628.573 460.267 626.305 459.813L621.207 458.793C620.664 458.685 620.133 458.52 619.624 458.302L614.51 456.11C614.005 455.894 613.524 455.626 613.074 455.311L605.219 449.812C604.586 449.37 603.893 449.021 603.161 448.777L593.786 445.652C593.186 445.452 592.612 445.181 592.076 444.846L586.595 441.421C585.736 440.884 584.783 440.515 583.786 440.334L574.861 438.711L565.291 437.239C563.504 436.964 561.676 437.303 560.106 438.2L557.736 439.554C556.527 440.245 555.159 440.608 553.766 440.608H552.931C550.595 440.608 548.377 441.629 546.857 443.402L545.955 444.454C544.435 446.227 542.216 447.248 539.881 447.248H528.185C527.065 447.248 525.958 447.483 524.936 447.937L519.502 450.352C518.479 450.807 517.372 451.042 516.253 451.042H512.435C511.076 451.042 509.738 451.388 508.55 452.049L501.825 455.784L498.461 457.467C496.949 458.223 495.236 458.48 493.568 458.202L491.494 457.857C490.797 457.74 490.087 457.717 489.383 457.788L483.8 458.346C481.962 458.53 480.245 459.343 478.939 460.649L476.204 463.384C474.98 464.608 473.392 465.402 471.679 465.647L463.679 466.79C461.966 467.034 460.378 467.828 459.154 469.052L457.647 470.559C457.38 470.826 457.093 471.075 456.79 471.302L450.647 475.909C449.991 476.401 449.414 476.992 448.938 477.659L447.307 479.941C445.806 482.044 443.381 483.291 440.798 483.291H440.522C439.662 483.291 438.808 483.43 437.992 483.702L434.673 484.808C433.917 485.06 433.202 485.424 432.553 485.888Z" fill="#451B75" stroke="black" stroke-width="2"/>
<path d="M431.463 522.181H428.935C426.451 522.181 424.108 523.334 422.594 525.303L420.613 527.879C417.833 531.493 418.631 536.695 422.366 539.31L422.93 539.705C424.274 540.646 425.876 541.151 427.517 541.151H431.512C432.223 541.151 432.931 541.246 433.617 541.433L443.017 543.997L451.872 547.538C452.292 547.706 452.725 547.838 453.167 547.933L464.953 550.459C465.504 550.577 466.066 550.636 466.629 550.636H483.235C483.614 550.636 483.992 550.663 484.366 550.717L494.232 552.126C496.075 552.389 497.768 553.287 499.02 554.664L506.107 562.459C506.414 562.797 506.691 563.16 506.936 563.546L511.957 571.435C512.774 572.719 513.208 574.209 513.208 575.73V577.052C513.208 578.39 513.543 579.707 514.184 580.882L517.922 587.734C518.563 588.91 518.899 590.227 518.899 591.565V592.653C518.899 594.32 519.42 595.946 520.389 597.303L523.641 601.856L527.713 608.372C528.158 609.082 528.487 609.858 528.691 610.671L529.974 615.805C530.177 616.618 530.507 617.394 530.951 618.105L539.766 632.209L548.497 643.558C548.997 644.208 549.394 644.931 549.674 645.702L552.568 653.659C552.884 654.528 553.348 655.336 553.94 656.047L561.84 665.526C562.298 666.076 562.681 666.686 562.977 667.337L566.427 674.927C566.982 676.148 567.836 677.211 568.91 678.016L571.661 680.08C573.676 681.591 574.861 683.962 574.861 686.48V687.975C574.861 689.934 575.58 691.825 576.882 693.29L580.429 697.28C581.73 698.744 582.449 700.636 582.449 702.595V711.41C582.449 712.949 582.949 714.447 583.872 715.678C584.796 716.909 585.295 718.407 585.295 719.946V728.009L587.045 743.761C587.142 744.636 587.094 745.52 586.904 746.38L585.611 752.195C585.402 753.136 585.365 754.108 585.501 755.062L586.626 762.938C586.982 765.431 586.144 767.946 584.363 769.726L581.947 772.143C580.447 773.643 579.604 775.678 579.604 777.8V781.724C579.604 782.584 579.465 783.439 579.193 784.254L577.707 788.714L575.32 799.055C575.019 800.36 574.395 801.569 573.505 802.571L569.294 807.308C567.992 808.772 567.273 810.663 567.273 812.623V815.877C567.273 816.725 567.057 817.558 566.646 818.299L565.529 820.308C564.184 822.73 565.935 825.706 568.706 825.706C570.142 825.706 571.443 824.86 572.026 823.548L574.016 819.071C574.57 817.824 575.434 816.739 576.526 815.92L580.938 812.611C581.932 811.866 582.74 810.901 583.285 809.785C584.659 806.969 586.574 802.897 587.192 801.044C587.856 799.052 589.053 792.556 589.765 788.422C589.948 787.363 590.335 786.35 590.912 785.443L596.187 777.154C596.512 776.642 596.779 776.094 596.981 775.521L601.636 762.333C602.115 760.975 602.219 759.513 601.937 758.101L600.626 751.55C600.523 751.033 600.471 750.508 600.471 749.981V733.32C600.471 732.941 600.444 732.563 600.391 732.188L598.655 720.035C598.601 719.66 598.574 719.282 598.574 718.904V702.399L596.941 689.331C596.768 687.949 596.238 686.637 595.402 685.523L585.295 672.046L580.552 663.51L572.58 651.993C572.205 651.452 571.765 650.96 571.27 650.527L565.611 645.575C564.83 644.891 564.189 644.061 563.724 643.132L560.633 636.951L555.891 629.363L550.697 621.944C549.756 620.599 549.251 618.997 549.251 617.356V617.228C549.251 615.269 548.532 613.378 547.231 611.913L543.684 607.923C542.382 606.459 541.663 604.568 541.663 602.608V598.94C541.663 598.356 541.599 597.774 541.473 597.205L540.493 592.797C540.028 590.704 538.742 588.885 536.924 587.749L534.618 586.308C533.041 585.322 531.856 583.818 531.268 582.053L528.794 574.632C528.522 573.816 528.384 572.962 528.384 572.102V562.803C528.384 561.661 528.139 560.532 527.667 559.492L523.641 550.636L519.676 540.327C519.167 539.003 518.315 537.838 517.207 536.952L511.224 532.165C510.041 531.219 508.615 530.629 507.11 530.461L492.34 528.82H485.22C483.099 528.82 481.064 527.977 479.563 526.477L478.811 525.725C477.735 524.649 476.375 523.902 474.89 523.572L469.485 522.371C468.915 522.245 468.333 522.181 467.749 522.181H457.245H449.501C448.974 522.181 448.448 522.233 447.932 522.336L441.125 523.697C439.875 523.947 438.584 523.895 437.358 523.545L433.661 522.488C432.946 522.284 432.207 522.181 431.463 522.181Z" fill="#451B75" stroke="black" stroke-width="2"/>
<path d="M415.991 533.563H414.363C413.243 533.563 412.136 533.798 411.114 534.252L408.879 535.245C405.99 536.529 404.128 539.394 404.128 542.556V544.005C404.128 545.247 404.417 546.472 404.973 547.583L406.277 550.191C407.321 552.28 409.226 553.808 411.492 554.374L414.44 555.111C415.15 555.289 415.833 555.563 416.469 555.926L422.15 559.173L427.86 562.435C428.477 562.788 429.044 563.222 429.547 563.724L434.035 568.212C435.535 569.712 437.57 570.555 439.692 570.555H442.077C443.319 570.555 444.544 570.844 445.655 571.4L448.381 572.762C449.225 573.185 450.137 573.454 451.075 573.558L456.458 574.156C457.602 574.283 458.704 574.655 459.691 575.247L466.136 579.115C467.152 579.724 468.02 580.551 468.677 581.537L473.37 588.577L479.58 598.335C479.866 598.784 480.106 599.261 480.297 599.758L484.219 609.955C484.571 610.871 484.752 611.845 484.752 612.827V619.755C484.752 620.466 484.847 621.174 485.034 621.86L487.429 630.64C487.541 631.053 487.687 631.456 487.864 631.845L492.34 641.694L495.186 650.23L498.98 662.561L502.363 672.712C502.635 673.527 502.774 674.382 502.774 675.242V684.027C502.774 684.887 502.913 685.741 503.185 686.557L506.318 695.956C506.484 696.456 506.7 696.938 506.961 697.395L509.568 701.958C510.092 702.875 510.43 703.887 510.561 704.935L511.311 710.935L512.167 720.358C512.228 721.03 512.374 721.69 512.6 722.325L516.536 733.343C516.844 734.207 517.002 735.117 517.002 736.034V744.732C517.002 745.592 516.863 746.446 516.591 747.262L514.371 753.924C514.228 754.352 514.122 754.791 514.053 755.237L512.352 766.293C512.29 766.696 512.259 767.102 512.259 767.51V774.772C512.259 775.213 512.223 775.653 512.15 776.088L511.514 779.905C511.379 780.714 511.37 781.539 511.486 782.351L511.882 785.125C512.127 786.839 512.921 788.427 514.145 789.651L515.435 790.941C516.46 791.966 517.188 793.251 517.539 794.658L519.381 802.025C519.687 803.251 519.699 804.532 519.415 805.764L517.002 816.221L514.156 823.809L511.311 832.346L507.696 843.188C507.577 843.548 507.432 843.898 507.262 844.236L505.132 848.497C504.826 849.109 504.6 849.758 504.459 850.427L501.04 866.665C500.932 867.181 500.772 867.685 500.565 868.169L498.031 874.08L491.392 890.205L487.991 896.157C487.729 896.614 487.514 897.096 487.347 897.596L484.237 906.927C483.95 907.787 483.519 908.593 482.962 909.309L477.797 915.95C477.377 916.49 477.028 917.082 476.758 917.71L474.793 922.296C474.479 923.028 474.03 923.692 473.467 924.255L471.629 926.092C469.64 928.082 470.087 931.419 472.53 932.815C473.66 933.46 475.023 933.555 476.232 933.072L481.213 931.079C482.891 930.408 484.292 929.189 485.188 927.62L486.997 924.455C487.395 923.758 487.686 923.005 487.86 922.221L489.142 916.456C489.375 915.407 489.817 914.416 490.441 913.542L493.766 908.887C494.079 908.448 494.348 907.979 494.567 907.486L496.757 902.558C497.576 900.715 499.062 899.249 500.916 898.454L501.121 898.366C503.364 897.405 505.045 895.472 505.687 893.118L507.262 887.345C507.431 886.725 507.674 886.127 507.987 885.565L512.259 877.874L516.285 869.018C516.757 867.979 517.002 866.85 517.002 865.708V862.534C517.002 860.227 517.998 858.033 519.734 856.514L523.725 853.021C524.299 852.519 524.798 851.938 525.207 851.295L529.979 843.796C530.796 842.513 531.229 841.023 531.229 839.501V832.059C531.229 831.618 531.266 831.179 531.338 830.744L532.929 821.201C533.06 820.415 533.308 819.652 533.665 818.939L538.818 808.633L545.352 797.198C546.042 795.989 546.406 794.621 546.406 793.229V789.765C546.406 788.452 546.083 787.159 545.465 786.001L539.759 775.302C539.141 774.144 538.818 772.851 538.818 771.538V760.003C538.818 758.92 538.598 757.848 538.171 756.852L536.352 752.607C536.1 752.019 535.919 751.403 535.814 750.771L533.127 734.648L530.459 722.198C530.341 721.647 530.281 721.085 530.281 720.522V705.746C530.281 704.787 530.108 703.836 529.772 702.938L527.945 698.066C527.608 697.168 527.435 696.216 527.435 695.257V686.446C527.435 685.703 527.332 684.963 527.128 684.248L525.846 679.763C525.642 679.048 525.538 678.309 525.538 677.565V656.861C525.538 655.62 525.249 654.395 524.694 653.284L522.162 648.221C521.885 647.665 521.673 647.08 521.53 646.475L518.164 632.17C518.022 631.565 517.81 630.98 517.532 630.424L515.001 625.361C514.445 624.25 514.156 623.025 514.156 621.783V618.98C514.156 616.55 513.051 614.251 511.154 612.733L510.786 612.439C509.882 611.716 509.146 610.805 508.628 609.77L501.722 595.957C501.166 594.846 500.877 593.621 500.877 592.379V589.875C500.877 589.015 500.738 588.161 500.466 587.345L496.473 575.365C496.248 574.691 495.935 574.049 495.54 573.458L489.34 564.157C488.815 563.37 488.154 562.682 487.389 562.125L479.484 556.376C478.58 555.718 477.548 555.258 476.455 555.023L466.325 552.853C465.34 552.642 464.403 552.246 463.564 551.687L462.633 551.066C462.204 550.78 461.748 550.536 461.272 550.338L450.606 545.894L437.609 541.562C436.794 541.29 435.939 541.151 435.08 541.151H430.206C428.085 541.151 426.05 540.308 424.55 538.808L421.648 535.906C420.147 534.406 418.113 533.563 415.991 533.563Z" fill="#451B75" stroke="black" stroke-width="2"/>
<path d="M290.737 415.602L295.179 420.598C296.326 421.888 297.861 422.77 299.554 423.108C300.951 423.387 302.25 424.033 303.291 425.006C306.604 428.098 311.174 432.678 311.174 433.969C311.174 435.248 310.275 442.457 309.614 447.531C309.403 449.151 308.461 450.583 307.06 451.423C305.487 452.367 303.54 452.442 301.899 451.622L295.049 448.196L287.43 443.117C286.821 442.711 286.271 442.223 285.794 441.667L281.292 436.415C280.979 436.05 280.699 435.656 280.456 435.24L274.89 425.698C274.421 424.894 273.816 424.179 273.101 423.583L270.34 421.282C269.134 420.277 268.25 418.939 267.799 417.435L266.473 413.015C265.938 411.232 264.797 409.69 263.248 408.658L261.411 407.433C260.451 406.793 259.641 405.953 259.036 404.97L252.746 394.748C252.493 394.338 252.278 393.905 252.103 393.455L246.089 377.992C245.848 377.372 245.531 376.785 245.144 376.243C241.828 371.61 236.007 363.545 235.292 362.83C234.533 362.071 233.079 356.823 232.447 354.293L230.809 346.104C230.637 345.246 230.326 344.422 229.888 343.664L220.524 327.492C220.253 327.023 220.03 326.527 219.858 326.013L217.722 319.603C217.423 318.708 216.969 317.872 216.379 317.135L215.066 315.494C214.032 314.201 213.424 312.619 213.327 310.966L212.623 298.995C212.561 297.939 212.219 296.918 211.632 296.038C210.979 295.059 210.631 293.909 210.631 292.732V280.309V255.647L212.528 239.523L215.373 217.707L216.149 209.953C216.263 208.812 216.621 207.709 217.199 206.718L222.962 196.839L226.756 188.303L230.15 182.871C230.966 181.566 232.488 180.88 234.007 181.133C235.843 181.439 237.189 183.028 237.189 184.89V186.856C237.189 187.807 236.968 188.746 236.542 189.597L231.498 199.685L227.762 206.41C227.102 207.598 226.756 208.935 226.756 210.295V213.921C226.756 215.163 226.466 216.388 225.911 217.499L223.806 221.709C223.251 222.82 222.962 224.044 222.962 225.286V238.574C223.278 244.898 223.91 257.924 223.91 259.442C223.91 260.959 224.542 268.294 224.859 271.772L226.584 292.48C226.697 293.829 227.149 295.127 227.9 296.254L229.444 298.569C230.17 299.658 230.618 300.909 230.748 302.211L231.24 307.132C231.408 308.81 232.101 310.391 233.221 311.651L238.185 317.235C238.782 317.907 239.261 318.674 239.603 319.504L245.457 333.721C245.636 334.156 245.853 334.574 246.105 334.97L252.366 344.808L256.924 350.885C257.669 351.879 258.172 353.032 258.395 354.254L259.318 359.332C259.698 361.421 261.371 363.032 263.473 363.333C265.375 363.604 266.944 364.957 267.515 366.792C268.533 370.061 269.825 374.036 270.387 375.161C271.336 377.058 273.233 383.697 273.233 384.646C273.233 385.167 274.728 386.018 276.176 386.704C277.342 387.257 278.414 388.003 279.254 388.983L281.741 391.884C282.983 393.334 283.667 395.181 283.667 397.09V401.22C283.667 402.688 284.496 404.031 285.81 404.688C286.854 405.21 287.608 406.175 287.861 407.315L288.907 412.022C289.203 413.352 289.833 414.584 290.737 415.602Z" fill="#451B75" stroke="black" stroke-width="2"/>
<path d="M315.947 483.991L317.813 485.324C320.158 486.999 321.421 489.805 321.119 492.671L320.207 501.339C319.925 504.02 317.664 506.056 314.968 506.056H303.586C302.396 506.056 300.741 504.502 299.624 503.222C299.085 502.603 298.503 502.019 297.836 501.542L285.564 492.777L275.13 485.188L265.594 479.987C264.998 479.662 264.363 479.414 263.704 479.249L254.658 476.988C253.769 476.766 252.924 476.392 252.161 475.883L245.578 471.494C245.046 471.14 244.474 470.85 243.874 470.632L235.668 467.648C234.792 467.33 233.867 467.167 232.934 467.167H226.756H211.698C209.229 467.167 206.899 466.027 205.383 464.078L203.099 461.142C201.845 459.529 200.02 458.457 198.001 458.146L189.633 456.859C189.089 456.775 188.555 456.636 188.04 456.442L183.647 454.795C182.074 454.205 180.354 454.125 178.733 454.568L172.32 456.317C171.312 456.592 170.26 456.666 169.223 456.537L163.205 455.784C159.411 455.152 151.633 454.267 150.874 455.784C150.116 457.302 147.396 458.314 146.132 458.63L140.82 460.148C139.941 460.399 139.112 460.799 138.368 461.33L133.637 464.71C133.116 465.082 132.553 465.388 131.962 465.633C128.606 467.028 123.112 469.575 122.419 470.961C122.03 471.739 120.627 471.885 119.053 471.758C116.375 471.541 113.604 472.013 111.564 473.761L108.533 476.359C108.306 476.554 108.056 476.719 107.789 476.853L105.752 477.871C104.258 478.618 102.5 477.532 102.5 475.861C102.5 475.164 102.824 474.506 103.377 474.08L113.559 466.248C114.398 465.602 115.101 464.796 115.627 463.876L116.818 461.791C117.966 459.783 119.927 458.37 122.195 457.916L127.293 456.896C127.836 456.788 128.367 456.623 128.876 456.405L133.99 454.213C134.495 453.996 134.976 453.729 135.426 453.414L143.281 447.915C143.914 447.473 144.607 447.124 145.339 446.88L154.714 443.755C155.314 443.555 155.888 443.284 156.424 442.949L161.905 439.524C162.764 438.987 163.717 438.618 164.714 438.437L173.639 436.814L183.209 435.342C184.996 435.067 186.824 435.406 188.394 436.303L190.764 437.657C191.973 438.348 193.341 438.711 194.734 438.711H195.569C197.905 438.711 200.123 439.732 201.643 441.505L202.545 442.557C204.065 444.33 206.284 445.351 208.619 445.351H220.315C221.435 445.351 222.542 445.586 223.564 446.04L228.998 448.455C230.021 448.91 231.128 449.145 232.247 449.145H236.065C237.424 449.145 238.762 449.491 239.95 450.152L246.675 453.887L250.039 455.57C251.551 456.326 253.264 456.583 254.932 456.305L257.006 455.96C257.703 455.843 258.413 455.82 259.117 455.89L264.7 456.449C266.538 456.633 268.255 457.446 269.561 458.752L272.296 461.487C273.52 462.711 275.108 463.505 276.821 463.75L284.821 464.893C286.534 465.137 288.122 465.931 289.346 467.155L290.853 468.662C291.12 468.929 291.407 469.178 291.71 469.405L297.853 474.012C298.509 474.504 299.086 475.095 299.562 475.762L301.193 478.044C302.694 480.147 305.119 481.394 307.702 481.394H307.978C308.838 481.394 309.692 481.533 310.508 481.805L313.827 482.911C314.583 483.163 315.298 483.527 315.947 483.991Z" fill="#451B75" stroke="black" stroke-width="2"/>
<path d="M315.14 521.232H317.668C320.152 521.232 322.495 522.386 324.009 524.354L325.99 526.93C328.77 530.544 327.972 535.747 324.237 538.362L323.673 538.756C322.328 539.698 320.727 540.202 319.085 540.202H315.09C314.379 540.202 313.671 540.297 312.986 540.484L303.585 543.048L294.731 546.59C294.311 546.758 293.878 546.89 293.436 546.984L281.65 549.51C281.099 549.628 280.537 549.688 279.973 549.688H263.368C262.989 549.688 262.611 549.714 262.236 549.768L252.371 551.177C250.528 551.441 248.835 552.338 247.583 553.716L240.496 561.511C240.189 561.849 239.912 562.212 239.666 562.597L234.646 570.487C233.829 571.77 233.395 573.26 233.395 574.782V576.103C233.395 577.442 233.059 578.759 232.418 579.934L228.681 586.786C228.04 587.961 227.704 589.278 227.704 590.617V591.704C227.704 593.372 227.183 594.997 226.214 596.354L222.961 600.908L218.889 607.423C218.445 608.134 218.115 608.91 217.912 609.723L216.629 614.857C216.425 615.67 216.096 616.446 215.652 617.156L206.837 631.26L198.106 642.61C197.606 643.26 197.209 643.983 196.929 644.754L194.035 652.711C193.719 653.58 193.255 654.388 192.663 655.098L184.763 664.578C184.305 665.128 183.922 665.737 183.626 666.389L180.176 673.978C179.621 675.2 178.767 676.262 177.693 677.068L174.942 679.131C172.927 680.642 171.742 683.013 171.742 685.531V687.026C171.742 688.986 171.023 690.877 169.721 692.341L166.174 696.331C164.872 697.796 164.153 699.687 164.153 701.646V710.461C164.153 712 163.654 713.498 162.731 714.729C161.807 715.961 161.308 717.459 161.308 718.998V727.06L159.558 742.812C159.46 743.687 159.508 744.572 159.699 745.431L160.992 751.247C161.201 752.188 161.238 753.159 161.102 754.114L159.977 761.99C159.62 764.482 160.459 766.997 162.239 768.778L164.656 771.194C166.156 772.695 166.999 774.729 166.999 776.851V780.776C166.999 781.636 167.138 782.49 167.41 783.306L168.896 787.765L171.282 798.106C171.584 799.412 172.208 800.621 173.098 801.622L177.309 806.359C178.611 807.824 179.33 809.715 179.33 811.674V814.929C179.33 815.776 179.546 816.609 179.957 817.35L181.073 819.359C182.419 821.781 180.668 824.757 177.897 824.757C176.461 824.757 175.16 823.912 174.577 822.6L172.587 818.123C172.033 816.876 171.168 815.791 170.076 814.972L165.664 811.663C164.671 810.918 163.862 809.953 163.318 808.836C161.944 806.021 160.028 801.949 159.411 800.096C158.747 798.104 157.55 791.608 156.838 787.474C156.655 786.415 156.268 785.401 155.691 784.495L150.416 776.205C150.09 775.693 149.824 775.145 149.622 774.573L144.967 761.384C144.488 760.026 144.384 758.565 144.666 757.153L145.976 750.601C146.08 750.085 146.132 749.559 146.132 749.032V732.371C146.132 731.993 146.159 731.615 146.212 731.24L147.948 719.086C148.002 718.712 148.029 718.334 148.029 717.955V701.45L149.662 688.382C149.835 687.001 150.365 685.688 151.2 684.574L161.308 671.098L166.051 662.561L174.023 651.045C174.398 650.504 174.838 650.011 175.333 649.578L180.991 644.627C181.773 643.943 182.414 643.113 182.879 642.184L185.969 636.003L190.712 628.414L195.905 620.995C196.847 619.651 197.352 618.049 197.352 616.408V616.28C197.352 614.321 198.071 612.429 199.372 610.965L202.919 606.975C204.221 605.51 204.94 603.619 204.94 601.66V597.992C204.94 597.408 205.004 596.826 205.13 596.256L206.11 591.849C206.575 589.756 207.861 587.937 209.679 586.8L211.985 585.359C213.562 584.373 214.747 582.869 215.335 581.105L217.808 573.684C218.08 572.868 218.219 572.014 218.219 571.154V561.854C218.219 560.712 218.463 559.583 218.936 558.544L222.961 549.688L226.926 539.379C227.436 538.055 228.288 536.89 229.396 536.004L235.379 531.217C236.562 530.271 237.988 529.68 239.493 529.513L254.263 527.872H261.383C263.504 527.872 265.539 527.029 267.039 525.529L267.792 524.776C268.867 523.701 270.228 522.954 271.713 522.624L277.118 521.423C277.688 521.296 278.27 521.232 278.854 521.232H289.358H297.102C297.629 521.232 298.154 521.284 298.671 521.387L305.478 522.749C306.727 522.999 308.019 522.946 309.244 522.596L312.942 521.54C313.656 521.336 314.396 521.232 315.14 521.232Z" fill="#451B75" stroke="black" stroke-width="2"/>
<path d="M330.612 534.511H332.24C333.36 534.511 334.467 534.746 335.489 535.201L337.724 536.194C340.613 537.478 342.475 540.343 342.475 543.504V544.954C342.475 546.195 342.186 547.42 341.63 548.531L340.326 551.139C339.282 553.228 337.377 554.756 335.111 555.323L332.163 556.06C331.453 556.237 330.77 556.511 330.134 556.875L324.453 560.121L318.744 563.384C318.126 563.737 317.559 564.17 317.056 564.673L312.568 569.16C311.068 570.661 309.033 571.503 306.911 571.503H304.526C303.284 571.503 302.059 571.793 300.948 572.348L298.222 573.711C297.378 574.133 296.466 574.402 295.528 574.507L290.145 575.105C289.001 575.232 287.899 575.604 286.912 576.196L280.467 580.063C279.451 580.673 278.583 581.5 277.926 582.485L273.233 589.525L267.023 599.283C266.737 599.733 266.497 600.209 266.306 600.706L262.384 610.903C262.032 611.82 261.851 612.793 261.851 613.775V620.704C261.851 621.415 261.756 622.122 261.569 622.808L259.174 631.588C259.062 632.001 258.916 632.404 258.739 632.794L254.263 642.642L251.417 651.179L247.623 663.51L244.24 673.66C243.968 674.476 243.829 675.33 243.829 676.19V684.976C243.829 685.836 243.69 686.69 243.418 687.506L240.285 696.905C240.119 697.404 239.903 697.887 239.642 698.344L237.035 702.907C236.511 703.824 236.173 704.835 236.042 705.883L235.292 711.884L234.436 721.307C234.375 721.978 234.229 722.639 234.003 723.273L230.067 734.292C229.759 735.155 229.601 736.066 229.601 736.983V745.681C229.601 746.541 229.74 747.395 230.012 748.211L232.232 754.872C232.375 755.301 232.481 755.74 232.55 756.186L234.251 767.242C234.313 767.644 234.344 768.051 234.344 768.458V775.721C234.344 776.162 234.38 776.602 234.453 777.036L235.089 780.853C235.224 781.662 235.233 782.488 235.117 783.3L234.721 786.074C234.476 787.787 233.682 789.375 232.458 790.599L231.168 791.89C230.143 792.915 229.416 794.199 229.064 795.606L227.222 802.973C226.916 804.199 226.904 805.481 227.188 806.712L229.601 817.169L232.447 824.757L235.292 833.294L238.907 844.137C239.026 844.496 239.171 844.846 239.341 845.185L241.471 849.446C241.777 850.058 242.003 850.706 242.144 851.376L245.563 867.614C245.671 868.13 245.831 868.633 246.038 869.117L248.572 875.029L255.211 891.154L258.612 897.105C258.874 897.563 259.089 898.045 259.256 898.545L262.366 907.875C262.653 908.736 263.084 909.541 263.641 910.257L268.806 916.899C269.226 917.439 269.575 918.03 269.845 918.659L271.81 923.245C272.124 923.976 272.573 924.641 273.136 925.203L274.974 927.041C276.963 929.03 276.516 932.367 274.073 933.763C272.943 934.409 271.58 934.504 270.372 934.02L265.39 932.027C263.712 931.357 262.311 930.137 261.415 928.569L259.606 925.403C259.208 924.706 258.917 923.953 258.743 923.169L257.461 917.404C257.228 916.356 256.786 915.364 256.162 914.49L252.837 909.835C252.524 909.396 252.255 908.927 252.036 908.434L249.846 903.507C249.027 901.663 247.541 900.197 245.687 899.402L245.482 899.315C243.239 898.353 241.558 896.421 240.916 894.067L239.341 888.293C239.172 887.673 238.929 887.075 238.616 886.513L234.344 878.823L230.318 869.967C229.846 868.927 229.601 867.798 229.601 866.656V863.483C229.601 861.176 228.605 858.981 226.869 857.462L222.878 853.969C222.304 853.468 221.805 852.887 221.396 852.244L216.624 844.745C215.807 843.461 215.374 841.971 215.374 840.45V833.008C215.374 832.567 215.337 832.127 215.265 831.692L213.674 822.15C213.543 821.363 213.295 820.601 212.939 819.887L207.785 809.581L201.251 798.147C200.561 796.938 200.197 795.57 200.197 794.177V790.714C200.197 789.401 200.521 788.108 201.138 786.949L206.844 776.251C207.462 775.092 207.785 773.799 207.785 772.486V760.952C207.785 759.868 208.005 758.796 208.432 757.8L210.251 753.556C210.504 752.968 210.684 752.351 210.789 751.72L213.476 735.597L216.144 723.146C216.263 722.595 216.322 722.034 216.322 721.47V706.695C216.322 705.736 216.495 704.784 216.831 703.886L218.658 699.015C218.995 698.116 219.168 697.165 219.168 696.206V687.394C219.168 686.651 219.271 685.911 219.475 685.197L220.757 680.712C220.961 679.997 221.065 679.257 221.065 678.514V657.81C221.065 656.568 221.354 655.343 221.909 654.232L224.441 649.169C224.718 648.614 224.931 648.028 225.073 647.424L228.439 633.118C228.581 632.514 228.793 631.928 229.071 631.373L231.602 626.31C232.158 625.199 232.447 623.974 232.447 622.732V619.929C232.447 617.499 233.552 615.2 235.449 613.682L235.817 613.387C236.721 612.664 237.458 611.754 237.975 610.718L244.881 596.906C245.437 595.795 245.726 594.57 245.726 593.328V590.824C245.726 589.964 245.865 589.109 246.137 588.294L250.13 576.314C250.355 575.639 250.668 574.998 251.063 574.406L257.263 565.106C257.788 564.318 258.449 563.63 259.214 563.074L267.119 557.324C268.023 556.667 269.055 556.206 270.148 555.972L280.278 553.801C281.264 553.59 282.2 553.195 283.039 552.635L283.97 552.015C284.399 551.729 284.855 551.485 285.331 551.286L295.997 546.842L308.994 542.51C309.809 542.238 310.664 542.099 311.523 542.099H316.397C318.518 542.099 320.553 541.257 322.053 539.756L324.955 536.854C326.456 535.354 328.49 534.511 330.612 534.511Z" fill="#451B75" stroke="black" stroke-width="2"/>
<rect x="20.5" y="32.5" width="706" height="1053" rx="27.5" stroke="#451B75" stroke-width="5"/>
</svg>
