<svg width="544" height="754" viewBox="0 0 544 754" fill="none" xmlns="http://www.w3.org/2000/svg">
<g clip-path="url(#clip0)">
<path d="M257.048 397.428C257.048 410.001 270.248 425.225 246.614 417.347C238.078 414.501 229.541 407.155 229.541 394.583C229.541 382.01 243.825 369.921 253.254 369.921C262.683 369.921 260.842 384.149 257.048 397.428Z" fill="#161616"/>
<path d="M284.435 397.428C284.435 410.001 271.236 425.225 294.869 417.347C303.406 414.501 311.942 407.155 311.942 394.583C311.942 382.01 297.659 369.921 288.229 369.921C278.8 369.921 280.641 384.149 284.435 397.428Z" fill="#161616"/>
<path d="M354.314 234.887L349.873 239.884C348.726 241.174 347.19 242.055 345.498 242.393C344.101 242.673 342.802 243.318 341.76 244.291C338.448 247.383 333.878 251.964 333.878 253.254C333.878 254.533 334.777 261.742 335.438 266.816C335.649 268.436 336.591 269.868 337.992 270.708C339.565 271.652 341.511 271.727 343.152 270.907L350.003 267.481L357.621 262.402C358.23 261.996 358.781 261.508 359.258 260.952L363.759 255.701C364.073 255.335 364.353 254.941 364.595 254.525L370.162 244.983C370.63 244.18 371.236 243.464 371.95 242.868L374.712 240.567C375.918 239.562 376.802 238.224 377.253 236.72L378.579 232.3C379.114 230.517 380.255 228.976 381.804 227.943L383.64 226.718C384.601 226.078 385.411 225.238 386.016 224.255L392.306 214.033C392.559 213.623 392.774 213.19 392.949 212.74L398.962 197.277C399.204 196.657 399.52 196.07 399.908 195.529C403.223 190.895 409.045 182.83 409.759 182.115C410.518 181.356 411.973 176.108 412.605 173.578L414.243 165.389C414.414 164.531 414.726 163.707 415.164 162.95L424.527 146.777C424.799 146.308 425.022 145.812 425.193 145.298L427.33 138.888C427.628 137.993 428.083 137.158 428.672 136.421L429.985 134.779C431.02 133.487 431.627 131.905 431.725 130.252L432.429 118.28C432.491 117.224 432.833 116.204 433.42 115.324C434.072 114.344 434.421 113.194 434.421 112.017V99.5941V74.9327L432.524 58.808L429.678 36.9921L428.903 29.2386C428.789 28.0975 428.431 26.9943 427.853 26.0037L422.09 16.1248L418.296 7.58813L414.901 2.15643C414.085 0.850919 412.564 0.164965 411.045 0.41806C409.208 0.724162 407.862 2.31321 407.862 4.17515V6.14111C407.862 7.09271 408.084 8.03124 408.509 8.88237L413.553 18.9703L417.289 25.6948C417.95 26.8833 418.296 28.2204 418.296 29.58V33.2065C418.296 34.4485 418.585 35.6734 419.141 36.7842L421.245 40.994C421.801 42.1049 422.09 43.3298 422.09 44.5718V57.8595C421.774 64.1829 421.142 77.2092 421.142 78.7268C421.142 80.2444 420.509 87.5796 420.193 91.0575L418.467 111.766C418.355 113.114 417.902 114.413 417.151 115.539L415.608 117.855C414.882 118.944 414.434 120.194 414.304 121.496L413.811 126.418C413.644 128.095 412.95 129.677 411.83 130.936L406.867 136.521C406.27 137.192 405.791 137.959 405.449 138.789L399.595 153.006C399.416 153.441 399.199 153.859 398.946 154.255L392.686 164.093L388.128 170.171C387.383 171.164 386.879 172.317 386.657 173.539L385.734 178.618C385.354 180.706 383.68 182.318 381.579 182.618C379.676 182.89 378.107 184.242 377.536 186.077C376.519 189.346 375.227 193.321 374.664 194.446C373.716 196.343 371.819 202.982 371.819 203.931C371.819 204.453 370.324 205.303 368.876 205.989C367.71 206.542 366.637 207.288 365.797 208.268L363.311 211.169C362.068 212.619 361.385 214.466 361.385 216.375V220.505C361.385 221.973 360.555 223.316 359.242 223.973C358.197 224.495 357.444 225.46 357.191 226.6L356.144 231.308C355.849 232.637 355.219 233.869 354.314 234.887Z" fill="#161616"/>
<path d="M330.053 305.173L328.187 306.506C325.842 308.181 324.579 310.987 324.881 313.853L325.793 322.521C326.075 325.203 328.336 327.238 331.032 327.238H342.415C343.604 327.238 345.259 325.685 346.376 324.404C346.915 323.786 347.497 323.201 348.164 322.724L360.436 313.959L370.87 306.371L380.406 301.169C381.002 300.844 381.637 300.596 382.296 300.431L391.342 298.17C392.231 297.948 393.076 297.574 393.839 297.065L400.423 292.676C400.954 292.322 401.526 292.033 402.126 291.814L410.332 288.83C411.208 288.512 412.133 288.349 413.066 288.349H419.244H434.302C436.771 288.349 439.101 287.209 440.617 285.26L442.901 282.324C444.155 280.711 445.98 279.639 447.999 279.328L456.367 278.041C456.911 277.957 457.445 277.818 457.96 277.625L462.353 275.977C463.926 275.387 465.646 275.308 467.267 275.75L473.68 277.499C474.688 277.774 475.74 277.848 476.777 277.719L482.795 276.967C486.589 276.334 494.367 275.449 495.126 276.967C495.884 278.484 498.604 279.496 499.868 279.812L505.18 281.33C506.059 281.581 506.888 281.981 507.632 282.512L512.363 285.892C512.884 286.264 513.447 286.57 514.038 286.815C517.394 288.21 522.888 290.757 523.581 292.143C523.97 292.921 525.373 293.067 526.947 292.94C529.625 292.723 532.396 293.195 534.436 294.943L537.467 297.541C537.694 297.736 537.944 297.902 538.211 298.035L540.248 299.053C541.742 299.8 543.5 298.714 543.5 297.043C543.5 296.346 543.176 295.688 542.623 295.262L532.441 287.43C531.602 286.784 530.899 285.978 530.373 285.058L529.182 282.974C528.034 280.965 526.073 279.552 523.805 279.098L518.707 278.078C518.164 277.97 517.633 277.805 517.124 277.587L512.01 275.395C511.505 275.179 511.024 274.911 510.574 274.596L502.719 269.097C502.086 268.655 501.393 268.306 500.661 268.062L491.286 264.937C490.686 264.737 490.112 264.467 489.576 264.131L484.095 260.706C483.236 260.169 482.283 259.8 481.286 259.619L472.361 257.996L462.791 256.524C461.004 256.249 459.176 256.588 457.606 257.485L455.236 258.839C454.027 259.53 452.659 259.893 451.266 259.893H450.431C448.095 259.893 445.877 260.914 444.357 262.687L443.455 263.739C441.935 265.512 439.716 266.533 437.381 266.533H425.685C424.565 266.533 423.458 266.768 422.436 267.222L417.002 269.637C415.979 270.092 414.872 270.327 413.753 270.327H409.935C408.576 270.327 407.238 270.673 406.05 271.334L399.326 275.07L395.961 276.752C394.449 277.508 392.736 277.765 391.068 277.487L388.994 277.142C388.297 277.025 387.587 277.002 386.883 277.073L381.3 277.631C379.462 277.815 377.745 278.629 376.439 279.934L373.704 282.669C372.48 283.893 370.892 284.687 369.179 284.932L361.179 286.075C359.466 286.319 357.878 287.113 356.654 288.337L355.147 289.844C354.88 290.111 354.593 290.36 354.29 290.587L348.147 295.194C347.491 295.686 346.914 296.277 346.438 296.944L344.807 299.226C343.306 301.329 340.881 302.577 338.298 302.577H338.022C337.162 302.577 336.308 302.715 335.492 302.987L332.174 304.093C331.417 304.345 330.702 304.709 330.053 305.173Z" fill="#161616"/>
<path d="M328.963 341.466H326.435C323.951 341.466 321.608 342.619 320.094 344.588L318.113 347.164C315.333 350.778 316.131 355.981 319.866 358.595L320.43 358.99C321.774 359.931 323.376 360.436 325.017 360.436H329.012C329.723 360.436 330.431 360.531 331.117 360.718L340.517 363.282L349.372 366.823C349.792 366.991 350.225 367.123 350.667 367.218L362.453 369.744C363.004 369.862 363.566 369.921 364.129 369.921H380.735C381.114 369.921 381.492 369.948 381.866 370.002L391.732 371.411C393.575 371.674 395.268 372.572 396.52 373.949L403.607 381.744C403.914 382.082 404.191 382.446 404.436 382.831L409.457 390.72C410.274 392.004 410.708 393.494 410.708 395.015V396.337C410.708 397.675 411.043 398.992 411.684 400.168L415.422 407.019C416.063 408.195 416.399 409.512 416.399 410.85V411.938C416.399 413.605 416.92 415.231 417.889 416.588L421.141 421.141L425.214 427.657C425.658 428.367 425.987 429.143 426.191 429.956L427.474 435.09C427.677 435.903 428.007 436.679 428.451 437.39L437.266 451.494L445.997 462.843C446.497 463.493 446.894 464.216 447.174 464.987L450.068 472.944C450.384 473.813 450.848 474.621 451.44 475.332L459.34 484.811C459.798 485.361 460.181 485.97 460.477 486.622L463.927 494.212C464.482 495.433 465.336 496.496 466.41 497.301L469.161 499.365C471.176 500.876 472.361 503.247 472.361 505.765V507.26C472.361 509.219 473.08 511.11 474.382 512.575L477.929 516.565C479.23 518.029 479.949 519.92 479.949 521.88V530.695C479.949 532.234 480.449 533.732 481.372 534.963C482.296 536.194 482.795 537.692 482.795 539.231V547.294L484.545 563.046C484.642 563.92 484.594 564.805 484.404 565.665L483.111 571.48C482.902 572.421 482.865 573.393 483.001 574.347L484.126 582.223C484.482 584.716 483.644 587.231 481.863 589.011L479.447 591.428C477.947 592.928 477.104 594.963 477.104 597.085V601.009C477.104 601.869 476.965 602.723 476.693 603.539L475.207 607.999L472.82 618.34C472.519 619.645 471.895 620.854 471.005 621.856L466.794 626.593C465.492 628.057 464.773 629.948 464.773 631.908V635.162C464.773 636.009 464.557 636.843 464.146 637.583L463.029 639.593C461.684 642.014 463.435 644.991 466.206 644.991C467.642 644.991 468.943 644.145 469.526 642.833L471.516 638.356C472.07 637.109 472.934 636.024 474.026 635.205L478.438 631.896C479.432 631.151 480.24 630.186 480.785 629.07C482.159 626.254 484.074 622.182 484.692 620.329C485.356 618.337 486.553 611.841 487.265 607.707C487.448 606.648 487.835 605.634 488.412 604.728L493.687 596.439C494.012 595.927 494.279 595.379 494.481 594.806L499.136 581.618C499.615 580.26 499.719 578.798 499.437 577.386L498.126 570.835C498.023 570.318 497.971 569.793 497.971 569.266V552.605C497.971 552.226 497.944 551.848 497.891 551.473L496.155 539.32C496.101 538.945 496.074 538.567 496.074 538.188V521.684L494.441 508.616C494.268 507.234 493.738 505.922 492.902 504.808L482.795 491.331L478.052 482.795L470.08 471.278C469.705 470.737 469.265 470.245 468.77 469.811L463.111 464.86C462.33 464.176 461.689 463.346 461.224 462.417L458.133 456.236L453.391 448.648L448.197 441.229C447.256 439.884 446.751 438.282 446.751 436.641V436.513C446.751 434.554 446.032 432.663 444.731 431.198L441.184 427.208C439.882 425.744 439.163 423.853 439.163 421.893V418.225C439.163 417.641 439.099 417.059 438.973 416.49L437.993 412.082C437.528 409.989 436.242 408.17 434.424 407.034L432.118 405.593C430.541 404.607 429.356 403.103 428.768 401.338L426.294 393.917C426.022 393.101 425.884 392.247 425.884 391.387V382.088C425.884 380.946 425.639 379.817 425.167 378.777L421.141 369.921L417.176 359.612C416.667 358.288 415.815 357.123 414.707 356.237L408.724 351.45C407.541 350.505 406.115 349.914 404.61 349.746L389.84 348.105H382.72C380.599 348.105 378.564 347.262 377.063 345.762L376.311 345.01C375.235 343.934 373.875 343.187 372.39 342.857L366.985 341.656C366.415 341.53 365.833 341.466 365.249 341.466H354.745H347.001C346.474 341.466 345.948 341.518 345.432 341.621L338.625 342.982C337.375 343.232 336.084 343.18 334.858 342.83L331.161 341.774C330.446 341.569 329.707 341.466 328.963 341.466Z" fill="#161616"/>
<path d="M313.491 352.848H311.863C310.744 352.848 309.637 353.083 308.614 353.537L306.38 354.53C303.491 355.814 301.629 358.679 301.629 361.841V363.29C301.629 364.532 301.918 365.757 302.473 366.868L303.777 369.476C304.822 371.565 306.727 373.093 308.992 373.659L311.94 374.396C312.651 374.574 313.333 374.848 313.969 375.211L319.651 378.458L325.36 381.72C325.977 382.073 326.545 382.507 327.048 383.009L331.535 387.497C333.035 388.997 335.07 389.84 337.192 389.84H339.578C340.82 389.84 342.045 390.129 343.156 390.685L345.881 392.047C346.726 392.47 347.638 392.739 348.576 392.843L353.959 393.441C355.102 393.568 356.205 393.94 357.191 394.532L363.637 398.4C364.653 399.009 365.52 399.836 366.177 400.822L370.87 407.862L377.08 417.62C377.366 418.069 377.606 418.546 377.798 419.043L381.719 429.24C382.072 430.156 382.253 431.13 382.253 432.112V439.04C382.253 439.751 382.347 440.459 382.535 441.145L384.929 449.925C385.042 450.338 385.187 450.741 385.364 451.13L389.841 460.979L392.686 469.515L396.48 481.846L399.864 491.997C400.136 492.812 400.274 493.667 400.274 494.526V503.312C400.274 504.172 400.413 505.026 400.685 505.842L403.818 515.241C403.985 515.741 404.2 516.223 404.462 516.68L407.069 521.243C407.593 522.16 407.93 523.172 408.061 524.22L408.811 530.22L409.668 539.643C409.729 540.314 409.874 540.975 410.101 541.61L414.036 552.628C414.345 553.492 414.502 554.402 414.502 555.319V564.017C414.502 564.877 414.364 565.731 414.092 566.547L411.871 573.209C411.728 573.637 411.622 574.076 411.554 574.522L409.853 585.578C409.791 585.981 409.76 586.387 409.76 586.795V594.057C409.76 594.498 409.723 594.938 409.651 595.372L409.015 599.189C408.88 599.999 408.87 600.824 408.986 601.636L409.383 604.41C409.627 606.124 410.421 607.712 411.645 608.936L412.935 610.226C413.961 611.251 414.688 612.536 415.04 613.942L416.881 621.309C417.188 622.536 417.2 623.817 416.915 625.049L414.502 635.506L411.657 643.094L408.811 651.63L405.197 662.473C405.077 662.832 404.932 663.182 404.763 663.521L402.632 667.782C402.326 668.394 402.1 669.042 401.959 669.712L398.541 685.95C398.432 686.466 398.273 686.969 398.065 687.454L395.532 693.365L388.892 709.49L385.491 715.442C385.23 715.899 385.014 716.381 384.848 716.881L381.738 726.212C381.451 727.072 381.02 727.877 380.463 728.593L375.297 735.235C374.877 735.775 374.528 736.366 374.259 736.995L372.293 741.581C371.98 742.312 371.53 742.977 370.968 743.539L369.13 745.377C367.14 747.367 367.587 750.703 370.03 752.099C371.16 752.745 372.523 752.84 373.732 752.356L378.714 750.364C380.391 749.693 381.792 748.474 382.688 746.905L384.497 743.739C384.896 743.042 385.187 742.289 385.361 741.506L386.642 735.741C386.875 734.692 387.317 733.701 387.942 732.826L391.267 728.171C391.58 727.733 391.848 727.263 392.067 726.771L394.257 721.843C395.077 719.999 396.562 718.533 398.416 717.739L398.621 717.651C400.864 716.69 402.546 714.757 403.188 712.403L404.762 706.63C404.932 706.009 405.175 705.412 405.487 704.849L409.76 697.159L413.785 688.303C414.258 687.263 414.502 686.135 414.502 684.993V681.819C414.502 679.512 415.498 677.317 417.234 675.798L421.226 672.306C421.799 671.804 422.298 671.223 422.707 670.58L427.479 663.081C428.296 661.797 428.73 660.307 428.73 658.786V651.344C428.73 650.903 428.766 650.463 428.839 650.029L430.429 640.486C430.56 639.7 430.808 638.937 431.165 638.224L436.318 627.917L442.852 616.483C443.543 615.274 443.906 613.906 443.906 612.514V609.05C443.906 607.737 443.583 606.444 442.965 605.285L437.259 594.587C436.641 593.428 436.318 592.135 436.318 590.822V579.288C436.318 578.205 436.098 577.133 435.671 576.137L433.852 571.892C433.6 571.304 433.419 570.687 433.314 570.056L430.627 553.933L427.959 541.483C427.841 540.932 427.781 540.37 427.781 539.806V525.031C427.781 524.072 427.609 523.121 427.272 522.222L425.445 517.351C425.108 516.453 424.936 515.501 424.936 514.542V505.731C424.936 504.988 424.832 504.248 424.628 503.533L423.347 499.048C423.142 498.333 423.039 497.594 423.039 496.85V476.146C423.039 474.904 422.75 473.68 422.194 472.569L419.663 467.506C419.385 466.95 419.173 466.365 419.031 465.76L415.665 451.455C415.523 450.85 415.311 450.265 415.033 449.709L412.501 444.646C411.946 443.535 411.657 442.31 411.657 441.068V438.265C411.657 435.835 410.552 433.536 408.654 432.018L408.286 431.724C407.382 431.001 406.646 430.09 406.128 429.055L399.222 415.242C398.667 414.131 398.377 412.906 398.377 411.664V409.16C398.377 408.3 398.239 407.446 397.967 406.63L393.974 394.65C393.749 393.976 393.435 393.334 393.041 392.743L386.841 383.443C386.315 382.655 385.655 381.967 384.889 381.41L376.984 375.661C376.08 375.003 375.048 374.543 373.955 374.308L363.826 372.138C362.84 371.927 361.903 371.531 361.064 370.972L360.133 370.351C359.704 370.065 359.249 369.821 358.773 369.623L348.106 365.179L335.11 360.847C334.294 360.575 333.44 360.436 332.58 360.436H327.707C325.585 360.436 323.55 359.593 322.05 358.093L319.148 355.191C317.648 353.691 315.613 352.848 313.491 352.848Z" fill="#161616"/>
<path d="M188.238 234.887L192.679 239.884C193.826 241.174 195.362 242.055 197.054 242.393C198.451 242.673 199.75 243.318 200.792 244.291C204.104 247.383 208.674 251.964 208.674 253.254C208.674 254.533 207.775 261.742 207.114 266.816C206.903 268.436 205.961 269.868 204.56 270.708C202.987 271.652 201.04 271.727 199.399 270.907L192.549 267.481L184.931 262.402C184.321 261.996 183.771 261.508 183.294 260.952L178.793 255.701C178.479 255.335 178.199 254.941 177.956 254.525L172.39 244.983C171.921 244.18 171.316 243.464 170.601 242.868L167.84 240.567C166.634 239.562 165.75 238.224 165.299 236.72L163.973 232.3C163.438 230.517 162.297 228.976 160.748 227.943L158.911 226.718C157.951 226.078 157.141 225.238 156.536 224.255L150.246 214.033C149.993 213.623 149.778 213.19 149.603 212.74L143.59 197.277C143.348 196.657 143.031 196.07 142.644 195.529C139.328 190.895 133.507 182.83 132.792 182.115C132.034 181.356 130.579 176.108 129.947 173.578L128.309 165.389C128.137 164.531 127.826 163.707 127.388 162.95L118.025 146.777C117.753 146.308 117.53 145.812 117.358 145.298L115.222 138.888C114.923 137.993 114.469 137.158 113.879 136.421L112.566 134.779C111.532 133.487 110.924 131.905 110.827 130.252L110.123 118.28C110.061 117.224 109.719 116.204 109.132 115.324C108.479 114.344 108.131 113.194 108.131 112.017V99.5941V74.9327L110.028 58.808L112.874 36.9921L113.649 29.2386C113.763 28.0975 114.121 26.9943 114.699 26.0037L120.462 16.1248L124.256 7.58813L127.651 2.15643C128.467 0.850919 129.988 0.164965 131.507 0.41806C133.343 0.724162 134.689 2.31321 134.689 4.17515V6.14111C134.689 7.09271 134.468 8.03124 134.042 8.88237L128.998 18.9703L125.263 25.6948C124.602 26.8833 124.256 28.2204 124.256 29.58V33.2065C124.256 34.4485 123.967 35.6734 123.411 36.7842L121.306 40.994C120.751 42.1049 120.462 43.3298 120.462 44.5718V57.8595C120.778 64.1829 121.41 77.2092 121.41 78.7268C121.41 80.2444 122.043 87.5796 122.359 91.0575L124.084 111.766C124.197 113.114 124.65 114.413 125.4 115.539L126.944 117.855C127.67 118.944 128.118 120.194 128.248 121.496L128.74 126.418C128.908 128.095 129.601 129.677 130.721 130.936L135.685 136.521C136.282 137.192 136.761 137.959 137.103 138.789L142.957 153.006C143.136 153.441 143.353 153.859 143.605 154.255L149.866 164.093L154.424 170.171C155.169 171.164 155.672 172.317 155.895 173.539L156.818 178.618C157.198 180.706 158.871 182.318 160.973 182.618C162.876 182.89 164.444 184.242 165.015 186.077C166.033 189.346 167.325 193.321 167.888 194.446C168.836 196.343 170.733 202.982 170.733 203.931C170.733 204.453 172.228 205.303 173.676 205.989C174.842 206.542 175.914 207.288 176.754 208.268L179.241 211.169C180.484 212.619 181.167 214.466 181.167 216.375V220.505C181.167 221.973 181.997 223.316 183.31 223.973C184.354 224.495 185.108 225.46 185.361 226.6L186.407 231.308C186.703 232.637 187.333 233.869 188.238 234.887Z" fill="#161616"/>
<path d="M213.447 303.276L215.313 304.609C217.658 306.284 218.921 309.09 218.619 311.956L217.707 320.624C217.425 323.305 215.164 325.341 212.468 325.341H201.085C199.896 325.341 198.241 323.787 197.124 322.507C196.585 321.888 196.003 321.304 195.336 320.827L183.064 312.062L172.63 304.473L163.094 299.272C162.498 298.947 161.863 298.699 161.204 298.534L152.158 296.273C151.269 296.051 150.424 295.677 149.661 295.168L143.077 290.779C142.546 290.425 141.974 290.135 141.374 289.917L133.168 286.933C132.292 286.615 131.367 286.452 130.434 286.452H124.256H109.198C106.729 286.452 104.399 285.312 102.883 283.363L100.599 280.427C99.3447 278.814 97.5205 277.742 95.5008 277.431L87.1328 276.144C86.589 276.06 86.0554 275.921 85.5403 275.727L81.1471 274.08C79.5736 273.49 77.8544 273.41 76.2332 273.853L69.82 275.602C68.8119 275.877 67.7597 275.951 66.7228 275.822L60.7051 275.069C56.911 274.437 49.1332 273.552 48.3743 275.069C47.6155 276.587 44.8964 277.599 43.6318 277.915L38.3203 279.433C37.4414 279.684 36.612 280.084 35.8681 280.615L31.1366 283.995C30.6158 284.367 30.0529 284.673 29.4618 284.918C26.1061 286.313 20.612 288.86 19.9188 290.246C19.5298 291.024 18.1266 291.17 16.5531 291.043C13.8754 290.826 11.1036 291.298 9.06382 293.046L6.03267 295.644C5.80581 295.839 5.55596 296.004 5.28871 296.138L3.25218 297.156C1.75802 297.903 0 296.817 0 295.146C0 294.449 0.324057 293.791 0.877061 293.365L11.0587 285.533C11.8983 284.887 12.6014 284.081 13.1269 283.161L14.3182 281.076C15.466 279.068 17.4269 277.655 19.6953 277.201L24.7931 276.181C25.3362 276.073 25.8665 275.908 26.3756 275.69L31.4901 273.498C31.9951 273.282 32.4764 273.014 32.9265 272.699L40.7811 267.2C41.4135 266.758 42.1067 266.409 42.839 266.165L52.2139 263.04C52.8138 262.84 53.3879 262.569 53.9241 262.234L59.4048 258.809C60.2638 258.272 61.217 257.903 62.2137 257.722L71.1387 256.099L80.7089 254.627C82.4964 254.352 84.3243 254.691 85.8945 255.588L88.2645 256.942C89.4732 257.633 90.8414 257.996 92.2336 257.996H93.0692C95.4046 257.996 97.6234 259.017 99.1432 260.79L100.045 261.842C101.565 263.615 103.784 264.636 106.119 264.636H117.815C118.935 264.636 120.042 264.871 121.064 265.325L126.498 267.74C127.521 268.195 128.628 268.43 129.747 268.43H133.565C134.924 268.43 136.262 268.776 137.45 269.437L144.174 273.172L147.539 274.855C149.051 275.611 150.764 275.868 152.432 275.59L154.506 275.245C155.203 275.128 155.913 275.105 156.617 275.176L162.2 275.734C164.038 275.918 165.755 276.731 167.061 278.037L169.796 280.772C171.02 281.996 172.608 282.79 174.321 283.035L182.321 284.178C184.034 284.422 185.622 285.216 186.846 286.44L188.353 287.947C188.62 288.214 188.907 288.463 189.21 288.69L195.353 293.297C196.009 293.789 196.586 294.38 197.062 295.047L198.693 297.329C200.194 299.432 202.619 300.679 205.202 300.679H205.478C206.338 300.679 207.192 300.818 208.008 301.09L211.326 302.196C212.083 302.448 212.798 302.812 213.447 303.276Z" fill="#161616"/>
<path d="M212.64 340.517H215.168C217.652 340.517 219.995 341.671 221.509 343.639L223.49 346.215C226.27 349.829 225.472 355.032 221.737 357.647L221.173 358.041C219.829 358.983 218.227 359.487 216.586 359.487H212.591C211.88 359.487 211.172 359.582 210.486 359.769L201.086 362.333L192.231 365.875C191.811 366.043 191.378 366.175 190.936 366.269L179.15 368.795C178.599 368.913 178.037 368.973 177.474 368.973H160.868C160.489 368.973 160.111 368.999 159.737 369.053L149.871 370.462C148.028 370.726 146.335 371.623 145.083 373.001L137.996 380.796C137.689 381.133 137.412 381.497 137.167 381.882L132.146 389.772C131.329 391.055 130.895 392.545 130.895 394.067V395.388C130.895 396.727 130.56 398.044 129.919 399.219L126.181 406.071C125.54 407.246 125.204 408.563 125.204 409.902V410.989C125.204 412.656 124.683 414.282 123.714 415.639L120.462 420.192L116.39 426.708C115.945 427.419 115.616 428.195 115.412 429.008L114.129 434.142C113.926 434.955 113.596 435.731 113.152 436.441L104.337 450.545L95.6063 461.895C95.1063 462.545 94.7092 463.268 94.4289 464.039L91.5354 471.996C91.2193 472.865 90.7549 473.673 90.1628 474.383L82.2633 483.863C81.8049 484.413 81.4224 485.022 81.1261 485.674L77.6764 493.263C77.1211 494.485 76.2672 495.547 75.1935 496.352L72.4418 498.416C70.4274 499.927 69.2418 502.298 69.2418 504.816V506.311C69.2418 508.271 68.5228 510.162 67.2211 511.626L63.6744 515.616C62.3727 517.081 61.6537 518.972 61.6537 520.931V529.746C61.6537 531.285 61.1545 532.783 60.2309 534.014C59.3074 535.246 58.8082 536.743 58.8082 538.283V546.345L57.0579 562.097C56.9607 562.972 57.0086 563.857 57.1995 564.716L58.4919 570.532C58.701 571.473 58.7383 572.444 58.602 573.398L57.4768 581.274C57.1207 583.767 57.959 586.282 59.7396 588.063L62.1561 590.479C63.6564 591.979 64.4993 594.014 64.4993 596.136V600.061C64.4993 600.921 64.6379 601.775 64.9098 602.591L66.3963 607.05L68.7827 617.391C69.084 618.697 69.7083 619.906 70.5985 620.907L74.8092 625.644C76.1109 627.108 76.83 629 76.83 630.959V634.214C76.83 635.061 77.0459 635.894 77.4574 636.635L78.5736 638.644C79.9191 641.066 78.1678 644.042 75.3973 644.042C73.9613 644.042 72.6601 643.196 72.0769 641.884L70.0872 637.408C69.5329 636.16 68.6686 635.076 67.5767 634.257L63.1645 630.948C62.171 630.202 61.3627 629.237 60.8181 628.121C59.4445 625.306 57.5287 621.233 56.9111 619.381C56.2471 617.388 55.0503 610.892 54.3379 606.758C54.1555 605.699 53.7683 604.686 53.1914 603.779L47.9165 595.49C47.5905 594.978 47.3239 594.43 47.1219 593.858L42.467 580.669C41.9878 579.311 41.8839 577.849 42.1663 576.437L43.4765 569.886C43.5799 569.37 43.6319 568.844 43.6319 568.317V551.656C43.6319 551.278 43.6588 550.899 43.7123 550.525L45.4485 538.371C45.5021 537.996 45.5289 537.618 45.5289 537.24V520.735L47.1624 507.667C47.3351 506.285 47.8653 504.973 48.7007 503.859L58.8082 490.383L63.5507 481.846L71.5235 470.33C71.898 469.789 72.3378 469.296 72.833 468.863L78.4916 463.912C79.2734 463.227 79.9145 462.398 80.379 461.469L83.4696 455.287L88.2122 447.699L93.4056 440.28C94.3469 438.935 94.8518 437.334 94.8518 435.692V435.565C94.8518 433.605 95.5708 431.714 96.8725 430.25L100.419 426.26C101.721 424.795 102.44 422.904 102.44 420.945V417.277C102.44 416.693 102.504 416.111 102.63 415.541L103.61 411.134C104.075 409.041 105.361 407.222 107.179 406.085L109.485 404.644C111.062 403.658 112.247 402.154 112.835 400.39L115.309 392.969C115.581 392.153 115.719 391.299 115.719 390.439V381.139C115.719 379.997 115.964 378.868 116.436 377.829L120.462 368.973L124.427 358.664C124.936 357.34 125.788 356.175 126.896 355.289L132.879 350.502C134.062 349.556 135.488 348.965 136.993 348.798L151.763 347.157H158.883C161.004 347.157 163.039 346.314 164.54 344.814L165.292 344.061C166.368 342.986 167.728 342.239 169.213 341.909L174.618 340.708C175.188 340.581 175.77 340.517 176.354 340.517H186.858H194.602C195.129 340.517 195.655 340.569 196.171 340.672L202.978 342.034C204.228 342.284 205.519 342.231 206.745 341.881L210.442 340.825C211.157 340.621 211.896 340.517 212.64 340.517Z" fill="#161616"/>
<path d="M228.112 353.796H229.74C230.859 353.796 231.966 354.031 232.989 354.486L235.223 355.479C238.112 356.763 239.974 359.628 239.974 362.789V364.239C239.974 365.481 239.685 366.705 239.13 367.816L237.826 370.424C236.781 372.513 234.876 374.041 232.611 374.608L229.663 375.345C228.952 375.522 228.27 375.796 227.634 376.16L221.952 379.406L216.243 382.669C215.626 383.022 215.058 383.455 214.555 383.958L210.068 388.445C208.568 389.946 206.533 390.788 204.411 390.788H202.025C200.783 390.788 199.558 391.078 198.447 391.633L195.722 392.996C194.878 393.418 193.965 393.687 193.027 393.792L187.644 394.39C186.501 394.517 185.398 394.889 184.412 395.481L177.966 399.348C176.951 399.958 176.083 400.785 175.426 401.77L170.733 408.81L164.523 418.568C164.237 419.018 163.997 419.494 163.805 419.991L159.884 430.188C159.531 431.105 159.35 432.078 159.35 433.06V439.988C159.35 440.7 159.256 441.407 159.068 442.093L156.674 450.873C156.561 451.286 156.416 451.689 156.239 452.079L151.762 461.927L148.917 470.464L145.123 482.795L141.739 492.945C141.467 493.761 141.329 494.615 141.329 495.475V504.261C141.329 505.121 141.19 505.975 140.918 506.79L137.785 516.19C137.618 516.689 137.403 517.171 137.141 517.629L134.534 522.192C134.01 523.109 133.673 524.12 133.542 525.168L132.792 531.169L131.935 540.592C131.874 541.263 131.729 541.924 131.502 542.558L127.567 553.577C127.258 554.44 127.101 555.35 127.101 556.267V564.966C127.101 565.826 127.239 566.68 127.511 567.496L129.732 574.157C129.875 574.585 129.981 575.025 130.049 575.471L131.75 586.527C131.812 586.929 131.843 587.336 131.843 587.743V595.006C131.843 595.446 131.88 595.886 131.952 596.321L132.588 600.138C132.723 600.947 132.733 601.772 132.617 602.584L132.22 605.359C131.976 607.072 131.182 608.66 129.958 609.884L128.668 611.174C127.642 612.2 126.915 613.484 126.563 614.891L124.722 622.258C124.415 623.484 124.403 624.765 124.688 625.997L127.101 636.454L129.946 644.042L132.792 652.579L136.406 663.422C136.526 663.781 136.671 664.131 136.84 664.47L138.971 668.731C139.277 669.342 139.503 669.991 139.644 670.66L143.062 686.899C143.171 687.414 143.33 687.918 143.538 688.402L146.071 694.314L152.711 710.438L156.112 716.39C156.373 716.848 156.589 717.33 156.755 717.829L159.866 727.16C160.152 728.02 160.583 728.826 161.14 729.542L166.306 736.184C166.726 736.723 167.075 737.315 167.344 737.944L169.31 742.53C169.623 743.261 170.073 743.925 170.635 744.488L172.473 746.325C174.463 748.315 174.016 751.652 171.573 753.048C170.443 753.694 169.08 753.788 167.871 753.305L162.889 751.312C161.212 750.641 159.811 749.422 158.915 747.853L157.106 744.688C156.707 743.991 156.416 743.238 156.242 742.454L154.961 736.689C154.728 735.64 154.286 734.649 153.661 733.775L150.336 729.12C150.023 728.681 149.755 728.212 149.536 727.719L147.346 722.791C146.526 720.948 145.041 719.482 143.187 718.687L142.982 718.6C140.739 717.638 139.057 715.706 138.415 713.351L136.841 707.578C136.671 706.958 136.428 706.36 136.116 705.798L131.843 698.108L127.818 689.251C127.345 688.212 127.101 687.083 127.101 685.941V682.767C127.101 680.461 126.105 678.266 124.369 676.747L120.377 673.254C119.804 672.752 119.305 672.171 118.896 671.529L114.124 664.029C113.307 662.746 112.873 661.256 112.873 659.734V652.292C112.873 651.852 112.837 651.412 112.764 650.977L111.174 641.435C111.043 640.648 110.795 639.885 110.438 639.172L105.285 628.866L98.7508 617.431C98.0601 616.223 97.6968 614.854 97.6968 613.462V609.999C97.6968 608.685 98.02 607.393 98.638 606.234L104.344 595.536C104.962 594.377 105.285 593.084 105.285 591.771V580.237C105.285 579.153 105.505 578.081 105.932 577.085L107.751 572.841C108.003 572.252 108.184 571.636 108.289 571.005L110.976 554.882L113.644 542.431C113.762 541.88 113.822 541.318 113.822 540.755V525.98C113.822 525.021 113.994 524.069 114.331 523.171L116.158 518.299C116.495 517.401 116.667 516.45 116.667 515.49V506.679C116.667 505.936 116.771 505.196 116.975 504.482L118.256 499.997C118.461 499.282 118.564 498.542 118.564 497.799V477.095C118.564 475.853 118.853 474.628 119.409 473.517L121.94 468.454C122.218 467.899 122.43 467.313 122.572 466.709L125.938 452.403C126.08 451.799 126.293 451.213 126.57 450.658L129.102 445.595C129.657 444.484 129.946 443.259 129.946 442.017V439.214C129.946 436.783 131.051 434.485 132.949 432.967L133.317 432.672C134.221 431.949 134.957 431.038 135.475 430.003L142.381 416.191C142.936 415.08 143.226 413.855 143.226 412.613V410.109C143.226 409.249 143.364 408.394 143.636 407.579L147.629 395.599C147.854 394.924 148.168 394.283 148.562 393.691L154.763 384.391C155.288 383.604 155.948 382.915 156.714 382.359L164.619 376.61C165.523 375.952 166.555 375.491 167.648 375.257L177.777 373.086C178.763 372.875 179.7 372.48 180.539 371.92L181.47 371.3C181.899 371.014 182.354 370.77 182.83 370.571L193.497 366.127L206.493 361.795C207.309 361.523 208.163 361.385 209.023 361.385H213.896C216.018 361.385 218.053 360.542 219.553 359.041L222.455 356.14C223.955 354.639 225.99 353.796 228.112 353.796Z" fill="#161616"/>
<path d="M345.26 246.614C345.26 298.999 298.941 314.907 272.224 314.907C245.508 314.907 197.292 298.999 197.292 246.614C197.292 194.229 245.508 125.204 272.224 125.204C298.941 125.204 345.26 194.229 345.26 246.614Z" fill="#161616"/>
<path d="M331.032 326.41C331.032 349.983 306.275 369.093 272.224 369.093C238.174 369.093 210.571 349.983 210.571 326.41C210.571 302.837 221.004 279.933 272.224 298.903C329.135 276.138 331.032 302.837 331.032 326.41Z" fill="#161616"/>
<ellipse cx="271.275" cy="360.436" rx="34.1466" ry="34.1466" fill="#161616"/>
<path d="M195.1 298.445L273.324 269.336C276.269 268.24 279.454 267.953 282.547 268.505C293.165 270.4 299.591 281.317 296.095 291.52L292.308 302.569L293.254 302.893L292.276 302.685C289.922 313.706 282.099 322.761 271.537 326.692L236.891 339.584C227.455 343.095 216.894 341.705 208.688 335.873L208.446 335.701C207.268 334.864 206.029 334.118 204.738 333.469L193.489 327.814C184.511 323.3 181.845 311.738 187.941 303.749C189.778 301.34 192.261 299.501 195.1 298.445Z" fill="#851939" stroke="black" stroke-width="2"/>
<rect x="216.058" y="348.981" width="81.0786" height="14.799" rx="7.39949" transform="rotate(-20.4112 216.058 348.981)" fill="#DFB74F" stroke="black" stroke-width="2"/>
<path d="M247.749 324.55L247.784 324.258L247.655 323.994L233.358 294.735L229.312 275.978C229.046 274.743 229.727 273.501 230.91 273.061C232.087 272.623 233.408 273.111 234.017 274.209L243.35 291.018L251.513 322.553L251.59 322.85L251.821 323.053L256.729 327.376L255.754 332.728L251.108 334.457L246.991 331.001L247.749 324.55Z" fill="#DFB74F" stroke="black" stroke-width="2"/>
<path d="M216.976 341.936C219.412 343.044 221.827 343.987 223.903 344.543L220.969 345.635C209.252 345.096 201.018 339.099 195.878 335.354C195.238 334.888 194.645 334.457 194.1 334.075C191.772 331.42 189.296 328.305 187.325 325.654C186.329 324.314 185.466 323.099 184.821 322.129C184.149 321.12 183.775 320.467 183.677 320.204C183.017 318.43 182.061 313.412 182.018 308.551C181.996 306.127 182.203 303.823 182.747 302.022C183.299 300.194 184.124 299.107 185.173 298.717L185.265 298.682L185.349 298.631C189.841 295.864 195.587 293.307 207.806 292.374L193.694 298.465L193.475 298.559L193.322 298.743C190.49 302.141 189.239 305.41 189.286 309.839C189.309 312.041 189.811 315.15 190.649 318.099C191.478 321.019 192.687 323.959 194.218 325.704C197.014 328.888 198.85 330.805 203.812 334.478C206.588 336.533 211.905 339.629 216.976 341.936Z" fill="#DFB74F" stroke="black" stroke-width="2"/>
<path d="M286.453 316.063C285.334 318.493 284.123 320.786 282.915 322.563L285.85 321.472C294.364 313.405 296.674 303.483 298.117 297.29C298.296 296.518 298.462 295.805 298.625 295.16C298.652 291.628 298.489 287.652 298.247 284.358C298.125 282.693 297.984 281.21 297.838 280.053C297.687 278.851 297.543 278.112 297.445 277.85C296.785 276.075 294.228 271.653 291.083 267.946C289.515 266.098 287.852 264.49 286.263 263.482C284.65 262.459 283.315 262.176 282.267 262.567L282.175 262.601L282.078 262.617C276.869 263.46 270.85 265.281 260.993 272.562L275.654 267.946L275.881 267.875L276.117 267.914C280.481 268.634 283.565 270.29 286.425 273.672C287.847 275.353 289.5 278.035 290.793 280.813C292.074 283.565 293.082 286.581 293.063 288.902C293.03 293.14 292.894 295.79 291.54 301.813C290.782 305.183 288.782 311.002 286.453 316.063Z" fill="#DFB74F" stroke="black" stroke-width="2"/>
<path d="M218.67 283.107C221.038 282.963 223.361 283.582 225.423 285.512L214.951 289.408L214.702 289.501L214.531 289.706C211.684 293.123 210.136 297.657 210.183 302.063C210.206 304.264 210.708 307.374 211.546 310.323C212.375 313.243 213.584 316.183 215.115 317.928C215.805 318.714 216.358 319.409 216.885 320.072C218.392 321.968 219.691 323.603 223.404 326.351C224.724 327.328 226.38 328.735 228.211 330.293L228.272 330.345C230.074 331.878 232.028 333.541 233.93 335.015C235.845 336.499 237.757 337.832 239.447 338.651C239.488 338.672 239.53 338.692 239.572 338.712L235.224 340.33C233.846 340.33 232.17 339.806 230.288 338.87C228.351 337.907 226.293 336.559 224.259 335.077C222.228 333.596 220.247 332.003 218.458 330.558C218.369 330.486 218.28 330.414 218.192 330.342C216.524 328.994 215.011 327.771 213.827 326.947L213.799 326.928L213.77 326.91C211.221 325.386 208.396 322.032 206.085 318.74C204.945 317.116 203.956 315.544 203.218 314.285C202.463 312.998 202.009 312.103 201.899 311.806C201.784 311.499 201.695 310.9 201.689 309.985C201.684 309.098 201.756 308.005 201.902 306.768C202.196 304.296 202.781 301.313 203.594 298.375C204.409 295.433 205.443 292.575 206.619 290.335C207.207 289.216 207.818 288.277 208.437 287.564C209.06 286.846 209.648 286.41 210.177 286.213L210.269 286.179L210.352 286.127C212.938 284.535 215.857 283.278 218.67 283.107Z" fill="#DFB74F" stroke="black" stroke-width="2"/>
<path d="M246.72 272.669C244.834 274.108 243.481 276.095 243.182 278.903L253.654 275.006L253.903 274.914L254.166 274.957C258.554 275.681 262.69 278.101 265.535 281.466C266.956 283.147 268.609 285.828 269.903 288.607C271.184 291.359 272.192 294.374 272.173 296.695C272.165 297.741 272.201 298.628 272.236 299.475C272.335 301.895 272.42 303.982 271.407 308.488C271.047 310.09 270.713 312.237 270.346 314.614L270.334 314.693C269.973 317.031 269.581 319.567 269.105 321.926C268.626 324.301 268.051 326.559 267.308 328.284C267.29 328.327 267.271 328.369 267.252 328.412L271.601 326.793C272.644 325.892 273.569 324.401 274.382 322.462C275.218 320.467 275.894 318.101 276.464 315.65C277.034 313.202 277.491 310.702 277.9 308.438C277.92 308.326 277.94 308.213 277.96 308.102C278.341 305.991 278.687 304.077 279.044 302.679L279.052 302.646L279.063 302.613C279.995 299.794 279.941 295.409 279.538 291.408C279.339 289.433 279.06 287.597 278.795 286.162C278.525 284.694 278.283 283.72 278.173 283.423C278.058 283.116 277.735 282.604 277.141 281.908C276.565 281.233 275.796 280.453 274.877 279.613C273.039 277.934 270.646 276.059 268.11 274.368C265.57 272.674 262.919 271.187 260.565 270.261C259.388 269.798 258.312 269.487 257.378 269.352C256.436 269.216 255.707 269.27 255.178 269.467L255.086 269.501L254.989 269.517C251.991 270.002 248.961 270.959 246.72 272.669Z" fill="#DFB74F" stroke="black" stroke-width="2"/>
<circle cx="242.092" cy="302.704" r="2.55436" transform="rotate(-20.4112 242.092 302.704)" fill="white" stroke="black"/>
<circle cx="239.323" cy="295.261" r="2.55436" transform="rotate(-20.4112 239.323 295.261)" fill="white" stroke="black"/>
<circle cx="236.553" cy="287.818" r="2.55436" transform="rotate(-20.4112 236.553 287.818)" fill="white" stroke="black"/>
<circle cx="244.862" cy="310.146" r="2.55436" transform="rotate(-20.4112 244.862 310.146)" fill="white" stroke="black"/>
<circle cx="256.26" cy="340.776" r="2.55436" transform="rotate(-20.4112 256.26 340.776)" fill="#B52C55" stroke="black"/>
<circle cx="235.077" cy="348.659" r="2.55436" transform="rotate(-20.4112 235.077 348.659)" fill="#B52C55" stroke="black"/>
<circle cx="277.443" cy="332.894" r="2.55436" transform="rotate(-20.4112 277.443 332.894)" fill="#B52C55" stroke="black"/>
<path d="M248.062 343.827C248.108 343.949 248.085 344.227 247.704 344.635C247.345 345.019 246.76 345.407 246.027 345.68C245.293 345.953 244.596 346.042 244.074 345.986C243.519 345.926 243.32 345.73 243.274 345.608C243.229 345.486 243.252 345.208 243.633 344.8C243.991 344.416 244.577 344.028 245.31 343.755C246.044 343.482 246.74 343.393 247.262 343.449C247.818 343.509 248.017 343.705 248.062 343.827Z" fill="#F1D899" stroke="black"/>
<path d="M226.879 351.709C226.925 351.831 226.901 352.11 226.52 352.518C226.162 352.902 225.577 353.29 224.843 353.563C224.11 353.836 223.413 353.925 222.891 353.868C222.336 353.809 222.137 353.613 222.091 353.491C222.046 353.369 222.069 353.091 222.45 352.683C222.808 352.299 223.393 351.91 224.127 351.638C224.86 351.365 225.557 351.276 226.079 351.332C226.634 351.392 226.834 351.587 226.879 351.709Z" fill="#F1D899" stroke="black"/>
<path d="M290.429 328.061C290.474 328.184 290.451 328.462 290.07 328.87C289.712 329.254 289.126 329.642 288.393 329.915C287.659 330.188 286.963 330.277 286.441 330.22C285.885 330.161 285.686 329.965 285.641 329.843C285.595 329.721 285.618 329.443 285.999 329.035C286.358 328.651 286.943 328.263 287.676 327.99C288.41 327.717 289.107 327.628 289.629 327.684C290.184 327.744 290.383 327.939 290.429 328.061Z" fill="#F1D899" stroke="black"/>
<path d="M269.245 335.944C269.291 336.066 269.268 336.344 268.887 336.753C268.528 337.136 267.943 337.525 267.21 337.798C266.476 338.07 265.78 338.159 265.258 338.103C264.702 338.043 264.503 337.848 264.458 337.726C264.412 337.604 264.435 337.325 264.816 336.917C265.175 336.533 265.76 336.145 266.493 335.872C267.227 335.599 267.923 335.51 268.445 335.567C269.001 335.627 269.2 335.822 269.245 335.944Z" fill="#F1D899" stroke="black"/>
<circle cx="233.497" cy="280.482" r="2.55436" transform="rotate(-20.4112 233.497 280.482)" fill="white" stroke="black"/>
<circle cx="206.024" cy="316.125" r="2.55436" transform="rotate(-20.4112 206.024 316.125)" fill="white" stroke="black"/>
<circle cx="202.682" cy="308.896" r="2.55436" transform="rotate(-20.4112 202.682 308.896)" fill="white" stroke="black"/>
<circle cx="202.488" cy="300.494" r="2.55436" transform="rotate(-20.4112 202.488 300.494)" fill="white" stroke="black"/>
<circle cx="211.083" cy="322.716" r="2.55436" transform="rotate(-20.4112 211.083 322.716)" fill="white" stroke="black"/>
<circle cx="205.444" cy="290.921" r="2.55436" transform="rotate(-20.4112 205.444 290.921)" fill="white" stroke="black"/>
<circle cx="186.232" cy="325.12" r="2.55436" transform="rotate(-20.4112 186.232 325.12)" fill="white" stroke="black"/>
<circle cx="182.031" cy="318.21" r="2.55436" transform="rotate(-20.4112 182.031 318.21)" fill="white" stroke="black"/>
<circle cx="182.124" cy="309.702" r="2.55436" transform="rotate(-20.4112 182.124 309.702)" fill="white" stroke="black"/>
<circle cx="191.864" cy="331.497" r="2.55436" transform="rotate(-20.4112 191.864 331.497)" fill="white" stroke="black"/>
<circle cx="183.648" cy="300.661" r="2.55436" transform="rotate(-20.4112 183.648 300.661)" fill="white" stroke="black"/>
<circle r="2.55436" transform="matrix(-0.937214 0.348755 0.348755 0.937214 299.018 283.15)" fill="white" stroke="black"/>
<circle r="2.55436" transform="matrix(-0.937214 0.348755 0.348755 0.937214 297.68 275.175)" fill="white" stroke="black"/>
<circle r="2.55436" transform="matrix(-0.937214 0.348755 0.348755 0.937214 292.048 268.797)" fill="white" stroke="black"/>
<circle r="2.55436" transform="matrix(-0.937214 0.348755 0.348755 0.937214 298.925 291.658)" fill="white" stroke="black"/>
<circle r="2.55436" transform="matrix(-0.937214 0.348755 0.348755 0.937214 284.984 262.952)" fill="white" stroke="black"/>
<circle r="2.55436" transform="matrix(-0.937214 0.348755 0.348755 0.937214 278.161 289.282)" fill="white" stroke="black"/>
<circle r="2.55436" transform="matrix(-0.937214 0.348755 0.348755 0.937214 275.964 281.626)" fill="white" stroke="black"/>
<circle r="2.55436" transform="matrix(-0.937214 0.348755 0.348755 0.937214 270.618 275.142)" fill="white" stroke="black"/>
<circle r="2.55436" transform="matrix(-0.937214 0.348755 0.348755 0.937214 278.641 297.577)" fill="white" stroke="black"/>
<circle r="2.55436" transform="matrix(-0.937214 0.348755 0.348755 0.937214 262.123 269.83)" fill="white" stroke="black"/>
</g>
<defs>
<clipPath id="clip0">
<rect width="544" height="754" fill="white"/>
</clipPath>
</defs>
</svg>
