<svg width="747" height="1112" viewBox="0 0 747 1112" fill="none" xmlns="http://www.w3.org/2000/svg">
<g clip-path="url(#clip0)">
<rect width="747" height="1112" rx="50" fill="#520F23"/>
<g filter="url(#filter0_d)">
<path d="M359.048 579.428C359.048 592.001 372.248 607.225 348.614 599.347C340.078 596.501 331.541 589.155 331.541 576.583C331.541 564.01 345.825 551.921 355.254 551.921C364.683 551.921 362.842 566.149 359.048 579.428Z" fill="#851939"/>
<path d="M386.435 579.428C386.435 592.001 373.236 607.225 396.869 599.347C405.406 596.501 413.942 589.155 413.942 576.583C413.942 564.01 399.659 551.921 390.229 551.921C380.8 551.921 382.641 566.149 386.435 579.428Z" fill="#851939"/>
<path d="M456.314 416.887L451.873 421.884C450.726 423.174 449.19 424.055 447.498 424.393C446.101 424.673 444.802 425.318 443.76 426.291C440.448 429.383 435.878 433.964 435.878 435.254C435.878 436.533 436.777 443.742 437.438 448.816C437.649 450.436 438.591 451.868 439.992 452.708C441.565 453.652 443.512 453.727 445.153 452.907L452.003 449.481L459.621 444.402C460.231 443.996 460.781 443.508 461.258 442.952L465.759 437.701C466.073 437.335 466.353 436.941 466.596 436.525L472.162 426.983C472.631 426.18 473.236 425.464 473.951 424.868L476.712 422.567C477.918 421.562 478.802 420.224 479.253 418.72L480.579 414.3C481.114 412.517 482.255 410.976 483.804 409.943L485.64 408.718C486.601 408.078 487.411 407.238 488.016 406.255L494.306 396.033C494.559 395.623 494.774 395.19 494.949 394.74L500.962 379.277C501.204 378.657 501.52 378.07 501.908 377.529C505.224 372.895 511.045 364.83 511.759 364.115C512.518 363.356 513.973 358.108 514.605 355.578L516.243 347.389C516.415 346.531 516.726 345.707 517.164 344.95L526.527 328.777C526.799 328.308 527.022 327.812 527.193 327.298L529.33 320.888C529.629 319.993 530.083 319.158 530.673 318.421L531.986 316.779C533.02 315.487 533.628 313.905 533.725 312.252L534.429 300.28C534.491 299.224 534.833 298.204 535.42 297.324C536.073 296.344 536.421 295.194 536.421 294.017V281.594V256.933L534.524 240.808L531.678 218.992L530.903 211.239C530.789 210.098 530.431 208.994 529.853 208.004L524.09 198.125L520.296 189.588L516.901 184.156C516.085 182.851 514.564 182.165 513.045 182.418C511.209 182.724 509.862 184.313 509.862 186.175V188.141C509.862 189.093 510.084 190.031 510.51 190.882L515.554 200.97L519.289 207.695C519.95 208.883 520.296 210.22 520.296 211.58V215.207C520.296 216.448 520.585 217.673 521.141 218.784L523.246 222.994C523.801 224.105 524.09 225.33 524.09 226.572V239.859C523.774 246.183 523.142 259.209 523.142 260.727C523.142 262.244 522.509 269.58 522.193 273.058L520.467 293.766C520.355 295.114 519.902 296.413 519.152 297.539L517.608 299.855C516.882 300.944 516.434 302.194 516.304 303.496L515.812 308.418C515.644 310.095 514.951 311.677 513.831 312.936L508.867 318.521C508.27 319.192 507.791 319.959 507.449 320.789L501.595 335.006C501.416 335.441 501.199 335.859 500.947 336.255L494.686 346.093L490.128 352.171C489.383 353.164 488.879 354.317 488.657 355.539L487.734 360.618C487.354 362.706 485.681 364.318 483.579 364.618C481.676 364.89 480.108 366.242 479.536 368.077C478.519 371.346 477.227 375.321 476.664 376.446C475.716 378.343 473.819 384.982 473.819 385.931C473.819 386.453 472.324 387.303 470.876 387.989C469.71 388.542 468.638 389.288 467.798 390.268L465.311 393.169C464.068 394.619 463.385 396.466 463.385 398.375V402.505C463.385 403.973 462.555 405.316 461.242 405.973C460.197 406.495 459.444 407.46 459.191 408.6L458.145 413.308C457.849 414.637 457.219 415.869 456.314 416.887Z" fill="#851939"/>
<path d="M432.053 487.173L430.187 488.506C427.842 490.181 426.579 492.987 426.881 495.853L427.793 504.521C428.075 507.203 430.336 509.238 433.032 509.238H444.415C445.604 509.238 447.259 507.685 448.376 506.404C448.915 505.786 449.497 505.201 450.164 504.724L462.436 495.959L472.87 488.371L482.406 483.169C483.002 482.844 483.637 482.596 484.296 482.431L493.342 480.17C494.231 479.948 495.076 479.574 495.839 479.065L502.423 474.676C502.954 474.322 503.526 474.033 504.126 473.814L512.332 470.83C513.208 470.512 514.133 470.349 515.066 470.349H521.244H536.302C538.771 470.349 541.101 469.209 542.617 467.26L544.901 464.324C546.155 462.711 547.98 461.639 549.999 461.328L558.367 460.041C558.911 459.957 559.445 459.818 559.96 459.625L564.353 457.977C565.926 457.387 567.646 457.308 569.267 457.75L575.68 459.499C576.688 459.774 577.74 459.848 578.777 459.719L584.795 458.967C588.589 458.334 596.367 457.449 597.126 458.967C597.884 460.484 600.604 461.496 601.868 461.812L607.18 463.33C608.059 463.581 608.888 463.981 609.632 464.512L614.363 467.892C614.884 468.264 615.447 468.57 616.038 468.815C619.394 470.21 624.888 472.757 625.581 474.143C625.97 474.921 627.373 475.067 628.947 474.94C631.625 474.723 634.396 475.195 636.436 476.943L639.467 479.541C639.694 479.736 639.944 479.902 640.211 480.035L642.248 481.053C643.742 481.8 645.5 480.714 645.5 479.043C645.5 478.346 645.176 477.688 644.623 477.262L634.441 469.43C633.602 468.784 632.899 467.978 632.373 467.058L631.182 464.974C630.034 462.965 628.073 461.552 625.805 461.098L620.707 460.078C620.164 459.97 619.633 459.805 619.124 459.587L614.01 457.395C613.505 457.179 613.024 456.911 612.574 456.596L604.719 451.097C604.086 450.655 603.393 450.306 602.661 450.062L593.286 446.937C592.686 446.737 592.112 446.467 591.576 446.131L586.095 442.706C585.236 442.169 584.283 441.8 583.286 441.619L574.361 439.996L564.791 438.524C563.004 438.249 561.176 438.588 559.606 439.485L557.236 440.839C556.027 441.53 554.659 441.893 553.266 441.893H552.431C550.095 441.893 547.877 442.914 546.357 444.687L545.455 445.739C543.935 447.512 541.716 448.533 539.381 448.533H527.685C526.565 448.533 525.458 448.768 524.436 449.222L519.002 451.637C517.979 452.092 516.872 452.327 515.753 452.327H511.935C510.576 452.327 509.238 452.673 508.05 453.334L501.326 457.07L497.961 458.752C496.449 459.508 494.736 459.765 493.068 459.487L490.994 459.142C490.297 459.025 489.587 459.002 488.883 459.073L483.3 459.631C481.462 459.815 479.745 460.629 478.439 461.934L475.704 464.669C474.48 465.893 472.892 466.687 471.179 466.932L463.179 468.075C461.466 468.319 459.878 469.113 458.654 470.337L457.147 471.844C456.88 472.111 456.593 472.36 456.29 472.587L450.147 477.194C449.491 477.686 448.914 478.277 448.438 478.944L446.807 481.226C445.306 483.329 442.881 484.577 440.298 484.577H440.022C439.162 484.577 438.308 484.715 437.492 484.987L434.174 486.093C433.417 486.345 432.702 486.709 432.053 487.173Z" fill="#851939"/>
<path d="M430.963 523.466H428.435C425.951 523.466 423.608 524.619 422.094 526.588L420.113 529.164C417.333 532.778 418.131 537.98 421.866 540.595L422.43 540.99C423.774 541.931 425.376 542.436 427.017 542.436H431.012C431.723 542.436 432.431 542.531 433.117 542.718L442.517 545.282L451.372 548.823C451.792 548.991 452.225 549.123 452.667 549.218L464.453 551.744C465.004 551.862 465.566 551.921 466.129 551.921H482.735C483.114 551.921 483.492 551.948 483.866 552.002L493.732 553.411C495.575 553.674 497.268 554.572 498.52 555.949L505.607 563.744C505.914 564.082 506.191 564.445 506.436 564.831L511.457 572.72C512.274 574.004 512.708 575.494 512.708 577.015V578.337C512.708 579.675 513.043 580.992 513.684 582.167L517.422 589.019C518.063 590.195 518.399 591.512 518.399 592.85V593.938C518.399 595.605 518.92 597.231 519.889 598.588L523.141 603.141L527.214 609.657C527.658 610.367 527.987 611.143 528.191 611.956L529.474 617.09C529.677 617.903 530.007 618.679 530.451 619.39L539.266 633.493L547.997 644.843C548.497 645.493 548.894 646.216 549.174 646.987L552.068 654.944C552.384 655.813 552.848 656.621 553.44 657.332L561.34 666.811C561.798 667.361 562.181 667.97 562.477 668.622L565.927 676.212C566.482 677.433 567.336 678.496 568.41 679.301L571.161 681.365C573.176 682.876 574.361 685.247 574.361 687.765V689.26C574.361 691.219 575.08 693.11 576.382 694.575L579.929 698.565C581.23 700.029 581.949 701.92 581.949 703.88V712.695C581.949 714.234 582.449 715.731 583.372 716.963C584.296 718.194 584.795 719.692 584.795 721.231V729.294L586.545 745.046C586.642 745.92 586.594 746.805 586.404 747.665L585.111 753.48C584.902 754.421 584.865 755.393 585.001 756.347L586.126 764.223C586.482 766.716 585.644 769.231 583.863 771.011L581.447 773.428C579.947 774.928 579.104 776.963 579.104 779.085V783.009C579.104 783.869 578.965 784.723 578.693 785.539L577.207 789.999L574.82 800.34C574.519 801.645 573.895 802.854 573.005 803.856L568.794 808.593C567.492 810.057 566.773 811.948 566.773 813.908V817.162C566.773 818.009 566.557 818.843 566.146 819.583L565.029 821.593C563.684 824.014 565.435 826.991 568.206 826.991C569.642 826.991 570.943 826.145 571.526 824.833L573.516 820.356C574.07 819.109 574.934 818.024 576.026 817.205L580.438 813.896C581.432 813.151 582.24 812.186 582.785 811.07C584.159 808.254 586.074 804.182 586.692 802.329C587.356 800.337 588.553 793.841 589.265 789.707C589.448 788.648 589.835 787.634 590.412 786.728L595.687 778.439C596.012 777.926 596.279 777.379 596.481 776.806L601.136 763.618C601.615 762.26 601.719 760.798 601.437 759.386L600.126 752.835C600.023 752.318 599.971 751.793 599.971 751.266V734.605C599.971 734.226 599.944 733.848 599.891 733.473L598.155 721.32C598.101 720.945 598.074 720.567 598.074 720.188V703.684L596.441 690.616C596.268 689.234 595.738 687.922 594.902 686.808L584.795 673.331L580.052 664.795L572.08 653.278C571.705 652.737 571.265 652.245 570.77 651.811L565.111 646.86C564.33 646.176 563.689 645.346 563.224 644.417L560.133 638.236L555.391 630.648L550.197 623.229C549.256 621.884 548.751 620.282 548.751 618.641V618.513C548.751 616.554 548.032 614.663 546.731 613.198L543.184 609.208C541.882 607.744 541.163 605.853 541.163 603.893V600.225C541.163 599.641 541.099 599.059 540.973 598.49L539.993 594.082C539.528 591.989 538.242 590.17 536.424 589.034L534.118 587.593C532.541 586.607 531.356 585.103 530.768 583.338L528.294 575.917C528.022 575.101 527.884 574.247 527.884 573.387V564.088C527.884 562.946 527.639 561.817 527.167 560.777L523.141 551.921L519.176 541.612C518.667 540.288 517.815 539.123 516.707 538.237L510.724 533.45C509.541 532.504 508.115 531.914 506.61 531.746L491.84 530.105H484.72C482.599 530.105 480.564 529.262 479.063 527.762L478.311 527.01C477.235 525.934 475.875 525.187 474.39 524.857L468.985 523.656C468.415 523.53 467.833 523.466 467.249 523.466H456.745H449.001C448.474 523.466 447.948 523.518 447.432 523.621L440.625 524.982C439.375 525.232 438.084 525.18 436.858 524.83L433.161 523.773C432.446 523.569 431.707 523.466 430.963 523.466Z" fill="#851939"/>
<path d="M415.491 534.848H413.863C412.744 534.848 411.637 535.083 410.614 535.537L408.38 536.53C405.491 537.814 403.629 540.679 403.629 543.841V545.29C403.629 546.532 403.918 547.757 404.473 548.868L405.777 551.476C406.822 553.565 408.727 555.093 410.992 555.659L413.94 556.396C414.651 556.574 415.333 556.848 415.969 557.211L421.651 560.458L427.36 563.72C427.977 564.073 428.545 564.507 429.048 565.009L433.535 569.497C435.035 570.997 437.07 571.84 439.192 571.84H441.578C442.82 571.84 444.045 572.129 445.156 572.685L447.881 574.047C448.726 574.47 449.638 574.739 450.576 574.843L455.959 575.441C457.102 575.568 458.205 575.94 459.191 576.532L465.637 580.4C466.653 581.009 467.52 581.836 468.177 582.822L472.87 589.862L479.08 599.62C479.366 600.069 479.606 600.546 479.798 601.043L483.719 611.24C484.072 612.156 484.253 613.13 484.253 614.112V621.04C484.253 621.751 484.347 622.459 484.535 623.145L486.929 631.925C487.042 632.338 487.187 632.741 487.364 633.13L491.841 642.979L494.686 651.515L498.48 663.846L501.864 673.997C502.136 674.812 502.274 675.667 502.274 676.526V685.312C502.274 686.172 502.413 687.026 502.685 687.842L505.818 697.241C505.985 697.741 506.2 698.223 506.462 698.68L509.069 703.243C509.593 704.16 509.93 705.172 510.061 706.22L510.811 712.22L511.668 721.643C511.729 722.314 511.874 722.975 512.101 723.61L516.036 734.628C516.345 735.492 516.502 736.402 516.502 737.319V746.017C516.502 746.877 516.364 747.731 516.092 748.547L513.871 755.209C513.728 755.637 513.622 756.076 513.554 756.522L511.853 767.578C511.791 767.981 511.76 768.387 511.76 768.795V776.057C511.76 776.498 511.723 776.938 511.651 777.372L511.015 781.189C510.88 781.999 510.87 782.824 510.986 783.636L511.383 786.41C511.627 788.124 512.421 789.712 513.645 790.936L514.935 792.226C515.961 793.251 516.688 794.536 517.04 795.942L518.881 803.309C519.188 804.536 519.2 805.817 518.915 807.049L516.502 817.506L513.657 825.094L510.811 833.63L507.197 844.473C507.077 844.832 506.932 845.182 506.763 845.521L504.632 849.782C504.326 850.394 504.1 851.042 503.959 851.712L500.541 867.95C500.432 868.466 500.273 868.969 500.065 869.454L497.532 875.365L490.892 891.49L487.491 897.442C487.23 897.899 487.014 898.381 486.848 898.881L483.738 908.212C483.451 909.072 483.02 909.877 482.463 910.593L477.297 917.235C476.877 917.775 476.528 918.366 476.259 918.995L474.293 923.581C473.98 924.312 473.53 924.977 472.968 925.539L471.13 927.377C469.14 929.367 469.587 932.703 472.03 934.099C473.16 934.745 474.523 934.84 475.732 934.356L480.714 932.364C482.391 931.693 483.792 930.474 484.688 928.905L486.497 925.739C486.896 925.042 487.187 924.289 487.361 923.506L488.642 917.741C488.875 916.692 489.317 915.701 489.942 914.826L493.267 910.171C493.58 909.733 493.848 909.263 494.067 908.771L496.257 903.843C497.077 901.999 498.562 900.533 500.416 899.739L500.621 899.651C502.864 898.69 504.546 896.757 505.188 894.403L506.762 888.63C506.932 888.009 507.175 887.412 507.487 886.849L511.76 879.159L515.785 870.303C516.258 869.263 516.502 868.135 516.502 866.993V863.819C516.502 861.512 517.498 859.317 519.234 857.798L523.226 854.306C523.799 853.804 524.298 853.223 524.707 852.58L529.479 845.081C530.296 843.797 530.73 842.307 530.73 840.786V833.344C530.73 832.903 530.766 832.463 530.839 832.029L532.429 822.486C532.56 821.7 532.808 820.937 533.165 820.224L538.318 809.917L544.852 798.483C545.543 797.274 545.906 795.906 545.906 794.514V791.05C545.906 789.737 545.583 788.444 544.965 787.285L539.259 776.587C538.641 775.428 538.318 774.135 538.318 772.822V761.288C538.318 760.205 538.098 759.133 537.671 758.137L535.852 753.892C535.6 753.304 535.419 752.687 535.314 752.056L532.627 735.933L529.959 723.483C529.841 722.932 529.781 722.37 529.781 721.806V707.031C529.781 706.072 529.609 705.121 529.272 704.222L527.445 699.351C527.108 698.453 526.936 697.501 526.936 696.542V687.731C526.936 686.987 526.832 686.248 526.628 685.533L525.347 681.048C525.142 680.333 525.039 679.594 525.039 678.85V658.146C525.039 656.904 524.75 655.68 524.194 654.569L521.663 649.506C521.385 648.95 521.173 648.365 521.031 647.76L517.665 633.455C517.523 632.85 517.311 632.265 517.033 631.709L514.501 626.646C513.946 625.535 513.657 624.31 513.657 623.068V620.265C513.657 617.835 512.552 615.536 510.654 614.018L510.286 613.724C509.382 613.001 508.646 612.09 508.128 611.055L501.222 597.242C500.667 596.131 500.377 594.906 500.377 593.664V591.16C500.377 590.3 500.239 589.446 499.967 588.63L495.974 576.65C495.749 575.976 495.435 575.334 495.041 574.743L488.841 565.442C488.315 564.655 487.655 563.967 486.889 563.41L478.984 557.661C478.08 557.003 477.048 556.543 475.955 556.308L465.826 554.138C464.84 553.927 463.903 553.531 463.064 552.972L462.133 552.351C461.704 552.065 461.249 551.821 460.773 551.623L450.106 547.179L437.11 542.847C436.294 542.575 435.44 542.436 434.58 542.436H429.707C427.585 542.436 425.55 541.593 424.05 540.093L421.148 537.191C419.648 535.691 417.613 534.848 415.491 534.848Z" fill="#851939"/>
<path d="M290.237 416.887L294.679 421.884C295.826 423.174 297.361 424.055 299.054 424.393C300.451 424.673 301.75 425.318 302.791 426.291C306.104 429.383 310.674 433.964 310.674 435.254C310.674 436.533 309.775 443.742 309.114 448.816C308.903 450.436 307.961 451.868 306.56 452.708C304.987 453.652 303.04 453.727 301.399 452.907L294.549 449.481L286.93 444.402C286.321 443.996 285.771 443.508 285.294 442.952L280.792 437.701C280.479 437.335 280.199 436.941 279.956 436.525L274.39 426.983C273.921 426.18 273.316 425.464 272.601 424.868L269.84 422.567C268.634 421.562 267.75 420.224 267.299 418.72L265.973 414.3C265.438 412.517 264.297 410.976 262.748 409.943L260.911 408.718C259.951 408.078 259.141 407.238 258.536 406.255L252.246 396.033C251.993 395.623 251.778 395.19 251.603 394.74L245.589 379.277C245.348 378.657 245.031 378.07 244.644 377.529C241.328 372.895 235.507 364.83 234.792 364.115C234.033 363.356 232.579 358.108 231.947 355.578L230.309 347.389C230.137 346.531 229.826 345.707 229.388 344.95L220.024 328.777C219.753 328.308 219.53 327.812 219.358 327.298L217.222 320.888C216.923 319.993 216.469 319.158 215.879 318.421L214.566 316.779C213.532 315.487 212.924 313.905 212.827 312.252L212.123 300.28C212.061 299.224 211.719 298.204 211.132 297.324C210.479 296.344 210.131 295.194 210.131 294.017V281.594V256.933L212.028 240.808L214.873 218.992L215.649 211.239C215.763 210.098 216.121 208.994 216.699 208.004L222.462 198.125L226.256 189.588L229.65 184.156C230.466 182.851 231.988 182.165 233.507 182.418C235.343 182.724 236.689 184.313 236.689 186.175V188.141C236.689 189.093 236.468 190.031 236.042 190.882L230.998 200.97L227.262 207.695C226.602 208.883 226.256 210.22 226.256 211.58V215.207C226.256 216.448 225.966 217.673 225.411 218.784L223.306 222.994C222.751 224.105 222.462 225.33 222.462 226.572V239.859C222.778 246.183 223.41 259.209 223.41 260.727C223.41 262.244 224.042 269.58 224.359 273.058L226.084 293.766C226.197 295.114 226.649 296.413 227.4 297.539L228.944 299.855C229.67 300.944 230.118 302.194 230.248 303.496L230.74 308.418C230.908 310.095 231.601 311.677 232.721 312.936L237.685 318.521C238.282 319.192 238.761 319.959 239.103 320.789L244.957 335.006C245.136 335.441 245.353 335.859 245.605 336.255L251.866 346.093L256.424 352.171C257.169 353.164 257.672 354.317 257.895 355.539L258.818 360.618C259.198 362.706 260.871 364.318 262.973 364.618C264.875 364.89 266.444 366.242 267.015 368.077C268.033 371.346 269.325 375.321 269.887 376.446C270.836 378.343 272.733 384.982 272.733 385.931C272.733 386.453 274.228 387.303 275.676 387.989C276.842 388.542 277.914 389.288 278.754 390.268L281.241 393.169C282.483 394.619 283.167 396.466 283.167 398.375V402.505C283.167 403.973 283.996 405.316 285.31 405.973C286.354 406.495 287.108 407.46 287.361 408.6L288.407 413.308C288.703 414.637 289.333 415.869 290.237 416.887Z" fill="#851939"/>
<path d="M315.447 485.276L317.313 486.609C319.658 488.284 320.921 491.09 320.619 493.956L319.707 502.624C319.425 505.305 317.164 507.341 314.468 507.341H303.085C301.896 507.341 300.241 505.788 299.124 504.507C298.585 503.888 298.003 503.304 297.336 502.827L285.064 494.062L274.63 486.474L265.094 481.272C264.498 480.947 263.863 480.699 263.204 480.534L254.158 478.273C253.269 478.051 252.424 477.677 251.661 477.168L245.077 472.779C244.546 472.425 243.974 472.135 243.374 471.917L235.168 468.933C234.292 468.615 233.367 468.452 232.434 468.452H226.256H211.198C208.729 468.452 206.399 467.312 204.883 465.363L202.599 462.427C201.345 460.814 199.52 459.742 197.501 459.431L189.133 458.144C188.589 458.06 188.055 457.921 187.54 457.728L183.147 456.08C181.574 455.49 179.854 455.41 178.233 455.853L171.82 457.602C170.812 457.877 169.76 457.951 168.723 457.822L162.705 457.07C158.911 456.437 151.133 455.552 150.374 457.07C149.616 458.587 146.896 459.599 145.632 459.915L140.32 461.433C139.441 461.684 138.612 462.084 137.868 462.615L133.137 465.995C132.616 466.367 132.053 466.673 131.462 466.918C128.106 468.313 122.612 470.86 121.919 472.246C121.53 473.024 120.127 473.17 118.553 473.043C115.875 472.826 113.104 473.298 111.064 475.046L108.033 477.644C107.806 477.839 107.556 478.004 107.289 478.138L105.252 479.156C103.758 479.903 102 478.817 102 477.146C102 476.449 102.324 475.791 102.877 475.365L113.059 467.533C113.898 466.887 114.601 466.081 115.127 465.161L116.318 463.077C117.466 461.068 119.427 459.655 121.695 459.201L126.793 458.181C127.336 458.073 127.867 457.908 128.376 457.69L133.49 455.498C133.995 455.282 134.476 455.014 134.926 454.699L142.781 449.2C143.414 448.758 144.107 448.409 144.839 448.165L154.214 445.04C154.814 444.84 155.388 444.569 155.924 444.234L161.405 440.809C162.264 440.272 163.217 439.903 164.214 439.722L173.139 438.099L182.709 436.627C184.496 436.352 186.324 436.691 187.894 437.588L190.264 438.942C191.473 439.633 192.841 439.996 194.234 439.996H195.069C197.405 439.996 199.623 441.017 201.143 442.79L202.045 443.842C203.565 445.615 205.784 446.636 208.119 446.636H219.815C220.935 446.636 222.042 446.871 223.064 447.325L228.498 449.74C229.521 450.195 230.628 450.43 231.747 450.43H235.565C236.924 450.43 238.262 450.776 239.45 451.437L246.174 455.173L249.539 456.855C251.051 457.611 252.764 457.868 254.432 457.59L256.506 457.245C257.203 457.128 257.913 457.105 258.617 457.176L264.2 457.734C266.038 457.918 267.755 458.732 269.061 460.037L271.796 462.772C273.02 463.996 274.608 464.79 276.321 465.035L284.321 466.178C286.034 466.422 287.622 467.216 288.846 468.44L290.353 469.947C290.62 470.214 290.907 470.463 291.21 470.69L297.353 475.297C298.009 475.789 298.586 476.38 299.062 477.047L300.693 479.329C302.194 481.432 304.619 482.679 307.202 482.679H307.478C308.338 482.679 309.192 482.818 310.008 483.09L313.326 484.196C314.083 484.448 314.798 484.812 315.447 485.276Z" fill="#851939"/>
<path d="M314.64 522.517H317.168C319.652 522.517 321.995 523.671 323.509 525.639L325.49 528.215C328.27 531.829 327.472 537.032 323.737 539.647L323.173 540.041C321.829 540.983 320.227 541.487 318.586 541.487H314.591C313.88 541.487 313.172 541.582 312.486 541.769L303.086 544.333L294.231 547.875C293.811 548.043 293.378 548.175 292.936 548.269L281.15 550.795C280.599 550.913 280.037 550.973 279.474 550.973H262.868C262.489 550.973 262.111 550.999 261.737 551.053L251.871 552.462C250.028 552.726 248.335 553.623 247.083 555.001L239.996 562.796C239.689 563.134 239.412 563.497 239.167 563.882L234.146 571.772C233.329 573.055 232.895 574.545 232.895 576.067V577.388C232.895 578.727 232.56 580.044 231.919 581.219L228.181 588.071C227.54 589.246 227.204 590.563 227.204 591.902V592.989C227.204 594.657 226.683 596.282 225.714 597.639L222.462 602.192L218.39 608.708C217.945 609.419 217.616 610.195 217.412 611.008L216.129 616.142C215.926 616.955 215.596 617.731 215.152 618.441L206.337 632.545L197.606 643.895C197.106 644.545 196.709 645.268 196.429 646.039L193.535 653.996C193.219 654.865 192.755 655.673 192.163 656.383L184.263 665.863C183.805 666.413 183.422 667.022 183.126 667.674L179.676 675.263C179.121 676.485 178.267 677.547 177.194 678.353L174.442 680.416C172.427 681.927 171.242 684.298 171.242 686.816V688.311C171.242 690.271 170.523 692.162 169.221 693.626L165.674 697.616C164.373 699.081 163.654 700.972 163.654 702.931V711.746C163.654 713.285 163.154 714.783 162.231 716.014C161.307 717.246 160.808 718.743 160.808 720.283V728.345L159.058 744.097C158.961 744.972 159.009 745.857 159.2 746.716L160.492 752.532C160.701 753.473 160.738 754.444 160.602 755.398L159.477 763.274C159.121 765.767 159.959 768.282 161.74 770.063L164.156 772.479C165.656 773.979 166.499 776.014 166.499 778.136V782.061C166.499 782.921 166.638 783.775 166.91 784.591L168.396 789.05L170.783 799.391C171.084 800.697 171.708 801.906 172.599 802.907L176.809 807.644C178.111 809.108 178.83 811 178.83 812.959V816.214C178.83 817.061 179.046 817.894 179.457 818.635L180.574 820.644C181.919 823.066 180.168 826.042 177.397 826.042C175.961 826.042 174.66 825.197 174.077 823.884L172.087 819.408C171.533 818.16 170.669 817.076 169.577 816.257L165.165 812.948C164.171 812.202 163.363 811.237 162.818 810.121C161.444 807.306 159.529 803.233 158.911 801.381C158.247 799.389 157.05 792.892 156.338 788.758C156.155 787.699 155.768 786.686 155.191 785.779L149.916 777.49C149.591 776.978 149.324 776.43 149.122 775.858L144.467 762.669C143.988 761.311 143.884 759.849 144.166 758.438L145.477 751.886C145.58 751.37 145.632 750.844 145.632 750.317V733.656C145.632 733.278 145.659 732.9 145.712 732.525L147.449 720.371C147.502 719.997 147.529 719.618 147.529 719.24V702.735L149.162 689.667C149.335 688.286 149.865 686.973 150.701 685.859L160.808 672.383L165.551 663.846L173.523 652.33C173.898 651.789 174.338 651.296 174.833 650.863L180.492 645.912C181.273 645.228 181.914 644.398 182.379 643.469L185.47 637.288L190.212 629.699L195.406 622.28C196.347 620.936 196.852 619.334 196.852 617.692V617.565C196.852 615.605 197.571 613.714 198.873 612.25L202.419 608.26C203.721 606.795 204.44 604.904 204.44 602.945V599.277C204.44 598.693 204.504 598.111 204.63 597.541L205.61 593.134C206.075 591.041 207.361 589.222 209.179 588.085L211.485 586.644C213.062 585.658 214.247 584.154 214.835 582.39L217.309 574.969C217.581 574.153 217.719 573.299 217.719 572.439V563.139C217.719 561.997 217.964 560.868 218.436 559.829L222.462 550.973L226.427 540.664C226.936 539.34 227.788 538.175 228.896 537.289L234.879 532.502C236.062 531.556 237.488 530.965 238.993 530.798L253.763 529.157H260.883C263.004 529.157 265.039 528.314 266.54 526.814L267.292 526.061C268.368 524.986 269.728 524.239 271.213 523.909L276.618 522.708C277.188 522.581 277.77 522.517 278.354 522.517H288.858H296.602C297.129 522.517 297.655 522.569 298.171 522.673L304.978 524.034C306.228 524.284 307.519 524.232 308.745 523.881L312.442 522.825C313.157 522.621 313.896 522.517 314.64 522.517Z" fill="#851939"/>
<path d="M330.112 535.796H331.74C332.859 535.796 333.966 536.031 334.989 536.486L337.223 537.479C340.112 538.763 341.974 541.628 341.974 544.789V546.239C341.974 547.481 341.685 548.705 341.13 549.816L339.826 552.424C338.781 554.513 336.876 556.041 334.611 556.608L331.663 557.345C330.952 557.522 330.27 557.796 329.634 558.16L323.952 561.406L318.243 564.669C317.626 565.022 317.058 565.455 316.555 565.958L312.068 570.445C310.568 571.946 308.533 572.788 306.411 572.788H304.025C302.783 572.788 301.558 573.078 300.447 573.633L297.722 574.996C296.878 575.418 295.965 575.687 295.027 575.792L289.644 576.39C288.501 576.517 287.398 576.889 286.412 577.481L279.966 581.348C278.951 581.958 278.083 582.785 277.426 583.77L272.733 590.81L266.523 600.568C266.237 601.018 265.997 601.494 265.805 601.991L261.884 612.188C261.531 613.105 261.35 614.078 261.35 615.06V621.988C261.35 622.7 261.256 623.407 261.068 624.093L258.674 632.873C258.561 633.286 258.416 633.689 258.239 634.079L253.762 643.927L250.917 652.464L247.123 664.795L243.739 674.945C243.467 675.761 243.329 676.615 243.329 677.475V686.261C243.329 687.121 243.19 687.975 242.918 688.79L239.785 698.19C239.618 698.689 239.403 699.171 239.141 699.629L236.534 704.192C236.01 705.109 235.673 706.12 235.542 707.168L234.792 713.169L233.935 722.592C233.874 723.263 233.729 723.924 233.502 724.558L229.567 735.577C229.258 736.44 229.101 737.35 229.101 738.267V746.966C229.101 747.826 229.239 748.68 229.511 749.496L231.732 756.157C231.875 756.585 231.981 757.025 232.049 757.471L233.75 768.527C233.812 768.929 233.843 769.336 233.843 769.743V777.006C233.843 777.446 233.88 777.886 233.952 778.321L234.588 782.138C234.723 782.947 234.733 783.772 234.617 784.584L234.22 787.359C233.976 789.072 233.182 790.66 231.958 791.884L230.668 793.174C229.642 794.2 228.915 795.484 228.563 796.891L226.722 804.258C226.415 805.484 226.403 806.765 226.688 807.997L229.101 818.454L231.946 826.042L234.792 834.579L238.406 845.422C238.526 845.781 238.671 846.131 238.84 846.47L240.971 850.731C241.277 851.342 241.503 851.991 241.644 852.66L245.062 868.899C245.171 869.414 245.33 869.918 245.538 870.402L248.071 876.314L254.711 892.438L258.112 898.39C258.373 898.848 258.589 899.33 258.755 899.829L261.866 909.16C262.152 910.02 262.583 910.826 263.14 911.542L268.306 918.184C268.726 918.723 269.075 919.315 269.344 919.944L271.31 924.53C271.623 925.261 272.073 925.925 272.635 926.488L274.473 928.325C276.463 930.315 276.016 933.652 273.573 935.048C272.443 935.694 271.08 935.788 269.871 935.305L264.889 933.312C263.212 932.641 261.811 931.422 260.915 929.853L259.106 926.688C258.707 925.991 258.416 925.238 258.242 924.454L256.961 918.689C256.728 917.64 256.286 916.649 255.661 915.775L252.336 911.12C252.023 910.681 251.755 910.212 251.536 909.719L249.346 904.791C248.526 902.948 247.041 901.482 245.187 900.687L244.982 900.6C242.739 899.638 241.057 897.706 240.415 895.351L238.841 889.578C238.671 888.958 238.428 888.36 238.116 887.798L233.843 880.108L229.818 871.251C229.345 870.212 229.101 869.083 229.101 867.941V864.767C229.101 862.461 228.105 860.266 226.369 858.747L222.377 855.254C221.804 854.752 221.305 854.171 220.896 853.529L216.124 846.029C215.307 844.746 214.873 843.256 214.873 841.734V834.292C214.873 833.852 214.837 833.412 214.764 832.977L213.174 823.435C213.043 822.648 212.795 821.885 212.438 821.172L207.285 810.866L200.751 799.431C200.06 798.223 199.697 796.854 199.697 795.462V791.999C199.697 790.685 200.02 789.393 200.638 788.234L206.344 777.536C206.962 776.377 207.285 775.084 207.285 773.771V762.237C207.285 761.153 207.505 760.081 207.932 759.085L209.751 754.841C210.003 754.252 210.184 753.636 210.289 753.005L212.976 736.882L215.644 724.431C215.762 723.88 215.822 723.318 215.822 722.755V707.98C215.822 707.021 215.994 706.069 216.331 705.171L218.158 700.299C218.495 699.401 218.667 698.45 218.667 697.49V688.679C218.667 687.936 218.771 687.196 218.975 686.482L220.256 681.997C220.461 681.282 220.564 680.542 220.564 679.799V659.095C220.564 657.853 220.853 656.628 221.409 655.517L223.94 650.454C224.218 649.899 224.43 649.313 224.572 648.709L227.938 634.403C228.08 633.799 228.293 633.213 228.57 632.658L231.102 627.595C231.657 626.484 231.946 625.259 231.946 624.017V621.214C231.946 618.783 233.051 616.485 234.949 614.967L235.317 614.672C236.221 613.949 236.957 613.038 237.475 612.003L244.381 598.191C244.936 597.08 245.226 595.855 245.226 594.613V592.109C245.226 591.249 245.364 590.394 245.636 589.579L249.629 577.599C249.854 576.924 250.168 576.283 250.562 575.691L256.763 566.391C257.288 565.604 257.948 564.915 258.714 564.359L266.619 558.61C267.523 557.952 268.555 557.491 269.648 557.257L279.777 555.086C280.763 554.875 281.7 554.48 282.539 553.92L283.47 553.3C283.899 553.014 284.354 552.77 284.83 552.571L295.497 548.127L308.493 543.795C309.309 543.523 310.163 543.385 311.023 543.385H315.896C318.018 543.385 320.053 542.542 321.553 541.041L324.455 538.14C325.955 536.639 327.99 535.796 330.112 535.796Z" fill="#851939"/>
<path d="M447.26 428.614C447.26 480.999 400.941 496.907 374.224 496.907C347.508 496.907 299.292 480.999 299.292 428.614C299.292 376.229 347.508 307.204 374.224 307.204C400.941 307.204 447.26 376.229 447.26 428.614Z" fill="#851939"/>
<path d="M433.032 508.41C433.032 531.983 408.275 551.093 374.224 551.093C340.174 551.093 312.571 531.983 312.571 508.41C312.571 484.837 323.004 461.933 374.224 480.903C431.135 458.138 433.032 484.837 433.032 508.41Z" fill="#851939"/>
<ellipse cx="373.275" cy="542.436" rx="34.1466" ry="34.1466" fill="#851939"/>
</g>
<g filter="url(#filter1_d)">
<rect x="19.5" y="31.5" width="708" height="1055" rx="28.5" stroke="#851939" stroke-width="3" shape-rendering="crispEdges"/>
</g>
</g>
<defs>
<filter id="filter0_d" x="82" y="168.366" width="583.5" height="793.244" filterUnits="userSpaceOnUse" color-interpolation-filters="sRGB">
<feFlood flood-opacity="0" result="BackgroundImageFix"/>
<feColorMatrix in="SourceAlpha" type="matrix" values="0 0 0 0 0 0 0 0 0 0 0 0 0 0 0 0 0 0 127 0" result="hardAlpha"/>
<feOffset dy="6"/>
<feGaussianBlur stdDeviation="10"/>
<feComposite in2="hardAlpha" operator="out"/>
<feColorMatrix type="matrix" values="0 0 0 0 0 0 0 0 0 0 0 0 0 0 0 0 0 0 0.7 0"/>
<feBlend mode="normal" in2="BackgroundImageFix" result="effect1_dropShadow"/>
<feBlend mode="normal" in="SourceGraphic" in2="effect1_dropShadow" result="shape"/>
</filter>
<filter id="filter1_d" x="-2" y="10" width="751" height="1098" filterUnits="userSpaceOnUse" color-interpolation-filters="sRGB">
<feFlood flood-opacity="0" result="BackgroundImageFix"/>
<feColorMatrix in="SourceAlpha" type="matrix" values="0 0 0 0 0 0 0 0 0 0 0 0 0 0 0 0 0 0 127 0" result="hardAlpha"/>
<feOffset/>
<feGaussianBlur stdDeviation="10"/>
<feComposite in2="hardAlpha" operator="out"/>
<feColorMatrix type="matrix" values="0 0 0 0 0.779167 0 0 0 0 0.249983 0 0 0 0 0.406778 0 0 0 0.7 0"/>
<feBlend mode="normal" in2="BackgroundImageFix" result="effect1_dropShadow"/>
<feBlend mode="normal" in="SourceGraphic" in2="effect1_dropShadow" result="shape"/>
</filter>
<clipPath id="clip0">
<rect width="747" height="1112" fill="white"/>
</clipPath>
</defs>
</svg>
