<svg width="80" height="80" viewBox="0 0 80 80" fill="none" xmlns="http://www.w3.org/2000/svg">
<g clip-path="url(#clip0)">
<path d="M14.3355 63.4988C11.6925 66.1418 11.6664 70.483 14.7166 72.6432C19.5117 76.039 25.02 78.3533 30.8602 79.3873C38.9336 80.8169 47.2513 79.7309 54.6871 76.2765C62.1229 72.822 68.3176 67.166 72.4323 60.0743C76.547 52.9825 78.3831 44.7976 77.6919 36.6278C77.0006 28.4579 73.8155 20.6978 68.5678 14.3982C63.32 8.0986 56.2632 3.56377 48.3527 1.40774C40.4422 -0.748278 32.0603 -0.421341 24.3418 2.34429C16.6233 5.10992 9.94108 10.1806 5.19997 16.8699L16.2429 24.6967C19.3797 20.271 23.8007 16.9161 28.9074 15.0863C34.0141 13.2566 39.5597 13.0403 44.7934 14.4667C50.0271 15.8932 54.6961 18.8935 58.1681 23.0614C61.6401 27.2294 63.7474 32.3636 64.2047 37.7689C64.6621 43.1742 63.4473 48.5895 60.7249 53.2815C58.0025 57.9735 53.904 61.7156 48.9844 64.0011C44.0648 66.2866 38.5616 67.0051 33.2201 66.0593C30.1157 65.5097 27.1531 64.4133 24.463 62.8383C21.2375 60.9499 16.9784 60.8559 14.3355 63.4988V63.4988Z" fill="#EEEEEE"/>
<path d="M4.71056 31.0663C4.14436 31.1858 3.5952 30.8013 3.51389 30.2283L1.45095 15.6921C1.32803 14.826 2.298 14.2307 3.01461 14.7324L19.4427 26.2355C20.1593 26.7373 19.9317 27.8524 19.0757 28.0331L4.71056 31.0663Z" fill="#EEEEEE"/>
</g>
<defs>
<clipPath id="clip0">
<rect width="80" height="80" fill="white" transform="matrix(-1 0 0 1 80 0)"/>
</clipPath>
</defs>
</svg>
