<svg width="800" height="213" viewBox="0 0 800 213" fill="none" xmlns="http://www.w3.org/2000/svg">
<g id="Navbar Logo" clip-path="url(#clip0)">
<g id="right-legs">
<path id="right-leg-4" d="M536.237 -57.2443C509.037 -76.8443 493.904 -78.7443 489.737 -77.2443C499.904 -68.0776 528.937 -43.4443 563.737 -18.2443C598.537 6.95569 638.237 46.589 653.737 63.2557C657.237 68.089 666.782 81.2557 668.237 83.2557C669.691 85.2557 674.737 101.256 675.737 103.756C676.737 106.256 680.737 115.756 681.737 130.756C681.791 131.566 683.783 160.167 684.237 162.256C686.737 173.756 693.237 176.756 694.737 174.756C694.737 173.589 694.237 115.256 694.237 112.256C694.237 109.756 689.237 98.2557 688.737 97.2557C688.421 96.6232 676.737 69.2557 674.237 67.7557C671.737 66.2557 654.737 32.3551 619.237 -0.144897C583.737 -32.6449 570.237 -32.7443 536.237 -57.2443Z" fill="black"/>
<path id="right-leg-3" d="M712.562 57.8552C654.229 31.8552 602.337 -23.8449 596.737 -52.6449C547.237 -56.6449 497.378 -166.833 478.737 -161.645C430.237 -148.145 547.237 -43.1449 596.737 6.35524L673.062 66.3552L709.562 90.3552C721.229 99.3552 813.183 143.919 798.062 123.355C785.562 106.355 728.452 73.6293 712.562 57.8552Z" fill="black"/>
<path id="right-leg-2" d="M653.534 60.7813C610.086 22.3428 595.571 -7.67307 583.814 -38.1252C551.22 -84.3013 512.338 -135.81 494.585 -137.082C448.395 -140.39 544.516 -58.271 555.34 -9.87729L594.31 33.4356L630.898 64.0751L622.73 87.3275L612.224 107.507L612.526 141.385C652.286 229.696 637.189 149.333 629.889 128.091C623.854 110.53 662.878 78.343 653.534 60.7813Z" fill="black"/>
<path id="right-leg-1" d="M560.041 -6.18414C555.239 -20.637 543.034 -41.3451 537.532 -49.8925C526.027 -57.2744 502.418 -70.4063 500.017 -63.8792C497.015 -55.7203 519.025 -13.7603 524.527 -6.18414C530.029 1.39198 545.535 26.4514 550.537 35.7759C555.54 45.1003 556.54 62.0009 554.039 75.4048C551.538 88.8087 547.536 100.464 541.034 116.199C534.531 131.934 515.023 146.504 511.521 163.987C508.02 181.47 513.522 224.596 519.025 210.609C524.527 196.623 523.526 195.457 527.028 173.894C530.529 152.332 548.537 146.504 560.041 124.358C571.546 102.213 576.548 80.6498 578.549 62.0009C580.55 43.352 566.044 11.882 560.041 -6.18414Z" fill="black"/>
</g>
<g id="left-legs">
<path id="left-leg-4" d="M263.5 -57.4219C290.7 -77.0219 305.833 -78.9219 310 -77.4219C299.833 -68.2552 270.8 -43.6219 236 -18.4219C201.2 6.77814 161.5 46.4115 146 63.0781C142.5 67.9115 132.955 81.0781 131.5 83.0781C130.045 85.0781 125 101.078 124 103.578C123 106.078 119 115.578 118 130.578C117.946 131.389 115.954 159.99 115.5 162.078C113 173.578 106.5 176.578 105 174.578C105 173.411 105.5 115.078 105.5 112.078C105.5 109.578 110.5 98.0781 111 97.0781C111.316 96.4457 123 69.0781 125.5 67.5781C128 66.0781 145 32.1776 180.5 -0.322449C216 -32.8224 229.5 -32.9219 263.5 -57.4219Z" fill="black"/>
<path id="left-leg-3" d="M87.1744 57.6777C145.508 31.6777 197.4 -24.0224 203 -52.8224C252.5 -56.8224 302.359 -167.011 321 -161.822C369.5 -148.322 252.5 -43.3224 203 6.17769L126.674 66.1777L90.1744 90.1777C78.5077 99.1777 -13.4463 143.742 1.67442 123.178C14.1744 106.178 71.2853 73.4518 87.1744 57.6777Z" fill="black"/>
<path id="left-leg-2" d="M146.203 60.6037C189.651 22.1652 204.165 -7.85062 215.923 -38.3028C248.517 -84.4788 287.399 -135.988 305.152 -137.259C351.341 -140.567 255.221 -58.4486 244.396 -10.0548L205.427 33.2581L168.839 63.8976L177.007 87.1499L187.513 107.329L187.211 141.207C147.451 229.518 162.548 149.156 169.848 127.913C175.883 110.352 136.859 78.1654 146.203 60.6037Z" fill="black"/>
<path id="left-leg-1" d="M239.695 -6.36169C244.497 -20.8146 256.702 -41.5227 262.205 -50.0701C273.709 -57.4519 297.319 -70.5839 299.72 -64.0568C302.721 -55.8979 280.712 -13.9378 275.21 -6.36169C269.708 1.21442 254.201 26.2739 249.199 35.5983C244.197 44.9228 243.197 61.8234 245.698 75.2273C248.199 88.6312 252.201 100.287 258.703 116.022C265.206 131.757 284.714 146.326 288.215 163.81C291.717 181.293 286.215 224.419 280.712 210.432C275.21 196.445 276.211 195.28 272.709 173.717C269.208 152.154 251.2 146.326 239.695 124.181C228.191 102.035 223.189 80.4723 221.188 61.8234C219.187 43.1745 233.693 11.7044 239.695 -6.36169Z" fill="black"/>
</g>
<path id="title" d="M349.814 20.6094C351.689 20.6094 353.418 21.1074 355 22.1035C355.938 21.8105 356.816 21.6641 357.637 21.6641C358.516 21.6641 359.57 21.7813 360.801 22.0156C362.09 22.25 362.998 22.8359 363.525 23.7734C364.111 24.7109 364.375 25.502 364.316 26.1465C364.199 27.3184 363.994 28.168 363.701 28.6953C364.229 30.1016 363.965 31.8301 362.91 33.8809C364.316 37.2793 364.287 42.3477 362.822 49.0859C362.471 50.7266 362.119 52.3086 361.768 53.832C360.947 57.4062 360.537 59.9258 360.537 61.3906C360.537 62.3281 360.596 63.7051 360.713 65.5215C360.889 67.3379 361.035 69.1836 361.152 71.0586C361.27 72.9336 361.328 74.6621 361.328 76.2441C361.328 77.8262 361.152 78.8516 360.801 79.3203C360.508 79.7305 360.273 80.4043 360.098 81.3418C359.98 82.2207 359.805 83.0996 359.57 83.9785C359.336 84.8574 359.014 85.5898 358.604 86.1758C358.193 86.8203 357.666 87.084 357.021 86.9668C356.436 86.9082 356.055 86.791 355.879 86.6152C355.762 86.4395 355.645 86.2344 355.527 86C355.352 85.4141 355 85.0332 354.473 84.8574C353.652 84.623 353.213 84.0957 353.154 83.2754C353.154 82.3965 353.271 81.7812 353.506 81.4297C353.799 81.0195 353.945 80.6094 353.945 80.1992C353.945 79.7305 353.857 79.2617 353.682 78.793C353.271 77.8555 352.744 77.3281 352.1 77.2109C351.455 77.0352 350.928 76.6836 350.518 76.1562C350.107 75.5703 349.756 74.9258 349.463 74.2227C348.76 72.5234 348.496 71.2344 348.672 70.3555C348.906 69.4766 348.877 68.4219 348.584 67.1914C347.646 63.4414 347.588 60.5996 348.408 58.666C348.701 57.8457 348.73 57.1426 348.496 56.5566C348.145 55.3262 348.057 54.2715 348.232 53.3926C348.584 51.6348 348.76 50.0234 348.76 48.5586C348.76 47.0352 348.379 46.2734 347.617 46.2734C346.914 46.2734 346.445 48.1484 346.211 51.8984C345.977 56.0586 345.596 58.5195 345.068 59.2812C344.6 60.043 344.189 60.6875 343.838 61.2148C343.486 61.6836 343.164 62.2402 342.871 62.8848C342.285 64.1738 341.992 65.6094 341.992 67.1914C341.992 68.7148 341.934 69.623 341.816 69.916C341.758 70.209 341.699 70.5312 341.641 70.8828C341.348 71.9375 341.201 73.2266 341.201 74.75C341.201 76.8594 340.762 78.5586 339.883 79.8477C339.766 80.0234 339.648 80.4043 339.531 80.9902C339.414 81.5176 339.238 82.0742 339.004 82.6602C338.418 84.0664 337.656 84.7695 336.719 84.7695C335.781 84.7109 335.049 84.418 334.521 83.8906C334.053 83.3047 333.672 82.6309 333.379 81.8691C333.086 81.1074 332.852 80.3457 332.676 79.584C332.5 78.8223 332.207 78.0898 331.797 77.3867C331.211 76.3906 331.357 74.3398 332.236 71.2344C332.588 70.0039 332.734 69.0078 332.676 68.2461C332.617 67.4258 332.207 66.7812 331.445 66.3125C331.094 66.0781 330.713 64.8184 330.303 62.5332C329.951 60.1895 329.629 58.2559 329.336 56.7324C329.102 55.1504 328.867 53.7148 328.633 52.4258C327.988 49.4375 327.461 47.9141 327.051 47.8555C326.699 47.7969 326.465 47.9434 326.348 48.2949C326.289 48.5879 326.289 48.9688 326.348 49.4375C326.406 49.9062 326.465 50.375 326.523 50.8438C326.641 51.3125 326.699 51.752 326.699 52.1621C326.758 52.5723 326.582 53.3633 326.172 54.5352C325.82 55.6484 325.791 56.9375 326.084 58.4023C326.377 59.8672 326.523 60.9805 326.523 61.7422C326.523 62.5039 326.436 63.3535 326.26 64.291C326.084 65.1699 326.025 65.9609 326.084 66.6641C326.201 67.3672 326.289 68.0117 326.348 68.5977C326.465 70.0625 326.143 71.0293 325.381 71.498C324.619 71.9668 324.238 72.7285 324.238 73.7832C324.297 74.8379 324.648 75.7168 325.293 76.4199C325.938 77.0645 326.172 77.6797 325.996 78.2656C325.82 78.8516 325.615 79.3203 325.381 79.6719C325.146 80.0234 325.059 80.3164 325.117 80.5508C325.176 80.7852 325.176 81.0781 325.117 81.4297C325 82.8359 323.887 84.125 321.777 85.2969C320.078 86.2344 318.672 86.5859 317.559 86.3516C316.445 86.1758 315.625 85.7949 315.098 85.209C314.57 84.623 314.365 83.9785 314.482 83.2754C314.6 82.5137 314.6 81.8398 314.482 81.2539C314.424 80.6094 314.365 79.9648 314.307 79.3203C314.307 78.6758 314.277 78.0312 314.219 77.3867C314.16 75.6289 313.984 74.457 313.691 73.8711C313.398 73.2266 313.223 72.582 313.164 71.9375C313.105 71.293 313.076 70.707 313.076 70.1797C313.135 69.5938 313.193 69.0664 313.252 68.5977C313.311 68.1289 313.223 67.6309 312.988 67.1035C312.812 66.5762 312.812 65.9023 312.988 65.082C313.164 64.2617 313.193 63.4707 313.076 62.709C312.959 61.9473 312.959 61.2734 313.076 60.6875C313.252 60.043 313.398 59.3984 313.516 58.7539C313.691 57.2305 313.369 56.2051 312.549 55.6777C311.611 54.916 310.967 54.125 310.615 53.3047C310.322 52.4258 310.205 51.3125 310.264 49.9648C310.322 48.6172 310.322 47.5332 310.264 46.7129C310.205 45.834 310.352 44.8086 310.703 43.6367C311.113 42.4062 311.318 41.1465 311.318 39.8574C311.318 38.5684 311.26 37.4551 311.143 36.5176C311.084 35.5801 310.996 34.7012 310.879 33.8809C310.762 33.0605 310.645 32.2109 310.527 31.332C310.352 29.5156 310.439 27.9922 310.791 26.7617C311.26 25.5898 311.846 24.623 312.549 23.8613C313.311 23.041 314.512 22.6602 316.152 22.7188C319.316 22.8359 321.221 22.6895 321.865 22.2793C323.213 21.459 324.736 21.4297 326.436 22.1914C326.904 22.3672 327.314 22.6016 327.666 22.8945C330.947 23.7148 332.793 25.0332 333.203 26.8496C334.375 31.7715 334.961 35.0527 334.961 36.6934C334.961 38.2754 334.99 39.2129 335.049 39.5059C335.166 39.7988 335.254 40.0332 335.312 40.209C335.43 40.3262 335.488 40.4727 335.488 40.6484C335.488 40.8242 335.43 41.293 335.312 42.0547C335.195 42.8164 335.283 43.4023 335.576 43.8125C335.869 44.2227 336.191 44.4277 336.543 44.4277C336.953 44.4277 337.334 44.2227 337.686 43.8125C338.096 43.3438 338.359 42.4355 338.477 41.0879C338.652 39.6816 338.74 38.832 338.74 38.5391C338.74 38.0117 338.828 37.543 339.004 37.1328C339.238 36.6641 339.385 36.166 339.443 35.6387C339.502 35.1113 339.59 34.5547 339.707 33.9688C339.883 32.4453 340.264 31.3906 340.85 30.8047C341.436 30.2188 342.051 29.7207 342.695 29.3105C343.34 28.8418 343.75 28.1973 343.926 27.377C344.102 26.5566 344.277 25.7949 344.453 25.0918C344.688 24.3887 345.01 23.7148 345.42 23.0703C346.416 21.4297 347.881 20.6094 349.814 20.6094ZM397.012 23.9492C398.711 24.0664 400.234 24.9453 401.582 26.5859C401.816 26.9375 402.051 27.2891 402.285 27.6406C402.52 27.9336 402.695 28.2852 402.812 28.6953C403.164 29.5742 403.281 30.834 403.164 32.4746C403.047 34.1152 403.135 35.4629 403.428 36.5176C403.721 37.5137 404.014 38.4805 404.307 39.418C404.834 41.0586 404.512 43.2559 403.34 46.0098C402.461 48.5293 401.377 50.0234 400.088 50.4922L398.506 51.0195C396.982 51.5469 395.664 51.752 394.551 51.6348C393.496 51.459 392.764 51.1367 392.354 50.668C391.182 49.1445 390.889 47.3867 391.475 45.3945C391.592 44.9844 391.592 44.3398 391.475 43.4609C391.357 42.582 390.859 42.0254 389.98 41.791C389.512 41.6738 389.189 41.4688 389.014 41.1758C388.896 40.8828 388.779 40.6484 388.662 40.4727C388.604 40.2383 388.516 40.0918 388.398 40.0332C388.34 39.916 388.076 40.0332 387.607 40.3848C387.139 40.7363 386.875 40.9414 386.816 41C386.758 41 386.553 40.9414 386.201 40.8242C385.908 40.707 385.615 40.7363 385.322 40.9121C385.029 41.0879 384.736 41.4102 384.443 41.8789C383.389 43.6953 383.184 46.6543 383.828 50.7559C384.062 51.9863 384.297 53.1289 384.531 54.1836C385 56.8203 385.205 58.5781 385.146 59.457C385.146 60.3359 384.971 61.2734 384.619 62.2695C384.326 63.207 384.062 64.1445 383.828 65.082C383.125 67.4844 383.213 69.5352 384.092 71.2344C385.146 73.3438 385.82 74.5742 386.113 74.9258C386.641 75.4531 387.285 75.6875 388.047 75.6289C388.809 75.5117 389.395 75.1309 389.805 74.4863C390.215 73.7832 390.596 73.0508 390.947 72.2891C391.299 71.4688 391.68 70.707 392.09 70.0039C392.5 69.3008 392.969 68.8906 393.496 68.7734C394.082 68.6562 394.814 68.6562 395.693 68.7734C396.572 68.832 397.158 68.8613 397.451 68.8613C397.803 68.8613 398.213 69.0664 398.682 69.4766C399.15 69.8281 399.385 70.6777 399.385 72.0254C399.443 73.3145 399.502 74.3691 399.561 75.1895C399.619 75.9512 399.414 76.6543 398.945 77.2988C398.477 77.8848 398.154 78.4414 397.979 78.9688C397.861 79.4375 397.773 79.9062 397.715 80.375C397.656 81.6055 397.422 82.5137 397.012 83.0996C396.66 83.6855 396.309 84.1836 395.957 84.5938C395.664 84.9453 394.814 85.1211 393.408 85.1211C392.061 85.1211 390.83 85.7656 389.717 87.0547C388.604 88.3438 387.549 88.9004 386.553 88.7246C385.557 88.6074 384.854 88.0215 384.443 86.9668C384.033 86.0293 383.125 85.5312 381.719 85.4727C381.309 85.4141 380.928 85.3262 380.576 85.209C380.225 85.0332 379.814 84.916 379.346 84.8574C378.877 84.7402 378.408 84.5352 377.939 84.2422C376.768 83.5977 375.801 82.5723 375.039 81.166C374.57 80.2871 374.102 79.5547 373.633 78.9688C373.223 78.3828 372.871 77.8262 372.578 77.2988C371.816 76.127 371.523 75.0137 371.699 73.959C372.051 71.1465 371.67 69.3008 370.557 68.4219C369.912 68.0117 369.59 67.6895 369.59 67.4551C369.59 67.2207 369.473 66.7227 369.238 65.9609C368.887 64.9062 368.887 63.6758 369.238 62.2695C369.648 60.8633 369.795 59.7207 369.678 58.8418C369.561 57.9043 369.414 56.9375 369.238 55.9414C368.887 53.3633 368.857 51.6641 369.15 50.8438C369.443 50.0234 369.502 48.8516 369.326 47.3281C369.209 45.8047 369.15 44.5742 369.15 43.6367C369.15 42.6406 369.062 41.3516 368.887 39.7695C368.77 38.1875 368.77 36.4883 368.887 34.6719C369.297 30.1016 370.85 26.9668 373.545 25.2676C377.588 22.8652 380.166 21.7227 381.279 21.8398C381.631 21.8398 382.041 21.8984 382.51 22.0156C383.037 22.0742 383.535 22.0449 384.004 21.9277C384.473 21.8105 384.883 21.6348 385.234 21.4004C385.586 21.166 385.938 20.9023 386.289 20.6094C387.695 19.3203 388.955 19.1738 390.068 20.1699C391.123 21.4004 391.943 22.2207 392.529 22.6309C393.525 23.3926 395.02 23.832 397.012 23.9492ZM439.814 86.5273C439.463 87.1719 438.994 87.6406 438.408 87.9336C437.822 88.2852 437.236 88.2266 436.65 87.7578C436.064 87.3477 435.625 87.1719 435.332 87.2305C435.098 87.2891 434.863 87.3477 434.629 87.4062C434.102 87.4648 433.574 87.084 433.047 86.2637C432.52 85.4434 432.227 84.7988 432.168 84.3301C432.109 83.8027 432.109 83.3047 432.168 82.8359C432.402 81.7812 432.227 80.8438 431.641 80.0234C431.113 79.2031 430.732 78.5879 430.498 78.1777C430.322 77.7676 430.234 77.1816 430.234 76.4199C430.234 75.5996 430.176 75.1016 430.059 74.9258C430 74.6914 429.941 74.5156 429.883 74.3984C429.59 73.8711 429.473 73.0508 429.531 71.9375C429.648 70.8242 429.502 70.0625 429.092 69.6523C428.682 69.1836 428.125 68.832 427.422 68.5977C426.777 68.3633 426.25 68.4512 425.84 68.8613C425.488 69.2129 425.137 69.6523 424.785 70.1797C424.492 70.707 424.111 71.1758 423.643 71.5859C423.174 71.9375 422.559 72.0254 421.797 71.8496C421.094 71.6738 420.303 71.8496 419.424 72.377C418.545 72.9043 418.018 73.5488 417.842 74.3105C417.666 75.0137 417.461 75.7461 417.227 76.5078C416.992 77.2695 416.904 77.9727 416.963 78.6172C417.08 79.2617 417.08 79.9062 416.963 80.5508C416.904 81.1367 416.758 81.7227 416.523 82.3086C416.055 83.7734 415.498 84.5645 414.854 84.6816C414.326 84.7402 413.77 84.7402 413.184 84.6816C412.539 85.8535 411.777 86.5566 410.898 86.791C408.496 87.3184 407.061 86.9375 406.592 85.6484C406.299 84.8867 406.123 83.8906 406.064 82.6602C405.947 80.1992 405.684 78.5293 405.273 77.6504C404.863 76.7715 404.746 75.7168 404.922 74.4863C405.156 73.2559 405.244 72.0254 405.186 70.7949C405.127 69.5645 405.127 68.627 405.186 67.9824C405.244 67.3379 405.303 66.752 405.361 66.2246C405.479 65.6973 405.596 65.1992 405.713 64.7305C405.83 64.2031 405.889 63.6172 405.889 62.9727C405.947 62.2695 406.064 61.4785 406.24 60.5996C406.416 59.7207 406.592 58.8125 406.768 57.875C407.236 55.5312 407.412 53.7734 407.295 52.6016C407.178 51.4297 407.266 50.4336 407.559 49.6133C407.91 48.793 408.291 48.0605 408.701 47.416C409.756 45.7168 410.254 44.3398 410.195 43.2852C410.137 42.1719 410.078 41.3223 410.02 40.7363C410.02 40.0918 410.049 39.4473 410.107 38.8027C410.4 35.6387 411.895 30.6875 414.59 23.9492C414.766 23.3047 415.322 22.8066 416.26 22.4551C417.197 22.1035 418.135 22.0742 419.072 22.3672C420.068 22.6016 420.859 22.7188 421.445 22.7188C422.09 22.6602 422.617 22.4258 423.027 22.0156C423.496 21.5469 423.965 21.1074 424.434 20.6973C424.961 20.2871 425.576 19.9648 426.279 19.7305C426.982 19.4375 427.773 19.291 428.652 19.291C429.531 19.291 430.469 19.5547 431.465 20.082C433.105 20.9609 434.189 21.7813 434.717 22.543C435.244 23.3047 435.596 23.9199 435.771 24.3887C435.947 24.8574 436.24 25.502 436.65 26.3223C437.061 27.1426 437.236 27.875 437.178 28.5195C437.178 29.1641 437.295 29.9258 437.529 30.8047C437.764 31.6836 437.764 32.709 437.529 33.8809C437.295 35.0527 437.295 36.2246 437.529 37.3965C437.764 38.5098 437.881 39.2715 437.881 39.6816C437.881 40.0918 437.91 40.4727 437.969 40.8242C438.027 41.8203 438.232 42.6992 438.584 43.4609C438.936 44.2812 439.023 45.3066 438.848 46.5371C438.73 47.709 438.701 48.7051 438.76 49.5254C438.877 50.2871 439.199 51.0781 439.727 51.8984C440.723 53.4805 441.074 55.2383 440.781 57.1719C440.723 57.6992 440.723 58.2852 440.781 58.9297C440.898 59.5156 440.957 60.0723 440.957 60.5996C440.957 61.0684 440.898 61.6836 440.781 62.4453C440.605 63.5586 440.635 64.9062 440.869 66.4883C441.221 69.418 441.396 71.3809 441.396 72.377C441.396 73.373 441.426 74.2227 441.484 74.9258C441.543 75.5703 441.602 76.2734 441.66 77.0352C441.836 79.0273 441.836 81.0488 441.66 83.0996C441.543 85.0918 440.928 86.2344 439.814 86.5273ZM426.367 51.1074C426.484 49.9941 426.426 48.6172 426.191 46.9766C426.016 45.3359 425.928 44.1348 425.928 43.373C425.928 42.5527 425.869 41.8496 425.752 41.2637C425.576 40.3262 425.078 40.209 424.258 40.9121C423.32 39.9746 422.559 39.9453 421.973 40.8242C421.562 41.4688 421.357 42.5234 421.357 43.9883C421.24 44.9844 421.006 45.8926 420.654 46.7129C420.361 47.5332 420.156 48.4414 420.039 49.4375C419.863 50.6094 419.541 52.0449 419.072 53.7441C418.662 55.4434 418.721 56.7031 419.248 57.5234C419.834 58.3438 420.537 58.6367 421.357 58.4023C422.178 58.168 422.793 58.0508 423.203 58.0508C423.613 57.9922 423.965 57.9336 424.258 57.875C424.961 57.8164 425.488 57.5527 425.84 57.084C426.25 56.5566 426.455 56.1172 426.455 55.7656C426.514 55.3555 426.514 54.9453 426.455 54.5352C426.279 53.3633 426.25 52.2207 426.367 51.1074ZM455.283 24.8281L455.107 27.1133C455.107 27.2305 455.137 27.582 455.195 28.168C455.312 28.6953 455.283 29.0469 455.107 29.2227C454.932 29.3984 454.814 29.8086 454.756 30.4531C454.697 31.0977 454.551 31.5664 454.316 31.8594C454.141 32.1523 453.936 32.5332 453.701 33.002C453.525 33.4707 453.35 33.7637 453.174 33.8809C452.998 33.9395 452.793 34.2031 452.559 34.6719C452.383 35.1406 452.119 35.4336 451.768 35.5508C451.416 35.6094 451.094 35.8438 450.801 36.2539C450.156 37.0742 449.482 37.4258 448.779 37.3086C448.193 37.3086 447.783 37.1035 447.549 36.6934C447.314 36.2246 447.197 35.8145 447.197 35.4629C447.197 35.1113 447.402 34.6719 447.812 34.1445C448.281 33.5586 448.574 33.2363 448.691 33.1777C448.809 33.0605 449.131 32.9141 449.658 32.7383C450.186 32.5039 450.479 32.0352 450.537 31.332C450.596 30.5703 450.508 29.9844 450.273 29.5742C449.746 29.8672 449.336 29.9258 449.043 29.75C448.809 29.5742 448.428 29.5156 447.9 29.5742C447.373 29.6328 446.992 29.4863 446.758 29.1348C446.582 28.7832 446.26 28.5195 445.791 28.3438C445.381 28.1094 445.117 27.6699 445 27.0254C444.941 26.3223 445 25.5898 445.176 24.8281C445.527 22.8359 446.201 21.6348 447.197 21.2246C448.252 20.7559 448.867 20.4336 449.043 20.2578C449.277 20.0234 449.629 20.0234 450.098 20.2578C450.566 20.4922 451.035 20.5215 451.504 20.3457C451.973 20.1699 452.266 20.1992 452.383 20.4336C452.5 20.6094 452.646 20.7266 452.822 20.7852C453.057 20.8437 453.32 20.9023 453.613 20.9609C454.141 21.1953 454.463 21.6348 454.58 22.2793C454.756 22.8652 454.873 23.2168 454.932 23.334C455.049 23.4512 455.137 23.5391 455.195 23.5977C455.254 23.7734 455.283 24.1836 455.283 24.8281ZM491.318 34.7598C491.494 35.1113 491.553 35.4922 491.494 35.9023C491.436 36.3125 491.025 37.0156 490.264 38.0117C489.502 39.0078 489.033 40.0918 488.857 41.2637C488.74 42.377 488.711 43.3145 488.77 44.0762C488.828 44.7793 488.828 45.3945 488.77 45.9219C488.711 47.2109 488.008 48.0898 486.66 48.5586C485.488 49.0273 484.58 48.998 483.936 48.4707C483.291 47.9434 482.764 47.2695 482.354 46.4492C481.943 45.5703 481.621 44.8379 481.387 44.252C481.211 43.6074 480.889 43.2559 480.42 43.1973C479.6 43.0215 478.955 43.1094 478.486 43.4609C478.076 43.8125 477.754 44.1055 477.52 44.3398C477.051 44.8086 476.553 45.1309 476.025 45.3066C475.557 45.4824 475.176 45.6582 474.883 45.834C474.297 46.2441 474.062 46.918 474.18 47.8555C474.414 49.6719 476.436 52.4258 480.244 56.1172C480.947 56.8203 481.768 57.582 482.705 58.4023C483.701 59.2227 484.668 60.1602 485.605 61.2148C487.715 63.7344 488.887 66.5762 489.121 69.7402C489.355 72.9629 488.887 75.7754 487.715 78.1777C486.777 80.1113 485.664 81.3711 484.375 81.957C483.379 82.4844 482.705 83.1875 482.354 84.0664C482.002 84.8867 481.738 85.502 481.562 85.9121C481.387 86.2637 481.006 86.5566 480.42 86.791C479.893 87.084 479.277 87.2012 478.574 87.1426C477.871 87.084 477.197 86.9375 476.553 86.7031C475.967 86.5273 475.41 86.293 474.883 86C474.414 85.7656 474.004 85.6191 473.652 85.5605C473.359 85.502 473.066 85.6191 472.773 85.9121C472.48 86.1465 472.188 86.4102 471.895 86.7031C471.016 87.582 470.225 87.9043 469.521 87.6699C468.818 87.4941 467.998 87.1719 467.061 86.7031C466.123 86.2344 465.215 85.6484 464.336 84.9453C461.172 82.4844 460.088 79.9648 461.084 77.3867C461.729 75.6875 462.432 74.4863 463.193 73.7832C464.014 73.0801 464.658 72.7285 465.127 72.7285C465.889 72.7285 466.387 73.0215 466.621 73.6074C466.914 74.1348 467.148 74.6035 467.324 75.0137C467.5 75.3652 467.705 75.6582 467.939 75.8926C468.174 76.127 468.525 76.3613 468.994 76.5957C469.521 76.8301 470.078 76.9766 470.664 77.0352C472.129 77.1523 473.242 76.5664 474.004 75.2773C474.766 73.9883 475.059 72.582 474.883 71.0586C474.473 68.3047 473.887 67.1328 473.125 67.543C472.48 67.9531 471.689 67.9824 470.752 67.6309C469.814 67.2207 469.316 66.7227 469.258 66.1367C469.199 65.4922 469.082 64.877 468.906 64.291C468.73 63.7051 468.525 63.1484 468.291 62.6211C467.764 61.2734 467.295 60.541 466.885 60.4238C466.416 60.3066 465.771 60.248 464.951 60.248C464.189 60.248 463.34 59.75 462.402 58.7539C461.465 57.6992 460.791 56.4102 460.381 54.8867C459.971 53.3047 459.619 51.957 459.326 50.8438C459.033 49.6719 458.77 48.7637 458.535 48.1191C458.301 47.4746 458.096 46.8008 457.92 46.0977C457.334 43.8711 457.305 41 457.832 37.4844C458.184 35.4336 458.828 33.6465 459.766 32.123C460.703 30.541 461.758 28.9883 462.93 27.4648C465.156 24.4766 467.207 22.3965 469.082 21.2246C470.957 20.0527 472.393 19.9355 473.389 20.873C474.268 21.6348 475.205 21.957 476.201 21.8398C477.256 21.6641 478.076 21.4883 478.662 21.3125L480.244 20.9609C481.24 20.7266 482.236 20.7559 483.232 21.0488C484.287 21.3418 485.225 22.3379 486.045 24.0371C486.455 24.916 486.865 25.6777 487.275 26.3223C487.744 26.9668 488.184 27.582 488.594 28.168C489.473 29.5742 489.971 30.7461 490.088 31.6836C490.264 32.5625 490.469 33.207 490.703 33.6172C490.996 34.0273 491.201 34.4082 491.318 34.7598Z" fill="#451B75"/>
<path id="title_2" d="M22.6816 108.508C24.5879 106.204 26.8913 104.775 29.5918 104.219C30.7832 103.901 31.9746 103.623 33.166 103.385C34.3574 103.146 35.5885 102.67 36.8594 101.955C39.2422 100.605 40.8704 99.9297 41.7441 99.9297C42.6973 99.9297 43.4121 100.009 43.8887 100.168C44.4447 100.327 45.0404 100.446 45.6758 100.525C46.3906 100.605 47.1055 100.645 47.8203 100.645C48.6146 100.645 49.4883 100.724 50.4414 100.883C53.4596 101.28 56.6367 103.266 59.9727 106.84C62.1172 109.143 63.4277 111.526 63.9043 113.988C64.4603 116.451 64.6986 118.873 64.6191 121.256C64.5397 124.671 64.778 127.213 65.334 128.881C65.89 130.549 66.2474 131.82 66.4062 132.693C66.5651 133.567 66.446 134.798 66.0488 136.387C65.7311 137.896 65.1751 138.968 64.3809 139.604C63.5866 140.239 62.7129 140.636 61.7598 140.795C60.8066 140.954 59.8932 140.993 59.0195 140.914C58.1458 140.835 57.431 140.795 56.875 140.795C56.319 140.795 55.9219 140.954 55.6836 141.271C55.5247 141.51 55.3262 141.788 55.0879 142.105C54.5319 142.661 53.4596 142.701 51.8711 142.225C50.2826 141.748 48.972 140.755 47.9395 139.246C46.9069 137.658 46.7878 135.632 47.582 133.17C47.8203 132.376 48.0586 131.661 48.2969 131.025C48.5352 130.311 48.5749 129.715 48.416 129.238C48.0983 128.126 47.3438 127.531 46.1523 127.451C44.9609 127.372 43.9284 127.689 43.0547 128.404C41.8633 129.516 41.069 130.906 40.6719 132.574C40.3542 134.163 40.235 135.314 40.3145 136.029C40.4733 136.744 40.5527 137.499 40.5527 138.293C40.5527 139.087 40.5924 139.921 40.6719 140.795C40.9896 142.86 41.4661 144.25 42.1016 144.965C42.8164 145.68 43.4121 146.077 43.8887 146.156C44.3652 146.236 44.8021 146.275 45.1992 146.275C45.6758 146.196 46.1523 146.156 46.6289 146.156C47.1055 146.156 47.7806 146.355 48.6543 146.752C49.528 147.149 50.4017 147.546 51.2754 147.943C52.2285 148.34 53.0625 148.976 53.7773 149.85C54.4922 150.723 55.0879 151.279 55.5645 151.518C56.1204 151.756 56.597 151.994 56.9941 152.232C57.3913 152.391 57.7487 152.55 58.0664 152.709C58.4635 152.868 58.7812 153.265 59.0195 153.9C60.0521 156.68 60.2904 159.897 59.7344 163.551C59.5755 164.901 59.4167 165.973 59.2578 166.768C59.1784 167.562 59.099 168.277 59.0195 168.912C58.9401 169.468 58.8607 169.984 58.7812 170.461C58.7018 170.858 58.6621 171.493 58.6621 172.367C58.6621 175.624 58.1061 178.126 56.9941 179.873C55.9616 181.62 54.8893 182.812 53.7773 183.447C52.6654 184.083 51.9505 184.559 51.6328 184.877C51.3151 185.195 51.0371 185.592 50.7988 186.068C50.64 186.545 50.362 187.061 49.9648 187.617C49.0117 188.967 47.6217 189.921 45.7949 190.477C43.7298 191.112 41.5059 191.39 39.123 191.311C36.8197 191.311 35.0326 191.191 33.7617 190.953C32.4909 190.715 31.2995 190.119 30.1875 189.166C29.1549 188.213 28.2812 187.18 27.5664 186.068C26.931 184.877 26.4147 184.242 26.0176 184.162C25.6204 184.003 25.1836 183.924 24.707 183.924H23.2773C22.0065 183.924 21.1328 183.566 20.6562 182.852C20.2591 182.057 20.1003 181.342 20.1797 180.707C20.3385 179.992 20.3783 178.999 20.2988 177.729C20.2988 176.458 20.2988 175.266 20.2988 174.154C20.3783 173.042 20.8548 172.089 21.7285 171.295C23.6348 169.786 25.3027 168.992 26.7324 168.912C28.1621 168.833 29.1152 168.555 29.5918 168.078C30.0684 167.602 30.4258 167.165 30.6641 166.768C30.9818 166.37 31.3789 166.132 31.8555 166.053C32.4115 165.973 32.9674 166.013 33.5234 166.172C34.8737 166.569 35.5488 167.363 35.5488 168.555C35.5488 169.746 35.5488 170.858 35.5488 171.891C35.6283 172.844 35.7871 173.717 36.0254 174.512C36.5814 176.577 37.6139 177.53 39.123 177.371C40.791 177.212 41.7044 175.544 41.8633 172.367C41.8633 171.493 41.8633 170.66 41.8633 169.865V167.244C41.8633 163.511 40.0762 160.652 36.502 158.666C35.0723 157.872 33.6823 157.117 32.332 156.402C30.9818 155.688 29.7109 154.814 28.5195 153.781C25.819 151.398 24.1113 148.658 23.3965 145.561C22.6816 142.463 22.1654 140.477 21.8477 139.604C21.5299 138.65 21.2122 138.015 20.8945 137.697C20.6562 137.38 20.3783 137.141 20.0605 136.982C19.7428 136.824 19.306 136.347 18.75 135.553C17.8763 134.361 17.6777 132.971 18.1543 131.383C18.6309 129.794 19.028 128.484 19.3457 127.451C19.6634 126.339 19.8223 125.148 19.8223 123.877C19.8223 122.606 19.7428 121.375 19.584 120.184C19.5046 118.913 19.4648 117.642 19.4648 116.371C19.6237 113.512 20.696 110.891 22.6816 108.508ZM70.3379 127.689L69.7422 117.801C69.7422 116.133 69.7025 114.346 69.623 112.439C69.3053 107.674 69.623 105.013 70.5762 104.457C71.4499 103.98 72.0456 103.464 72.3633 102.908C72.7604 102.352 73.1576 102.074 73.5547 102.074C74.0312 102.074 74.7064 102.074 75.5801 102.074C76.5332 101.995 77.526 101.995 78.5586 102.074C81.0208 102.233 82.6491 102.59 83.4434 103.146C84.3171 103.702 85.2702 104.06 86.3027 104.219C87.3353 104.378 88.3678 104.497 89.4004 104.576C90.5124 104.576 91.5449 104.576 92.498 104.576C93.4512 104.497 94.2852 104.457 95 104.457C95.7943 104.457 96.3105 104.536 96.5488 104.695C97.502 105.092 98.2962 105.251 98.9316 105.172C99.6465 105.092 100.322 105.41 100.957 106.125C101.592 106.76 102.029 107.277 102.268 107.674C102.506 107.992 103.26 108.23 104.531 108.389C105.882 108.548 106.993 108.706 107.867 108.865C108.741 108.945 109.615 109.302 110.488 109.938C111.362 110.573 112.077 110.97 112.633 111.129C113.189 111.288 113.785 111.804 114.42 112.678C115.135 113.551 115.611 114.187 115.85 114.584C116.088 114.981 116.247 115.656 116.326 116.609C116.406 118.833 116.962 120.462 117.994 121.494C119.027 122.527 119.583 123.52 119.662 124.473C119.821 125.426 119.94 126.538 120.02 127.809C120.099 129.079 120.218 130.668 120.377 132.574C120.615 134.401 120.218 136.466 119.186 138.77C118.232 140.993 117.24 142.542 116.207 143.416C115.254 144.29 114.46 145.362 113.824 146.633C113.189 147.824 112.712 149.214 112.395 150.803C112.156 152.312 111.322 153.861 109.893 155.449C109.019 156.561 108.304 157.236 107.748 157.475C107.271 157.713 106.795 157.991 106.318 158.309C105.842 158.547 105.286 158.904 104.65 159.381C104.015 159.778 103.3 160.135 102.506 160.453C100.52 161.406 98.8125 161.605 97.3828 161.049C96.5091 161.446 95.6354 161.724 94.7617 161.883C93.9674 161.962 93.1335 162.121 92.2598 162.359C90.4329 162.995 89.4004 164.067 89.1621 165.576C89.0033 167.085 89.1621 168.634 89.6387 170.223C90.1947 171.811 90.5124 173.161 90.5918 174.273C90.9889 177.848 90.1152 180.945 87.9707 183.566C86.6204 185.155 85.7467 186.863 85.3496 188.689C84.9525 190.437 84.2376 191.628 83.2051 192.264C81.4577 193.852 79.7897 193.495 78.2012 191.191C77.9629 190.953 77.4466 190.635 76.6523 190.238C75.5404 189.603 74.8255 188.61 74.5078 187.26C74.2695 185.83 74.1504 184.4 74.1504 182.971C74.1504 181.541 74.0312 180.191 73.793 178.92C73.5547 177.649 73.2767 176.299 72.959 174.869C72.2441 170.977 71.8867 168.316 71.8867 166.887C71.8867 165.457 71.847 163.988 71.7676 162.479C71.7676 160.969 71.9661 159.619 72.3633 158.428C72.8398 157.236 73.0384 156.442 72.959 156.045C72.8796 155.648 72.959 155.211 73.1973 154.734C73.4355 154.178 73.7135 153.543 74.0312 152.828C74.349 152.034 74.5872 151.24 74.7461 150.445C75.0638 148.777 74.5872 147.348 73.3164 146.156C71.8867 144.806 71.1719 143.376 71.1719 141.867V141.152C71.4102 138.452 71.4499 136.625 71.291 135.672C70.6556 132.971 70.3379 130.311 70.3379 127.689ZM89.4004 133.17C89.5592 133.488 89.6784 133.964 89.7578 134.6C89.9167 135.156 90.0358 135.99 90.1152 137.102C90.2741 138.214 90.2741 139.405 90.1152 140.676C90.0358 141.867 89.9564 142.979 89.877 144.012C89.7181 146.633 90.0358 148.102 90.8301 148.42C91.7038 148.817 93.1335 147.745 95.1191 145.203C97.2637 142.582 99.0508 139.405 100.48 135.672C101.195 133.686 101.235 132.217 100.6 131.264C99.2493 129.675 98.6934 128.245 98.9316 126.975C99.0111 126.895 99.0111 126.697 98.9316 126.379C98.7728 126.22 98.5742 126.021 98.3359 125.783C98.0977 125.465 97.7402 125.188 97.2637 124.949C95.4368 124.234 93.7689 124.234 92.2598 124.949C90.8301 125.585 89.877 126.538 89.4004 127.809C89.0033 129.079 88.8047 130.072 88.8047 130.787C88.8841 131.423 88.9635 131.899 89.043 132.217C89.1224 132.455 89.2415 132.773 89.4004 133.17ZM148.494 171.533C149.05 172.883 149.884 173.559 150.996 173.559C152.029 173.559 152.704 173.757 153.021 174.154C153.577 175.028 153.577 176.696 153.021 179.158C152.704 180.588 152.505 181.7 152.426 182.494C152.426 183.288 152.386 183.964 152.307 184.52C152.148 185.473 151.592 186.505 150.639 187.617C149.606 188.491 148.454 189.126 147.184 189.523C145.992 189.841 144.999 190.079 144.205 190.238C143.411 190.477 142.537 190.834 141.584 191.311C140.154 192.025 138.923 192.343 137.891 192.264C136.938 192.184 136.183 192.105 135.627 192.025C135.15 192.025 134.555 192.145 133.84 192.383C133.204 192.621 132.688 192.701 132.291 192.621C131.894 192.621 131.497 192.542 131.1 192.383C129.908 191.906 128.796 191.668 127.764 191.668C126.334 191.668 125.381 189.285 124.904 184.52C124.666 182.613 124.626 180.786 124.785 179.039C124.944 177.292 125.222 176.18 125.619 175.703C126.016 175.147 126.493 174.79 127.049 174.631C127.605 174.393 128.121 174.234 128.598 174.154C129.074 173.995 129.511 173.876 129.908 173.797C130.385 173.559 130.623 172.725 130.623 171.295C130.702 169.786 130.782 168.396 130.861 167.125C130.941 163.63 131.219 161.168 131.695 159.738C132.49 157.594 132.37 155.767 131.338 154.258C130.305 152.431 129.908 149.016 130.146 144.012C130.305 140.993 130.266 138.531 130.027 136.625C129.71 132.892 129.59 130.271 129.67 128.762C129.749 127.65 129.789 126.776 129.789 126.141C129.789 125.505 129.749 125.029 129.67 124.711C129.432 124.076 128.717 123.758 127.525 123.758C126.334 123.678 125.222 123.122 124.189 122.09C123.157 121.057 122.72 119.429 122.879 117.205C123.117 114.981 123.117 112.956 122.879 111.129C122.641 109.302 122.76 107.872 123.236 106.84C123.713 105.807 123.991 104.934 124.07 104.219C124.15 103.504 124.269 102.868 124.428 102.312C124.904 101.042 125.977 100.327 127.645 100.168C129.392 100.009 130.98 100.049 132.41 100.287C133.919 100.446 135.309 100.684 136.58 101.002C139.916 101.796 142.1 102.193 143.133 102.193C143.927 102.193 144.801 102.114 145.754 101.955C146.786 101.717 147.779 101.518 148.732 101.359C150.956 100.962 152.624 101.081 153.736 101.717C154.928 102.352 155.643 103.107 155.881 103.98C156.199 104.854 156.357 105.807 156.357 106.84C156.357 107.793 156.278 108.826 156.119 109.938C156.04 111.049 156.119 112.241 156.357 113.512C157.072 116.371 157.112 118.714 156.477 120.541C155.841 122.288 155.245 123.361 154.689 123.758C154.133 124.076 153.577 124.274 153.021 124.354C152.545 124.433 152.029 124.512 151.473 124.592C150.996 124.592 150.559 124.87 150.162 125.426C149.527 126.458 149.209 130.43 149.209 137.34L149.447 157.236C149.447 162.32 149.13 167.085 148.494 171.533ZM209.256 113.988C210.13 114.783 210.686 115.974 210.924 117.562C211.162 119.072 211.678 121.454 212.473 124.711C213.267 127.967 213.108 131.462 211.996 135.195C211.361 137.34 210.964 139.087 210.805 140.438C210.328 142.979 209.772 145.163 209.137 146.99C208.581 148.738 208.025 150.922 207.469 153.543C206.913 156.085 206.198 158.309 205.324 160.215C204.451 162.042 203.736 163.392 203.18 164.266C202.703 165.139 202.266 165.934 201.869 166.648C200.916 168.475 200.32 169.865 200.082 170.818C199.923 171.771 199.645 172.844 199.248 174.035C198.93 175.147 198.493 176.259 197.938 177.371C196.428 179.913 194.602 180.866 192.457 180.23C189.757 182.375 188.009 184.083 187.215 185.354C186.421 186.545 185.706 187.419 185.07 187.975C184.435 188.531 183.799 188.928 183.164 189.166C182.608 189.404 182.052 189.603 181.496 189.762C180.94 189.921 180.384 190.199 179.828 190.596C179.272 190.993 178.478 191.311 177.445 191.549C176.492 191.867 175.499 191.906 174.467 191.668C171.925 191.191 170.575 189.126 170.416 185.473C168.351 184.678 167.04 183.924 166.484 183.209C165.214 181.779 164.578 179.952 164.578 177.729C164.578 175.425 164.697 173.598 164.936 172.248C165.253 170.818 165.531 169.468 165.77 168.197C166.484 165.1 166.604 162.677 166.127 160.93C165.65 159.103 165.492 157.435 165.65 155.926C165.889 154.337 165.928 152.63 165.77 150.803C165.69 148.896 165.69 147.229 165.77 145.799C165.928 144.369 166.048 143.019 166.127 141.748C166.286 140.398 166.365 139.167 166.365 138.055C166.365 136.943 166.127 135.91 165.65 134.957C165.174 133.924 164.777 132.892 164.459 131.859C164.221 130.827 164.022 129.874 163.863 129C163.625 126.855 163.228 125.307 162.672 124.354C162.195 123.4 161.997 122.288 162.076 121.018C162.156 119.667 162.036 118.357 161.719 117.086C161.48 115.736 161.361 114.703 161.361 113.988C161.441 113.194 161.361 112.4 161.123 111.605C160.964 110.732 161.044 110.215 161.361 110.057C161.838 109.818 162.275 108.826 162.672 107.078C163.069 105.331 163.546 104.258 164.102 103.861C164.658 103.385 165.253 102.988 165.889 102.67C166.524 102.273 167.239 101.995 168.033 101.836C169.86 101.598 171.528 101.915 173.037 102.789C174.626 103.663 175.777 104.06 176.492 103.98C177.286 103.901 178.081 103.663 178.875 103.266C181.417 102.233 183.879 101.717 186.262 101.717C188.645 101.717 190.312 101.876 191.266 102.193C192.219 102.432 192.973 102.71 193.529 103.027C194.085 103.266 194.602 103.544 195.078 103.861C195.634 104.1 196.389 104.219 197.342 104.219C198.374 104.219 199.129 104.457 199.605 104.934C200.082 105.41 200.519 105.966 200.916 106.602C201.393 107.237 201.909 107.872 202.465 108.508C203.021 109.143 203.736 109.58 204.609 109.818C205.562 109.977 206.158 110.176 206.396 110.414C206.714 110.573 206.952 110.811 207.111 111.129C207.27 111.367 207.429 111.685 207.588 112.082C207.826 112.479 208.382 113.115 209.256 113.988ZM184.117 132.336C183.323 133.21 183.005 134.639 183.164 136.625C183.323 138.531 183.601 140.715 183.998 143.178C184.395 145.561 184.554 147.546 184.475 149.135C184.395 150.723 184.236 152.272 183.998 153.781C183.839 155.29 183.641 156.799 183.402 158.309C183.243 159.818 183.164 161.327 183.164 162.836C183.164 164.266 183.363 165.298 183.76 165.934C184.157 166.569 184.594 166.887 185.07 166.887C185.547 166.807 186.023 166.49 186.5 165.934C186.977 165.298 187.294 164.305 187.453 162.955C187.691 161.525 188.208 160.175 189.002 158.904C189.876 157.554 190.551 156.204 191.027 154.854C191.504 153.503 191.782 152.51 191.861 151.875C192.02 151.24 192.139 150.684 192.219 150.207C192.298 149.651 192.338 149.095 192.338 148.539C192.417 147.904 192.656 146.951 193.053 145.68C193.45 144.409 193.49 143.297 193.172 142.344C192.934 141.311 192.735 140.16 192.576 138.889C192.417 137.618 192.139 136.466 191.742 135.434C191.424 134.322 190.63 133.567 189.359 133.17C188.803 133.011 188.287 132.773 187.811 132.455C187.413 132.137 187.016 131.859 186.619 131.621C185.745 131.224 184.911 131.462 184.117 132.336ZM217.238 119.111L217.477 112.32C217.477 111.208 217.357 110.096 217.119 108.984C216.96 107.872 217.238 106.721 217.953 105.529C218.747 104.258 219.899 103.146 221.408 102.193C222.917 101.24 224.625 100.764 226.531 100.764C228.438 100.764 229.947 101.081 231.059 101.717C232.171 102.352 233.203 102.868 234.156 103.266C235.109 103.663 236.182 103.98 237.373 104.219C239.915 104.616 242.377 104.258 244.76 103.146C247.381 101.876 249.486 101.955 251.074 103.385C252.742 103.464 254.49 103.305 256.316 102.908C259.335 102.273 261.4 102.233 262.512 102.789C264.974 104.219 265.371 107.078 263.703 111.367C263.465 112.003 263.346 112.559 263.346 113.035C263.346 113.512 263.346 113.988 263.346 114.465C263.346 115.895 263.227 116.967 262.988 117.682C262.75 118.396 262.631 118.992 262.631 119.469C262.631 119.945 262.631 120.501 262.631 121.137C262.79 122.408 262.591 123.639 262.035 124.83C261.717 125.545 261.559 126.141 261.559 126.617C261.559 127.014 261.559 127.411 261.559 127.809C261.559 128.841 261.003 129.834 259.891 130.787C258.064 132.693 256.555 133.646 255.363 133.646C255.125 133.646 254.887 133.567 254.648 133.408C254.41 133.249 254.053 133.09 253.576 132.932C251.67 132.296 249.645 131.899 247.5 131.74C245.435 131.581 243.926 131.621 242.973 131.859C240.59 132.336 239.12 133.488 238.564 135.314C237.929 137.221 238.088 138.69 239.041 139.723C239.438 140.199 239.875 140.517 240.352 140.676C240.828 140.835 241.265 140.874 241.662 140.795C242.139 140.636 242.734 140.636 243.449 140.795C244.243 140.954 245.038 141.152 245.832 141.391C247.977 141.867 249.406 141.947 250.121 141.629C250.915 141.232 251.432 141.073 251.67 141.152C251.988 141.232 252.226 141.351 252.385 141.51C252.941 142.066 253.457 142.344 253.934 142.344C255.204 142.264 256.078 142.82 256.555 144.012C257.031 145.124 256.952 146.514 256.316 148.182C256.316 148.42 256.197 149.016 255.959 149.969C255.403 151.875 255.125 153.186 255.125 153.9C255.204 154.615 255.085 155.37 254.768 156.164C254.45 156.879 254.013 157.514 253.457 158.07C252.107 159.262 250.637 159.619 249.049 159.143C248.334 158.825 247.699 158.388 247.143 157.832C243.092 156.641 240.352 156.919 238.922 158.666C238.128 159.619 237.691 160.453 237.611 161.168C237.532 161.883 237.492 163.154 237.492 164.98V169.389C238.525 170.104 239.478 170.938 240.352 171.891C241.225 172.764 242.298 173.241 243.568 173.32C244.839 173.4 245.951 173.32 246.904 173.082C247.937 172.764 248.89 172.447 249.764 172.129C251.67 171.335 253.417 171.215 255.006 171.771C256.594 172.248 257.587 172.923 257.984 173.797C258.382 174.671 258.461 175.822 258.223 177.252C257.984 178.682 257.865 179.754 257.865 180.469C257.945 181.104 257.984 181.7 257.984 182.256C257.984 183.606 257.468 184.917 256.436 186.188C255.324 187.855 254.291 188.888 253.338 189.285C252.385 189.603 251.154 189.682 249.645 189.523C248.135 189.285 246.904 189.365 245.951 189.762C244.998 190.079 244.124 190.516 243.33 191.072C242.615 191.628 241.9 192.145 241.186 192.621C239.994 193.415 238.644 193.415 237.135 192.621C236.579 192.303 236.023 191.986 235.467 191.668C234.037 190.953 232.29 190.635 230.225 190.715C228.16 190.874 226.333 190.318 224.744 189.047C223.156 187.697 222.322 186.068 222.242 184.162C222.242 182.256 222.361 180.906 222.6 180.111C222.838 179.238 223.076 178.562 223.314 178.086C223.632 177.053 223.473 176.259 222.838 175.703C220.932 174.194 220.257 172.208 220.812 169.746C221.051 168.475 221.289 167.482 221.527 166.768C221.766 166.053 221.805 165.298 221.646 164.504C221.488 163.63 221.408 162.876 221.408 162.24C221.488 161.525 221.488 160.85 221.408 160.215C221.249 158.944 220.693 158.229 219.74 158.07C218.549 157.911 217.755 156.641 217.357 154.258C216.881 151.954 217.04 149.651 217.834 147.348C218.708 145.044 219.065 143.257 218.906 141.986C218.747 140.636 218.628 139.405 218.549 138.293L218.668 133.646C218.668 131.343 218.469 129.794 218.072 129C217.675 128.206 217.556 127.054 217.715 125.545C217.874 123.956 217.834 122.765 217.596 121.971C217.357 121.097 217.238 120.144 217.238 119.111ZM288.604 168.555L288.961 174.273C289.12 177.371 288.326 179.396 286.578 180.35C286.102 183.527 285.863 186.346 285.863 188.809C285.307 189.921 284.394 190.596 283.123 190.834C280.74 191.152 279.191 190.516 278.477 188.928C277.444 186.942 276.61 185.87 275.975 185.711C275.816 185.632 275.538 185.592 275.141 185.592C274.823 185.512 274.426 185.393 273.949 185.234C273.473 184.996 273.274 184.361 273.354 183.328C273.512 182.296 273.512 181.462 273.354 180.826C273.195 180.191 272.996 179.516 272.758 178.801C272.122 176.736 271.805 174.75 271.805 172.844C271.805 171.493 271.805 170.262 271.805 169.15C271.884 168.038 271.924 166.926 271.924 165.814C271.765 162.24 271.288 159.182 270.494 156.641C269.779 154.099 269.303 152.431 269.064 151.637C268.588 149.889 268.35 148.221 268.35 146.633C268.35 145.68 268.469 145.005 268.707 144.607C268.945 144.131 269.184 143.654 269.422 143.178C270.057 141.986 270.296 140.596 270.137 139.008C270.057 137.419 269.938 135.831 269.779 134.242C269.7 132.574 269.581 130.747 269.422 128.762C269.342 126.697 269.223 124.512 269.064 122.209C268.985 119.906 268.945 117.682 268.945 115.537C268.945 108.548 269.819 104.616 271.566 103.742C271.884 103.583 272.242 103.424 272.639 103.266C273.115 103.027 273.671 102.71 274.307 102.312C274.942 101.915 275.498 101.518 275.975 101.121C276.531 100.724 277.087 100.406 277.643 100.168C278.675 99.6914 279.906 99.7708 281.336 100.406C282.845 100.962 283.917 101.359 284.553 101.598C285.188 101.757 285.824 101.915 286.459 102.074C287.094 102.154 287.809 102.193 288.604 102.193C289.477 102.114 290.669 102.074 292.178 102.074C293.766 101.995 295.434 101.995 297.182 102.074C299.008 102.154 300.756 102.392 302.424 102.789C307.825 103.901 311.995 106.88 314.934 111.725C316.204 113.869 316.88 115.775 316.959 117.443C317.038 119.111 317.118 120.74 317.197 122.328C317.356 123.837 317.674 125.585 318.15 127.57C318.627 129.477 318.786 131.303 318.627 133.051C318.468 134.798 318.27 136.029 318.031 136.744C317.872 137.38 317.674 137.975 317.436 138.531C317.038 139.723 316.88 140.954 316.959 142.225C317.118 144.29 316.959 145.918 316.482 147.109C316.006 148.221 315.529 149.373 315.053 150.564C313.702 153.503 312.233 155.171 310.645 155.568C309.771 155.727 309.056 155.886 308.5 156.045C307.944 156.204 307.626 156.561 307.547 157.117C307.388 157.514 307.626 157.991 308.262 158.547C308.897 159.023 309.533 159.778 310.168 160.811C310.883 161.843 311.479 162.518 311.955 162.836C312.432 163.154 312.868 163.352 313.266 163.432C314.457 163.67 315.212 163.948 315.529 164.266C316.244 165.139 316.76 165.854 317.078 166.41C317.475 166.966 317.594 167.8 317.436 168.912C317.277 170.024 317.277 171.176 317.436 172.367C317.594 173.559 317.753 174.829 317.912 176.18C318.071 177.451 318.071 178.523 317.912 179.396C317.833 180.27 317.793 180.906 317.793 181.303L318.27 184.4C318.27 186.307 317.714 187.855 316.602 189.047C315.49 190.238 314.616 190.913 313.98 191.072C313.345 191.231 312.749 191.191 312.193 190.953C311.637 190.715 311.161 190.397 310.764 190C310.367 189.682 310.049 189.484 309.811 189.404C309.572 189.245 309.255 189.166 308.857 189.166C308.54 189.087 308.182 188.967 307.785 188.809C306.355 188.411 305.124 185.632 304.092 180.469C303.536 177.927 302.583 176.299 301.232 175.584C299.167 174.551 298.055 173.122 297.896 171.295C297.817 170.421 297.738 169.23 297.658 167.721C297.34 164.702 296.308 162.836 294.561 162.121C293.687 161.803 292.893 161.645 292.178 161.645C291.463 161.645 290.748 162.042 290.033 162.836C289.08 164.027 288.604 165.934 288.604 168.555ZM294.561 145.918C295.593 144.965 296.586 144.131 297.539 143.416C298.572 142.622 299.406 141.629 300.041 140.438C300.756 139.167 301.312 137.896 301.709 136.625C302.344 134.242 302.543 132.058 302.305 130.072C302.146 128.007 301.908 126.657 301.59 126.021C301.352 125.307 300.557 124.949 299.207 124.949C297.936 124.949 296.626 124.632 295.275 123.996C294.005 123.361 293.29 122.606 293.131 121.732C292.972 119.826 292.376 119.151 291.344 119.707C290.788 120.025 290.391 120.342 290.152 120.66C289.914 120.898 289.715 121.693 289.557 123.043C289.318 125.823 289.318 128.007 289.557 129.596C289.874 131.184 290.073 132.257 290.152 132.812C290.232 133.289 290.271 133.845 290.271 134.48C290.351 135.036 290.391 135.712 290.391 136.506C290.47 137.221 290.549 138.412 290.629 140.08C290.788 141.669 290.827 143.019 290.748 144.131C290.669 145.243 290.788 146.395 291.105 147.586C292.376 147.427 293.528 146.871 294.561 145.918ZM356.275 108.508C358.182 106.204 360.485 104.775 363.186 104.219C364.377 103.901 365.568 103.623 366.76 103.385C367.951 103.146 369.182 102.67 370.453 101.955C372.836 100.605 374.464 99.9297 375.338 99.9297C376.291 99.9297 377.006 100.009 377.482 100.168C378.038 100.327 378.634 100.446 379.27 100.525C379.984 100.605 380.699 100.645 381.414 100.645C382.208 100.645 383.082 100.724 384.035 100.883C387.053 101.28 390.23 103.266 393.566 106.84C395.711 109.143 397.021 111.526 397.498 113.988C398.054 116.451 398.292 118.873 398.213 121.256C398.133 124.671 398.372 127.213 398.928 128.881C399.484 130.549 399.841 131.82 400 132.693C400.159 133.567 400.04 134.798 399.643 136.387C399.325 137.896 398.769 138.968 397.975 139.604C397.18 140.239 396.307 140.636 395.354 140.795C394.4 140.954 393.487 140.993 392.613 140.914C391.74 140.835 391.025 140.795 390.469 140.795C389.913 140.795 389.516 140.954 389.277 141.271C389.118 141.51 388.92 141.788 388.682 142.105C388.126 142.661 387.053 142.701 385.465 142.225C383.876 141.748 382.566 140.755 381.533 139.246C380.501 137.658 380.382 135.632 381.176 133.17C381.414 132.376 381.652 131.661 381.891 131.025C382.129 130.311 382.169 129.715 382.01 129.238C381.692 128.126 380.938 127.531 379.746 127.451C378.555 127.372 377.522 127.689 376.648 128.404C375.457 129.516 374.663 130.906 374.266 132.574C373.948 134.163 373.829 135.314 373.908 136.029C374.067 136.744 374.146 137.499 374.146 138.293C374.146 139.087 374.186 139.921 374.266 140.795C374.583 142.86 375.06 144.25 375.695 144.965C376.41 145.68 377.006 146.077 377.482 146.156C377.959 146.236 378.396 146.275 378.793 146.275C379.27 146.196 379.746 146.156 380.223 146.156C380.699 146.156 381.374 146.355 382.248 146.752C383.122 147.149 383.995 147.546 384.869 147.943C385.822 148.34 386.656 148.976 387.371 149.85C388.086 150.723 388.682 151.279 389.158 151.518C389.714 151.756 390.191 151.994 390.588 152.232C390.985 152.391 391.342 152.55 391.66 152.709C392.057 152.868 392.375 153.265 392.613 153.9C393.646 156.68 393.884 159.897 393.328 163.551C393.169 164.901 393.01 165.973 392.852 166.768C392.772 167.562 392.693 168.277 392.613 168.912C392.534 169.468 392.454 169.984 392.375 170.461C392.296 170.858 392.256 171.493 392.256 172.367C392.256 175.624 391.7 178.126 390.588 179.873C389.555 181.62 388.483 182.812 387.371 183.447C386.259 184.083 385.544 184.559 385.227 184.877C384.909 185.195 384.631 185.592 384.393 186.068C384.234 186.545 383.956 187.061 383.559 187.617C382.605 188.967 381.215 189.921 379.389 190.477C377.324 191.112 375.1 191.39 372.717 191.311C370.413 191.311 368.626 191.191 367.355 190.953C366.085 190.715 364.893 190.119 363.781 189.166C362.749 188.213 361.875 187.18 361.16 186.068C360.525 184.877 360.008 184.242 359.611 184.162C359.214 184.003 358.777 183.924 358.301 183.924H356.871C355.6 183.924 354.727 183.566 354.25 182.852C353.853 182.057 353.694 181.342 353.773 180.707C353.932 179.992 353.972 178.999 353.893 177.729C353.893 176.458 353.893 175.266 353.893 174.154C353.972 173.042 354.449 172.089 355.322 171.295C357.229 169.786 358.896 168.992 360.326 168.912C361.756 168.833 362.709 168.555 363.186 168.078C363.662 167.602 364.02 167.165 364.258 166.768C364.576 166.37 364.973 166.132 365.449 166.053C366.005 165.973 366.561 166.013 367.117 166.172C368.467 166.569 369.143 167.363 369.143 168.555C369.143 169.746 369.143 170.858 369.143 171.891C369.222 172.844 369.381 173.717 369.619 174.512C370.175 176.577 371.208 177.53 372.717 177.371C374.385 177.212 375.298 175.544 375.457 172.367C375.457 171.493 375.457 170.66 375.457 169.865V167.244C375.457 163.511 373.67 160.652 370.096 158.666C368.666 157.872 367.276 157.117 365.926 156.402C364.576 155.688 363.305 154.814 362.113 153.781C359.413 151.398 357.705 148.658 356.99 145.561C356.275 142.463 355.759 140.477 355.441 139.604C355.124 138.65 354.806 138.015 354.488 137.697C354.25 137.38 353.972 137.141 353.654 136.982C353.337 136.824 352.9 136.347 352.344 135.553C351.47 134.361 351.271 132.971 351.748 131.383C352.225 129.794 352.622 128.484 352.939 127.451C353.257 126.339 353.416 125.148 353.416 123.877C353.416 122.606 353.337 121.375 353.178 120.184C353.098 118.913 353.059 117.642 353.059 116.371C353.217 113.512 354.29 110.891 356.275 108.508ZM405.004 123.4C404.924 122.368 404.885 121.335 404.885 120.303C404.885 119.27 405.044 118.079 405.361 116.729C405.679 115.299 406.473 114.028 407.744 112.916C409.094 111.725 410.246 110.573 411.199 109.461C412.152 108.27 412.986 107.078 413.701 105.887C414.416 104.695 415.29 103.742 416.322 103.027C419.896 100.565 424.9 99.612 431.334 100.168C433.955 100.406 436.735 101.359 439.674 103.027C441.104 103.822 442.335 105.291 443.367 107.436C444.4 109.501 445.115 110.93 445.512 111.725C445.909 112.519 446.425 113.115 447.061 113.512C447.696 113.829 448.252 114.306 448.729 114.941C449.285 115.577 449.84 116.609 450.396 118.039C451.032 119.389 451.588 120.978 452.064 122.805C453.335 127.014 453.891 130.549 453.732 133.408C453.574 136.268 453.454 139.167 453.375 142.105C453.216 147.348 452.7 151.12 451.826 153.424C450.952 155.727 450.277 157.673 449.801 159.262C449.404 160.771 449.165 162.161 449.086 163.432C449.007 164.702 448.967 165.934 448.967 167.125C448.808 170.302 448.57 172.208 448.252 172.844C448.014 173.479 447.577 174.115 446.941 174.75C446.306 175.385 445.591 176.021 444.797 176.656C444.082 177.212 443.367 177.768 442.652 178.324C441.938 178.88 441.421 179.357 441.104 179.754C440.786 180.072 440.389 180.548 439.912 181.184C439.515 181.819 439.078 182.494 438.602 183.209C438.204 183.924 437.807 184.599 437.41 185.234C437.092 185.79 436.854 186.227 436.695 186.545C436.536 186.783 436.258 187.26 435.861 187.975C435.464 188.689 434.988 189.444 434.432 190.238C431.334 194.051 428.395 194.21 425.615 190.715C425.377 190.318 424.98 190.119 424.424 190.119C423.947 190.119 423.352 190.278 422.637 190.596C422.001 190.993 421.088 190.993 419.896 190.596C418.705 190.199 417.752 189.563 417.037 188.689C416.402 187.736 415.766 186.982 415.131 186.426C414.575 185.87 414.019 185.433 413.463 185.115C412.907 184.798 412.351 184.52 411.795 184.281C410.286 183.487 409.492 182.852 409.412 182.375C409.333 181.819 409.253 181.303 409.174 180.826C409.174 180.35 409.094 179.754 408.936 179.039C408.3 175.227 406.751 169.826 404.289 162.836C402.383 157.594 401.867 152.153 402.74 146.514C403.376 142.383 403.971 138.928 404.527 136.148C405.401 131.939 405.719 129 405.48 127.332C405.322 125.664 405.163 124.354 405.004 123.4ZM428.117 130.191C426.688 130.271 425.734 130.827 425.258 131.859C424.781 132.812 424.424 133.766 424.186 134.719C423.947 135.592 423.63 136.307 423.232 136.863C422.915 137.419 422.597 137.975 422.279 138.531C420.929 140.517 420.77 142.582 421.803 144.727C423.312 147.824 424.106 149.889 424.186 150.922C424.265 151.875 424.344 153.305 424.424 155.211C424.503 157.038 424.662 158.944 424.9 160.93C425.615 165.934 426.688 168.436 428.117 168.436C428.911 168.436 429.666 167.522 430.381 165.695C430.54 165.298 430.619 164.623 430.619 163.67C430.699 162.717 430.857 161.605 431.096 160.334C431.969 155.807 432.287 152.669 432.049 150.922C431.89 149.174 431.771 147.626 431.691 146.275C431.691 144.925 431.691 143.535 431.691 142.105V134.838C431.691 133.09 431.453 131.859 430.977 131.145C430.579 130.35 429.626 130.033 428.117 130.191ZM480.539 172.963C481.492 172.566 482.525 172.367 483.637 172.367C484.749 172.367 485.622 172.526 486.258 172.844C486.893 173.161 487.529 173.519 488.164 173.916C489.673 174.949 491.301 175.465 493.049 175.465C494.796 175.385 496.266 175.306 497.457 175.227C498.648 175.068 499.8 175.385 500.912 176.18C502.262 177.371 502.858 179.357 502.699 182.137C502.54 184.758 501.945 186.465 500.912 187.26C499.88 187.975 498.926 188.332 498.053 188.332C497.179 188.332 496.305 188.292 495.432 188.213C494.558 188.054 493.724 187.935 492.93 187.855C492.135 187.776 491.46 187.975 490.904 188.451C488.045 190.437 485.781 190.635 484.113 189.047C483.319 188.173 482.286 187.776 481.016 187.855C479.745 187.935 478.593 188.213 477.561 188.689C476.607 189.087 475.615 189.444 474.582 189.762C469.896 191.509 466.719 190.238 465.051 185.949C464.733 185.076 464.455 184.281 464.217 183.566C464.058 182.772 463.859 182.137 463.621 181.66C463.065 180.548 462.906 178.642 463.145 175.941C463.383 172.208 463.343 169.468 463.025 167.721C462.708 165.973 462.43 164.583 462.191 163.551C461.635 160.85 461.397 158.745 461.477 157.236C461.715 154.615 461.596 151.796 461.119 148.777C461.04 147.904 461.318 146.712 461.953 145.203C464.018 140.438 464.018 136.784 461.953 134.242C461.556 133.766 461.199 133.329 460.881 132.932C460.563 132.535 460.404 131.979 460.404 131.264C459.689 124.83 459.332 116.57 459.332 106.482C459.332 105.609 459.729 104.775 460.523 103.98C462.033 102.471 463.224 101.796 464.098 101.955C467.036 102.749 469.658 102.868 471.961 102.312C474.344 101.677 476.409 101.359 478.156 101.359C479.904 101.28 481.413 102.074 482.684 103.742C485.543 107.714 486.258 112.439 484.828 117.92C484.431 119.191 484.272 120.422 484.352 121.613C484.431 122.725 484.193 123.956 483.637 125.307C483.16 126.577 482.962 127.769 483.041 128.881C483.12 129.993 483.24 131.542 483.398 133.527C483.796 138.69 483.081 142.701 481.254 145.561C480.301 147.07 479.864 148.896 479.943 151.041C480.102 153.186 480.221 154.973 480.301 156.402C480.46 157.753 480.46 159.262 480.301 160.93C480.221 162.518 480.182 164.424 480.182 166.648C480.182 168.793 480.301 170.898 480.539 172.963ZM527.242 171.533C527.798 172.883 528.632 173.559 529.744 173.559C530.777 173.559 531.452 173.757 531.77 174.154C532.326 175.028 532.326 176.696 531.77 179.158C531.452 180.588 531.253 181.7 531.174 182.494C531.174 183.288 531.134 183.964 531.055 184.52C530.896 185.473 530.34 186.505 529.387 187.617C528.354 188.491 527.202 189.126 525.932 189.523C524.74 189.841 523.747 190.079 522.953 190.238C522.159 190.477 521.285 190.834 520.332 191.311C518.902 192.025 517.671 192.343 516.639 192.264C515.686 192.184 514.931 192.105 514.375 192.025C513.898 192.025 513.303 192.145 512.588 192.383C511.952 192.621 511.436 192.701 511.039 192.621C510.642 192.621 510.245 192.542 509.848 192.383C508.656 191.906 507.544 191.668 506.512 191.668C505.082 191.668 504.129 189.285 503.652 184.52C503.414 182.613 503.374 180.786 503.533 179.039C503.692 177.292 503.97 176.18 504.367 175.703C504.764 175.147 505.241 174.79 505.797 174.631C506.353 174.393 506.869 174.234 507.346 174.154C507.822 173.995 508.259 173.876 508.656 173.797C509.133 173.559 509.371 172.725 509.371 171.295C509.451 169.786 509.53 168.396 509.609 167.125C509.689 163.63 509.967 161.168 510.443 159.738C511.238 157.594 511.118 155.767 510.086 154.258C509.053 152.431 508.656 149.016 508.895 144.012C509.053 140.993 509.014 138.531 508.775 136.625C508.458 132.892 508.339 130.271 508.418 128.762C508.497 127.65 508.537 126.776 508.537 126.141C508.537 125.505 508.497 125.029 508.418 124.711C508.18 124.076 507.465 123.758 506.273 123.758C505.082 123.678 503.97 123.122 502.938 122.09C501.905 121.057 501.468 119.429 501.627 117.205C501.865 114.981 501.865 112.956 501.627 111.129C501.389 109.302 501.508 107.872 501.984 106.84C502.461 105.807 502.739 104.934 502.818 104.219C502.898 103.504 503.017 102.868 503.176 102.312C503.652 101.042 504.725 100.327 506.393 100.168C508.14 100.009 509.729 100.049 511.158 100.287C512.667 100.446 514.057 100.684 515.328 101.002C518.664 101.796 520.848 102.193 521.881 102.193C522.675 102.193 523.549 102.114 524.502 101.955C525.535 101.717 526.527 101.518 527.48 101.359C529.704 100.962 531.372 101.081 532.484 101.717C533.676 102.352 534.391 103.107 534.629 103.98C534.947 104.854 535.105 105.807 535.105 106.84C535.105 107.793 535.026 108.826 534.867 109.938C534.788 111.049 534.867 112.241 535.105 113.512C535.82 116.371 535.86 118.714 535.225 120.541C534.589 122.288 533.993 123.361 533.438 123.758C532.882 124.076 532.326 124.274 531.77 124.354C531.293 124.433 530.777 124.512 530.221 124.592C529.744 124.592 529.307 124.87 528.91 125.426C528.275 126.458 527.957 130.43 527.957 137.34L528.195 157.236C528.195 162.32 527.878 167.085 527.242 171.533ZM586.098 111.248C586.495 114.822 586.574 117.84 586.336 120.303C586.336 120.303 586.098 122.249 585.621 126.141C585.462 127.491 585.423 129.238 585.502 131.383C585.661 133.527 585.462 135.076 584.906 136.029C584.35 136.903 583.397 137.459 582.047 137.697C580.776 137.936 579.743 137.896 578.949 137.578C578.234 137.181 577.559 136.784 576.924 136.387C575.335 135.513 574.025 135.394 572.992 136.029C572.039 136.665 571.364 137.618 570.967 138.889C570.57 140.16 570.331 141.629 570.252 143.297C570.014 145.759 570.014 148.976 570.252 152.947C570.331 154.377 570.331 155.529 570.252 156.402C570.252 157.197 570.252 157.911 570.252 158.547C570.252 160.056 570.49 161.525 570.967 162.955C571.443 164.385 571.682 165.457 571.682 166.172C571.682 166.887 571.562 167.482 571.324 167.959C571.165 168.356 570.887 168.714 570.49 169.031C570.093 169.27 569.736 169.548 569.418 169.865C569.1 170.104 568.743 170.382 568.346 170.699C568.028 170.938 567.671 171.215 567.273 171.533C567.671 175.425 567.75 178.523 567.512 180.826C567.273 183.05 567.115 184.956 567.035 186.545C566.956 188.133 566.559 189.365 565.844 190.238C564.891 191.35 562.984 192.145 560.125 192.621C558.457 192.701 557.226 191.827 556.432 190C555.637 188.253 555.28 186.108 555.359 183.566C555.518 181.025 555.479 179.079 555.24 177.729C555.002 176.299 554.684 175.107 554.287 174.154C553.969 173.201 553.652 172.367 553.334 171.652C553.016 170.858 552.738 169.786 552.5 168.436C552.262 167.085 552.421 165.616 552.977 164.027C551.865 162.757 551.11 161.406 550.713 159.977C550.316 158.547 550.355 156.68 550.832 154.377C551.388 151.994 551.745 149.85 551.904 147.943C552.143 146.037 552.222 144.29 552.143 142.701C551.984 139.048 551.15 136.943 549.641 136.387C548.529 136.069 547.298 136.347 545.947 137.221C544.676 138.094 543.684 138.65 542.969 138.889C542.254 139.127 541.539 138.968 540.824 138.412C540.189 137.856 539.871 137.181 539.871 136.387C539.951 135.592 540.109 134.758 540.348 133.885C540.586 132.932 540.785 132.018 540.943 131.145C541.182 130.271 541.142 129.437 540.824 128.643C540.507 127.848 540.109 127.332 539.633 127.094C539.156 126.855 538.719 126.458 538.322 125.902C537.29 124.632 537.012 122.408 537.488 119.23C537.965 115.974 538.322 113.313 538.561 111.248C538.799 109.183 538.958 107.674 539.037 106.721C539.196 105.688 539.474 104.775 539.871 103.98C540.268 103.186 540.864 102.471 541.658 101.836C543.644 100.406 546.225 99.89 549.402 100.287C564.017 102.273 572.317 102.948 574.303 102.312C575.097 102.074 575.812 101.836 576.447 101.598C581.928 99.3737 585.145 102.59 586.098 111.248ZM633.277 190.715C632.801 191.589 632.165 192.224 631.371 192.621C630.577 193.098 629.783 193.018 628.988 192.383C628.194 191.827 627.598 191.589 627.201 191.668C626.883 191.747 626.566 191.827 626.248 191.906C625.533 191.986 624.818 191.469 624.104 190.357C623.389 189.245 622.992 188.372 622.912 187.736C622.833 187.021 622.833 186.346 622.912 185.711C623.23 184.281 622.992 183.01 622.197 181.898C621.482 180.786 620.966 179.952 620.648 179.396C620.41 178.84 620.291 178.046 620.291 177.014C620.291 175.902 620.212 175.227 620.053 174.988C619.973 174.671 619.894 174.432 619.814 174.273C619.417 173.559 619.258 172.447 619.338 170.938C619.497 169.428 619.298 168.396 618.742 167.84C618.186 167.204 617.432 166.728 616.479 166.41C615.605 166.092 614.89 166.212 614.334 166.768C613.857 167.244 613.381 167.84 612.904 168.555C612.507 169.27 611.991 169.905 611.355 170.461C610.72 170.938 609.886 171.057 608.854 170.818C607.9 170.58 606.828 170.818 605.637 171.533C604.445 172.248 603.73 173.122 603.492 174.154C603.254 175.107 602.976 176.1 602.658 177.133C602.34 178.165 602.221 179.118 602.301 179.992C602.46 180.866 602.46 181.74 602.301 182.613C602.221 183.408 602.023 184.202 601.705 184.996C601.07 186.982 600.315 188.054 599.441 188.213C598.727 188.292 597.972 188.292 597.178 188.213C596.304 189.801 595.271 190.755 594.08 191.072C590.824 191.787 588.878 191.271 588.242 189.523C587.845 188.491 587.607 187.141 587.527 185.473C587.368 182.137 587.011 179.873 586.455 178.682C585.899 177.49 585.74 176.061 585.979 174.393C586.296 172.725 586.415 171.057 586.336 169.389C586.257 167.721 586.257 166.45 586.336 165.576C586.415 164.702 586.495 163.908 586.574 163.193C586.733 162.479 586.892 161.803 587.051 161.168C587.21 160.453 587.289 159.659 587.289 158.785C587.368 157.832 587.527 156.76 587.766 155.568C588.004 154.377 588.242 153.146 588.48 151.875C589.116 148.698 589.354 146.315 589.195 144.727C589.036 143.138 589.156 141.788 589.553 140.676C590.029 139.564 590.546 138.571 591.102 137.697C592.531 135.394 593.206 133.527 593.127 132.098C593.048 130.589 592.968 129.437 592.889 128.643C592.889 127.769 592.928 126.895 593.008 126.021C593.405 121.732 595.43 115.021 599.084 105.887C599.322 105.013 600.077 104.338 601.348 103.861C602.618 103.385 603.889 103.345 605.16 103.742C606.51 104.06 607.583 104.219 608.377 104.219C609.251 104.139 609.965 103.822 610.521 103.266C611.157 102.63 611.792 102.035 612.428 101.479C613.143 100.923 613.977 100.486 614.93 100.168C615.883 99.7708 616.955 99.5723 618.146 99.5723C619.338 99.5723 620.609 99.9297 621.959 100.645C624.183 101.836 625.652 102.948 626.367 103.98C627.082 105.013 627.559 105.847 627.797 106.482C628.035 107.118 628.432 107.992 628.988 109.104C629.544 110.215 629.783 111.208 629.703 112.082C629.703 112.956 629.862 113.988 630.18 115.18C630.497 116.371 630.497 117.761 630.18 119.35C629.862 120.938 629.862 122.527 630.18 124.115C630.497 125.624 630.656 126.657 630.656 127.213C630.656 127.769 630.696 128.285 630.775 128.762C630.855 130.112 631.133 131.303 631.609 132.336C632.086 133.448 632.205 134.838 631.967 136.506C631.808 138.094 631.768 139.445 631.848 140.557C632.007 141.589 632.443 142.661 633.158 143.773C634.508 145.918 634.985 148.301 634.588 150.922C634.508 151.637 634.508 152.431 634.588 153.305C634.747 154.099 634.826 154.854 634.826 155.568C634.826 156.204 634.747 157.038 634.588 158.07C634.35 159.579 634.389 161.406 634.707 163.551C635.184 167.522 635.422 170.183 635.422 171.533C635.422 172.883 635.462 174.035 635.541 174.988C635.62 175.862 635.7 176.815 635.779 177.848C636.018 180.548 636.018 183.288 635.779 186.068C635.62 188.769 634.786 190.318 633.277 190.715ZM615.049 142.701C615.208 141.192 615.128 139.326 614.811 137.102C614.572 134.878 614.453 133.249 614.453 132.217C614.453 131.105 614.374 130.152 614.215 129.357C613.977 128.087 613.301 127.928 612.189 128.881C610.919 127.61 609.886 127.57 609.092 128.762C608.536 129.635 608.258 131.065 608.258 133.051C608.099 134.401 607.781 135.632 607.305 136.744C606.908 137.856 606.63 139.087 606.471 140.438C606.232 142.026 605.796 143.972 605.16 146.275C604.604 148.579 604.684 150.286 605.398 151.398C606.193 152.51 607.146 152.908 608.258 152.59C609.37 152.272 610.204 152.113 610.76 152.113C611.316 152.034 611.792 151.954 612.189 151.875C613.143 151.796 613.857 151.438 614.334 150.803C614.89 150.088 615.168 149.492 615.168 149.016C615.247 148.46 615.247 147.904 615.168 147.348C614.93 145.759 614.89 144.21 615.049 142.701ZM665.326 171.533C665.882 172.883 666.716 173.559 667.828 173.559C668.861 173.559 669.536 173.757 669.854 174.154C670.41 175.028 670.41 176.696 669.854 179.158C669.536 180.588 669.337 181.7 669.258 182.494C669.258 183.288 669.218 183.964 669.139 184.52C668.98 185.473 668.424 186.505 667.471 187.617C666.438 188.491 665.286 189.126 664.016 189.523C662.824 189.841 661.831 190.079 661.037 190.238C660.243 190.477 659.369 190.834 658.416 191.311C656.986 192.025 655.755 192.343 654.723 192.264C653.77 192.184 653.015 192.105 652.459 192.025C651.982 192.025 651.387 192.145 650.672 192.383C650.036 192.621 649.52 192.701 649.123 192.621C648.726 192.621 648.329 192.542 647.932 192.383C646.74 191.906 645.628 191.668 644.596 191.668C643.166 191.668 642.213 189.285 641.736 184.52C641.498 182.613 641.458 180.786 641.617 179.039C641.776 177.292 642.054 176.18 642.451 175.703C642.848 175.147 643.325 174.79 643.881 174.631C644.437 174.393 644.953 174.234 645.43 174.154C645.906 173.995 646.343 173.876 646.74 173.797C647.217 173.559 647.455 172.725 647.455 171.295C647.535 169.786 647.614 168.396 647.693 167.125C647.773 163.63 648.051 161.168 648.527 159.738C649.322 157.594 649.202 155.767 648.17 154.258C647.137 152.431 646.74 149.016 646.979 144.012C647.137 140.993 647.098 138.531 646.859 136.625C646.542 132.892 646.423 130.271 646.502 128.762C646.581 127.65 646.621 126.776 646.621 126.141C646.621 125.505 646.581 125.029 646.502 124.711C646.264 124.076 645.549 123.758 644.357 123.758C643.166 123.678 642.054 123.122 641.021 122.09C639.989 121.057 639.552 119.429 639.711 117.205C639.949 114.981 639.949 112.956 639.711 111.129C639.473 109.302 639.592 107.872 640.068 106.84C640.545 105.807 640.823 104.934 640.902 104.219C640.982 103.504 641.101 102.868 641.26 102.312C641.736 101.042 642.809 100.327 644.477 100.168C646.224 100.009 647.812 100.049 649.242 100.287C650.751 100.446 652.141 100.684 653.412 101.002C656.748 101.796 658.932 102.193 659.965 102.193C660.759 102.193 661.633 102.114 662.586 101.955C663.618 101.717 664.611 101.518 665.564 101.359C667.788 100.962 669.456 101.081 670.568 101.717C671.76 102.352 672.475 103.107 672.713 103.98C673.031 104.854 673.189 105.807 673.189 106.84C673.189 107.793 673.11 108.826 672.951 109.938C672.872 111.049 672.951 112.241 673.189 113.512C673.904 116.371 673.944 118.714 673.309 120.541C672.673 122.288 672.077 123.361 671.521 123.758C670.965 124.076 670.41 124.274 669.854 124.354C669.377 124.433 668.861 124.512 668.305 124.592C667.828 124.592 667.391 124.87 666.994 125.426C666.359 126.458 666.041 130.43 666.041 137.34L666.279 157.236C666.279 162.32 665.962 167.085 665.326 171.533ZM698.805 168.555L699.162 174.273C699.321 177.371 698.527 179.396 696.779 180.35C696.303 183.527 696.064 186.346 696.064 188.809C695.508 189.921 694.595 190.596 693.324 190.834C690.941 191.152 689.393 190.516 688.678 188.928C687.645 186.942 686.811 185.87 686.176 185.711C686.017 185.632 685.739 185.592 685.342 185.592C685.024 185.512 684.627 185.393 684.15 185.234C683.674 184.996 683.475 184.361 683.555 183.328C683.714 182.296 683.714 181.462 683.555 180.826C683.396 180.191 683.197 179.516 682.959 178.801C682.324 176.736 682.006 174.75 682.006 172.844C682.006 171.493 682.006 170.262 682.006 169.15C682.085 168.038 682.125 166.926 682.125 165.814C681.966 162.24 681.49 159.182 680.695 156.641C679.98 154.099 679.504 152.431 679.266 151.637C678.789 149.889 678.551 148.221 678.551 146.633C678.551 145.68 678.67 145.005 678.908 144.607C679.146 144.131 679.385 143.654 679.623 143.178C680.258 141.986 680.497 140.596 680.338 139.008C680.258 137.419 680.139 135.831 679.98 134.242C679.901 132.574 679.782 130.747 679.623 128.762C679.544 126.697 679.424 124.512 679.266 122.209C679.186 119.906 679.146 117.682 679.146 115.537C679.146 108.548 680.02 104.616 681.768 103.742C682.085 103.583 682.443 103.424 682.84 103.266C683.316 103.027 683.872 102.71 684.508 102.312C685.143 101.915 685.699 101.518 686.176 101.121C686.732 100.724 687.288 100.406 687.844 100.168C688.876 99.6914 690.107 99.7708 691.537 100.406C693.046 100.962 694.118 101.359 694.754 101.598C695.389 101.757 696.025 101.915 696.66 102.074C697.296 102.154 698.01 102.193 698.805 102.193C699.678 102.114 700.87 102.074 702.379 102.074C703.967 101.995 705.635 101.995 707.383 102.074C709.21 102.154 710.957 102.392 712.625 102.789C718.026 103.901 722.196 106.88 725.135 111.725C726.406 113.869 727.081 115.775 727.16 117.443C727.24 119.111 727.319 120.74 727.398 122.328C727.557 123.837 727.875 125.585 728.352 127.57C728.828 129.477 728.987 131.303 728.828 133.051C728.669 134.798 728.471 136.029 728.232 136.744C728.074 137.38 727.875 137.975 727.637 138.531C727.24 139.723 727.081 140.954 727.16 142.225C727.319 144.29 727.16 145.918 726.684 147.109C726.207 148.221 725.73 149.373 725.254 150.564C723.904 153.503 722.434 155.171 720.846 155.568C719.972 155.727 719.257 155.886 718.701 156.045C718.145 156.204 717.827 156.561 717.748 157.117C717.589 157.514 717.827 157.991 718.463 158.547C719.098 159.023 719.734 159.778 720.369 160.811C721.084 161.843 721.68 162.518 722.156 162.836C722.633 163.154 723.07 163.352 723.467 163.432C724.658 163.67 725.413 163.948 725.73 164.266C726.445 165.139 726.962 165.854 727.279 166.41C727.676 166.966 727.796 167.8 727.637 168.912C727.478 170.024 727.478 171.176 727.637 172.367C727.796 173.559 727.954 174.829 728.113 176.18C728.272 177.451 728.272 178.523 728.113 179.396C728.034 180.27 727.994 180.906 727.994 181.303L728.471 184.4C728.471 186.307 727.915 187.855 726.803 189.047C725.691 190.238 724.817 190.913 724.182 191.072C723.546 191.231 722.951 191.191 722.395 190.953C721.839 190.715 721.362 190.397 720.965 190C720.568 189.682 720.25 189.484 720.012 189.404C719.773 189.245 719.456 189.166 719.059 189.166C718.741 189.087 718.383 188.967 717.986 188.809C716.557 188.411 715.326 185.632 714.293 180.469C713.737 177.927 712.784 176.299 711.434 175.584C709.368 174.551 708.257 173.122 708.098 171.295C708.018 170.421 707.939 169.23 707.859 167.721C707.542 164.702 706.509 162.836 704.762 162.121C703.888 161.803 703.094 161.645 702.379 161.645C701.664 161.645 700.949 162.042 700.234 162.836C699.281 164.027 698.805 165.934 698.805 168.555ZM704.762 145.918C705.794 144.965 706.787 144.131 707.74 143.416C708.773 142.622 709.607 141.629 710.242 140.438C710.957 139.167 711.513 137.896 711.91 136.625C712.546 134.242 712.744 132.058 712.506 130.072C712.347 128.007 712.109 126.657 711.791 126.021C711.553 125.307 710.758 124.949 709.408 124.949C708.137 124.949 706.827 124.632 705.477 123.996C704.206 123.361 703.491 122.606 703.332 121.732C703.173 119.826 702.577 119.151 701.545 119.707C700.989 120.025 700.592 120.342 700.354 120.66C700.115 120.898 699.917 121.693 699.758 123.043C699.52 125.823 699.52 128.007 699.758 129.596C700.076 131.184 700.274 132.257 700.354 132.812C700.433 133.289 700.473 133.845 700.473 134.48C700.552 135.036 700.592 135.712 700.592 136.506C700.671 137.221 700.751 138.412 700.83 140.08C700.989 141.669 701.029 143.019 700.949 144.131C700.87 145.243 700.989 146.395 701.307 147.586C702.577 147.427 703.729 146.871 704.762 145.918ZM735.143 119.111L735.381 112.32C735.381 111.208 735.262 110.096 735.023 108.984C734.865 107.872 735.143 106.721 735.857 105.529C736.652 104.258 737.803 103.146 739.312 102.193C740.822 101.24 742.529 100.764 744.436 100.764C746.342 100.764 747.851 101.081 748.963 101.717C750.075 102.352 751.107 102.868 752.061 103.266C753.014 103.663 754.086 103.98 755.277 104.219C757.819 104.616 760.281 104.258 762.664 103.146C765.285 101.876 767.39 101.955 768.979 103.385C770.646 103.464 772.394 103.305 774.221 102.908C777.239 102.273 779.304 102.233 780.416 102.789C782.878 104.219 783.275 107.078 781.607 111.367C781.369 112.003 781.25 112.559 781.25 113.035C781.25 113.512 781.25 113.988 781.25 114.465C781.25 115.895 781.131 116.967 780.893 117.682C780.654 118.396 780.535 118.992 780.535 119.469C780.535 119.945 780.535 120.501 780.535 121.137C780.694 122.408 780.495 123.639 779.939 124.83C779.622 125.545 779.463 126.141 779.463 126.617C779.463 127.014 779.463 127.411 779.463 127.809C779.463 128.841 778.907 129.834 777.795 130.787C775.968 132.693 774.459 133.646 773.268 133.646C773.029 133.646 772.791 133.567 772.553 133.408C772.314 133.249 771.957 133.09 771.48 132.932C769.574 132.296 767.549 131.899 765.404 131.74C763.339 131.581 761.83 131.621 760.877 131.859C758.494 132.336 757.025 133.488 756.469 135.314C755.833 137.221 755.992 138.69 756.945 139.723C757.342 140.199 757.779 140.517 758.256 140.676C758.732 140.835 759.169 140.874 759.566 140.795C760.043 140.636 760.639 140.636 761.354 140.795C762.148 140.954 762.942 141.152 763.736 141.391C765.881 141.867 767.311 141.947 768.025 141.629C768.82 141.232 769.336 141.073 769.574 141.152C769.892 141.232 770.13 141.351 770.289 141.51C770.845 142.066 771.361 142.344 771.838 142.344C773.109 142.264 773.982 142.82 774.459 144.012C774.936 145.124 774.856 146.514 774.221 148.182C774.221 148.42 774.102 149.016 773.863 149.969C773.307 151.875 773.029 153.186 773.029 153.9C773.109 154.615 772.99 155.37 772.672 156.164C772.354 156.879 771.917 157.514 771.361 158.07C770.011 159.262 768.542 159.619 766.953 159.143C766.238 158.825 765.603 158.388 765.047 157.832C760.996 156.641 758.256 156.919 756.826 158.666C756.032 159.619 755.595 160.453 755.516 161.168C755.436 161.883 755.396 163.154 755.396 164.98V169.389C756.429 170.104 757.382 170.938 758.256 171.891C759.13 172.764 760.202 173.241 761.473 173.32C762.743 173.4 763.855 173.32 764.809 173.082C765.841 172.764 766.794 172.447 767.668 172.129C769.574 171.335 771.322 171.215 772.91 171.771C774.499 172.248 775.492 172.923 775.889 173.797C776.286 174.671 776.365 175.822 776.127 177.252C775.889 178.682 775.77 179.754 775.77 180.469C775.849 181.104 775.889 181.7 775.889 182.256C775.889 183.606 775.372 184.917 774.34 186.188C773.228 187.855 772.195 188.888 771.242 189.285C770.289 189.603 769.058 189.682 767.549 189.523C766.04 189.285 764.809 189.365 763.855 189.762C762.902 190.079 762.029 190.516 761.234 191.072C760.52 191.628 759.805 192.145 759.09 192.621C757.898 193.415 756.548 193.415 755.039 192.621C754.483 192.303 753.927 191.986 753.371 191.668C751.941 190.953 750.194 190.635 748.129 190.715C746.064 190.874 744.237 190.318 742.648 189.047C741.06 187.697 740.226 186.068 740.146 184.162C740.146 182.256 740.266 180.906 740.504 180.111C740.742 179.238 740.98 178.562 741.219 178.086C741.536 177.053 741.378 176.259 740.742 175.703C738.836 174.194 738.161 172.208 738.717 169.746C738.955 168.475 739.193 167.482 739.432 166.768C739.67 166.053 739.71 165.298 739.551 164.504C739.392 163.63 739.312 162.876 739.312 162.24C739.392 161.525 739.392 160.85 739.312 160.215C739.154 158.944 738.598 158.229 737.645 158.07C736.453 157.911 735.659 156.641 735.262 154.258C734.785 151.954 734.944 149.651 735.738 147.348C736.612 145.044 736.969 143.257 736.811 141.986C736.652 140.636 736.533 139.405 736.453 138.293L736.572 133.646C736.572 131.343 736.374 129.794 735.977 129C735.579 128.206 735.46 127.054 735.619 125.545C735.778 123.956 735.738 122.765 735.5 121.971C735.262 121.097 735.143 120.144 735.143 119.111Z" fill="#EEEEEE"/>
<g id="left-tooth">
<path id="Vector 2" d="M356.549 28.9961C354.8 25.4412 351.434 16.9777 351.959 11.5625C357.176 8.79305 367.658 4.97986 367.846 11.8824C368.081 20.5105 361.382 35.1518 360.202 34.3727C359.257 33.7494 357.373 30.5286 356.549 28.9961Z" fill="black"/>
<path id="Vector 1" d="M351.314 12.5171C349.314 10.0171 342.314 -12.4829 357.814 -27.4829C360.647 -29.8162 367.314 -34.5829 371.314 -34.9829C376.314 -35.4829 381.814 -24.9829 379.814 -10.9829C377.814 3.01714 373.814 9.51714 369.314 15.0171C364.814 20.5171 353.314 15.0171 351.314 12.5171Z" fill="black"/>
</g>
<g id="right-tooth">
<path id="Vector 2_2" d="M443.686 28.9961C445.435 25.4412 448.801 16.9777 448.276 11.5625C443.059 8.79305 432.578 4.97986 432.389 11.8824C432.154 20.5105 438.853 35.1518 440.034 34.3727C440.978 33.7494 442.862 30.5286 443.686 28.9961Z" fill="black"/>
<path id="Vector 1_2" d="M448.921 12.5171C450.921 10.0171 457.921 -12.4829 442.421 -27.4829C439.588 -29.8162 432.921 -34.5829 428.921 -34.9829C423.921 -35.4829 418.421 -24.9829 420.421 -10.9829C422.421 3.01714 426.421 9.51714 430.921 15.0171C435.421 20.5171 446.921 15.0171 448.921 12.5171Z" fill="black"/>
</g>
</g>
<defs>
<clipPath id="clip0">
<rect width="800" height="213" fill="white"/>
</clipPath>
</defs>
</svg>
