<svg width="350" height="80" viewBox="0 0 350 80" fill="none" xmlns="http://www.w3.org/2000/svg">
<g id="Navbar Logo">
<g id="spider">
<path id="lower-body" d="M155.445 28.4607C155.445 33.2318 151.227 34.6806 148.793 34.6806C146.36 34.6806 141.969 33.2318 141.969 28.4607C141.969 23.6897 146.36 17.4031 148.793 17.4031C151.227 17.4031 155.445 23.6897 155.445 28.4607Z" fill="#851939"/>
<path id="upper-body" d="M154.149 35.7282C154.149 37.8752 151.894 39.6157 148.793 39.6157C145.692 39.6157 143.178 37.8752 143.178 35.7282C143.178 33.5813 144.128 31.4953 148.793 33.223C153.976 31.1497 154.149 33.5813 154.149 35.7282Z" fill="#851939"/>
<path id="left-tooth" d="M147.411 42.1963C147.411 43.3414 148.613 44.728 146.461 44.0105C145.683 43.7513 144.906 43.0822 144.906 41.9372C144.906 40.7921 146.207 39.6911 147.065 39.6911C147.924 39.6911 147.757 40.9869 147.411 42.1963Z" fill="#851939"/>
<path id="right-tooth" d="M149.905 42.1963C149.905 43.3414 148.703 44.728 150.856 44.0105C151.633 43.7513 152.411 43.0822 152.411 41.9372C152.411 40.7921 151.11 39.6911 150.251 39.6911C149.392 39.6911 149.56 40.9869 149.905 42.1963Z" fill="#851939"/>
<circle id="head" cx="148.707" cy="38.8272" r="3.10995" fill="#851939"/>
<path id="right-leg-4" d="M156.209 27.4614L155.865 27.8477C155.761 27.9652 155.621 28.0455 155.467 28.0763C155.339 28.1018 155.221 28.1606 155.126 28.2491C154.825 28.5308 154.408 28.9479 154.408 29.0654C154.408 29.1819 154.49 29.8385 154.55 30.3006C154.57 30.4482 154.655 30.5786 154.783 30.6552C154.926 30.7411 155.104 30.7479 155.253 30.6732L155.877 30.3613L156.254 30.1097C156.52 29.9327 156.76 29.7201 156.967 29.4778C157.104 29.3184 157.226 29.147 157.332 28.9656L157.652 28.4165C157.735 28.2743 157.842 28.1477 157.969 28.0423L157.98 28.0325C158.186 27.861 158.337 27.6329 158.414 27.3764L158.444 27.2768C158.516 27.037 158.669 26.8298 158.877 26.6909C159.006 26.6048 159.115 26.4918 159.197 26.3596L159.562 25.7659C159.697 25.5472 159.811 25.3168 159.904 25.0774L160.018 24.7846C160.251 24.1853 160.557 23.6163 160.935 23.0966C161.124 22.8372 161.285 22.6204 161.319 22.5864C161.388 22.5173 161.521 22.0393 161.579 21.8089C161.693 21.2369 161.9 20.6875 162.193 20.1826L162.552 19.5615C162.652 19.3901 162.733 19.209 162.796 19.021L162.898 18.7147C162.939 18.59 163.003 18.4736 163.085 18.371C163.229 18.1909 163.314 17.9706 163.327 17.7404L163.384 16.7725C163.39 16.6763 163.421 16.5834 163.474 16.5033C163.534 16.4141 163.565 16.3093 163.565 16.2021V15.0707V12.8246L163.393 11.356L163.133 9.36911C163.077 8.79985 162.898 8.24948 162.61 7.75532L162.442 7.46859L162.097 6.6911L161.788 6.1964C161.713 6.0775 161.575 6.01502 161.436 6.03808C161.269 6.06595 161.147 6.21068 161.147 6.38026V6.55931C161.147 6.64598 161.167 6.73146 161.206 6.80898L161.665 7.72775L161.921 8.18911C162.036 8.39644 162.097 8.6297 162.097 8.86688C162.097 9.08354 162.147 9.29722 162.244 9.49101L162.27 9.54189C162.383 9.76913 162.442 10.0197 162.442 10.2738V11.2696C162.414 11.8456 162.356 13.0319 162.356 13.1702C162.356 13.3084 162.298 13.9764 162.27 14.2932L162.123 16.0507C162.106 16.2578 162.036 16.4572 161.921 16.6301C161.81 16.7974 161.741 16.9894 161.721 17.1894L161.714 17.2602C161.682 17.5777 161.551 17.8771 161.339 18.1156L161.211 18.2591C161.054 18.4359 160.928 18.6379 160.838 18.8566L160.576 19.492C160.438 19.8265 160.271 20.1483 160.077 20.4535L159.764 20.945L159.389 21.4455C159.295 21.5709 159.231 21.7164 159.203 21.8706L159.131 22.2679C159.097 22.4581 158.944 22.6048 158.753 22.6322C158.579 22.6569 158.437 22.7801 158.385 22.9472C158.292 23.245 158.174 23.607 158.123 23.7094C158.037 23.8822 157.864 24.4869 157.864 24.5733C157.864 24.6056 157.801 24.6517 157.719 24.6975C157.537 24.7997 157.361 24.9152 157.225 25.0737L157.124 25.1916C156.988 25.3501 156.914 25.5519 156.914 25.7606V26.0828C156.914 26.2166 156.838 26.3388 156.718 26.3987C156.623 26.4462 156.555 26.5341 156.532 26.6379L156.456 26.9769C156.416 27.1569 156.331 27.3236 156.209 27.4614Z" fill="#851939"/>
<path id="right-leg-3" d="M154.55 33.5969L154.294 33.6822C154.198 33.7141 154.107 33.7602 154.025 33.819C153.728 34.0312 153.568 34.3867 153.606 34.7498L153.672 35.3741C153.698 35.6183 153.904 35.8037 154.149 35.8037H155.186C155.561 35.8037 155.773 35.3471 156.079 35.129L156.827 34.5942L157.777 33.9031L158.329 33.6021C158.594 33.4579 158.876 33.3478 159.168 33.2748L159.229 33.2595C159.583 33.1709 159.92 33.0222 160.223 32.8197C160.435 32.6786 160.663 32.5634 160.902 32.4765L160.927 32.4672C161.301 32.3313 161.696 32.2618 162.093 32.2618H162.183H163.368C163.711 32.2618 164.034 32.1035 164.244 31.833C164.419 31.6091 164.672 31.4603 164.952 31.4171L165.462 31.3387C165.579 31.3206 165.695 31.2905 165.806 31.2487C166.147 31.1211 166.519 31.1038 166.869 31.1995L166.919 31.2131C167.158 31.2781 167.406 31.2958 167.651 31.2651L167.971 31.2251C168.317 31.1675 169.025 31.0869 169.094 31.2251C169.163 31.3634 169.411 31.4555 169.526 31.4843L169.71 31.5368C169.989 31.6164 170.251 31.7431 170.487 31.9115C170.652 32.0294 170.831 32.1255 171.017 32.2084C171.304 32.337 171.635 32.5061 171.686 32.6073C171.696 32.6284 171.715 32.6443 171.74 32.6561C172.105 32.8295 172.562 32.7658 172.869 33.0291L172.951 33.099C172.971 33.1167 172.994 33.1318 173.018 33.144L173.204 33.2367C173.34 33.3048 173.5 33.2058 173.5 33.0537C173.5 32.9901 173.47 32.9302 173.42 32.8914L172.546 32.2189C172.434 32.1332 172.341 32.0261 172.271 31.904C172.119 31.6374 171.859 31.4497 171.557 31.3895L171.328 31.3437C171.221 31.3223 171.117 31.2899 171.017 31.2469L170.864 31.1814C170.664 31.0956 170.473 30.9894 170.294 30.8645L170.191 30.7924C169.865 30.5638 169.507 30.3836 169.129 30.2576L168.958 30.2008C168.762 30.1352 168.573 30.0466 168.398 29.9367C168.116 29.7606 167.803 29.6396 167.476 29.5802L167.021 29.4974L166.289 29.3848C166.036 29.3458 165.777 29.3938 165.554 29.5209L165.485 29.5603C165.359 29.6323 165.217 29.6702 165.072 29.6702C164.829 29.6702 164.597 29.7765 164.439 29.9612L164.429 29.9725C164.265 30.1644 164.025 30.2749 163.772 30.2749H163.041C162.76 30.2749 162.483 30.3337 162.226 30.4477L162.122 30.4941C161.935 30.5774 161.732 30.6204 161.527 30.6204C161.277 30.6204 161.032 30.6839 160.814 30.8049L160.369 31.0524L160.184 31.1448C159.968 31.2532 159.722 31.2901 159.483 31.2502C159.383 31.2336 159.281 31.2302 159.181 31.2403L158.909 31.2675C158.624 31.296 158.358 31.422 158.156 31.6242C157.966 31.8138 157.72 31.9367 157.455 31.9746L157.053 32.032C156.794 32.069 156.555 32.189 156.37 32.3738C156.329 32.4143 156.286 32.4518 156.24 32.4861L155.755 32.8498C155.664 32.9181 155.584 33 155.518 33.0927L155.415 33.2369C155.271 33.4382 155.039 33.5576 154.792 33.5576C154.709 33.5576 154.628 33.5709 154.55 33.5969Z" fill="#851939"/>
<path id="right-leg-2" d="M153.909 37.0995H153.825C153.539 37.0995 153.269 37.2323 153.095 37.4589L153.002 37.5802C152.732 37.9302 152.81 38.434 153.171 38.6872C153.302 38.7783 153.457 38.8272 153.616 38.8272H153.856C153.993 38.8272 154.129 38.8455 154.261 38.8814L155.013 39.0864L155.366 39.2276C155.706 39.3636 156.057 39.4705 156.415 39.5472C156.861 39.6429 157.316 39.6911 157.773 39.6911H158.526C158.66 39.6911 158.794 39.7006 158.927 39.7196C159.58 39.8128 160.18 40.1308 160.623 40.6188L160.635 40.6313C160.745 40.753 160.845 40.8839 160.933 41.0226L161.257 41.5313C161.354 41.6835 161.405 41.8603 161.405 42.0407C161.405 42.1995 161.445 42.3558 161.521 42.4952L161.814 43.0313C161.886 43.1637 161.924 43.312 161.924 43.4627C161.924 43.6504 161.982 43.8334 162.092 43.9862L162.356 44.356L162.599 44.7451C162.724 44.9452 162.817 45.1637 162.874 45.3927C162.931 45.6216 163.024 45.8401 163.149 46.0403L163.824 47.1204L164.399 47.8671C164.591 48.1165 164.743 48.3939 164.85 48.6897C164.972 49.0232 165.15 49.3331 165.377 49.6057L165.667 49.9535C165.82 50.1372 165.948 50.3407 166.047 50.5585L166.209 50.9145C166.288 51.0891 166.41 51.2409 166.563 51.356L166.667 51.434C166.89 51.6008 167.021 51.8626 167.021 52.1406C167.021 52.3569 167.1 52.5657 167.244 52.7274L167.366 52.8652C167.589 53.1156 167.712 53.439 167.712 53.774V54.3338C167.712 54.474 167.757 54.6104 167.841 54.7225C167.925 54.8347 167.971 54.9711 167.971 55.1113V55.8455L168.102 57.023C168.13 57.273 168.116 57.5258 168.061 57.7713L168.042 57.8594C167.995 58.0701 167.987 58.2875 168.017 58.5011L168.068 58.8583C168.116 59.1914 168.004 59.5275 167.766 59.7654C167.565 59.9659 167.453 60.2378 167.453 60.5214V60.6372C167.453 60.7821 167.429 60.9261 167.383 61.0636L167.28 61.3743L167.115 62.0902C167.053 62.3574 166.925 62.6048 166.743 62.8097L166.603 62.9677C166.427 63.1656 166.33 63.4211 166.33 63.6859V63.8483C166.33 63.9255 166.31 64.0014 166.272 64.0688L166.171 64.2518C166.048 64.4724 166.208 64.7435 166.46 64.7435C166.591 64.7435 166.709 64.6664 166.762 64.5469L166.922 64.1882C166.987 64.0425 167.088 63.9157 167.215 63.82L167.383 63.6942C167.599 63.5321 167.776 63.3223 167.891 63.0781C167.995 62.8595 168.102 62.6227 168.144 62.4974C168.178 62.3951 168.227 62.1626 168.276 61.9118C168.366 61.4442 168.535 60.9945 168.79 60.5929C168.935 60.3659 169.053 60.1232 169.142 59.8695L169.31 59.3935C169.451 58.9937 169.482 58.5633 169.399 58.1476C169.368 57.9955 169.353 57.8407 169.353 57.6856V56.846C169.353 56.4675 169.326 56.0894 169.273 55.7147L169.261 55.6309C169.207 55.2561 169.18 54.8781 169.18 54.4995V53.5131C169.067 52.6073 168.719 51.7468 168.172 51.0165L167.971 50.7487L167.539 49.9712L166.963 49.1399C166.829 48.9462 166.672 48.7697 166.494 48.6145C166.214 48.3695 165.985 48.0723 165.818 47.7395L165.725 47.5524L165.293 46.8613L164.823 46.1899C164.735 46.0646 164.688 45.9154 164.688 45.7624C164.688 45.5799 164.621 45.4037 164.5 45.2673L164.343 45.0903C164.12 44.8399 163.997 44.5165 163.997 44.1814V44.1653C163.997 44.0624 163.986 43.9598 163.963 43.8593L163.919 43.6611C163.859 43.3872 163.69 43.1492 163.452 43.0005C163.246 42.8716 163.091 42.6748 163.014 42.4439L162.895 42.0867C162.824 41.8732 162.788 41.6497 162.788 41.4246V41.2834C162.788 40.8603 162.697 40.4421 162.522 40.0569L162.356 39.6911L162.116 39.0669C161.99 38.7402 161.78 38.4528 161.506 38.2342C161.215 38.0008 160.863 37.8551 160.492 37.8138L159.505 37.7042H158.913C158.684 37.7042 158.463 37.613 158.301 37.4506C158.185 37.3341 158.037 37.2533 157.877 37.2175L157.558 37.1468C157.417 37.1153 157.272 37.0995 157.127 37.0995H156.309H155.787C155.617 37.0995 155.447 37.1163 155.281 37.1496L155.058 37.1941C154.801 37.2454 154.536 37.2347 154.284 37.1627L154.21 37.1415C154.112 37.1136 154.011 37.0995 153.909 37.0995Z" fill="#851939"/>
<path id="right-leg-1" d="M153.199 38.4817L153.136 38.4189C152.955 38.2378 152.709 38.1361 152.453 38.1361C152.318 38.1361 152.185 38.1645 152.061 38.2193L151.992 38.25C151.675 38.3909 151.471 38.7052 151.471 39.052C151.471 39.1882 151.503 39.3226 151.564 39.4445L151.588 39.4936C151.733 39.7834 151.998 39.9955 152.312 40.0741L152.348 40.0832C152.454 40.1096 152.556 40.1505 152.65 40.2046L153.112 40.4686L153.51 40.6957C153.647 40.7743 153.774 40.8709 153.886 40.983L154.097 41.194C154.296 41.3933 154.567 41.5052 154.848 41.5052C155.013 41.5052 155.176 41.5436 155.324 41.6174L155.395 41.6529C155.542 41.7266 155.702 41.7737 155.866 41.7919L155.967 41.8032C156.249 41.8346 156.521 41.9263 156.764 42.0723L156.821 42.1061C157.109 42.2793 157.356 42.5144 157.543 42.7945L157.777 43.1466L158.156 43.7413C158.306 43.9777 158.433 44.2286 158.533 44.4903L158.634 44.7515C158.753 45.0611 158.814 45.39 158.814 45.7218C158.814 45.962 158.846 46.2012 158.909 46.433L158.976 46.6777C159.041 46.9149 159.124 47.1465 159.226 47.3703L159.505 47.9843L159.764 48.7618L160.11 49.8848L160.291 50.4297C160.4 50.7554 160.455 51.0965 160.455 51.4398C160.455 51.7831 160.511 52.1242 160.619 52.4498L160.728 52.776C160.776 52.9215 160.839 53.0618 160.915 53.195C161.068 53.462 161.166 53.7566 161.204 54.0617L161.233 54.2906L161.27 54.7001C161.303 55.0592 161.381 55.4126 161.502 55.7521L161.571 55.9462C161.69 56.2798 161.751 56.6313 161.751 56.9855C161.751 57.3176 161.698 57.6475 161.593 57.9626L161.581 57.9977C161.522 58.1752 161.478 58.3574 161.449 58.5423L161.376 59.0184C161.338 59.2641 161.319 59.5123 161.319 59.7608V59.9818C161.319 60.1037 161.309 60.2253 161.289 60.3455L161.265 60.4922C161.244 60.6188 161.242 60.7479 161.26 60.875L161.272 60.9577C161.303 61.1721 161.402 61.3707 161.555 61.5239C161.683 61.6521 161.774 61.8129 161.818 61.9888L161.89 62.2749C161.969 62.5915 161.972 62.9223 161.899 63.2403L161.751 63.8796L161.492 64.5707L161.233 65.3482L160.952 66.1893C160.909 66.3195 160.857 66.4464 160.795 66.5691C160.684 66.7909 160.602 67.0259 160.551 67.2686L160.418 67.9007C160.328 68.3289 160.196 68.7471 160.023 69.1492L159.419 70.6178L159.272 70.875C159.14 71.1061 159.031 71.3497 158.947 71.6023L158.905 71.7258C158.788 72.0788 158.611 72.4092 158.382 72.703L158.285 72.8285C158.177 72.9667 158.088 73.1181 158.019 73.279L157.907 73.5406C157.878 73.6071 157.837 73.6677 157.786 73.7189L157.619 73.8863C157.438 74.0675 157.478 74.3714 157.701 74.4985C157.804 74.5573 157.928 74.566 158.038 74.5219L158.365 74.391C158.6 74.2971 158.796 74.1267 158.921 73.9073L158.969 73.8244C159.038 73.7031 159.089 73.572 159.119 73.4356L159.147 73.3097C159.212 73.0155 159.336 72.7375 159.511 72.4922L159.576 72.4013C159.644 72.3068 159.702 72.2057 159.749 72.0995L159.904 71.7512C159.981 71.5779 160.12 71.4402 160.295 71.3655C160.505 71.2752 160.663 71.0936 160.724 70.8723L160.835 70.4627C160.87 70.3362 160.919 70.2143 160.983 70.0997L161.319 69.4948L161.647 68.7732C161.716 68.6225 161.751 68.4588 161.751 68.2933C161.751 67.9588 161.896 67.6407 162.147 67.4205L162.276 67.3077C162.386 67.2112 162.482 67.0996 162.561 66.9761L162.65 66.8363C162.909 66.4286 163.047 65.9554 163.047 65.4721C163.047 65.3321 163.059 65.1924 163.082 65.0543L163.108 64.8938C163.182 64.4505 163.322 64.0208 163.523 63.6188L163.738 63.1885L164.253 62.2881C164.368 62.0856 164.429 61.8564 164.429 61.6231C164.429 61.403 164.375 61.1864 164.271 60.9923L164.084 60.6401C163.857 60.2147 163.738 59.74 163.738 59.2579V59.0246C163.738 58.751 163.683 58.4803 163.575 58.2289C163.511 58.0803 163.466 57.9247 163.439 57.7652L163.22 56.4503L163.081 55.8015C163.001 55.4288 162.961 55.0486 162.961 54.6674V54.0549C162.961 53.8109 162.917 53.5688 162.831 53.3403C162.745 53.1118 162.701 52.8698 162.701 52.6257V52.2726C162.701 52.0639 162.672 51.8563 162.615 51.6558C162.558 51.4552 162.529 51.2476 162.529 51.0389V49.7106C162.529 49.3707 162.45 49.0354 162.298 48.7314C162.222 48.5794 162.163 48.4191 162.125 48.2537L161.896 47.283C161.857 47.1176 161.799 46.9573 161.723 46.8053L161.607 46.572C161.531 46.4214 161.492 46.2553 161.492 46.0868V45.9451C161.492 45.7051 161.383 45.4782 161.196 45.3283C161.106 45.2569 161.034 45.1669 160.982 45.0647L160.42 43.9397C160.33 43.759 160.283 43.5598 160.283 43.3577C160.283 43.2179 160.26 43.079 160.216 42.9463L160.019 42.3568C159.907 42.021 159.751 41.7015 159.555 41.4069L159.458 41.2616C159.261 40.9656 159.012 40.707 158.725 40.4978C158.385 40.2507 157.997 40.0776 157.586 39.9895L157.202 39.9071C157.068 39.8786 156.942 39.825 156.828 39.7493C156.77 39.7106 156.708 39.6776 156.644 39.6507L155.704 39.2592L154.639 38.9041C154.486 38.8532 154.326 38.8272 154.165 38.8272H154.033C153.72 38.8272 153.42 38.7029 153.199 38.4817Z" fill="#851939"/>
<path id="left-leg-4" d="M141.205 27.4614L141.548 27.8477C141.653 27.9652 141.793 28.0455 141.947 28.0763C142.074 28.1018 142.192 28.1606 142.287 28.2491C142.589 28.5308 143.005 28.9479 143.005 29.0654C143.005 29.1819 142.923 29.8385 142.863 30.3006C142.844 30.4482 142.758 30.5786 142.631 30.6552C142.487 30.7411 142.31 30.7479 142.161 30.6732L141.537 30.3613L141.159 30.1097C140.894 29.9327 140.654 29.7201 140.446 29.4778C140.31 29.3184 140.188 29.147 140.082 28.9656L139.761 28.4165C139.679 28.2743 139.571 28.1477 139.445 28.0423L139.433 28.0325C139.227 27.861 139.077 27.6329 139 27.3764L138.97 27.2768C138.898 27.037 138.745 26.8298 138.536 26.6909C138.407 26.6048 138.298 26.4918 138.217 26.3596L137.851 25.7659C137.717 25.5472 137.602 25.3168 137.509 25.0774L137.395 24.7846C137.162 24.1853 136.857 23.6163 136.478 23.0966C136.289 22.8372 136.128 22.6204 136.094 22.5864C136.025 22.5173 135.893 22.0393 135.835 21.8089C135.721 21.2369 135.513 20.6875 135.221 20.1826L134.861 19.5615C134.762 19.3901 134.68 19.209 134.618 19.021L134.516 18.7147C134.474 18.59 134.411 18.4736 134.329 18.371C134.185 18.1909 134.1 17.9706 134.086 17.7404L134.03 16.7725C134.024 16.6763 133.993 16.5834 133.939 16.5033C133.88 16.4141 133.848 16.3093 133.848 16.2021V15.0707V12.8246L134.021 11.356L134.28 9.36911C134.337 8.79985 134.516 8.24948 134.804 7.75532L134.971 7.46859L135.317 6.6911L135.626 6.1964C135.7 6.0775 135.839 6.01502 135.977 6.03808C136.144 6.06595 136.267 6.21068 136.267 6.38026V6.55931C136.267 6.64598 136.247 6.73146 136.208 6.80898L135.749 7.72775L135.492 8.18911C135.377 8.39644 135.317 8.6297 135.317 8.86688C135.317 9.08354 135.266 9.29722 135.169 9.49101L135.144 9.54189C135.03 9.76913 134.971 10.0197 134.971 10.2738V11.2696C135 11.8456 135.058 13.0319 135.058 13.1702C135.058 13.3084 135.115 13.9764 135.144 14.2932L135.29 16.0507C135.308 16.2578 135.377 16.4572 135.493 16.6301C135.604 16.7974 135.673 16.9894 135.693 17.1894L135.7 17.2602C135.732 17.5777 135.863 17.8771 136.075 18.1156L136.202 18.2591C136.36 18.4359 136.486 18.6379 136.576 18.8566L136.837 19.492C136.975 19.8265 137.142 20.1483 137.336 20.4535L137.649 20.945L138.025 21.4455C138.119 21.5709 138.182 21.7164 138.21 21.8706L138.282 22.2679C138.317 22.4581 138.469 22.6048 138.661 22.6322C138.834 22.6569 138.977 22.7801 139.029 22.9472C139.122 23.245 139.239 23.607 139.291 23.7094C139.377 23.8822 139.55 24.4869 139.55 24.5733C139.55 24.6056 139.613 24.6517 139.694 24.6975C139.876 24.7997 140.053 24.9152 140.188 25.0737L140.289 25.1916C140.425 25.3501 140.5 25.5519 140.5 25.7606V26.0828C140.5 26.2166 140.576 26.3388 140.695 26.3987C140.79 26.4462 140.859 26.5341 140.882 26.6379L140.957 26.9769C140.997 27.1569 141.083 27.3236 141.205 27.4614Z" fill="#851939"/>
<path id="left-leg-3" d="M142.95 33.4241L143.206 33.5094C143.302 33.5414 143.393 33.5875 143.475 33.6462C143.772 33.8584 143.932 34.2139 143.894 34.577L143.828 35.2013C143.802 35.4455 143.596 35.6309 143.351 35.6309H142.314C141.939 35.6309 141.727 35.1743 141.421 34.9562L140.673 34.4215L139.723 33.7304L139.171 33.4294C138.906 33.2851 138.624 33.1751 138.332 33.102L138.271 33.0867C137.917 32.9981 137.58 32.8494 137.277 32.6469C137.065 32.5058 136.837 32.3906 136.598 32.3038L136.573 32.2944C136.199 32.1585 135.804 32.089 135.407 32.089H135.317H134.132C133.789 32.089 133.466 31.9308 133.256 31.6602C133.081 31.4363 132.828 31.2875 132.548 31.2444L132.038 31.166C131.921 31.1479 131.805 31.1177 131.694 31.0759C131.353 30.9483 130.981 30.9311 130.631 31.0267L130.581 31.0403C130.342 31.1053 130.094 31.123 129.849 31.0924L129.529 31.0524C129.183 30.9948 128.475 30.9141 128.406 31.0524C128.337 31.1906 128.089 31.2827 127.974 31.3115L127.79 31.364C127.511 31.4436 127.249 31.5704 127.013 31.7387C126.848 31.8566 126.669 31.9527 126.483 32.0356C126.196 32.1642 125.865 32.3333 125.814 32.4346C125.804 32.4556 125.785 32.4715 125.76 32.4833C125.395 32.6568 124.938 32.593 124.631 32.8563L124.549 32.9262C124.529 32.9439 124.506 32.959 124.482 32.9712L124.296 33.064C124.16 33.132 124 33.033 124 32.8809C124 32.8173 124.03 32.7574 124.08 32.7187L124.954 32.0461C125.066 31.9604 125.159 31.8534 125.229 31.7312C125.381 31.4646 125.641 31.277 125.943 31.2167L126.172 31.1709C126.279 31.1495 126.383 31.1171 126.483 31.0741L126.636 31.0086C126.836 30.9228 127.027 30.8166 127.206 30.6917L127.309 30.6196C127.635 30.391 127.993 30.2108 128.371 30.0848L128.542 30.028C128.738 29.9625 128.927 29.8738 129.102 29.7639C129.384 29.5878 129.697 29.4669 130.024 29.4074L130.479 29.3246L131.211 29.212C131.464 29.173 131.723 29.221 131.946 29.3481L132.015 29.3876C132.141 29.4595 132.283 29.4974 132.428 29.4974C132.671 29.4974 132.903 29.6037 133.061 29.7885L133.071 29.7997C133.235 29.9917 133.475 30.1021 133.728 30.1021H134.459C134.74 30.1021 135.017 30.161 135.274 30.2749L135.378 30.3213C135.565 30.4046 135.768 30.4477 135.973 30.4477C136.223 30.4477 136.468 30.5112 136.686 30.6322L137.131 30.8796L137.316 30.972C137.532 31.0804 137.778 31.1173 138.017 31.0775C138.117 31.0608 138.219 31.0575 138.319 31.0676L138.591 31.0947C138.876 31.1232 139.142 31.2492 139.344 31.4515C139.534 31.641 139.78 31.764 140.045 31.8019L140.447 31.8593C140.706 31.8962 140.945 32.0162 141.13 32.2011C141.171 32.2415 141.214 32.279 141.26 32.3133L141.745 32.677C141.836 32.7453 141.916 32.8273 141.982 32.9199L142.085 33.0642C142.229 33.2654 142.461 33.3848 142.708 33.3848C142.791 33.3848 142.872 33.3981 142.95 33.4241Z" fill="#851939"/>
<path id="left-leg-2" d="M143.418 37.0131H143.502C143.788 37.0131 144.058 37.1459 144.232 37.3725L144.326 37.4939C144.595 37.8438 144.517 38.3476 144.156 38.6008C144.026 38.692 143.87 38.7408 143.712 38.7408H143.471C143.334 38.7408 143.198 38.7591 143.066 38.7951L142.314 39L141.961 39.1412C141.621 39.2772 141.27 39.3841 140.912 39.4609C140.466 39.5565 140.011 39.6047 139.554 39.6047H138.801C138.667 39.6047 138.533 39.6142 138.4 39.6332C137.747 39.7265 137.148 40.0445 136.704 40.5324L136.693 40.5449C136.582 40.6666 136.482 40.7975 136.394 40.9362L136.07 41.4449C135.973 41.5971 135.922 41.7739 135.922 41.9544C135.922 42.1131 135.882 42.2694 135.806 42.4088L135.513 42.945C135.441 43.0773 135.403 43.2256 135.403 43.3763C135.403 43.564 135.345 43.747 135.236 43.8998L134.971 44.2696L134.728 44.6587C134.603 44.8588 134.51 45.0773 134.453 45.3063C134.396 45.5352 134.303 45.7538 134.178 45.9539L133.503 47.034L132.928 47.7807C132.737 48.0301 132.584 48.3076 132.477 48.6033C132.355 48.9368 132.177 49.2467 131.95 49.5194L131.66 49.8671C131.507 50.0509 131.379 50.2543 131.28 50.4721L131.119 50.8281C131.039 51.0027 130.917 51.1546 130.764 51.2696L130.66 51.3476C130.437 51.5144 130.307 51.7762 130.307 52.0542C130.307 52.2706 130.227 52.4794 130.083 52.6411L129.961 52.7788C129.738 53.0292 129.615 53.3526 129.615 53.6877V54.2474C129.615 54.3876 129.57 54.524 129.486 54.6361C129.402 54.7483 129.356 54.8847 129.356 55.0249V55.7592L129.225 56.9366C129.198 57.1866 129.211 57.4394 129.266 57.6849L129.285 57.773C129.332 57.9837 129.341 58.2011 129.31 58.4147L129.259 58.7719C129.211 59.105 129.324 59.4411 129.561 59.679C129.762 59.8795 129.875 60.1514 129.875 60.435V60.5508C129.875 60.6957 129.898 60.8397 129.944 60.9773L130.047 61.288L130.213 62.0038C130.274 62.271 130.402 62.5184 130.584 62.7233L130.725 62.8813C130.9 63.0792 130.998 63.3347 130.998 63.5995V63.7619C130.998 63.8391 131.017 63.915 131.055 63.9824L131.156 64.1654C131.279 64.386 131.119 64.6571 130.867 64.6571C130.736 64.6571 130.618 64.5801 130.565 64.4605L130.405 64.1019C130.341 63.9561 130.24 63.8293 130.112 63.7336L129.944 63.6078C129.728 63.4457 129.551 63.2359 129.436 62.9917C129.332 62.7731 129.225 62.5363 129.183 62.411C129.149 62.3088 129.1 62.0763 129.052 61.8254C128.962 61.3579 128.793 60.9082 128.537 60.5065C128.393 60.2795 128.274 60.0368 128.185 59.7831L128.017 59.3071C127.876 58.9074 127.845 58.4769 127.928 58.0612C127.959 57.9091 127.974 57.7543 127.974 57.5992V56.7596C127.974 56.3811 128.001 56.003 128.054 55.6283L128.066 55.5445C128.12 55.1698 128.147 54.7917 128.147 54.4131V53.4267C128.26 52.5209 128.608 51.6604 129.155 50.9301L129.356 50.6623L129.788 49.8848L130.364 49.0535C130.498 48.8598 130.655 48.6833 130.833 48.5281C131.113 48.2831 131.342 47.9859 131.509 47.6531L131.602 47.466L132.034 46.7749L132.504 46.1035C132.592 45.9782 132.639 45.829 132.639 45.6761C132.639 45.4935 132.706 45.3173 132.827 45.1809L132.985 45.0039C133.207 44.7535 133.33 44.4301 133.33 44.0951V44.0789C133.33 43.976 133.341 43.8734 133.364 43.7729L133.408 43.5747C133.469 43.3008 133.637 43.0629 133.875 42.9142C134.081 42.7852 134.236 42.5884 134.313 42.3576L134.432 42.0003C134.503 41.7869 134.539 41.5633 134.539 41.3382V41.197C134.539 40.7739 134.63 40.3557 134.805 39.9705L134.971 39.6047L135.212 38.9805C135.337 38.6538 135.547 38.3665 135.821 38.1478C136.112 37.9145 136.464 37.7687 136.836 37.7274L137.822 37.6178H138.414C138.643 37.6178 138.864 37.5266 139.026 37.3642C139.143 37.2477 139.29 37.1669 139.451 37.1312L139.769 37.0604C139.911 37.029 140.055 37.0131 140.2 37.0131H141.019H141.541C141.71 37.0131 141.88 37.0299 142.047 37.0632L142.269 37.1077C142.526 37.1591 142.791 37.1483 143.043 37.0764L143.117 37.0551C143.215 37.0272 143.316 37.0131 143.418 37.0131Z" fill="#851939"/>
<path id="left-leg-1" d="M144.128 38.5681L144.191 38.5053C144.372 38.3242 144.618 38.2225 144.874 38.2225C145.009 38.2225 145.142 38.2509 145.266 38.3057L145.335 38.3364C145.652 38.4773 145.856 38.7916 145.856 39.1384C145.856 39.2746 145.824 39.409 145.763 39.5308L145.739 39.58C145.594 39.8698 145.33 40.0819 145.015 40.1605L144.979 40.1696C144.873 40.196 144.771 40.2369 144.677 40.291L144.215 40.555L143.817 40.7821C143.68 40.8607 143.553 40.9573 143.441 41.0694L143.23 41.2803C143.031 41.4797 142.761 41.5916 142.479 41.5916C142.314 41.5916 142.151 41.63 142.003 41.7038L141.933 41.7392C141.785 41.813 141.626 41.8601 141.462 41.8783L141.36 41.8896C141.078 41.921 140.806 42.0127 140.563 42.1587L140.506 42.1925C140.218 42.3657 139.971 42.6008 139.785 42.8809L139.55 43.233L139.171 43.8277C139.021 44.0641 138.894 44.315 138.794 44.5766L138.693 44.8378C138.574 45.1475 138.513 45.4764 138.513 45.8082C138.513 46.0484 138.481 46.2876 138.418 46.5194L138.351 46.764C138.286 47.0012 138.203 47.2329 138.101 47.4567L137.822 48.0707L137.563 48.8482L137.217 49.9712L137.036 50.5161C136.927 50.8418 136.872 51.1829 136.872 51.5262C136.872 51.8695 136.816 52.2105 136.708 52.5362L136.599 52.8623C136.551 53.0079 136.488 53.1482 136.412 53.2814C136.259 53.5484 136.161 53.843 136.123 54.1481L136.094 54.377L136.057 54.7865C136.024 55.1456 135.947 55.499 135.825 55.8385L135.756 56.0326C135.637 56.3661 135.576 56.7177 135.576 57.0719C135.576 57.404 135.63 57.7339 135.735 58.049L135.746 58.084C135.805 58.2616 135.849 58.4438 135.878 58.6287L135.951 59.1048C135.989 59.3504 136.008 59.5986 136.008 59.8472V60.0682C136.008 60.1901 136.018 60.3117 136.038 60.4319L136.062 60.5786C136.084 60.7052 136.085 60.8343 136.067 60.9614L136.055 61.0441C136.024 61.2585 135.925 61.4571 135.772 61.6103C135.644 61.7385 135.553 61.8992 135.509 62.0752L135.437 62.3613C135.358 62.6779 135.355 63.0087 135.428 63.3267L135.576 63.966L135.835 64.6571L136.094 65.4346L136.375 66.2757C136.418 66.4059 136.471 66.5328 136.532 66.6555C136.643 66.8773 136.725 67.1123 136.776 67.3549L136.909 67.9871C136.999 68.4152 137.131 68.8334 137.304 69.2356L137.908 70.7042L138.055 70.9614C138.187 71.1925 138.296 71.4361 138.381 71.6886L138.422 71.8121C138.539 72.1652 138.716 72.4956 138.945 72.7894L139.042 72.9149C139.15 73.0531 139.239 73.2045 139.308 73.3654L139.42 73.6269C139.449 73.6935 139.49 73.7541 139.541 73.8053L139.708 73.9727C139.89 74.1539 139.849 74.4578 139.626 74.5849C139.523 74.6437 139.399 74.6523 139.289 74.6083L138.962 74.4774C138.727 74.3835 138.531 74.213 138.406 73.9937L138.359 73.9108C138.289 73.7894 138.239 73.6584 138.208 73.522L138.18 73.3961C138.115 73.1019 137.991 72.8239 137.816 72.5786L137.751 72.4877C137.683 72.3932 137.625 72.2921 137.578 72.1859L137.423 71.8376C137.346 71.6643 137.207 71.5266 137.033 71.4519C136.822 71.3615 136.664 71.1799 136.603 70.9587L136.492 70.5491C136.457 70.4226 136.408 70.3007 136.344 70.1861L136.008 69.5812L135.68 68.8596C135.611 68.7089 135.576 68.5452 135.576 68.3797C135.576 68.0452 135.432 67.7271 135.18 67.5068L135.051 67.394C134.941 67.2976 134.845 67.186 134.766 67.0625L134.677 66.9227C134.418 66.515 134.28 66.0417 134.28 65.5585C134.28 65.4185 134.269 65.2788 134.246 65.1407L134.219 64.9801C134.145 64.5369 134.005 64.1072 133.804 63.7052L133.589 63.2749L133.075 62.3745C132.959 62.172 132.898 61.9427 132.898 61.7095C132.898 61.4894 132.952 61.2728 133.056 61.0787L133.243 60.7264C133.47 60.301 133.589 59.8263 133.589 59.3442V59.1109C133.589 58.8374 133.645 58.5667 133.752 58.3152C133.816 58.1667 133.862 58.011 133.888 57.8516L134.107 56.5366L134.246 55.8879C134.326 55.5152 134.367 55.135 134.367 54.7538V54.1413C134.367 53.8973 134.41 53.6552 134.496 53.4267C134.582 53.1982 134.626 52.9561 134.626 52.7121V52.359C134.626 52.1503 134.655 51.9427 134.712 51.7421C134.769 51.5416 134.798 51.334 134.798 51.1253V49.797C134.798 49.4571 134.878 49.1218 135.03 48.8178C135.106 48.6658 135.164 48.5055 135.203 48.34L135.431 47.3694C135.47 47.204 135.528 47.0436 135.604 46.8917L135.721 46.6584C135.796 46.5077 135.835 46.3416 135.835 46.1732V46.0315C135.835 45.7915 135.944 45.5646 136.132 45.4147C136.221 45.3433 136.294 45.2533 136.345 45.1511L136.907 44.026C136.998 43.8454 137.045 43.6461 137.045 43.4441C137.045 43.3043 137.067 43.1653 137.111 43.0327L137.308 42.4432C137.42 42.1074 137.576 41.7879 137.772 41.4933L137.869 41.348C138.067 41.052 138.315 40.7934 138.603 40.5842C138.942 40.3371 139.33 40.1639 139.741 40.0759L140.125 39.9935C140.259 39.9649 140.386 39.9114 140.499 39.8357C140.557 39.797 140.619 39.764 140.683 39.7371L141.623 39.3455L142.688 38.9905C142.841 38.9396 143.001 38.9136 143.162 38.9136H143.294C143.607 38.9136 143.907 38.7893 144.128 38.5681Z" fill="#851939"/>
</g>
<path id="sp&#196;&#177;der" d="M18.9609 37.6719C19.0547 37.8594 19.0859 38.0625 19.0547 38.2812C19.0234 38.5 18.8047 38.875 18.3984 39.4062C17.9922 39.9375 17.7422 40.5156 17.6484 41.1406C17.5859 41.7344 17.5703 42.2344 17.6016 42.6406C17.6328 43.0156 17.6328 43.3438 17.6016 43.625C17.5703 44.3125 17.1953 44.7812 16.4766 45.0312C15.8516 45.2812 15.3672 45.2656 15.0234 44.9844C14.6797 44.7031 14.3984 44.3438 14.1797 43.9062C13.9609 43.4375 13.7891 43.0469 13.6641 42.7344C13.5703 42.3906 13.3984 42.2031 13.1484 42.1719C12.7109 42.0781 12.3672 42.125 12.1172 42.3125C11.8984 42.5 11.7266 42.6562 11.6016 42.7812C11.3516 43.0312 11.0859 43.2031 10.8047 43.2969C10.5547 43.3906 10.3516 43.4844 10.1953 43.5781C9.88281 43.7969 9.75781 44.1562 9.82031 44.6562C9.94531 45.625 11.0234 47.0938 13.0547 49.0625C13.4297 49.4375 13.8672 49.8438 14.3672 50.2812C14.8984 50.7188 15.4141 51.2188 15.9141 51.7812C17.0391 53.125 17.6641 54.6406 17.7891 56.3281C17.9141 58.0469 17.6641 59.5469 17.0391 60.8281C16.5391 61.8594 15.9453 62.5312 15.2578 62.8438C14.7266 63.125 14.3672 63.5 14.1797 63.9688C13.9922 64.4062 13.8516 64.7344 13.7578 64.9531C13.6641 65.1406 13.4609 65.2969 13.1484 65.4219C12.8672 65.5781 12.5391 65.6406 12.1641 65.6094C11.7891 65.5781 11.4297 65.5 11.0859 65.375C10.7734 65.2812 10.4766 65.1562 10.1953 65C9.94531 64.875 9.72656 64.7969 9.53906 64.7656C9.38281 64.7344 9.22656 64.7969 9.07031 64.9531C8.91406 65.0781 8.75781 65.2188 8.60156 65.375C8.13281 65.8438 7.71094 66.0156 7.33594 65.8906C6.96094 65.7969 6.52344 65.625 6.02344 65.375C5.52344 65.125 5.03906 64.8125 4.57031 64.4375C2.88281 63.125 2.30469 61.7812 2.83594 60.4062C3.17969 59.5 3.55469 58.8594 3.96094 58.4844C4.39844 58.1094 4.74219 57.9219 4.99219 57.9219C5.39844 57.9219 5.66406 58.0781 5.78906 58.3906C5.94531 58.6719 6.07031 58.9219 6.16406 59.1406C6.25781 59.3281 6.36719 59.4844 6.49219 59.6094C6.61719 59.7344 6.80469 59.8594 7.05469 59.9844C7.33594 60.1094 7.63281 60.1875 7.94531 60.2188C8.72656 60.2812 9.32031 59.9688 9.72656 59.2812C10.1328 58.5938 10.2891 57.8438 10.1953 57.0312C9.97656 55.5625 9.66406 54.9375 9.25781 55.1562C8.91406 55.375 8.49219 55.3906 7.99219 55.2031C7.49219 54.9844 7.22656 54.7188 7.19531 54.4062C7.16406 54.0625 7.10156 53.7344 7.00781 53.4219C6.91406 53.1094 6.80469 52.8125 6.67969 52.5312C6.39844 51.8125 6.14844 51.4219 5.92969 51.3594C5.67969 51.2969 5.33594 51.2656 4.89844 51.2656C4.49219 51.2656 4.03906 51 3.53906 50.4688C3.03906 49.9062 2.67969 49.2188 2.46094 48.4062C2.24219 47.5625 2.05469 46.8438 1.89844 46.25C1.74219 45.625 1.60156 45.1406 1.47656 44.7969C1.35156 44.4531 1.24219 44.0938 1.14844 43.7188C0.835938 42.5312 0.820312 41 1.10156 39.125C1.28906 38.0312 1.63281 37.0781 2.13281 36.2656C2.63281 35.4219 3.19531 34.5938 3.82031 33.7812C5.00781 32.1875 6.10156 31.0781 7.10156 30.4531C8.10156 29.8281 8.86719 29.7656 9.39844 30.2656C9.86719 30.6719 10.3672 30.8438 10.8984 30.7812C11.4609 30.6875 11.8984 30.5938 12.2109 30.5L13.0547 30.3125C13.5859 30.1875 14.1172 30.2031 14.6484 30.3594C15.2109 30.5156 15.7109 31.0469 16.1484 31.9531C16.3672 32.4219 16.5859 32.8281 16.8047 33.1719C17.0547 33.5156 17.2891 33.8438 17.5078 34.1562C17.9766 34.9062 18.2422 35.5312 18.3047 36.0312C18.3984 36.5 18.5078 36.8438 18.6328 37.0625C18.7891 37.2812 18.8984 37.4844 18.9609 37.6719ZM25.8516 65.7031C25.4141 65.6719 24.9609 65.2031 24.4922 64.2969C24.0547 63.3906 23.7422 62.2344 23.5547 60.8281C23.3984 59.4219 23.2891 58.4688 23.2266 57.9688C23.1641 57.4688 23.1016 57.0938 23.0391 56.8438C22.9453 56.375 22.7578 55.9688 22.4766 55.625C22.2266 55.25 22.0703 54.9688 22.0078 54.7812C21.9453 54.5 21.9297 53.7969 21.9609 52.6719C22.0234 50.2656 21.9141 48.6719 21.6328 47.8906C21.5078 47.5469 21.4609 47.2656 21.4922 47.0469C21.5234 46.8281 21.5234 46.5938 21.4922 46.3438C21.4922 46.0938 21.4141 45.8281 21.2578 45.5469C21.1016 45.2656 20.9453 44.9375 20.7891 44.5625C20.2891 43.5625 20.0391 42.875 20.0391 42.5C20.0391 42.0312 20.1953 41.5 20.5078 40.9062C21.1953 39.75 21.5859 38.9531 21.6797 38.5156C21.8047 38.0469 21.8516 37.4688 21.8203 36.7812C21.8203 36.0625 21.8203 35.3438 21.8203 34.625C21.7578 32.7812 21.9141 31.625 22.2891 31.1562C22.5391 30.9062 22.8359 30.7344 23.1797 30.6406C23.5234 30.5469 23.9609 30.4062 24.4922 30.2188C25.5547 29.8438 26.3516 29.6562 26.8828 29.6562C27.4453 29.6562 27.8828 29.8125 28.1953 30.125C28.5391 30.4062 28.9297 30.5781 29.3672 30.6406C29.8047 30.6719 30.1016 30.6719 30.2578 30.6406C30.4453 30.5781 30.6016 30.5312 30.7266 30.5C31.1016 30.3438 31.4141 30.2656 31.6641 30.2656C32.0703 30.2656 32.3672 30.4219 32.5547 30.7344C32.7422 31.0469 32.9141 31.3125 33.0703 31.5312C33.2266 31.7188 33.4766 31.7656 33.8203 31.6719C34.1953 31.5781 34.4766 31.5312 34.6641 31.5312C34.8516 31.5312 35.0078 31.5312 35.1328 31.5312C35.6016 31.5938 36.0078 31.5781 36.3516 31.4844C37.0391 31.2656 37.5703 31.375 37.9453 31.8125C38.0391 32.0312 38.2578 32.1875 38.6016 32.2812C38.9453 32.375 39.2422 32.5 39.4922 32.6562C40.0859 32.9688 40.4922 33.5156 40.7109 34.2969C41.1484 35.7344 41.2109 37.2188 40.8984 38.75C40.7734 39.2812 40.6641 39.7031 40.5703 40.0156C40.5078 40.3281 40.4453 40.6094 40.3828 40.8594C40.3516 41.0781 40.3203 41.2969 40.2891 41.5156C40.2891 41.7344 40.2734 42 40.2422 42.3125C40.2422 42.625 40.2422 42.9688 40.2422 43.3438V44.6094C40.2422 45.5781 40.2734 46.3438 40.3359 46.9062C40.5234 48.4688 39.8203 49.5938 38.2266 50.2812C37.6953 50.5 37.3203 50.7031 37.1016 50.8906C36.8828 51.0781 36.6953 51.3594 36.5391 51.7344C36.3828 52.1094 36.0859 52.5781 35.6484 53.1406C35.2422 53.7031 34.6016 54.1562 33.7266 54.5C32.8828 54.8125 32.1484 55.0781 31.5234 55.2969C30.8984 55.5156 30.5078 55.7812 30.3516 56.0938C30.1328 56.5 30.0703 57.4688 30.1641 59C30.2891 60.5 30.3359 61.4531 30.3047 61.8594C30.2734 62.2656 30.2266 62.6094 30.1641 62.8906C30.1016 63.1406 29.9453 63.3438 29.6953 63.5C29.4453 63.6562 29.2266 63.7344 29.0391 63.7344C28.8516 63.7344 28.6484 63.8281 28.4297 64.0156C28.2422 64.2031 28.0703 64.3906 27.9141 64.5781C27.7578 64.7656 27.5859 64.9375 27.3984 65.0938C26.9609 65.5 26.4453 65.7031 25.8516 65.7031ZM29.0391 39.4531C28.8516 39.6406 28.6641 40.1875 28.4766 41.0938C28.2891 42 28.1953 42.7188 28.1953 43.25C28.1953 43.7812 28.3047 44.2656 28.5234 44.7031C28.7422 45.1094 28.8359 45.4531 28.8047 45.7344C28.8047 45.9844 28.7734 46.2656 28.7109 46.5781C28.6797 46.8594 28.6641 47.1562 28.6641 47.4688C28.6016 48.2188 28.6641 48.6875 28.8516 48.875C29.0391 49.0625 29.2422 49.1406 29.4609 49.1094C29.7109 49.0469 29.9609 48.9531 30.2109 48.8281C30.4609 48.7031 30.6797 48.5781 30.8672 48.4531C31.0859 48.2969 31.2891 48.1875 31.4766 48.125C31.6953 48.0625 31.8516 47.9219 31.9453 47.7031C32.0391 47.4844 32.1797 47.2969 32.3672 47.1406C32.5859 46.9844 32.7266 46.7812 32.7891 46.5312C32.8828 46.25 32.9609 45.9688 33.0234 45.6875C33.1172 45.375 33.1172 45.0938 33.0234 44.8438C32.9297 44.5625 32.7578 44.1562 32.5078 43.625C32.3203 43.0938 32.2578 42.6719 32.3203 42.3594C32.5703 41.0469 32.4141 40.1406 31.8516 39.6406C31.1328 39.2031 30.5234 39.0156 30.0234 39.0781C29.5547 39.1406 29.2266 39.2656 29.0391 39.4531ZM54.5391 39.0781C53.4766 39.3594 53.2734 41.1719 53.9297 44.5156C54.1484 45.4219 54.2578 46.1875 54.2578 46.8125C54.2891 47.4062 54.2109 48.0625 54.0234 48.7812C53.8359 49.5 53.7422 50.0781 53.7422 50.5156C53.7422 50.9531 53.6797 51.4688 53.5547 52.0625C53.5859 52.7188 53.5703 53.3906 53.5078 54.0781C53.4766 54.7344 53.4453 55.375 53.4141 56C53.3203 57.5312 53.3047 58.4375 53.3672 58.7188C53.4297 59 53.5234 59.1875 53.6484 59.2812C53.8047 59.3438 53.9766 59.4062 54.1641 59.4688C54.6016 59.625 54.8672 59.8281 54.9609 60.0781C55.0547 60.3281 55.0859 60.6875 55.0547 61.1562C55.0547 61.5938 55.0078 62.0625 54.9141 62.5625C54.6328 63.75 54.2422 64.5156 53.7422 64.8594C53.4609 65.0469 53.1641 65.1094 52.8516 65.0469C52.5703 64.9844 52.2578 64.9219 51.9141 64.8594C50.8516 64.6719 49.9453 64.7656 49.1953 65.1406C47.3516 66.1406 45.9297 66.1406 44.9297 65.1406C44.5234 64.7344 44.2734 64.1094 44.1797 63.2656C44.0547 61.7344 44.1328 60.75 44.4141 60.3125C44.7266 59.875 44.9766 59.6094 45.1641 59.5156C45.3828 59.3906 45.5703 59.2812 45.7266 59.1875C46.0703 59.0312 46.2422 58.7656 46.2422 58.3906C46.2422 58.1094 46.2734 57.8125 46.3359 57.5C46.4297 57.1562 46.5078 56.7969 46.5703 56.4219C46.7266 55.5156 46.6484 54.7656 46.3359 54.1719C45.9922 53.4844 45.8359 52.9219 45.8672 52.4844C45.9297 52.0469 45.9766 51.6562 46.0078 51.3125L46.1953 50.1875C46.2578 49.2812 46.2422 48.5156 46.1484 47.8906C46.0547 47.2344 45.9766 46.5625 45.9141 45.875C45.8828 45.1562 45.8672 44.4844 45.8672 43.8594C45.8984 43.2344 45.9141 42.6406 45.9141 42.0781C45.9141 40.7656 45.7734 39.9844 45.4922 39.7344C45.2422 39.4844 45.0078 39.3594 44.7891 39.3594C44.5703 39.3281 44.3516 39.3125 44.1328 39.3125C43.5391 39.375 43.1641 39.2812 43.0078 39.0312C42.6641 38.6875 42.4922 38.25 42.4922 37.7188C42.4922 37.1875 42.5859 36.7812 42.7734 36.5C42.9922 36.2188 43.1328 35.9062 43.1953 35.5625C43.2578 35.1875 43.2891 34.7969 43.2891 34.3906C43.3516 33.4531 43.3203 32.8438 43.1953 32.5625C43.0703 32.25 42.9766 31.9844 42.9141 31.7656C42.8828 31.5156 42.8672 31.2812 42.8672 31.0625C42.8672 30.1562 43.5078 29.6875 44.7891 29.6562C45.5703 29.625 46.3672 29.6406 47.1797 29.7031C47.9922 29.7344 48.6328 29.7031 49.1016 29.6094C50.7266 29.2969 52.0234 29.1719 52.9922 29.2344C53.9922 29.2969 54.6328 29.375 54.9141 29.4688C55.6953 29.7812 56.1172 30.6406 56.1797 32.0469C56.2109 32.7031 56.2266 33.3906 56.2266 34.1094C56.2266 34.8281 56.2578 35.5625 56.3203 36.3125C56.4453 37.875 55.8516 38.7969 54.5391 39.0781ZM66.5859 64.8125C65.3359 65.7812 64.2734 66.2656 63.3984 66.2656C62.9922 66.2656 62.5547 66.1406 62.0859 65.8906C61.6484 65.6406 61.3516 65.3438 61.1953 65C61.0703 64.6562 61.0078 64.2812 61.0078 63.875C61.0078 63.4375 61.0078 62.9688 61.0078 62.4688C61.0391 61.625 60.9141 60.8594 60.6328 60.1719C60.3516 59.4844 60.1641 58.9844 60.0703 58.6719C59.9141 58.0156 59.8672 57.0625 59.9297 55.8125C59.9609 54.8438 59.9297 54.2656 59.8359 54.0781C59.7422 53.8594 59.6953 53.6562 59.6953 53.4688C59.6953 53.2812 59.7578 52.625 59.8828 51.5C60.2266 48.8125 60.0703 47.4375 59.4141 47.375C59.0703 47.3125 58.8984 47.2344 58.8984 47.1406C58.9297 47.0469 58.8516 46.8438 58.6641 46.5312C58.4766 46.1875 58.3516 45.9219 58.2891 45.7344C58.2578 45.5469 58.2422 45.25 58.2422 44.8438C58.2422 44.4375 58.2891 44.0625 58.3828 43.7188C58.4766 43.375 58.5859 43.0312 58.7109 42.6875C59.5859 40.3125 59.8984 38.3125 59.6484 36.6875C59.3047 34.9062 59.1797 33.6562 59.2734 32.9375C59.3984 32.1875 59.5703 31.6562 59.7891 31.3438C60.0391 31.0312 60.3203 30.75 60.6328 30.5C60.9453 30.2188 61.3203 30 61.7578 29.8438C62.6953 29.5312 63.5078 29.6094 64.1953 30.0781C64.9141 30.5469 65.5703 30.8438 66.1641 30.9688C66.7578 31.0938 67.3203 31.1719 67.8516 31.2031C69.2266 31.2969 70.0703 31.4688 70.3828 31.7188C70.6953 31.9688 70.9922 32.1719 71.2734 32.3281C71.5859 32.4531 71.8516 32.5625 72.0703 32.6562C72.6953 32.9688 73.0703 33.2656 73.1953 33.5469C73.3203 33.8281 73.4922 34.0938 73.7109 34.3438C73.9297 34.5625 74.1641 34.8125 74.4141 35.0938C74.9766 35.8125 75.3359 36.5781 75.4922 37.3906C75.5859 37.9219 75.6641 38.3906 75.7266 38.7969C75.7891 39.2031 75.8672 39.5938 75.9609 39.9688C76.2422 41.1875 76.5703 42.2656 76.9453 43.2031C77.6953 45.1094 77.8828 46.5781 77.5078 47.6094L77.4141 47.7969C77.6641 48.4219 77.6953 49.0938 77.5078 49.8125C77.3516 50.5 77.2266 51 77.1328 51.3125C77.0703 51.5938 76.9766 51.9219 76.8516 52.2969C76.7266 52.6719 76.5859 53.1562 76.4297 53.75C76.2734 54.3125 76.1172 54.8125 75.9609 55.25C75.8047 55.6562 75.6328 56.0312 75.4453 56.375C75.0703 57.0625 74.1016 58.2188 72.5391 59.8438C72.0391 60.3438 71.6797 60.8438 71.4609 61.3438C71.2734 61.8438 70.9922 62.2344 70.6172 62.5156C70.1172 63.4531 69.6953 64.0312 69.3516 64.25C68.6641 64.7812 67.7422 64.9688 66.5859 64.8125ZM65.9297 44.1406L66.0703 46.8125C66.1328 47.5625 66.0859 48.2656 65.9297 48.9219C65.7734 49.5469 65.7422 50.2188 65.8359 50.9375C65.9609 51.6562 65.9922 52.2656 65.9297 52.7656C65.8672 53.2656 65.8984 53.6719 66.0234 53.9844C66.1484 54.2969 66.1797 54.625 66.1172 54.9688C66.0859 55.2812 66.0547 55.5938 66.0234 55.9062C65.9609 56.7188 66.1172 57.1562 66.4922 57.2188C66.7422 57.25 66.9766 57.1406 67.1953 56.8906C67.4141 56.6094 67.6016 56.2656 67.7578 55.8594C68.0391 55.2031 68.2734 54.3438 68.4609 53.2812C68.5234 52.8438 68.6797 52.375 68.9297 51.875C69.3672 50.9375 69.5859 50.2656 69.5859 49.8594C69.5859 49.4219 69.6016 49.1562 69.6328 49.0625C69.6641 48.9375 69.6953 48.8125 69.7266 48.6875C69.7891 48.5625 69.8516 48.4219 69.9141 48.2656C69.9766 48.1094 70.0391 47.8281 70.1016 47.4219C70.1641 46.9844 70.1016 46.4531 69.9141 45.8281C69.7578 45.1719 69.4297 44.6406 68.9297 44.2344C68.4609 43.8281 68.1328 43.4844 67.9453 43.2031C67.7578 42.9219 67.5859 42.6719 67.4297 42.4531C67.1172 42.0156 66.8203 41.8906 66.5391 42.0781C66.1328 42.3906 65.9297 43.0781 65.9297 44.1406ZM80.5078 56.1875L80.4609 53.7969C80.4609 53.3594 80.4766 52.9531 80.5078 52.5781C80.5391 52.1719 80.5078 51.6719 80.4141 51.0781C80.2578 50.0469 80.1797 49.2969 80.1797 48.8281C80.2109 48.3281 80.2109 47.9375 80.1797 47.6562C80.1797 47.3438 80.1484 47.0625 80.0859 46.8125C79.9922 46.4375 79.7578 45.8438 79.3828 45.0312C79.0391 44.2188 78.8672 43.3438 78.8672 42.4062C78.8672 41.4688 79.0703 40.7188 79.4766 40.1562C79.8516 39.5938 79.9922 39.0156 79.8984 38.4219C79.8047 37.8281 79.7266 37.2031 79.6641 36.5469C79.6328 35.8594 79.6328 35.1719 79.6641 34.4844C79.6953 33.7656 79.8516 33.0781 80.1328 32.4219C80.8203 30.8281 82.1953 30.0625 84.2578 30.125C85.5391 30.1562 86.6484 30.2812 87.5859 30.5C88.5234 30.7188 89.2109 30.8125 89.6484 30.7812C90.0859 30.75 90.7578 30.5938 91.6641 30.3125C92.9766 29.8125 94.0234 29.8438 94.8047 30.4062C95.0234 30.5625 95.2266 30.6875 95.4141 30.7812C95.6328 30.8438 95.8203 30.9531 95.9766 31.1094C96.5078 31.7031 96.6641 33 96.4453 35C96.3828 35.5938 96.3203 36.1875 96.2578 36.7812C96.1016 38.1875 96.1016 39.2344 96.2578 39.9219C96.4141 40.6094 96.4922 41.2188 96.4922 41.75C96.5234 42.25 96.5078 42.7031 96.4453 43.1094C96.2578 44.0156 95.8984 44.4688 95.3672 44.4688C94.8984 44.4375 94.5547 44.2969 94.3359 44.0469C94.1484 43.7656 93.9922 43.4688 93.8672 43.1562C93.7422 42.8125 93.6016 42.5156 93.4453 42.2656C93.3203 41.9844 93.0234 41.8438 92.5547 41.8438C91.1797 41.8438 90.2578 41.7031 89.7891 41.4219C89.3516 41.1094 88.9609 40.9375 88.6172 40.9062C88.2734 40.8438 87.9453 40.875 87.6328 41C86.9766 41.2812 86.5859 41.7969 86.4609 42.5469C86.3672 43.2969 86.3047 43.9531 86.2734 44.5156C86.2422 45.0781 86.2422 45.5938 86.2734 46.0625C86.3359 47.1562 86.5391 47.7812 86.8828 47.9375C87.2578 48.0625 87.5703 48.0781 87.8203 47.9844C88.0703 47.8594 88.3203 47.7188 88.5703 47.5625C89.3203 47.0625 90.0859 46.8281 90.8672 46.8594C91.6797 46.8594 92.2734 47.1719 92.6484 47.7969C93.0547 48.4219 93.2266 49.0312 93.1641 49.625C93.1016 50.1875 93.0391 50.75 92.9766 51.3125C92.9453 51.875 92.8828 52.4062 92.7891 52.9062C92.3516 54.8438 91.4453 55.2188 90.0703 54.0312C88.2891 53.9062 87.1797 54.125 86.7422 54.6875C86.6484 54.8438 86.5547 55.1719 86.4609 55.6719C86.3672 56.1719 86.3516 56.7031 86.4141 57.2656C86.5703 58.7344 87.2734 59.5156 88.5234 59.6094C89.3359 59.6719 90.0703 59.5625 90.7266 59.2812C91.4141 59 91.8672 58.6875 92.0859 58.3438C92.2734 57.9688 92.5078 57.7656 92.7891 57.7344C93.0703 57.6719 93.3203 57.625 93.5391 57.5938C93.7578 57.5312 93.9766 57.5 94.1953 57.5C94.4141 57.5 94.6328 57.5312 94.8516 57.5938C95.4141 57.7812 95.7422 58.2188 95.8359 58.9062C95.9609 59.5938 95.8984 60.2188 95.6484 60.7812C95.3984 61.3438 95.2266 61.8594 95.1328 62.3281C95.0703 62.7656 95.0078 63.0938 94.9453 63.3125C94.8828 63.5312 94.6953 63.8125 94.3828 64.1562C94.1016 64.4688 93.8672 64.7344 93.6797 64.9531C93.5234 65.1719 93.2578 65.125 92.8828 64.8125C92.1953 64.2812 91.3672 64.5938 90.3984 65.75C90.1484 66.0938 89.8828 66.3438 89.6016 66.5C89.3203 66.6562 88.8828 66.7188 88.2891 66.6875C87.6953 66.6562 87.2266 66.5 86.8828 66.2188C86.5391 65.9375 86.2266 65.6562 85.9453 65.375C85.4766 64.7812 84.6641 64.5625 83.5078 64.7188C82.8203 64.8125 82.2578 64.5156 81.8203 63.8281C81.7266 63.7344 81.6484 63.5625 81.5859 63.3125C81.5547 63.0625 81.5078 62.7812 81.4453 62.4688C81.2266 61.6562 81.0234 61.1406 80.8359 60.9219C80.6797 60.6719 80.5859 60.3594 80.5547 59.9844C80.5547 59.6094 80.5234 59.2188 80.4609 58.8125C80.3984 58.375 80.3516 58.0625 80.3203 57.875C80.2891 57.6562 80.3047 57.4062 80.3672 57.125C80.4609 56.8438 80.5078 56.5312 80.5078 56.1875ZM111.211 31.2969L112.711 31.2031C113.773 31.2031 114.523 31.375 114.961 31.7188C115.43 32.0625 115.773 32.375 115.992 32.6562C116.242 32.9375 116.461 33.2344 116.648 33.5469C116.836 33.8281 117.086 34.125 117.398 34.4375C117.742 34.75 117.914 35.125 117.914 35.5625C117.914 35.9688 118.023 36.2969 118.242 36.5469C118.492 36.7969 118.617 37.2031 118.617 37.7656C118.617 38.3281 118.602 38.875 118.57 39.4062C118.57 39.9062 118.523 40.3281 118.43 40.6719C118.336 40.9844 118.289 41.3125 118.289 41.6562C118.289 41.9688 118.352 42.2656 118.477 42.5469C118.633 42.7969 118.648 43.4375 118.523 44.4688C118.43 45.4688 118.258 46.4844 118.008 47.5156C117.789 48.5469 117.492 49.4375 117.117 50.1875C116.367 51.5938 115.148 52.7031 113.461 53.5156C113.617 53.8906 113.789 54.3125 113.977 54.7812C114.195 55.2188 114.398 55.6719 114.586 56.1406C114.992 57.2969 115.195 58.1406 115.195 58.6719C115.195 59.1719 115.211 59.5469 115.242 59.7969C115.305 60.0156 115.367 60.1875 115.43 60.3125C115.492 60.4375 115.57 60.5312 115.664 60.5938C115.789 60.6562 115.961 60.7812 116.18 60.9688C116.398 61.125 116.57 61.4062 116.695 61.8125C116.82 62.2188 116.883 62.6406 116.883 63.0781C116.883 64.0781 116.758 64.7031 116.508 64.9531C116.289 65.1719 116.039 65.3125 115.758 65.375C115.508 65.4688 115.242 65.5312 114.961 65.5625C114.242 65.6562 113.789 65.5625 113.602 65.2812C113.352 65.0312 113.211 64.7812 113.18 64.5312C113.18 64.25 113.133 64.0156 113.039 63.8281C112.945 63.6094 112.805 63.4844 112.617 63.4531C112.43 63.3906 112.289 63.1875 112.195 62.8438C112.133 62.5 112.023 62.2812 111.867 62.1875C111.742 62.0625 111.461 62.0312 111.023 62.0938C110.242 62.25 109.664 61.7812 109.289 60.6875C109.195 60.4375 109.102 60.1094 109.008 59.7031C108.914 59.2969 108.805 58.9062 108.68 58.5312C108.43 57.625 108.133 57.1406 107.789 57.0781C107.477 56.9844 107.242 57.0156 107.086 57.1719C106.93 57.3281 106.805 57.5469 106.711 57.8281C106.648 58.0781 106.617 58.375 106.617 58.7188C106.617 59.0312 106.648 59.375 106.711 59.75C106.805 60.125 106.82 60.4375 106.758 60.6875C106.695 60.9375 106.602 61.1406 106.477 61.2969C106.383 61.4531 106.273 61.5938 106.148 61.7188C105.898 61.875 105.742 62.1875 105.68 62.6562C105.648 63.125 105.586 63.5312 105.492 63.875C105.305 64.7188 105.055 65.25 104.742 65.4688C104.43 65.6875 104.117 65.8125 103.805 65.8438C103.492 65.9062 103.18 65.9062 102.867 65.8438C102.086 65.6875 101.602 65.4062 101.414 65C101.227 64.625 101.117 64.3438 101.086 64.1562C101.055 63.9375 101.039 63.7344 101.039 63.5469C101.07 63.3594 101.102 63.1562 101.133 62.9375C101.164 62.7188 101.164 62.4688 101.133 62.1875C101.133 61.875 101.07 61.4688 100.945 60.9688C100.82 60.4688 100.742 59.875 100.711 59.1875L100.664 57.9688C100.664 57.8438 100.773 57.6406 100.992 57.3594C101.211 57.0469 101.273 56.7031 101.18 56.3281C101.117 55.9219 100.945 55.6719 100.664 55.5781C100.383 55.4531 100.242 55.3125 100.242 55.1562C100.242 55 100.273 54.6094 100.336 53.9844C100.398 53.3594 100.367 52.5781 100.242 51.6406C100.148 50.7031 100.086 49.875 100.055 49.1562C99.9297 47.5938 99.6484 46.7188 99.2109 46.5312C98.8047 46.3125 98.5703 46.0625 98.5078 45.7812C98.4453 45.4688 98.4453 45.125 98.5078 44.75C98.5703 44.375 98.6328 43.9062 98.6953 43.3438C98.7891 42.7812 98.8828 42.2188 98.9766 41.6562C99.0703 41.0625 99.1484 40.5156 99.2109 40.0156C99.3047 39.5156 99.3672 39.1719 99.3984 38.9844C99.4297 38.7969 99.4297 38.625 99.3984 38.4688C99.3984 38.2812 99.3984 38.1094 99.3984 37.9531C99.3359 37.4531 99.3359 37.0156 99.3984 36.6406C99.5234 35.9219 99.5547 35.4219 99.4922 35.1406C99.4297 34.8281 99.4766 34.375 99.6328 33.7812C99.8203 33.1562 99.9766 32.7188 100.102 32.4688C100.227 32.2188 100.461 32.0312 100.805 31.9062C101.148 31.7812 101.477 31.6094 101.789 31.3906C102.133 31.1406 102.445 30.9062 102.727 30.6875C103.008 30.4375 103.258 30.2188 103.477 30.0312C103.695 29.8125 103.961 29.6562 104.273 29.5625C105.18 29.375 105.836 29.3594 106.242 29.5156C106.68 29.6406 106.992 29.7812 107.18 29.9375C107.367 30.0938 107.586 30.25 107.836 30.4062C108.117 30.5625 108.398 30.6875 108.68 30.7812C108.992 30.8438 109.273 30.875 109.523 30.875C110.18 30.9375 110.57 31.0312 110.695 31.1562C110.852 31.25 111.023 31.2969 111.211 31.2969ZM107.32 44.375L107.602 48.6406C107.602 48.9219 107.586 49.2031 107.555 49.4844C107.523 49.7344 107.492 49.9688 107.461 50.1875C107.43 50.6562 107.602 50.9375 107.977 51.0312C108.289 51.0938 108.539 51.0156 108.727 50.7969C108.914 50.5469 109.086 50.2188 109.242 49.8125C109.617 49.0312 109.742 48.5312 109.617 48.3125C109.367 48 109.289 47.7344 109.383 47.5156C109.508 47.2656 109.742 46.7969 110.086 46.1094C110.461 45.4219 110.727 44.8281 110.883 44.3281C111.07 43.8281 111.117 43.2969 111.023 42.7344C110.93 42.1406 110.883 41.7344 110.883 41.5156V41C110.883 40.75 110.758 40.5312 110.508 40.3438C110.289 40.125 110.133 40.0156 110.039 40.0156C109.945 39.9844 109.867 39.9688 109.805 39.9688C109.523 40.0312 109.258 40.0156 109.008 39.9219C108.758 39.7969 108.523 39.75 108.305 39.7812C108.086 39.7812 107.836 39.9219 107.555 40.2031C107.273 40.4844 107.117 40.7812 107.086 41.0938C107.055 41.375 107.055 41.7031 107.086 42.0781C107.242 43.2031 107.32 43.9688 107.32 44.375Z" fill="white"/>
<path id="MCA&#226;&#128;&#153;s" d="M9.84766 11.4688C10.2643 11.4688 10.6484 11.5794 11 11.8008C11.2083 11.7357 11.4036 11.7031 11.5859 11.7031C11.7812 11.7031 12.0156 11.7292 12.2891 11.7812C12.5755 11.8333 12.7773 11.9635 12.8945 12.1719C13.0247 12.3802 13.0833 12.556 13.0703 12.6992C13.0443 12.9596 12.9987 13.1484 12.9336 13.2656C13.0508 13.5781 12.9922 13.9622 12.7578 14.418C13.0703 15.1732 13.0638 16.2995 12.7383 17.7969C12.6602 18.1615 12.582 18.513 12.5039 18.8516C12.3216 19.6458 12.2305 20.2057 12.2305 20.5312C12.2305 20.7396 12.2435 21.0456 12.2695 21.4492C12.3086 21.8529 12.3411 22.263 12.3672 22.6797C12.3932 23.0964 12.4062 23.4805 12.4062 23.832C12.4062 24.1836 12.3672 24.4115 12.2891 24.5156C12.224 24.6068 12.1719 24.7565 12.1328 24.9648C12.1068 25.1602 12.0677 25.3555 12.0156 25.5508C11.9635 25.7461 11.8919 25.9089 11.8008 26.0391C11.7096 26.1823 11.5924 26.2409 11.4492 26.2148C11.319 26.2018 11.2344 26.1758 11.1953 26.1367C11.1693 26.0977 11.1432 26.0521 11.1172 26C11.0781 25.8698 11 25.7852 10.8828 25.7461C10.7005 25.694 10.6029 25.5768 10.5898 25.3945C10.5898 25.1992 10.6159 25.0625 10.668 24.9844C10.7331 24.8932 10.7656 24.8021 10.7656 24.7109C10.7656 24.6068 10.7461 24.5026 10.707 24.3984C10.6159 24.1901 10.4987 24.0729 10.3555 24.0469C10.2122 24.0078 10.0951 23.9297 10.0039 23.8125C9.91276 23.6823 9.83464 23.5391 9.76953 23.3828C9.61328 23.0052 9.55469 22.7188 9.59375 22.5234C9.64583 22.3281 9.63932 22.0938 9.57422 21.8203C9.36589 20.987 9.35286 20.3555 9.53516 19.9258C9.60026 19.7435 9.60677 19.5872 9.55469 19.457C9.47656 19.1836 9.45703 18.9492 9.49609 18.7539C9.57422 18.3633 9.61328 18.0052 9.61328 17.6797C9.61328 17.3411 9.52865 17.1719 9.35938 17.1719C9.20312 17.1719 9.09896 17.5885 9.04688 18.4219C8.99479 19.3464 8.91016 19.8932 8.79297 20.0625C8.6888 20.2318 8.59766 20.375 8.51953 20.4922C8.44141 20.5964 8.36979 20.7201 8.30469 20.8633C8.17448 21.1497 8.10938 21.4688 8.10938 21.8203C8.10938 22.1589 8.09635 22.3607 8.07031 22.4258C8.05729 22.4909 8.04427 22.5625 8.03125 22.6406C7.96615 22.875 7.93359 23.1615 7.93359 23.5C7.93359 23.9688 7.83594 24.3464 7.64062 24.6328C7.61458 24.6719 7.58854 24.7565 7.5625 24.8867C7.53646 25.0039 7.4974 25.1276 7.44531 25.2578C7.3151 25.5703 7.14583 25.7266 6.9375 25.7266C6.72917 25.7135 6.56641 25.6484 6.44922 25.5312C6.34505 25.401 6.26042 25.2513 6.19531 25.082C6.13021 24.9128 6.07812 24.7435 6.03906 24.5742C6 24.4049 5.9349 24.2422 5.84375 24.0859C5.71354 23.8646 5.74609 23.4089 5.94141 22.7188C6.01953 22.4453 6.05208 22.224 6.03906 22.0547C6.02604 21.8724 5.9349 21.7292 5.76562 21.625C5.6875 21.5729 5.60286 21.293 5.51172 20.7852C5.43359 20.2643 5.36198 19.8346 5.29688 19.4961C5.24479 19.1445 5.19271 18.8255 5.14062 18.5391C4.9974 17.875 4.88021 17.5365 4.78906 17.5234C4.71094 17.5104 4.65885 17.543 4.63281 17.6211C4.61979 17.6862 4.61979 17.7708 4.63281 17.875C4.64583 17.9792 4.65885 18.0833 4.67188 18.1875C4.69792 18.2917 4.71094 18.3893 4.71094 18.4805C4.72396 18.5716 4.6849 18.7474 4.59375 19.0078C4.51562 19.2552 4.50911 19.5417 4.57422 19.8672C4.63932 20.1927 4.67188 20.4401 4.67188 20.6094C4.67188 20.7786 4.65234 20.9674 4.61328 21.1758C4.57422 21.3711 4.5612 21.5469 4.57422 21.7031C4.60026 21.8594 4.61979 22.0026 4.63281 22.1328C4.65885 22.4583 4.58724 22.6732 4.41797 22.7773C4.2487 22.8815 4.16406 23.0508 4.16406 23.2852C4.17708 23.5195 4.25521 23.7148 4.39844 23.8711C4.54167 24.0143 4.59375 24.151 4.55469 24.2812C4.51562 24.4115 4.47005 24.5156 4.41797 24.5938C4.36589 24.6719 4.34635 24.737 4.35938 24.7891C4.3724 24.8411 4.3724 24.9062 4.35938 24.9844C4.33333 25.2969 4.08594 25.5833 3.61719 25.8438C3.23958 26.0521 2.92708 26.1302 2.67969 26.0781C2.43229 26.0391 2.25 25.9544 2.13281 25.8242C2.01562 25.694 1.97005 25.5508 1.99609 25.3945C2.02214 25.2253 2.02214 25.0755 1.99609 24.9453C1.98307 24.8021 1.97005 24.6589 1.95703 24.5156C1.95703 24.3724 1.95052 24.2292 1.9375 24.0859C1.92448 23.6953 1.88542 23.4349 1.82031 23.3047C1.75521 23.1615 1.71615 23.0182 1.70312 22.875C1.6901 22.7318 1.68359 22.6016 1.68359 22.4844C1.69661 22.3542 1.70964 22.237 1.72266 22.1328C1.73568 22.0286 1.71615 21.918 1.66406 21.8008C1.625 21.6836 1.625 21.5339 1.66406 21.3516C1.70312 21.1693 1.70964 20.9935 1.68359 20.8242C1.65755 20.6549 1.65755 20.5052 1.68359 20.375C1.72266 20.2318 1.75521 20.0885 1.78125 19.9453C1.82031 19.6068 1.7487 19.3789 1.56641 19.2617C1.35807 19.0924 1.21484 18.9167 1.13672 18.7344C1.07161 18.5391 1.04557 18.2917 1.05859 17.9922C1.07161 17.6927 1.07161 17.4518 1.05859 17.2695C1.04557 17.0742 1.07812 16.8464 1.15625 16.5859C1.2474 16.3125 1.29297 16.0326 1.29297 15.7461C1.29297 15.4596 1.27995 15.2122 1.25391 15.0039C1.24089 14.7956 1.22135 14.6003 1.19531 14.418C1.16927 14.2357 1.14323 14.0469 1.11719 13.8516C1.07812 13.4479 1.09766 13.1094 1.17578 12.8359C1.27995 12.5755 1.41016 12.3607 1.56641 12.1914C1.73568 12.0091 2.0026 11.9245 2.36719 11.9375C3.07031 11.9635 3.49349 11.931 3.63672 11.8398C3.9362 11.6576 4.27474 11.651 4.65234 11.8203C4.75651 11.8594 4.84766 11.9115 4.92578 11.9766C5.65495 12.1589 6.0651 12.4518 6.15625 12.8555C6.41667 13.9492 6.54688 14.6784 6.54688 15.043C6.54688 15.3945 6.55339 15.6029 6.56641 15.668C6.59245 15.7331 6.61198 15.7852 6.625 15.8242C6.65104 15.8503 6.66406 15.8828 6.66406 15.9219C6.66406 15.9609 6.65104 16.0651 6.625 16.2344C6.59896 16.4036 6.61849 16.5339 6.68359 16.625C6.7487 16.7161 6.82031 16.7617 6.89844 16.7617C6.98958 16.7617 7.07422 16.7161 7.15234 16.625C7.24349 16.5208 7.30208 16.319 7.32812 16.0195C7.36719 15.707 7.38672 15.5182 7.38672 15.4531C7.38672 15.3359 7.40625 15.2318 7.44531 15.1406C7.4974 15.0365 7.52995 14.9258 7.54297 14.8086C7.55599 14.6914 7.57552 14.5677 7.60156 14.4375C7.64062 14.099 7.72526 13.8646 7.85547 13.7344C7.98568 13.6042 8.1224 13.4935 8.26562 13.4023C8.40885 13.2982 8.5 13.1549 8.53906 12.9727C8.57812 12.7904 8.61719 12.6211 8.65625 12.4648C8.70833 12.3086 8.77995 12.1589 8.87109 12.0156C9.09245 11.651 9.41797 11.4688 9.84766 11.4688ZM20.3359 12.2109C20.7135 12.237 21.0521 12.4323 21.3516 12.7969C21.4036 12.875 21.4557 12.9531 21.5078 13.0312C21.5599 13.0964 21.599 13.1745 21.625 13.2656C21.7031 13.4609 21.7292 13.7409 21.7031 14.1055C21.6771 14.4701 21.6966 14.7695 21.7617 15.0039C21.8268 15.2253 21.8919 15.4401 21.957 15.6484C22.0742 16.013 22.0026 16.5013 21.7422 17.1133C21.5469 17.6732 21.306 18.0052 21.0195 18.1094L20.668 18.2266C20.3294 18.3438 20.0365 18.3893 19.7891 18.3633C19.5547 18.3242 19.3919 18.2526 19.3008 18.1484C19.0404 17.8099 18.9753 17.4193 19.1055 16.9766C19.1315 16.8854 19.1315 16.7422 19.1055 16.5469C19.0794 16.3516 18.9688 16.2279 18.7734 16.1758C18.6693 16.1497 18.5977 16.1042 18.5586 16.0391C18.5326 15.974 18.5065 15.9219 18.4805 15.8828C18.4674 15.8307 18.4479 15.7982 18.4219 15.7852C18.4089 15.7591 18.3503 15.7852 18.2461 15.8633C18.1419 15.9414 18.0833 15.987 18.0703 16C18.0573 16 18.0117 15.987 17.9336 15.9609C17.8685 15.9349 17.8034 15.9414 17.7383 15.9805C17.6732 16.0195 17.6081 16.0911 17.543 16.1953C17.3086 16.599 17.263 17.2565 17.4062 18.168C17.4583 18.4414 17.5104 18.6953 17.5625 18.9297C17.6667 19.5156 17.7122 19.9062 17.6992 20.1016C17.6992 20.2969 17.6602 20.5052 17.582 20.7266C17.5169 20.9349 17.4583 21.1432 17.4062 21.3516C17.25 21.8854 17.2695 22.3411 17.4648 22.7188C17.6992 23.1875 17.849 23.4609 17.9141 23.5391C18.0312 23.6562 18.1745 23.7083 18.3438 23.6953C18.513 23.6693 18.6432 23.5846 18.7344 23.4414C18.8255 23.2852 18.9102 23.1224 18.9883 22.9531C19.0664 22.7708 19.151 22.6016 19.2422 22.4453C19.3333 22.2891 19.4375 22.1979 19.5547 22.1719C19.6849 22.1458 19.8477 22.1458 20.043 22.1719C20.2383 22.1849 20.3685 22.1914 20.4336 22.1914C20.5117 22.1914 20.6029 22.237 20.707 22.3281C20.8112 22.4062 20.8633 22.5951 20.8633 22.8945C20.8763 23.181 20.8893 23.4154 20.9023 23.5977C20.9154 23.7669 20.8698 23.9232 20.7656 24.0664C20.6615 24.1966 20.5898 24.3203 20.5508 24.4375C20.5247 24.5417 20.5052 24.6458 20.4922 24.75C20.4792 25.0234 20.4271 25.2253 20.3359 25.3555C20.2578 25.4857 20.1797 25.5964 20.1016 25.6875C20.0365 25.7656 19.8477 25.8047 19.5352 25.8047C19.2357 25.8047 18.9622 25.9479 18.7148 26.2344C18.4674 26.5208 18.2331 26.6445 18.0117 26.6055C17.7904 26.5794 17.6341 26.4492 17.543 26.2148C17.4518 26.0065 17.25 25.8958 16.9375 25.8828C16.8464 25.8698 16.7617 25.8503 16.6836 25.8242C16.6055 25.7852 16.5143 25.7591 16.4102 25.7461C16.306 25.7201 16.2018 25.6745 16.0977 25.6094C15.8372 25.4661 15.6224 25.2383 15.4531 24.9258C15.349 24.7305 15.2448 24.5677 15.1406 24.4375C15.0495 24.3073 14.9714 24.1836 14.9062 24.0664C14.737 23.806 14.6719 23.5586 14.7109 23.3242C14.7891 22.6992 14.7044 22.2891 14.457 22.0938C14.3138 22.0026 14.2422 21.931 14.2422 21.8789C14.2422 21.8268 14.2161 21.7161 14.1641 21.5469C14.0859 21.3125 14.0859 21.0391 14.1641 20.7266C14.2552 20.4141 14.2878 20.1602 14.2617 19.9648C14.2357 19.7565 14.2031 19.5417 14.1641 19.3203C14.0859 18.7474 14.0794 18.3698 14.1445 18.1875C14.2096 18.0052 14.2227 17.7448 14.1836 17.4062C14.1576 17.0677 14.1445 16.7943 14.1445 16.5859C14.1445 16.3646 14.125 16.0781 14.0859 15.7266C14.0599 15.375 14.0599 14.9974 14.0859 14.5938C14.1771 13.5781 14.5221 12.8815 15.1211 12.5039C16.0195 11.9701 16.5924 11.7161 16.8398 11.7422C16.918 11.7422 17.0091 11.7552 17.1133 11.7812C17.2305 11.7943 17.3411 11.7878 17.4453 11.7617C17.5495 11.7357 17.6406 11.6966 17.7188 11.6445C17.7969 11.5924 17.875 11.5339 17.9531 11.4688C18.2656 11.1823 18.5456 11.1497 18.793 11.3711C19.0273 11.6445 19.2096 11.8268 19.3398 11.918C19.5612 12.0872 19.8932 12.1849 20.3359 12.2109ZM29.8477 26.1172C29.7695 26.2604 29.6654 26.3646 29.5352 26.4297C29.4049 26.5078 29.2747 26.4948 29.1445 26.3906C29.0143 26.2995 28.9167 26.2604 28.8516 26.2734C28.7995 26.2865 28.7474 26.2995 28.6953 26.3125C28.5781 26.3255 28.4609 26.2409 28.3438 26.0586C28.2266 25.8763 28.1615 25.7331 28.1484 25.6289C28.1354 25.5117 28.1354 25.401 28.1484 25.2969C28.2005 25.0625 28.1615 24.8542 28.0312 24.6719C27.9141 24.4896 27.8294 24.3529 27.7773 24.2617C27.7383 24.1706 27.7188 24.0404 27.7188 23.8711C27.7188 23.6888 27.7057 23.5781 27.6797 23.5391C27.6667 23.487 27.6536 23.4479 27.6406 23.4219C27.5755 23.3047 27.5495 23.1224 27.5625 22.875C27.5885 22.6276 27.556 22.4583 27.4648 22.3672C27.3737 22.263 27.25 22.1849 27.0938 22.1328C26.9505 22.0807 26.8333 22.1003 26.7422 22.1914C26.6641 22.2695 26.5859 22.3672 26.5078 22.4844C26.4427 22.6016 26.3581 22.7057 26.2539 22.7969C26.1497 22.875 26.013 22.8945 25.8438 22.8555C25.6875 22.8164 25.5117 22.8555 25.3164 22.9727C25.1211 23.0898 25.0039 23.2331 24.9648 23.4023C24.9258 23.5586 24.8802 23.7214 24.8281 23.8906C24.776 24.0599 24.7565 24.2161 24.7695 24.3594C24.7956 24.5026 24.7956 24.6458 24.7695 24.7891C24.7565 24.9193 24.724 25.0495 24.6719 25.1797C24.5677 25.5052 24.444 25.681 24.3008 25.707C24.1836 25.7201 24.0599 25.7201 23.9297 25.707C23.7865 25.9674 23.6172 26.1237 23.4219 26.1758C22.888 26.293 22.569 26.2083 22.4648 25.9219C22.3997 25.7526 22.3607 25.5312 22.3477 25.2578C22.3216 24.7109 22.263 24.3398 22.1719 24.1445C22.0807 23.9492 22.0547 23.7148 22.0938 23.4414C22.1458 23.168 22.1654 22.8945 22.1523 22.6211C22.1393 22.3477 22.1393 22.1393 22.1523 21.9961C22.1654 21.8529 22.1784 21.7227 22.1914 21.6055C22.2174 21.4883 22.2435 21.3776 22.2695 21.2734C22.2956 21.1562 22.3086 21.026 22.3086 20.8828C22.3216 20.7266 22.3477 20.5508 22.3867 20.3555C22.4258 20.1602 22.4648 19.9583 22.5039 19.75C22.6081 19.2292 22.6471 18.8385 22.6211 18.5781C22.5951 18.3177 22.6146 18.0964 22.6797 17.9141C22.7578 17.7318 22.8424 17.569 22.9336 17.4258C23.168 17.0482 23.2786 16.7422 23.2656 16.5078C23.2526 16.2604 23.2396 16.0716 23.2266 15.9414C23.2266 15.7982 23.2331 15.6549 23.2461 15.5117C23.3112 14.8086 23.6432 13.7083 24.2422 12.2109C24.2812 12.0677 24.4049 11.957 24.6133 11.8789C24.8216 11.8008 25.0299 11.7943 25.2383 11.8594C25.4596 11.9115 25.6354 11.9375 25.7656 11.9375C25.9089 11.9245 26.026 11.8724 26.1172 11.7812C26.2214 11.6771 26.3255 11.5794 26.4297 11.4883C26.5469 11.3971 26.6836 11.3255 26.8398 11.2734C26.9961 11.2083 27.1719 11.1758 27.3672 11.1758C27.5625 11.1758 27.7708 11.2344 27.9922 11.3516C28.3568 11.5469 28.5977 11.7292 28.7148 11.8984C28.832 12.0677 28.9102 12.2044 28.9492 12.3086C28.9883 12.4128 29.0534 12.556 29.1445 12.7383C29.2357 12.9206 29.2747 13.0833 29.2617 13.2266C29.2617 13.3698 29.2878 13.5391 29.3398 13.7344C29.3919 13.9297 29.3919 14.1576 29.3398 14.418C29.2878 14.6784 29.2878 14.9388 29.3398 15.1992C29.3919 15.4466 29.418 15.6159 29.418 15.707C29.418 15.7982 29.4245 15.8828 29.4375 15.9609C29.4505 16.1823 29.4961 16.3776 29.5742 16.5469C29.6523 16.7292 29.6719 16.957 29.6328 17.2305C29.6068 17.4909 29.6003 17.7122 29.6133 17.8945C29.6393 18.0638 29.7109 18.2396 29.8281 18.4219C30.0495 18.7734 30.1276 19.1641 30.0625 19.5938C30.0495 19.7109 30.0495 19.8411 30.0625 19.9844C30.0885 20.1146 30.1016 20.2383 30.1016 20.3555C30.1016 20.4596 30.0885 20.5964 30.0625 20.7656C30.0234 21.013 30.0299 21.3125 30.082 21.6641C30.1602 22.3151 30.1992 22.7513 30.1992 22.9727C30.1992 23.194 30.2057 23.3828 30.2188 23.5391C30.2318 23.6823 30.2448 23.8385 30.2578 24.0078C30.2969 24.4505 30.2969 24.8997 30.2578 25.3555C30.2318 25.7982 30.0951 26.0521 29.8477 26.1172ZM26.8594 18.2461C26.8854 17.9987 26.8724 17.6927 26.8203 17.3281C26.7812 16.9635 26.7617 16.6966 26.7617 16.5273C26.7617 16.3451 26.7487 16.1888 26.7227 16.0586C26.6836 15.8503 26.5729 15.8242 26.3906 15.9805C26.1823 15.7721 26.013 15.7656 25.8828 15.9609C25.7917 16.1042 25.7461 16.3385 25.7461 16.6641C25.7201 16.8854 25.668 17.0872 25.5898 17.2695C25.5247 17.4518 25.4792 17.6536 25.4531 17.875C25.4141 18.1354 25.3424 18.4544 25.2383 18.832C25.1471 19.2096 25.1602 19.4896 25.2773 19.6719C25.4076 19.8542 25.5638 19.9193 25.7461 19.8672C25.9284 19.8151 26.0651 19.7891 26.1562 19.7891C26.2474 19.776 26.3255 19.763 26.3906 19.75C26.5469 19.737 26.6641 19.6784 26.7422 19.5742C26.8333 19.457 26.8789 19.3594 26.8789 19.2812C26.8919 19.1901 26.8919 19.099 26.8789 19.0078C26.8398 18.7474 26.8333 18.4935 26.8594 18.2461ZM33.2852 12.4062L33.2461 12.9141C33.2461 12.9401 33.2526 13.0182 33.2656 13.1484C33.2917 13.2656 33.2852 13.3438 33.2461 13.3828C33.207 13.4219 33.181 13.513 33.168 13.6562C33.1549 13.7995 33.1224 13.9036 33.0703 13.9688C33.0312 14.0339 32.9857 14.1185 32.9336 14.2227C32.8945 14.3268 32.8555 14.3919 32.8164 14.418C32.7773 14.431 32.7318 14.4896 32.6797 14.5938C32.6406 14.6979 32.582 14.763 32.5039 14.7891C32.4258 14.8021 32.3542 14.8542 32.2891 14.9453C32.1458 15.1276 31.9961 15.2057 31.8398 15.1797C31.7096 15.1797 31.6185 15.1341 31.5664 15.043C31.5143 14.9388 31.4883 14.8477 31.4883 14.7695C31.4883 14.6914 31.5339 14.5938 31.625 14.4766C31.7292 14.3464 31.7943 14.2747 31.8203 14.2617C31.8464 14.2357 31.918 14.2031 32.0352 14.1641C32.1523 14.112 32.2174 14.0078 32.2305 13.8516C32.2435 13.6823 32.224 13.5521 32.1719 13.4609C32.0547 13.526 31.9635 13.5391 31.8984 13.5C31.8464 13.4609 31.7617 13.4479 31.6445 13.4609C31.5273 13.474 31.4427 13.4414 31.3906 13.3633C31.3516 13.2852 31.2799 13.2266 31.1758 13.1875C31.0846 13.1354 31.026 13.0378 31 12.8945C30.987 12.7383 31 12.5755 31.0391 12.4062C31.1172 11.9635 31.2669 11.6966 31.4883 11.6055C31.7227 11.5013 31.8594 11.4297 31.8984 11.3906C31.9505 11.3385 32.0286 11.3385 32.1328 11.3906C32.237 11.4427 32.3411 11.4492 32.4453 11.4102C32.5495 11.3711 32.6146 11.3776 32.6406 11.4297C32.6667 11.4688 32.6992 11.4948 32.7383 11.5078C32.7904 11.5208 32.849 11.5339 32.9141 11.5469C33.0312 11.599 33.1029 11.6966 33.1289 11.8398C33.168 11.9701 33.194 12.0482 33.207 12.0742C33.2331 12.1003 33.2526 12.1198 33.2656 12.1328C33.2786 12.1719 33.2852 12.263 33.2852 12.4062ZM41.293 14.6133C41.332 14.6914 41.3451 14.776 41.332 14.8672C41.319 14.9583 41.2279 15.1146 41.0586 15.3359C40.8893 15.5573 40.7852 15.7982 40.7461 16.0586C40.7201 16.306 40.7135 16.5143 40.7266 16.6836C40.7396 16.8398 40.7396 16.9766 40.7266 17.0938C40.7135 17.3802 40.5573 17.5755 40.2578 17.6797C39.9974 17.7839 39.7956 17.7773 39.6523 17.6602C39.5091 17.543 39.3919 17.3932 39.3008 17.2109C39.2096 17.0156 39.138 16.8529 39.0859 16.7227C39.0469 16.5794 38.9753 16.5013 38.8711 16.4883C38.6888 16.4492 38.5456 16.4688 38.4414 16.5469C38.3503 16.625 38.2786 16.6901 38.2266 16.7422C38.1224 16.8464 38.0117 16.918 37.8945 16.957C37.7904 16.9961 37.7057 17.0352 37.6406 17.0742C37.5104 17.1654 37.4583 17.3151 37.4844 17.5234C37.5365 17.9271 37.9857 18.5391 38.832 19.3594C38.9883 19.5156 39.1706 19.6849 39.3789 19.8672C39.6003 20.0495 39.8151 20.2578 40.0234 20.4922C40.4922 21.0521 40.7526 21.6836 40.8047 22.3867C40.8568 23.1029 40.7526 23.7279 40.4922 24.2617C40.2839 24.6914 40.0365 24.9714 39.75 25.1016C39.5286 25.2188 39.3789 25.375 39.3008 25.5703C39.2227 25.7526 39.1641 25.8893 39.125 25.9805C39.0859 26.0586 39.0013 26.1237 38.8711 26.1758C38.7539 26.2409 38.6172 26.2669 38.4609 26.2539C38.3047 26.2409 38.1549 26.2083 38.0117 26.1562C37.8815 26.1172 37.7578 26.0651 37.6406 26C37.5365 25.9479 37.4453 25.9154 37.3672 25.9023C37.3021 25.8893 37.237 25.9154 37.1719 25.9805C37.1068 26.0326 37.0417 26.0911 36.9766 26.1562C36.7812 26.3516 36.6055 26.4232 36.4492 26.3711C36.293 26.332 36.1107 26.2604 35.9023 26.1562C35.694 26.0521 35.4922 25.9219 35.2969 25.7656C34.5938 25.2188 34.3529 24.6589 34.5742 24.0859C34.7174 23.7083 34.8737 23.4414 35.043 23.2852C35.2253 23.1289 35.3685 23.0508 35.4727 23.0508C35.6419 23.0508 35.7526 23.1159 35.8047 23.2461C35.8698 23.3633 35.9219 23.4674 35.9609 23.5586C36 23.6367 36.0456 23.7018 36.0977 23.7539C36.1497 23.806 36.2279 23.8581 36.332 23.9102C36.4492 23.9622 36.5729 23.9948 36.7031 24.0078C37.0286 24.0339 37.276 23.9036 37.4453 23.6172C37.6146 23.3307 37.6797 23.0182 37.6406 22.6797C37.5495 22.0677 37.4193 21.8073 37.25 21.8984C37.1068 21.9896 36.931 21.9961 36.7227 21.918C36.5143 21.8268 36.4036 21.7161 36.3906 21.5859C36.3776 21.4427 36.3516 21.306 36.3125 21.1758C36.2734 21.0456 36.2279 20.9219 36.1758 20.8047C36.0586 20.5052 35.9544 20.3424 35.8633 20.3164C35.7591 20.2904 35.6159 20.2773 35.4336 20.2773C35.2643 20.2773 35.0755 20.1667 34.8672 19.9453C34.6589 19.7109 34.5091 19.4245 34.418 19.0859C34.3268 18.7344 34.2487 18.4349 34.1836 18.1875C34.1185 17.9271 34.0599 17.7253 34.0078 17.582C33.9557 17.4388 33.9102 17.2891 33.8711 17.1328C33.7409 16.638 33.7344 16 33.8516 15.2188C33.9297 14.763 34.0729 14.3659 34.2812 14.0273C34.4896 13.6758 34.724 13.3307 34.9844 12.9922C35.4792 12.3281 35.9349 11.8659 36.3516 11.6055C36.7682 11.3451 37.0872 11.319 37.3086 11.5273C37.5039 11.6966 37.7122 11.7682 37.9336 11.7422C38.168 11.7031 38.3503 11.6641 38.4805 11.625L38.832 11.5469C39.0534 11.4948 39.2747 11.5013 39.4961 11.5664C39.7305 11.6315 39.9388 11.8529 40.1211 12.2305C40.2122 12.4258 40.3034 12.5951 40.3945 12.7383C40.4987 12.8815 40.5964 13.0182 40.6875 13.1484C40.8828 13.4609 40.9935 13.7214 41.0195 13.9297C41.0586 14.125 41.1042 14.2682 41.1562 14.3594C41.2214 14.4505 41.2669 14.5352 41.293 14.6133Z" fill="#851939"/>
<path id="sol&#196;&#177;ta&#196;&#177;re" d="M196.922 37.6719C197.016 37.8594 197.047 38.0625 197.016 38.2812C196.984 38.5 196.766 38.875 196.359 39.4062C195.953 39.9375 195.703 40.5156 195.609 41.1406C195.547 41.7344 195.531 42.2344 195.562 42.6406C195.594 43.0156 195.594 43.3438 195.562 43.625C195.531 44.3125 195.156 44.7812 194.438 45.0312C193.812 45.2812 193.328 45.2656 192.984 44.9844C192.641 44.7031 192.359 44.3438 192.141 43.9062C191.922 43.4375 191.75 43.0469 191.625 42.7344C191.531 42.3906 191.359 42.2031 191.109 42.1719C190.672 42.0781 190.328 42.125 190.078 42.3125C189.859 42.5 189.688 42.6562 189.562 42.7812C189.312 43.0312 189.047 43.2031 188.766 43.2969C188.516 43.3906 188.312 43.4844 188.156 43.5781C187.844 43.7969 187.719 44.1562 187.781 44.6562C187.906 45.625 188.984 47.0938 191.016 49.0625C191.391 49.4375 191.828 49.8438 192.328 50.2812C192.859 50.7188 193.375 51.2188 193.875 51.7812C195 53.125 195.625 54.6406 195.75 56.3281C195.875 58.0469 195.625 59.5469 195 60.8281C194.5 61.8594 193.906 62.5312 193.219 62.8438C192.688 63.125 192.328 63.5 192.141 63.9688C191.953 64.4062 191.812 64.7344 191.719 64.9531C191.625 65.1406 191.422 65.2969 191.109 65.4219C190.828 65.5781 190.5 65.6406 190.125 65.6094C189.75 65.5781 189.391 65.5 189.047 65.375C188.734 65.2812 188.438 65.1562 188.156 65C187.906 64.875 187.688 64.7969 187.5 64.7656C187.344 64.7344 187.188 64.7969 187.031 64.9531C186.875 65.0781 186.719 65.2188 186.562 65.375C186.094 65.8438 185.672 66.0156 185.297 65.8906C184.922 65.7969 184.484 65.625 183.984 65.375C183.484 65.125 183 64.8125 182.531 64.4375C180.844 63.125 180.266 61.7812 180.797 60.4062C181.141 59.5 181.516 58.8594 181.922 58.4844C182.359 58.1094 182.703 57.9219 182.953 57.9219C183.359 57.9219 183.625 58.0781 183.75 58.3906C183.906 58.6719 184.031 58.9219 184.125 59.1406C184.219 59.3281 184.328 59.4844 184.453 59.6094C184.578 59.7344 184.766 59.8594 185.016 59.9844C185.297 60.1094 185.594 60.1875 185.906 60.2188C186.688 60.2812 187.281 59.9688 187.688 59.2812C188.094 58.5938 188.25 57.8438 188.156 57.0312C187.938 55.5625 187.625 54.9375 187.219 55.1562C186.875 55.375 186.453 55.3906 185.953 55.2031C185.453 54.9844 185.188 54.7188 185.156 54.4062C185.125 54.0625 185.062 53.7344 184.969 53.4219C184.875 53.1094 184.766 52.8125 184.641 52.5312C184.359 51.8125 184.109 51.4219 183.891 51.3594C183.641 51.2969 183.297 51.2656 182.859 51.2656C182.453 51.2656 182 51 181.5 50.4688C181 49.9062 180.641 49.2188 180.422 48.4062C180.203 47.5625 180.016 46.8438 179.859 46.25C179.703 45.625 179.562 45.1406 179.438 44.7969C179.312 44.4531 179.203 44.0938 179.109 43.7188C178.797 42.5312 178.781 41 179.062 39.125C179.25 38.0312 179.594 37.0781 180.094 36.2656C180.594 35.4219 181.156 34.5938 181.781 33.7812C182.969 32.1875 184.062 31.0781 185.062 30.4531C186.062 29.8281 186.828 29.7656 187.359 30.2656C187.828 30.6719 188.328 30.8438 188.859 30.7812C189.422 30.6875 189.859 30.5938 190.172 30.5L191.016 30.3125C191.547 30.1875 192.078 30.2031 192.609 30.3594C193.172 30.5156 193.672 31.0469 194.109 31.9531C194.328 32.4219 194.547 32.8281 194.766 33.1719C195.016 33.5156 195.25 33.8438 195.469 34.1562C195.938 34.9062 196.203 35.5312 196.266 36.0312C196.359 36.5 196.469 36.8438 196.594 37.0625C196.75 37.2812 196.859 37.4844 196.922 37.6719ZM203.156 32.6562C203.5 32.3438 203.797 32.0156 204.047 31.6719C204.297 31.2969 204.625 30.9531 205.031 30.6406C206.125 29.7344 207.219 29.4688 208.312 29.8438C209.656 30.3438 210.891 30.6562 212.016 30.7812C213.141 30.9062 213.953 31.1875 214.453 31.625C214.984 32.0625 215.438 32.5312 215.812 33.0312C216.719 34.2188 217.266 35.5156 217.453 36.9219C217.484 37.4531 217.578 37.8281 217.734 38.0469C218.141 38.7344 218.266 39.6562 218.109 40.8125C217.984 41.9688 217.938 42.7812 217.969 43.25C218.031 43.6875 218.109 44.0156 218.203 44.2344C218.328 44.4531 218.438 44.6719 218.531 44.8906C218.781 45.4844 218.906 46.0781 218.906 46.6719C218.906 47.4219 218.656 48.1719 218.156 48.9219C217.938 49.2031 217.859 49.75 217.922 50.5625C217.984 51.375 218.031 52.1875 218.062 53C218.094 55.0312 217.984 56.2969 217.734 56.7969C217.484 57.2656 217.297 57.5469 217.172 57.6406C217.078 57.7344 216.984 57.8125 216.891 57.875C216.422 58.0938 216 58.75 215.625 59.8438C215.281 60.9062 214.812 61.7812 214.219 62.4688C213.625 63.125 213 63.6719 212.344 64.1094C211.719 64.5156 211.219 64.8281 210.844 65.0469C210.5 65.2969 210.25 65.5312 210.094 65.75C209.938 65.9688 209.781 66.1875 209.625 66.4062C209.219 66.9062 208.703 67.1562 208.078 67.1562C207.016 67.1562 206.234 66.9062 205.734 66.4062C205.516 66.125 205.281 65.7188 205.031 65.1875C204.562 64.3438 203.938 63.6562 203.156 63.125C202.281 62.5312 201.75 61.6406 201.562 60.4531C201.469 60.0469 201.438 59.6406 201.469 59.2344C201.531 58.8281 201.516 58.3125 201.422 57.6875C201.359 57.0625 201.234 56.5 201.047 56C200.859 55.5 200.75 55.0312 200.719 54.5938C200.562 53.2812 200.125 52.5781 199.406 52.4844C198.875 52.4219 198.562 51.625 198.469 50.0938C198.438 49.3125 198.469 48.5781 198.562 47.8906C198.656 47.1719 198.781 46.5625 198.938 46.0625C199.188 45.1562 199.266 44.1094 199.172 42.9219C199.078 41.7031 199.078 40.625 199.172 39.6875C199.328 37.9375 199.703 36.5156 200.297 35.4219C200.578 34.9531 200.984 34.4844 201.516 34.0156C202.078 33.5469 202.625 33.0938 203.156 32.6562ZM206.109 46.0625C206.203 46.5 206.359 46.8594 206.578 47.1406C206.828 47.3906 207 47.7969 207.094 48.3594C207.219 48.9219 207.266 49.5469 207.234 50.2344C207.203 50.8906 207.188 51.5312 207.188 52.1562C207.188 52.75 207.219 53.2969 207.281 53.7969C207.344 54.2656 207.438 54.7031 207.562 55.1094C207.906 56.0781 208.391 56.5625 209.016 56.5625C209.984 56.5625 210.656 54.6875 211.031 50.9375C211.156 49.9062 211.219 48.5938 211.219 47C211.219 45.375 210.969 43.9844 210.469 42.8281C209.969 41.6406 209.359 41.0469 208.641 41.0469C207.953 41.0469 207.328 41.8125 206.766 43.3438C206.266 44.7188 206.047 45.625 206.109 46.0625ZM235.875 57.9219C236.031 58.1406 236.094 58.4219 236.062 58.7656C236.062 59.0781 236.031 59.4062 235.969 59.75C235.938 60.0938 235.953 60.4844 236.016 60.9219C236.078 61.3281 236.125 61.7344 236.156 62.1406C236.219 62.5156 236.25 62.875 236.25 63.2188C236.25 63.5625 236.141 63.8594 235.922 64.1094C235.734 64.3281 235.438 64.5156 235.031 64.6719C234.625 64.8281 234.172 64.9375 233.672 65C232.516 65.0938 231.516 64.9219 230.672 64.4844C229.891 64.0781 229.141 63.9531 228.422 64.1094C227.734 64.2656 227.188 64.4219 226.781 64.5781C226.406 64.7031 225.953 64.8281 225.422 64.9531C224.922 65.0781 224.422 65.125 223.922 65.0938C223.422 65.0938 223 64.8281 222.656 64.2969C222.312 63.7344 222.125 63.0938 222.094 62.375C222.062 61.6562 222.172 60.9219 222.422 60.1719C222.672 59.4219 222.766 58.5781 222.703 57.6406C222.641 56.6719 222.578 55.8594 222.516 55.2031C222.453 54.5156 222.453 53.9219 222.516 53.4219C222.672 52.2344 222.531 51.4062 222.094 50.9375C221.75 50.5312 221.578 50.0625 221.578 49.5312C221.578 48.9688 221.594 48.5156 221.625 48.1719C221.656 47.8281 221.766 47.5312 221.953 47.2812C222.141 47.0312 222.25 46.8281 222.281 46.6719C222.344 46.4844 222.344 46.1719 222.281 45.7344C222.031 43.9531 221.938 42.5781 222 41.6094C222.094 40.6406 222.078 39.8125 221.953 39.125C221.859 38.4062 221.844 37.8281 221.906 37.3906C221.969 36.9219 221.938 36.5312 221.812 36.2188C221.688 35.9062 221.641 35.6875 221.672 35.5625C221.734 35.4062 221.734 35.2031 221.672 34.9531C221.609 34.6719 221.547 34.375 221.484 34.0625C221.297 33.125 221.234 32.4844 221.297 32.1406C221.391 31.7969 221.547 31.4062 221.766 30.9688C222.016 30.5 222.312 30.2188 222.656 30.125C223 30.0312 223.203 29.9531 223.266 29.8906C223.328 29.8281 223.484 29.75 223.734 29.6562C224.391 29.4688 224.875 29.4531 225.188 29.6094C225.5 29.7656 225.781 29.8594 226.031 29.8906C226.281 29.8906 226.531 29.8906 226.781 29.8906C227.062 29.8594 227.328 29.8125 227.578 29.75L228.141 29.6562C228.797 29.4688 229.297 29.5 229.641 29.75C229.859 29.9688 230.016 30.1406 230.109 30.2656C230.203 30.3906 230.219 30.5781 230.156 30.8281C230.094 31.0781 230.125 31.2812 230.25 31.4375C230.375 31.5938 230.422 31.8281 230.391 32.1406C230.359 32.4219 230.344 32.6406 230.344 32.7969C230.375 32.9219 230.406 33.0625 230.438 33.2188C230.5 33.5312 230.469 33.9062 230.344 34.3438C230.219 34.7812 230.141 35.0781 230.109 35.2344C230.078 35.3594 230.062 35.4844 230.062 35.6094C230.062 36.0156 230 36.4062 229.875 36.7812C229.781 37.125 229.719 37.4219 229.688 37.6719C229.688 37.8906 229.688 38.1562 229.688 38.4688V39.5C229.688 39.875 229.656 40.3438 229.594 40.9062C229.562 41.4688 229.516 42.1406 229.453 42.9219C229.422 43.6719 229.391 44.4375 229.359 45.2188C229.234 47.2812 229.078 48.5938 228.891 49.1562C228.391 49.4375 228.312 50.0938 228.656 51.125L228.984 52.1094C229.297 53.0469 229.453 53.9688 229.453 54.875C229.453 55.7812 229.375 56.6562 229.219 57.5C230.125 58 230.766 58.2656 231.141 58.2969C232.047 58.4219 232.859 58.2969 233.578 57.9219C234.328 57.5469 234.859 57.3906 235.172 57.4531C235.516 57.5156 235.75 57.6719 235.875 57.9219ZM248.062 39.0781C247 39.3594 246.797 41.1719 247.453 44.5156C247.672 45.4219 247.781 46.1875 247.781 46.8125C247.812 47.4062 247.734 48.0625 247.547 48.7812C247.359 49.5 247.266 50.0781 247.266 50.5156C247.266 50.9531 247.203 51.4688 247.078 52.0625C247.109 52.7188 247.094 53.3906 247.031 54.0781C247 54.7344 246.969 55.375 246.938 56C246.844 57.5312 246.828 58.4375 246.891 58.7188C246.953 59 247.047 59.1875 247.172 59.2812C247.328 59.3438 247.5 59.4062 247.688 59.4688C248.125 59.625 248.391 59.8281 248.484 60.0781C248.578 60.3281 248.609 60.6875 248.578 61.1562C248.578 61.5938 248.531 62.0625 248.438 62.5625C248.156 63.75 247.766 64.5156 247.266 64.8594C246.984 65.0469 246.688 65.1094 246.375 65.0469C246.094 64.9844 245.781 64.9219 245.438 64.8594C244.375 64.6719 243.469 64.7656 242.719 65.1406C240.875 66.1406 239.453 66.1406 238.453 65.1406C238.047 64.7344 237.797 64.1094 237.703 63.2656C237.578 61.7344 237.656 60.75 237.938 60.3125C238.25 59.875 238.5 59.6094 238.688 59.5156C238.906 59.3906 239.094 59.2812 239.25 59.1875C239.594 59.0312 239.766 58.7656 239.766 58.3906C239.766 58.1094 239.797 57.8125 239.859 57.5C239.953 57.1562 240.031 56.7969 240.094 56.4219C240.25 55.5156 240.172 54.7656 239.859 54.1719C239.516 53.4844 239.359 52.9219 239.391 52.4844C239.453 52.0469 239.5 51.6562 239.531 51.3125L239.719 50.1875C239.781 49.2812 239.766 48.5156 239.672 47.8906C239.578 47.2344 239.5 46.5625 239.438 45.875C239.406 45.1562 239.391 44.4844 239.391 43.8594C239.422 43.2344 239.438 42.6406 239.438 42.0781C239.438 40.7656 239.297 39.9844 239.016 39.7344C238.766 39.4844 238.531 39.3594 238.312 39.3594C238.094 39.3281 237.875 39.3125 237.656 39.3125C237.062 39.375 236.688 39.2812 236.531 39.0312C236.188 38.6875 236.016 38.25 236.016 37.7188C236.016 37.1875 236.109 36.7812 236.297 36.5C236.516 36.2188 236.656 35.9062 236.719 35.5625C236.781 35.1875 236.812 34.7969 236.812 34.3906C236.875 33.4531 236.844 32.8438 236.719 32.5625C236.594 32.25 236.5 31.9844 236.438 31.7656C236.406 31.5156 236.391 31.2812 236.391 31.0625C236.391 30.1562 237.031 29.6875 238.312 29.6562C239.094 29.625 239.891 29.6406 240.703 29.7031C241.516 29.7344 242.156 29.7031 242.625 29.6094C244.25 29.2969 245.547 29.1719 246.516 29.2344C247.516 29.2969 248.156 29.375 248.438 29.4688C249.219 29.7812 249.641 30.6406 249.703 32.0469C249.734 32.7031 249.75 33.3906 249.75 34.1094C249.75 34.8281 249.781 35.5625 249.844 36.3125C249.969 37.875 249.375 38.7969 248.062 39.0781ZM253.547 30.5938C254.266 30.6562 254.891 30.6875 255.422 30.6875C255.984 30.6562 256.812 30.6562 257.906 30.6875C259.719 30.7812 261 30.6562 261.75 30.3125C263.281 29.5312 264.516 29.4375 265.453 30.0312C265.891 30.2812 266.312 30.4375 266.719 30.5C267.125 30.5625 267.703 30.375 268.453 29.9375C269.266 29.5938 269.938 29.5156 270.469 29.7031C271 29.8906 271.391 30.125 271.641 30.4062C271.891 30.6875 272.047 31.1875 272.109 31.9062C272.203 32.5938 272.219 33.2812 272.156 33.9688C272.125 34.6562 272.062 35.2969 271.969 35.8906C271.781 37.4844 271.703 38.5312 271.734 39.0312C271.797 39.5312 271.859 40.0469 271.922 40.5781C272.016 41.1094 272.047 41.625 272.016 42.125C271.953 43.3438 271.453 44.0312 270.516 44.1875C269.828 44.2812 269.328 44.125 269.016 43.7188C268.703 43.2812 268.438 42.8125 268.219 42.3125C268.031 41.7812 267.828 41.3125 267.609 40.9062C267.422 40.5 267.141 40.3594 266.766 40.4844C266.391 40.5781 266.156 40.9844 266.062 41.7031C265.969 42.3906 265.938 43.2188 265.969 44.1875C266 45.125 266.062 46.1094 266.156 47.1406C266.25 48.1406 266.312 49 266.344 49.7188C266.375 50.4062 266.406 51.1094 266.438 51.8281C266.5 52.5469 266.531 53.2188 266.531 53.8438C266.531 55.1875 266.344 56.1094 265.969 56.6094C265.781 56.8594 265.688 57.1562 265.688 57.5C265.688 57.8438 265.719 58.2031 265.781 58.5781C265.875 58.9531 265.969 59.3281 266.062 59.7031C266.156 60.0781 266.203 60.5312 266.203 61.0625C266.203 62.3125 265.641 63.1875 264.516 63.6875C264.109 63.875 263.734 64.1875 263.391 64.625C263.047 65.0625 262.781 65.3438 262.594 65.4688C262.438 65.625 262.234 65.6719 261.984 65.6094C261.766 65.5781 261.594 65.4688 261.469 65.2812C261.375 65.125 261.281 64.9531 261.188 64.7656C261 64.2656 260.734 63.9375 260.391 63.7812C259.984 63.6875 259.734 63.3438 259.641 62.75C259.578 62.1562 259.531 61.6406 259.5 61.2031C259.5 60.7344 259.469 60.1719 259.406 59.5156C259.344 58.8594 259.141 58.3281 258.797 57.9219C258.453 57.5156 258.172 57.2656 257.953 57.1719C257.734 57.0469 257.594 56.7812 257.531 56.375C257.469 55.9375 257.469 55.5 257.531 55.0625C257.625 54.625 257.734 54.1406 257.859 53.6094C258.234 52.0781 258.438 50.6406 258.469 49.2969C258.562 46.7969 258.562 45.1406 258.469 44.3281C258.344 42.7031 257.906 41.8906 257.156 41.8906C256.781 41.9219 256.516 42.0938 256.359 42.4062C256.203 42.6875 256.031 43.0312 255.844 43.4375C255.406 44.4688 254.609 44.75 253.453 44.2812C253.047 44.0938 252.781 43.7969 252.656 43.3906C252.562 42.9844 252.5 42.5156 252.469 41.9844C252.469 41.4219 252.453 40.8438 252.422 40.25C252.422 39.625 252.312 39.0469 252.094 38.5156C251.906 37.9531 251.719 37.4219 251.531 36.9219C251.344 36.4219 251.266 35.9219 251.297 35.4219C251.328 34.9219 251.438 34.4375 251.625 33.9688C251.844 33.5 251.906 33.0312 251.812 32.5625C251.75 32.0938 251.844 31.6406 252.094 31.2031C252.375 30.7344 252.859 30.5312 253.547 30.5938ZM276.281 65.5625C275.969 65.6562 275.609 65.625 275.203 65.4688C274.828 65.3438 274.562 65.0938 274.406 64.7188C274.25 64.3125 274.141 63.8594 274.078 63.3594C274.047 62.8281 274.047 62.2656 274.078 61.6719C274.109 61.0781 274.125 60.5 274.125 59.9375C274.125 58.6875 273.922 57.8906 273.516 57.5469C272.672 56.9219 272.328 55.3281 272.484 52.7656C272.641 51.2969 272.812 50.125 273 49.25C273.312 47.8125 273.453 46.5938 273.422 45.5938C273.422 44.5938 273.453 43.8125 273.516 43.25C273.609 42.6875 273.703 42.2188 273.797 41.8438C273.922 41.4688 274.062 41.0781 274.219 40.6719C274.375 40.2656 274.516 39.5938 274.641 38.6562C274.953 36.3125 275.234 34.8594 275.484 34.2969C275.828 33.5156 276.234 32.7188 276.703 31.9062C277.203 31.0625 277.609 30.5 277.922 30.2188C278.641 29.6875 279.672 29.6406 281.016 30.0781C282.016 30.4219 282.938 30.5312 283.781 30.4062C284.656 30.2812 285.312 30.2344 285.75 30.2656C286.219 30.2656 286.734 30.4375 287.297 30.7812C287.859 31.0938 288.297 31.4844 288.609 31.9531C288.922 32.3906 289.141 32.875 289.266 33.4062C289.484 34.3125 289.5 35.4688 289.312 36.875C289.125 38.25 289.047 39.375 289.078 40.25C289.141 41.0938 289.328 41.9062 289.641 42.6875C289.984 43.4375 290.203 44.0469 290.297 44.5156C290.422 44.9531 290.516 45.4062 290.578 45.875C290.672 46.3125 290.734 46.7969 290.766 47.3281C290.828 47.8281 290.922 48.4062 291.047 49.0625C291.203 49.7188 291.281 50.25 291.281 50.6562C291.312 51.0312 291.312 51.3438 291.281 51.5938C291.25 51.8438 291.203 52.0781 291.141 52.2969C291.109 52.4844 291.125 52.7969 291.188 53.2344C291.281 53.6406 291.281 54.0938 291.188 54.5938C291.125 55.0938 291.047 55.5781 290.953 56.0469C290.609 57.4844 290.469 58.5 290.531 59.0938C290.656 60.1562 290.656 60.9219 290.531 61.3906C290.406 61.8281 290.281 62.1875 290.156 62.4688C290.062 62.75 289.938 63.1406 289.781 63.6406C289.656 64.1406 289.375 64.5938 288.938 65C288.5 65.4062 288.078 65.5312 287.672 65.375C287.297 65.2188 287.047 65 286.922 64.7188C286.828 64.4062 286.734 64.0938 286.641 63.7812C286.578 63.4688 286.484 63.1875 286.359 62.9375C286.266 62.6875 286.078 62.5469 285.797 62.5156C285.297 62.4531 285.031 62.1719 285 61.6719C284.969 61.1406 284.969 60.6875 285 60.3125C285.062 59.9062 285.047 59.5 284.953 59.0938C284.859 58.6875 284.703 58.2969 284.484 57.9219C283.922 56.9531 283.266 56.4219 282.516 56.3281C281.391 56.1719 280.609 56.7188 280.172 57.9688C280.078 58.2812 280 58.7031 279.938 59.2344C279.906 59.7344 279.781 60.1875 279.562 60.5938C279.375 61 279.156 61.3438 278.906 61.625C278.688 61.9062 278.469 62.1719 278.25 62.4219C278.062 62.6406 277.938 62.9219 277.875 63.2656C277.625 64.6094 277.094 65.375 276.281 65.5625ZM280.453 45.9219C279.828 47.6094 279.75 48.9531 280.219 49.9531C280.531 50.5156 280.938 50.8125 281.438 50.8438C282.344 50.9375 282.875 50.875 283.031 50.6562C283.219 50.4062 283.422 50.1562 283.641 49.9062C283.891 49.625 283.984 49.2188 283.922 48.6875C283.859 48.125 283.812 47.6406 283.781 47.2344C283.75 46.7969 283.594 46.3125 283.312 45.7812C283.062 45.25 282.891 44.6875 282.797 44.0938C282.703 43.4688 282.641 42.875 282.609 42.3125C282.484 41.0625 282.203 40.4375 281.766 40.4375C281.453 40.4375 281.25 40.6094 281.156 40.9531C281.094 41.2656 281.047 41.6875 281.016 42.2188C280.984 43.8438 280.797 45.0781 280.453 45.9219ZM305.203 39.0781C304.141 39.3594 303.938 41.1719 304.594 44.5156C304.812 45.4219 304.922 46.1875 304.922 46.8125C304.953 47.4062 304.875 48.0625 304.688 48.7812C304.5 49.5 304.406 50.0781 304.406 50.5156C304.406 50.9531 304.344 51.4688 304.219 52.0625C304.25 52.7188 304.234 53.3906 304.172 54.0781C304.141 54.7344 304.109 55.375 304.078 56C303.984 57.5312 303.969 58.4375 304.031 58.7188C304.094 59 304.188 59.1875 304.312 59.2812C304.469 59.3438 304.641 59.4062 304.828 59.4688C305.266 59.625 305.531 59.8281 305.625 60.0781C305.719 60.3281 305.75 60.6875 305.719 61.1562C305.719 61.5938 305.672 62.0625 305.578 62.5625C305.297 63.75 304.906 64.5156 304.406 64.8594C304.125 65.0469 303.828 65.1094 303.516 65.0469C303.234 64.9844 302.922 64.9219 302.578 64.8594C301.516 64.6719 300.609 64.7656 299.859 65.1406C298.016 66.1406 296.594 66.1406 295.594 65.1406C295.188 64.7344 294.938 64.1094 294.844 63.2656C294.719 61.7344 294.797 60.75 295.078 60.3125C295.391 59.875 295.641 59.6094 295.828 59.5156C296.047 59.3906 296.234 59.2812 296.391 59.1875C296.734 59.0312 296.906 58.7656 296.906 58.3906C296.906 58.1094 296.938 57.8125 297 57.5C297.094 57.1562 297.172 56.7969 297.234 56.4219C297.391 55.5156 297.312 54.7656 297 54.1719C296.656 53.4844 296.5 52.9219 296.531 52.4844C296.594 52.0469 296.641 51.6562 296.672 51.3125L296.859 50.1875C296.922 49.2812 296.906 48.5156 296.812 47.8906C296.719 47.2344 296.641 46.5625 296.578 45.875C296.547 45.1562 296.531 44.4844 296.531 43.8594C296.562 43.2344 296.578 42.6406 296.578 42.0781C296.578 40.7656 296.438 39.9844 296.156 39.7344C295.906 39.4844 295.672 39.3594 295.453 39.3594C295.234 39.3281 295.016 39.3125 294.797 39.3125C294.203 39.375 293.828 39.2812 293.672 39.0312C293.328 38.6875 293.156 38.25 293.156 37.7188C293.156 37.1875 293.25 36.7812 293.438 36.5C293.656 36.2188 293.797 35.9062 293.859 35.5625C293.922 35.1875 293.953 34.7969 293.953 34.3906C294.016 33.4531 293.984 32.8438 293.859 32.5625C293.734 32.25 293.641 31.9844 293.578 31.7656C293.547 31.5156 293.531 31.2812 293.531 31.0625C293.531 30.1562 294.172 29.6875 295.453 29.6562C296.234 29.625 297.031 29.6406 297.844 29.7031C298.656 29.7344 299.297 29.7031 299.766 29.6094C301.391 29.2969 302.688 29.1719 303.656 29.2344C304.656 29.2969 305.297 29.375 305.578 29.4688C306.359 29.7812 306.781 30.6406 306.844 32.0469C306.875 32.7031 306.891 33.3906 306.891 34.1094C306.891 34.8281 306.922 35.5625 306.984 36.3125C307.109 37.875 306.516 38.7969 305.203 39.0781ZM321.891 31.2969L323.391 31.2031C324.453 31.2031 325.203 31.375 325.641 31.7188C326.109 32.0625 326.453 32.375 326.672 32.6562C326.922 32.9375 327.141 33.2344 327.328 33.5469C327.516 33.8281 327.766 34.125 328.078 34.4375C328.422 34.75 328.594 35.125 328.594 35.5625C328.594 35.9688 328.703 36.2969 328.922 36.5469C329.172 36.7969 329.297 37.2031 329.297 37.7656C329.297 38.3281 329.281 38.875 329.25 39.4062C329.25 39.9062 329.203 40.3281 329.109 40.6719C329.016 40.9844 328.969 41.3125 328.969 41.6562C328.969 41.9688 329.031 42.2656 329.156 42.5469C329.312 42.7969 329.328 43.4375 329.203 44.4688C329.109 45.4688 328.938 46.4844 328.688 47.5156C328.469 48.5469 328.172 49.4375 327.797 50.1875C327.047 51.5938 325.828 52.7031 324.141 53.5156C324.297 53.8906 324.469 54.3125 324.656 54.7812C324.875 55.2188 325.078 55.6719 325.266 56.1406C325.672 57.2969 325.875 58.1406 325.875 58.6719C325.875 59.1719 325.891 59.5469 325.922 59.7969C325.984 60.0156 326.047 60.1875 326.109 60.3125C326.172 60.4375 326.25 60.5312 326.344 60.5938C326.469 60.6562 326.641 60.7812 326.859 60.9688C327.078 61.125 327.25 61.4062 327.375 61.8125C327.5 62.2188 327.562 62.6406 327.562 63.0781C327.562 64.0781 327.438 64.7031 327.188 64.9531C326.969 65.1719 326.719 65.3125 326.438 65.375C326.188 65.4688 325.922 65.5312 325.641 65.5625C324.922 65.6562 324.469 65.5625 324.281 65.2812C324.031 65.0312 323.891 64.7812 323.859 64.5312C323.859 64.25 323.812 64.0156 323.719 63.8281C323.625 63.6094 323.484 63.4844 323.297 63.4531C323.109 63.3906 322.969 63.1875 322.875 62.8438C322.812 62.5 322.703 62.2812 322.547 62.1875C322.422 62.0625 322.141 62.0312 321.703 62.0938C320.922 62.25 320.344 61.7812 319.969 60.6875C319.875 60.4375 319.781 60.1094 319.688 59.7031C319.594 59.2969 319.484 58.9062 319.359 58.5312C319.109 57.625 318.812 57.1406 318.469 57.0781C318.156 56.9844 317.922 57.0156 317.766 57.1719C317.609 57.3281 317.484 57.5469 317.391 57.8281C317.328 58.0781 317.297 58.375 317.297 58.7188C317.297 59.0312 317.328 59.375 317.391 59.75C317.484 60.125 317.5 60.4375 317.438 60.6875C317.375 60.9375 317.281 61.1406 317.156 61.2969C317.062 61.4531 316.953 61.5938 316.828 61.7188C316.578 61.875 316.422 62.1875 316.359 62.6562C316.328 63.125 316.266 63.5312 316.172 63.875C315.984 64.7188 315.734 65.25 315.422 65.4688C315.109 65.6875 314.797 65.8125 314.484 65.8438C314.172 65.9062 313.859 65.9062 313.547 65.8438C312.766 65.6875 312.281 65.4062 312.094 65C311.906 64.625 311.797 64.3438 311.766 64.1562C311.734 63.9375 311.719 63.7344 311.719 63.5469C311.75 63.3594 311.781 63.1562 311.812 62.9375C311.844 62.7188 311.844 62.4688 311.812 62.1875C311.812 61.875 311.75 61.4688 311.625 60.9688C311.5 60.4688 311.422 59.875 311.391 59.1875L311.344 57.9688C311.344 57.8438 311.453 57.6406 311.672 57.3594C311.891 57.0469 311.953 56.7031 311.859 56.3281C311.797 55.9219 311.625 55.6719 311.344 55.5781C311.062 55.4531 310.922 55.3125 310.922 55.1562C310.922 55 310.953 54.6094 311.016 53.9844C311.078 53.3594 311.047 52.5781 310.922 51.6406C310.828 50.7031 310.766 49.875 310.734 49.1562C310.609 47.5938 310.328 46.7188 309.891 46.5312C309.484 46.3125 309.25 46.0625 309.188 45.7812C309.125 45.4688 309.125 45.125 309.188 44.75C309.25 44.375 309.312 43.9062 309.375 43.3438C309.469 42.7812 309.562 42.2188 309.656 41.6562C309.75 41.0625 309.828 40.5156 309.891 40.0156C309.984 39.5156 310.047 39.1719 310.078 38.9844C310.109 38.7969 310.109 38.625 310.078 38.4688C310.078 38.2812 310.078 38.1094 310.078 37.9531C310.016 37.4531 310.016 37.0156 310.078 36.6406C310.203 35.9219 310.234 35.4219 310.172 35.1406C310.109 34.8281 310.156 34.375 310.312 33.7812C310.5 33.1562 310.656 32.7188 310.781 32.4688C310.906 32.2188 311.141 32.0312 311.484 31.9062C311.828 31.7812 312.156 31.6094 312.469 31.3906C312.812 31.1406 313.125 30.9062 313.406 30.6875C313.688 30.4375 313.938 30.2188 314.156 30.0312C314.375 29.8125 314.641 29.6562 314.953 29.5625C315.859 29.375 316.516 29.3594 316.922 29.5156C317.359 29.6406 317.672 29.7812 317.859 29.9375C318.047 30.0938 318.266 30.25 318.516 30.4062C318.797 30.5625 319.078 30.6875 319.359 30.7812C319.672 30.8438 319.953 30.875 320.203 30.875C320.859 30.9375 321.25 31.0312 321.375 31.1562C321.531 31.25 321.703 31.2969 321.891 31.2969ZM318 44.375L318.281 48.6406C318.281 48.9219 318.266 49.2031 318.234 49.4844C318.203 49.7344 318.172 49.9688 318.141 50.1875C318.109 50.6562 318.281 50.9375 318.656 51.0312C318.969 51.0938 319.219 51.0156 319.406 50.7969C319.594 50.5469 319.766 50.2188 319.922 49.8125C320.297 49.0312 320.422 48.5312 320.297 48.3125C320.047 48 319.969 47.7344 320.062 47.5156C320.188 47.2656 320.422 46.7969 320.766 46.1094C321.141 45.4219 321.406 44.8281 321.562 44.3281C321.75 43.8281 321.797 43.2969 321.703 42.7344C321.609 42.1406 321.562 41.7344 321.562 41.5156V41C321.562 40.75 321.438 40.5312 321.188 40.3438C320.969 40.125 320.812 40.0156 320.719 40.0156C320.625 39.9844 320.547 39.9688 320.484 39.9688C320.203 40.0312 319.938 40.0156 319.688 39.9219C319.438 39.7969 319.203 39.75 318.984 39.7812C318.766 39.7812 318.516 39.9219 318.234 40.2031C317.953 40.4844 317.797 40.7812 317.766 41.0938C317.734 41.375 317.734 41.7031 317.766 42.0781C317.922 43.2031 318 43.9688 318 44.375ZM332.578 56.1875L332.531 53.7969C332.531 53.3594 332.547 52.9531 332.578 52.5781C332.609 52.1719 332.578 51.6719 332.484 51.0781C332.328 50.0469 332.25 49.2969 332.25 48.8281C332.281 48.3281 332.281 47.9375 332.25 47.6562C332.25 47.3438 332.219 47.0625 332.156 46.8125C332.062 46.4375 331.828 45.8438 331.453 45.0312C331.109 44.2188 330.938 43.3438 330.938 42.4062C330.938 41.4688 331.141 40.7188 331.547 40.1562C331.922 39.5938 332.062 39.0156 331.969 38.4219C331.875 37.8281 331.797 37.2031 331.734 36.5469C331.703 35.8594 331.703 35.1719 331.734 34.4844C331.766 33.7656 331.922 33.0781 332.203 32.4219C332.891 30.8281 334.266 30.0625 336.328 30.125C337.609 30.1562 338.719 30.2812 339.656 30.5C340.594 30.7188 341.281 30.8125 341.719 30.7812C342.156 30.75 342.828 30.5938 343.734 30.3125C345.047 29.8125 346.094 29.8438 346.875 30.4062C347.094 30.5625 347.297 30.6875 347.484 30.7812C347.703 30.8438 347.891 30.9531 348.047 31.1094C348.578 31.7031 348.734 33 348.516 35C348.453 35.5938 348.391 36.1875 348.328 36.7812C348.172 38.1875 348.172 39.2344 348.328 39.9219C348.484 40.6094 348.562 41.2188 348.562 41.75C348.594 42.25 348.578 42.7031 348.516 43.1094C348.328 44.0156 347.969 44.4688 347.438 44.4688C346.969 44.4375 346.625 44.2969 346.406 44.0469C346.219 43.7656 346.062 43.4688 345.938 43.1562C345.812 42.8125 345.672 42.5156 345.516 42.2656C345.391 41.9844 345.094 41.8438 344.625 41.8438C343.25 41.8438 342.328 41.7031 341.859 41.4219C341.422 41.1094 341.031 40.9375 340.688 40.9062C340.344 40.8438 340.016 40.875 339.703 41C339.047 41.2812 338.656 41.7969 338.531 42.5469C338.438 43.2969 338.375 43.9531 338.344 44.5156C338.312 45.0781 338.312 45.5938 338.344 46.0625C338.406 47.1562 338.609 47.7812 338.953 47.9375C339.328 48.0625 339.641 48.0781 339.891 47.9844C340.141 47.8594 340.391 47.7188 340.641 47.5625C341.391 47.0625 342.156 46.8281 342.938 46.8594C343.75 46.8594 344.344 47.1719 344.719 47.7969C345.125 48.4219 345.297 49.0312 345.234 49.625C345.172 50.1875 345.109 50.75 345.047 51.3125C345.016 51.875 344.953 52.4062 344.859 52.9062C344.422 54.8438 343.516 55.2188 342.141 54.0312C340.359 53.9062 339.25 54.125 338.812 54.6875C338.719 54.8438 338.625 55.1719 338.531 55.6719C338.438 56.1719 338.422 56.7031 338.484 57.2656C338.641 58.7344 339.344 59.5156 340.594 59.6094C341.406 59.6719 342.141 59.5625 342.797 59.2812C343.484 59 343.938 58.6875 344.156 58.3438C344.344 57.9688 344.578 57.7656 344.859 57.7344C345.141 57.6719 345.391 57.625 345.609 57.5938C345.828 57.5312 346.047 57.5 346.266 57.5C346.484 57.5 346.703 57.5312 346.922 57.5938C347.484 57.7812 347.812 58.2188 347.906 58.9062C348.031 59.5938 347.969 60.2188 347.719 60.7812C347.469 61.3438 347.297 61.8594 347.203 62.3281C347.141 62.7656 347.078 63.0938 347.016 63.3125C346.953 63.5312 346.766 63.8125 346.453 64.1562C346.172 64.4688 345.938 64.7344 345.75 64.9531C345.594 65.1719 345.328 65.125 344.953 64.8125C344.266 64.2812 343.438 64.5938 342.469 65.75C342.219 66.0938 341.953 66.3438 341.672 66.5C341.391 66.6562 340.953 66.7188 340.359 66.6875C339.766 66.6562 339.297 66.5 338.953 66.2188C338.609 65.9375 338.297 65.6562 338.016 65.375C337.547 64.7812 336.734 64.5625 335.578 64.7188C334.891 64.8125 334.328 64.5156 333.891 63.8281C333.797 63.7344 333.719 63.5625 333.656 63.3125C333.625 63.0625 333.578 62.7812 333.516 62.4688C333.297 61.6562 333.094 61.1406 332.906 60.9219C332.75 60.6719 332.656 60.3594 332.625 59.9844C332.625 59.6094 332.594 59.2188 332.531 58.8125C332.469 58.375 332.422 58.0625 332.391 57.875C332.359 57.6562 332.375 57.4062 332.438 57.125C332.531 56.8438 332.578 56.5312 332.578 56.1875Z" fill="white"/>
</g>
</svg>
