<svg width="350" height="484" viewBox="0 0 350 484" fill="none" xmlns="http://www.w3.org/2000/svg">
<path d="M221.189 158.472C221.189 174.85 213.971 185.456 204.691 192.002C195.366 198.581 183.919 201.079 175.553 201.079C167.184 201.079 155.429 198.58 145.796 191.994C136.21 185.439 128.706 174.832 128.706 158.472C128.706 142.01 136.301 122.818 146.072 107.709C150.95 100.165 156.341 93.6863 161.541 89.107C166.782 84.4906 171.668 81.9472 175.553 81.9472C179.433 81.9472 184.241 84.4863 189.368 89.0998C194.453 93.6768 199.693 100.153 204.421 107.697C213.889 122.803 221.189 142 221.189 158.472Z" fill="#851939" stroke="white" stroke-width="2"/>
<path d="M175.206 192.798L175.567 192.931L175.924 192.788C184.959 189.175 191.728 187.559 196.791 187.354C201.837 187.151 205.114 188.349 207.29 190.292C209.484 192.252 210.705 195.097 211.365 198.477C212.026 201.859 212.104 205.659 212.104 209.424C212.104 223.666 197.043 235.679 175.553 235.679C164.859 235.679 155.222 232.676 148.285 227.874C141.344 223.069 137.185 216.529 137.185 209.424C137.185 201.97 138.848 195.002 144.177 191.274C149.508 187.547 158.926 186.768 175.206 192.798Z" fill="#851939" stroke="white" stroke-width="2"/>
<path d="M164.9 254.497L164.862 254.632V254.772C164.862 256.931 165.426 259.162 165.981 261.125C166.079 261.474 166.177 261.811 166.271 262.137C166.728 263.724 167.11 265.05 167.193 266.106C167.242 266.728 167.17 267.107 167.053 267.33C166.963 267.502 166.801 267.676 166.367 267.784C165.891 267.901 165.136 267.921 163.981 267.731C162.839 267.543 161.375 267.162 159.516 266.542C154.341 264.817 149.298 260.428 149.298 252.955C149.298 249.308 151.386 245.613 154.306 242.789C157.241 239.951 160.79 238.208 163.439 238.208C164.651 238.208 165.389 238.642 165.883 239.338C166.421 240.096 166.744 241.273 166.818 242.857C166.966 246.016 166.107 250.275 164.9 254.497Z" fill="#851939" stroke="white" stroke-width="2"/>
<path d="M184.312 254.497L184.35 254.632V254.772C184.35 256.931 183.786 259.162 183.232 261.125C183.133 261.474 183.036 261.811 182.942 262.137C182.485 263.724 182.103 265.05 182.019 266.106C181.97 266.728 182.043 267.107 182.159 267.33C182.249 267.502 182.411 267.676 182.845 267.784C183.322 267.901 184.076 267.921 185.231 267.731C186.373 267.543 187.837 267.162 189.696 266.542C194.871 264.817 199.915 260.428 199.915 252.955C199.915 249.308 197.826 245.613 194.906 242.789C191.971 239.951 188.422 238.208 185.773 238.208C184.561 238.208 183.823 238.642 183.329 239.338C182.791 240.096 182.468 241.273 182.394 242.857C182.246 246.016 183.106 250.275 184.312 254.497Z" fill="#851939" stroke="white" stroke-width="2"/>
<circle cx="174.947" cy="231.151" r="20.8038" fill="#851939" stroke="white" stroke-width="2"/>
<path d="M227.542 151.465L225.134 154.174C224.402 154.998 223.421 155.56 222.34 155.776C221.448 155.955 220.619 156.367 219.954 156.988C217.839 158.963 214.921 161.888 214.921 162.711C214.921 163.528 215.494 168.131 215.916 171.371C216.051 172.406 216.653 173.32 217.547 173.857C218.552 174.46 219.795 174.507 220.843 173.983L225.217 171.796L229.75 168.774C230.359 168.368 230.909 167.88 231.386 167.324L233.83 164.472C234.144 164.107 234.424 163.713 234.667 163.297L237.833 157.869C238.302 157.066 238.907 156.35 239.622 155.755L240.326 155.168C241.532 154.162 242.416 152.824 242.867 151.321L243.212 150.171C243.716 148.49 244.792 147.037 246.252 146.063C247.158 145.46 247.922 144.667 248.492 143.741L252.092 137.891C252.344 137.48 252.56 137.047 252.734 136.598L256.348 127.306C256.589 126.686 256.906 126.098 257.294 125.557C259.438 122.564 262.932 117.728 263.373 117.287C263.858 116.802 264.787 113.451 265.19 111.836L266.143 107.075C266.314 106.217 266.625 105.393 267.064 104.636L272.656 94.977C272.927 94.508 273.15 94.0126 273.322 93.4985L274.44 90.1424C274.732 89.2682 275.176 88.4524 275.751 87.7329C276.761 86.4704 277.355 84.9257 277.45 83.3118L277.849 76.5258C277.888 75.8516 278.107 75.2 278.481 74.6381C278.898 74.0129 279.121 73.2783 279.121 72.5269V64.5943V48.8472L277.909 38.5509L276.092 24.6208L275.66 20.2958C275.546 19.1547 275.188 18.0515 274.61 17.0609L271.247 11.2962L268.824 5.84528L266.657 2.37696C266.136 1.54334 265.164 1.10534 264.194 1.26695C263.022 1.4624 262.162 2.47706 262.162 3.66598V4.92131C262.162 5.52894 262.304 6.12823 262.575 6.67171L265.796 13.1132L267.818 16.752C268.478 17.9405 268.824 19.2776 268.824 20.6372V21.5209C268.824 22.7629 269.114 23.9878 269.669 25.0986L270.402 26.5656C270.958 27.6764 271.247 28.9013 271.247 30.1433V37.9453C271.045 41.983 270.641 50.3008 270.641 51.2698C270.641 52.2389 270.238 56.9226 270.036 59.1434L268.996 71.6229C268.883 72.9717 268.431 74.27 267.68 75.3961L267.507 75.6548C266.781 76.7438 266.334 77.9942 266.203 79.2964L266.054 80.7893C265.886 82.4667 265.193 84.0482 264.073 85.3082L261.852 87.8066C261.256 88.4779 260.776 89.2449 260.434 90.0755L256.98 98.4639C256.801 98.8984 256.584 99.3164 256.332 99.7129L252.472 105.779L249.84 109.288C249.181 110.167 248.735 111.187 248.539 112.268L248.032 115.054C247.79 116.387 246.721 117.416 245.379 117.608C244.164 117.781 243.163 118.645 242.798 119.817C242.148 121.904 241.323 124.442 240.964 125.16C240.358 126.372 239.147 130.611 239.147 131.217C239.147 131.473 238.584 131.853 237.903 132.214C236.763 132.819 235.68 133.546 234.84 134.526L233.961 135.552C233.008 136.663 232.485 138.078 232.485 139.541V141.8C232.485 142.738 231.955 143.595 231.116 144.014C230.449 144.348 229.968 144.964 229.806 145.692L229.278 148.069C228.998 149.33 228.4 150.499 227.542 151.465Z" fill="#851939" stroke="white" stroke-width="2"/>
<path d="M215.911 194.481L214.117 195.079C213.445 195.303 212.811 195.626 212.234 196.038C210.151 197.526 209.03 200.019 209.298 202.564L209.758 206.941C209.938 208.653 211.382 209.953 213.104 209.953H220.371C221.03 209.953 221.913 209.206 222.601 208.475C223.163 207.877 223.74 207.288 224.407 206.811L231.879 201.474L238.541 196.628L244.305 193.484C244.902 193.159 245.537 192.911 246.196 192.746L251.127 191.513C252.017 191.291 252.861 190.917 253.624 190.409L257.122 188.077C257.654 187.722 258.226 187.433 258.826 187.215L263.26 185.602C264.136 185.284 265.062 185.121 265.994 185.121H269.43H277.735C280.138 185.121 282.406 184.011 283.881 182.115C285.102 180.545 286.878 179.501 288.844 179.199L292.839 178.584C293.382 178.501 293.916 178.361 294.431 178.168L296.081 177.549C297.655 176.959 299.374 176.879 300.995 177.322L303.637 178.042C304.645 178.317 305.697 178.392 306.734 178.262L310.009 177.853C312.432 177.449 317.398 176.884 317.883 177.853C318.367 178.822 320.104 179.468 320.911 179.67L323.823 180.502C324.702 180.753 325.531 181.153 326.275 181.684L328.606 183.349C329.127 183.721 329.691 184.027 330.281 184.276C332.435 185.188 335.632 186.701 336.053 187.543C336.155 187.749 336.369 187.886 336.656 187.969C339.235 188.722 342.125 188.595 344.165 190.344L344.919 190.99C345.064 191.115 345.224 191.221 345.394 191.306L346.695 191.956C347.649 192.433 348.771 191.739 348.771 190.673C348.771 190.227 348.565 189.807 348.211 189.535L342.082 184.82C341.3 184.219 340.646 183.469 340.157 182.612C339.088 180.743 337.263 179.427 335.152 179.005L333.235 178.622C332.692 178.513 332.162 178.349 331.653 178.13L328.938 176.967C328.434 176.751 327.952 176.483 327.502 176.168L323.076 173.069C322.444 172.627 321.75 172.278 321.018 172.034L315.758 170.28C315.158 170.08 314.584 169.81 314.047 169.475L311.31 167.764C310.45 167.227 309.497 166.858 308.501 166.677L303.347 165.74L298.215 164.95C296.44 164.677 294.625 165.013 293.065 165.904L292.581 166.181C291.698 166.686 290.699 166.951 289.682 166.951C287.976 166.951 286.355 167.696 285.245 168.992L285.177 169.071C284.024 170.416 282.34 171.191 280.568 171.191H274.156C273.037 171.191 271.93 171.425 270.907 171.88L268.559 172.924C267.536 173.378 266.429 173.613 265.31 173.613H264.235C262.876 173.613 261.538 173.96 260.35 174.62L256.711 176.642L255.404 177.295C253.892 178.051 252.167 178.307 250.499 178.029C249.802 177.913 249.087 177.888 248.383 177.959L246.228 178.174C244.391 178.358 242.673 179.172 241.367 180.478L241.033 180.812C239.809 182.036 238.221 182.83 236.507 183.075L233.308 183.532C231.594 183.777 230.006 184.571 228.782 185.795L228.647 185.93C228.379 186.198 228.093 186.446 227.79 186.673L224.363 189.243C223.725 189.722 223.164 190.297 222.7 190.946L221.977 191.958C220.97 193.368 219.343 194.206 217.609 194.206C217.032 194.206 216.458 194.299 215.911 194.481Z" fill="#851939" stroke="white" stroke-width="2"/>
<path d="M211.425 219.038H210.832C208.827 219.038 206.936 219.969 205.714 221.558L205.06 222.408C203.173 224.862 203.714 228.394 206.25 230.169C207.163 230.808 208.25 231.151 209.365 231.151H211.427C212.138 231.151 212.846 231.246 213.532 231.433L219.16 232.968L224.586 235.138C225.006 235.306 225.439 235.438 225.881 235.533L232.867 237.03C233.418 237.148 233.98 237.208 234.544 237.208H244.635C245.014 237.208 245.392 237.234 245.766 237.288L250.832 238.012C252.675 238.275 254.368 239.172 255.62 240.55L259.278 244.574C259.585 244.911 259.863 245.275 260.108 245.66L262.939 250.109C263.618 251.176 263.979 252.415 263.979 253.681C263.979 254.794 264.258 255.889 264.791 256.867L266.842 260.626C267.348 261.554 267.613 262.593 267.613 263.65C267.613 264.966 268.024 266.249 268.789 267.32L270.641 269.913L272.999 273.686C273.443 274.397 273.773 275.173 273.976 275.986L274.574 278.377C274.777 279.19 275.107 279.966 275.551 280.676L280.938 289.294L286.24 296.187C286.74 296.837 287.137 297.56 287.417 298.331L288.939 302.517C289.255 303.386 289.72 304.194 290.312 304.904L294.783 310.269C295.241 310.819 295.624 311.428 295.92 312.08L297.655 315.898C298.211 317.12 299.064 318.182 300.138 318.988L300.87 319.536C302.429 320.706 303.347 322.542 303.347 324.491C303.347 326.007 303.904 327.471 304.911 328.605L306.172 330.023C307.473 331.487 308.192 333.378 308.192 335.338V339.867C308.192 340.85 308.511 341.806 309.101 342.592C309.69 343.379 310.009 344.335 310.009 345.318V350.466L311.074 360.047C311.171 360.922 311.123 361.806 310.932 362.666L310.326 365.395C310.116 366.337 310.079 367.308 310.215 368.262L310.691 371.588C311.024 373.924 310.239 376.28 308.571 377.948C307.165 379.354 306.375 381.26 306.375 383.248V384.296C306.375 385.156 306.237 386.01 305.965 386.826L305.164 389.228L303.806 395.112C303.505 396.418 302.88 397.627 301.99 398.628L300.416 400.399C299.183 401.786 298.502 403.578 298.502 405.434V406.573C298.502 407.114 298.364 407.646 298.101 408.119L297.388 409.402C296.529 410.949 297.647 412.849 299.417 412.849C300.333 412.849 301.164 412.309 301.537 411.471L302.654 408.956C303.109 407.935 303.817 407.046 304.711 406.375L306.681 404.897C307.675 404.152 308.484 403.188 309.024 402.069C309.86 400.335 310.869 398.156 311.221 397.102C311.615 395.92 312.303 392.253 312.763 389.622C312.948 388.563 313.335 387.55 313.912 386.643L316.787 382.126C317.113 381.613 317.379 381.066 317.581 380.493L320.179 373.133C320.658 371.775 320.762 370.313 320.48 368.901L319.855 365.779C319.752 365.262 319.7 364.737 319.7 364.21V354.063C319.7 353.684 319.673 353.306 319.619 352.932L318.569 345.578C318.515 345.203 318.488 344.825 318.488 344.447V334.113L317.541 326.531C317.368 325.149 316.838 323.837 316.002 322.723L310.009 314.732L306.981 309.281L302.094 302.222C301.719 301.681 301.28 301.188 300.784 300.755L297.869 298.204C297.087 297.52 296.446 296.69 295.981 295.761L294.262 292.323L291.234 287.477L287.939 282.77C287.324 281.892 286.994 280.846 286.994 279.774C286.994 278.494 286.524 277.258 285.674 276.302L284.17 274.609C282.868 273.145 282.149 271.254 282.149 269.294V268.369C282.149 267.785 282.085 267.203 281.958 266.633L281.605 265.041C281.178 263.121 279.998 261.453 278.33 260.41C276.884 259.506 275.797 258.126 275.258 256.508L274.08 252.975C273.808 252.159 273.67 251.305 273.67 250.445V245.603C273.67 244.461 273.425 243.332 272.953 242.292L270.641 237.208L268.391 231.356C267.881 230.032 267.029 228.867 265.921 227.981L263.367 225.937C262.184 224.991 260.757 224.4 259.252 224.233L250.655 223.277H246.507C244.897 223.277 243.353 222.638 242.214 221.499C241.398 220.683 240.365 220.116 239.238 219.866L236.37 219.228C235.8 219.102 235.219 219.038 234.635 219.038H228.245H223.586C223.059 219.038 222.534 219.09 222.017 219.193L218.639 219.869C217.39 220.119 216.098 220.066 214.873 219.716L213.53 219.333C212.845 219.137 212.137 219.038 211.425 219.038Z" fill="#851939" stroke="white" stroke-width="2"/>
<path d="M206.521 228.808L206.001 228.288C204.732 227.019 203.01 226.306 201.215 226.306C200.268 226.306 199.332 226.504 198.467 226.889L197.982 227.104C195.76 228.092 194.328 230.295 194.328 232.727C194.328 233.682 194.551 234.624 194.978 235.478L195.15 235.823C196.166 237.855 198.019 239.342 200.224 239.893L200.525 239.968C201.236 240.146 201.919 240.42 202.554 240.783L205.836 242.658L209.145 244.55C209.763 244.902 210.33 245.336 210.833 245.839L212.738 247.744C214.136 249.141 216.031 249.926 218.007 249.926C219.164 249.926 220.305 250.196 221.339 250.713L222.124 251.105C222.968 251.527 223.88 251.797 224.818 251.901L227.116 252.156C228.259 252.283 229.362 252.655 230.348 253.247L233.365 255.057C234.381 255.667 235.248 256.494 235.905 257.48L238.541 261.434L242.351 267.421C242.637 267.87 242.877 268.347 243.069 268.844L245.276 274.583C245.629 275.5 245.809 276.473 245.809 277.455V280.955C245.809 281.666 245.904 282.374 246.091 283.06L247.457 288.068C247.57 288.481 247.715 288.884 247.892 289.274L250.655 295.351L252.472 300.802L254.894 308.675L256.906 314.712C257.178 315.528 257.317 316.382 257.317 317.242V321.913C257.317 322.773 257.455 323.627 257.727 324.443L259.489 329.728C259.656 330.228 259.871 330.71 260.133 331.167L261.368 333.33C261.892 334.247 262.23 335.258 262.361 336.307L262.768 339.564L263.282 345.216C263.343 345.887 263.488 346.548 263.715 347.182L265.936 353.401C266.244 354.264 266.402 355.174 266.402 356.091V360.675C266.402 361.535 266.263 362.389 265.991 363.205L264.799 366.781C264.657 367.209 264.55 367.649 264.482 368.095L263.466 374.693C263.405 375.096 263.373 375.503 263.373 375.91V380.087C263.373 380.528 263.337 380.967 263.265 381.402L262.971 383.162C262.836 383.971 262.827 384.796 262.943 385.609L263.043 386.307C263.257 387.81 263.954 389.203 265.027 390.277C265.927 391.176 266.565 392.303 266.873 393.537L267.752 397.053C268.059 398.28 268.071 399.561 267.786 400.793L266.402 406.792L264.585 411.638L262.768 417.089L260.525 423.817C260.405 424.176 260.26 424.527 260.091 424.865L258.989 427.069C258.683 427.681 258.457 428.329 258.316 428.999L256.269 438.723C256.16 439.238 256.001 439.742 255.794 440.226L254.289 443.738L250.049 454.034L248.019 457.586C247.758 458.043 247.542 458.525 247.376 459.025L245.637 464.242C245.35 465.102 244.919 465.907 244.362 466.623L241.597 470.179C241.177 470.719 240.828 471.311 240.558 471.939L239.45 474.525C239.25 474.992 238.963 475.417 238.603 475.776L237.43 476.949C236.16 478.22 236.445 480.35 238.005 481.242C238.726 481.654 239.597 481.714 240.369 481.406L242.664 480.488C244.308 479.83 245.682 478.635 246.561 477.096L247.025 476.284C247.424 475.587 247.715 474.834 247.889 474.05L248.484 471.371C248.717 470.322 249.159 469.331 249.784 468.456L251.395 466.201C251.708 465.763 251.976 465.293 252.195 464.801L253.449 461.98C253.989 460.765 254.967 459.8 256.189 459.276C257.667 458.643 258.775 457.369 259.198 455.818L260.09 452.545C260.26 451.925 260.503 451.327 260.815 450.765L263.373 446.16L265.685 441.076C266.157 440.036 266.402 438.907 266.402 437.765V437.677C266.402 435.37 267.398 433.176 269.134 431.657L270.383 430.564C270.956 430.062 271.455 429.481 271.864 428.838L274.236 425.111C275.053 423.827 275.487 422.337 275.487 420.816V417.145C275.487 416.704 275.523 416.265 275.596 415.83L276.5 410.402C276.631 409.615 276.879 408.852 277.236 408.139L280.332 401.947L284.123 395.313C284.814 394.104 285.177 392.736 285.177 391.343V390.623C285.177 389.31 284.854 388.017 284.236 386.858L281.273 381.302C280.655 380.144 280.332 378.851 280.332 377.538V371.489C280.332 370.406 280.112 369.334 279.685 368.338L278.895 366.493C278.642 365.905 278.462 365.288 278.357 364.657L276.698 354.706L275.059 347.055C274.941 346.504 274.881 345.942 274.881 345.379V336.775C274.881 335.816 274.708 334.864 274.372 333.966L273.573 331.838C273.237 330.939 273.064 329.988 273.064 329.029V324.332C273.064 323.588 272.96 322.849 272.756 322.134L272.161 320.049C271.956 319.334 271.853 318.595 271.853 317.851V305.719C271.853 304.477 271.564 303.252 271.008 302.141L269.848 299.821C269.57 299.265 269.358 298.68 269.216 298.075L267.221 289.598C267.079 288.994 266.867 288.408 266.59 287.853L265.388 285.449C264.86 284.393 264.585 283.229 264.585 282.048V281.054C264.585 279.372 263.82 277.781 262.506 276.73C261.881 276.229 261.371 275.599 261.013 274.882L256.95 266.757C256.395 265.646 256.106 264.421 256.106 263.179V262.732C256.106 261.872 255.967 261.018 255.695 260.202L253.416 253.365C253.191 252.691 252.877 252.049 252.483 251.458L249.026 246.272C248.501 245.484 247.84 244.796 247.075 244.239L242.941 241.233C242.037 240.576 241.005 240.115 239.912 239.881L234.506 238.722C233.571 238.522 232.682 238.146 231.886 237.616C231.478 237.344 231.046 237.113 230.594 236.925L224.006 234.179L216.152 231.561C215.337 231.29 214.482 231.151 213.622 231.151H212.178C210.056 231.151 208.021 230.308 206.521 228.808Z" fill="#851939" stroke="white" stroke-width="2"/>
<path d="M122.352 151.465L124.76 154.174C125.492 154.998 126.473 155.56 127.554 155.776C128.446 155.955 129.275 156.367 129.94 156.988C132.055 158.963 134.973 161.888 134.973 162.711C134.973 163.528 134.4 168.131 133.978 171.371C133.843 172.406 133.241 173.32 132.347 173.857C131.342 174.46 130.099 174.507 129.051 173.983L124.677 171.796L120.145 168.774C119.535 168.368 118.985 167.88 118.508 167.324L116.064 164.472C115.75 164.107 115.47 163.713 115.227 163.297L112.061 157.869C111.592 157.066 110.987 156.35 110.272 155.755L109.568 155.168C108.362 154.162 107.478 152.824 107.027 151.321L106.682 150.171C106.178 148.49 105.103 147.037 103.642 146.063C102.737 145.46 101.973 144.667 101.402 143.741L97.8025 137.891C97.5497 137.48 97.3345 137.047 97.1597 136.598L93.5463 127.306C93.3049 126.686 92.9879 126.098 92.6002 125.557C90.4562 122.564 86.9622 117.728 86.5206 117.287C86.0361 116.802 85.1074 113.451 84.7036 111.836L83.7515 107.075C83.5799 106.217 83.2686 105.393 82.8302 104.636L77.2384 94.977C76.9669 94.508 76.7437 94.0126 76.5723 93.4985L75.4536 90.1424C75.1622 89.2682 74.7184 88.4524 74.1427 87.7329C73.1328 86.4704 72.5394 84.9257 72.4445 83.3118L72.0453 76.5258C72.0057 75.8516 71.7873 75.2 71.4127 74.6381C70.9959 74.0129 70.7734 73.2783 70.7734 72.5269V64.5943V48.8472L71.9848 38.5509L73.8017 24.6208L74.2342 20.2958C74.3483 19.1547 74.7065 18.0515 75.2843 17.0609L78.647 11.2962L81.0697 5.84528L83.2374 2.37696C83.7584 1.54334 84.73 1.10534 85.6996 1.26695C86.8724 1.4624 87.7319 2.47706 87.7319 3.66598V4.92131C87.7319 5.52894 87.5905 6.12823 87.3187 6.67171L84.098 13.1132L82.0764 16.752C81.4161 17.9405 81.0697 19.2776 81.0697 20.6372V21.5209C81.0697 22.7629 80.7805 23.9878 80.2251 25.0986L79.4916 26.5656C78.9362 27.6764 78.647 28.9013 78.647 30.1433V37.9453C78.8489 41.983 79.2527 50.3008 79.2527 51.2698C79.2527 52.2389 79.6565 56.9226 79.8583 59.1434L80.8983 71.6229C81.0107 72.9717 81.4635 74.27 82.2143 75.3961L82.3867 75.6548C83.1127 76.7438 83.5604 77.9942 83.6906 79.2964L83.8399 80.7893C84.0076 82.4667 84.701 84.0482 85.8209 85.3082L88.0417 87.8066C88.6385 88.4779 89.1179 89.2449 89.4599 90.0755L92.9139 98.4639C93.0929 98.8984 93.3098 99.3164 93.5621 99.7129L97.4225 105.779L100.054 109.288C100.713 110.167 101.159 111.187 101.355 112.268L101.862 115.054C102.104 116.387 103.173 117.416 104.515 117.608C105.73 117.781 106.731 118.645 107.096 119.817C107.746 121.904 108.571 124.442 108.93 125.16C109.536 126.372 110.747 130.611 110.747 131.217C110.747 131.473 111.31 131.853 111.991 132.214C113.131 132.819 114.214 133.546 115.054 134.526L115.933 135.552C116.886 136.663 117.409 138.078 117.409 139.541V141.8C117.409 142.738 117.939 143.595 118.778 144.014C119.445 144.348 119.926 144.964 120.088 145.692L120.616 148.069C120.896 149.33 121.494 150.499 122.352 151.465Z" fill="#851939" stroke="white" stroke-width="2"/>
<path d="M134.589 193.27L136.383 193.868C137.055 194.092 137.689 194.415 138.266 194.827C140.348 196.314 141.47 198.807 141.202 201.353L140.742 205.73C140.561 207.442 139.118 208.742 137.396 208.742H130.128C129.47 208.742 128.587 207.995 127.899 207.263C127.337 206.666 126.76 206.076 126.093 205.599L118.621 200.262L111.958 195.417L106.194 192.273C105.598 191.948 104.963 191.7 104.304 191.535L99.3726 190.302C98.483 190.08 97.6383 189.706 96.8753 189.197L93.3774 186.865C92.8459 186.511 92.274 186.222 91.6737 186.003L87.2396 184.391C86.3633 184.072 85.4381 183.909 84.5057 183.909H81.0698H72.765C70.3621 183.909 68.0937 182.8 66.6184 180.903C65.3973 179.333 63.6217 178.29 61.6558 177.988L57.6612 177.373C57.1174 177.289 56.5837 177.15 56.0686 176.957L54.4183 176.338C52.8449 175.748 51.1256 175.668 49.5044 176.11L46.8627 176.831C45.8545 177.106 44.8023 177.18 43.7654 177.051L40.4905 176.641C38.0679 176.238 33.1015 175.672 32.617 176.641C32.1324 177.611 30.3962 178.257 29.5886 178.458L26.6772 179.29C25.7982 179.541 24.9689 179.941 24.225 180.473L21.8935 182.138C21.3727 182.51 20.8087 182.816 20.2192 183.065C18.0643 183.977 14.8682 185.49 14.4471 186.332C14.3443 186.538 14.1303 186.674 13.8436 186.758C11.2646 187.51 8.37473 187.384 6.33496 189.132L5.58034 189.779C5.43548 189.903 5.27594 190.009 5.1053 190.094L3.8049 190.745C2.85083 191.222 1.72827 190.528 1.72827 189.461C1.72827 189.016 1.93519 188.596 2.28831 188.324L8.41785 183.609C9.1994 183.008 9.85377 182.257 10.343 181.401C11.4113 179.532 13.2365 178.216 15.3479 177.794L17.2643 177.411C17.8074 177.302 18.3377 177.137 18.8467 176.919L21.5613 175.756C22.0662 175.539 22.5476 175.271 22.9976 174.956L27.4237 171.858C28.0561 171.415 28.7493 171.067 29.4816 170.822L34.7422 169.069C35.3421 168.869 35.9162 168.599 36.4524 168.263L39.1903 166.552C40.0493 166.015 41.0025 165.647 41.9992 165.465L47.1528 164.528L52.2852 163.739C54.0601 163.466 55.8752 163.802 57.4344 164.693L57.9186 164.97C58.8016 165.474 59.8009 165.74 60.8179 165.74C62.5238 165.74 64.1446 166.485 65.2548 167.78L65.3226 167.859C66.4759 169.205 68.1595 169.979 69.9315 169.979H76.3438C77.4631 169.979 78.57 170.214 79.5929 170.669L81.941 171.712C82.9639 172.167 84.0708 172.402 85.1901 172.402H86.2647C87.6243 172.402 88.9614 172.748 90.1498 173.409L93.7887 175.43L95.0958 176.084C96.608 176.84 98.3329 177.095 100.001 176.817C100.698 176.701 101.413 176.677 102.117 176.748L104.272 176.963C106.109 177.147 107.827 177.961 109.132 179.266L109.467 179.601C110.691 180.825 112.279 181.619 113.993 181.864L117.192 182.321C118.906 182.566 120.494 183.36 121.718 184.584L121.853 184.719C122.12 184.986 122.407 185.235 122.71 185.462L126.136 188.032C126.775 188.511 127.336 189.085 127.8 189.735L128.522 190.746C129.53 192.157 131.157 192.994 132.891 192.994C133.468 192.994 134.041 193.087 134.589 193.27Z" fill="#851939" stroke="white" stroke-width="2"/>
<path d="M137.863 218.432H138.456C140.461 218.432 142.352 219.363 143.574 220.952L144.229 221.803C146.116 224.256 145.574 227.788 143.038 229.564C142.125 230.203 141.038 230.545 139.924 230.545H137.862C137.151 230.545 136.443 230.64 135.757 230.827L130.128 232.362L124.702 234.533C124.283 234.701 123.849 234.833 123.407 234.927L116.421 236.424C115.87 236.542 115.308 236.602 114.745 236.602H104.653C104.275 236.602 103.897 236.629 103.522 236.682L98.4564 237.406C96.6137 237.669 94.9204 238.567 93.6683 239.944L90.0104 243.968C89.7033 244.306 89.4257 244.669 89.1806 245.054L86.3494 249.503C85.6701 250.571 85.3093 251.81 85.3093 253.075C85.3093 254.188 85.03 255.284 84.4969 256.261L82.4464 260.02C81.9404 260.948 81.6753 261.988 81.6753 263.044C81.6753 264.36 81.2641 265.644 80.4991 266.715L78.647 269.308L76.2891 273.08C75.8449 273.791 75.5152 274.567 75.3119 275.38L74.7142 277.771C74.5109 278.584 74.1812 279.36 73.737 280.071L68.3508 288.689L63.0487 295.581C62.5486 296.231 62.1516 296.954 61.8713 297.725L60.3492 301.911C60.0332 302.78 59.5688 303.588 58.9767 304.298L54.5056 309.664C54.0472 310.214 53.6648 310.823 53.3685 311.475L51.6331 315.292C51.0777 316.514 50.2239 317.577 49.1502 318.382L48.4185 318.931C46.8591 320.1 45.9413 321.936 45.9413 323.885C45.9413 325.402 45.3847 326.866 44.3771 327.999L43.1168 329.417C41.8151 330.882 41.0961 332.773 41.0961 334.732V339.261C41.0961 340.244 40.7773 341.201 40.1876 341.987C39.5979 342.773 39.2791 343.729 39.2791 344.712V349.86L38.2146 359.441C38.1174 360.316 38.1652 361.201 38.3561 362.06L38.9628 364.79C39.1719 365.731 39.2092 366.702 39.0729 367.657L38.5978 370.982C38.2641 373.318 39.0495 375.674 40.7177 377.342C42.1234 378.748 42.913 380.654 42.913 382.642V383.69C42.913 384.55 43.0517 385.405 43.3236 386.22L44.1244 388.623L45.4822 394.506C45.7835 395.812 46.4078 397.021 47.298 398.022L48.8723 399.794C50.1055 401.181 50.7866 402.972 50.7866 404.829V405.967C50.7866 406.509 50.9245 407.041 51.1873 407.514L51.9 408.796C52.7591 410.343 51.6409 412.243 49.8718 412.243C48.9549 412.243 48.124 411.703 47.7516 410.866L46.634 408.351C46.1798 407.329 45.4717 406.44 44.577 405.769L42.6069 404.292C41.6133 403.546 40.8042 402.582 40.2647 401.463C39.4284 399.729 38.4191 397.55 38.0678 396.496C37.6737 395.314 36.9857 391.647 36.5254 389.016C36.3402 387.958 35.9535 386.944 35.3766 386.038L32.5017 381.52C32.1757 381.008 31.9091 380.46 31.7071 379.887L29.1093 372.527C28.6301 371.169 28.5262 369.708 28.8086 368.296L29.4332 365.173C29.5365 364.656 29.5885 364.131 29.5885 363.604V353.457C29.5885 353.079 29.6154 352.701 29.6689 352.326L30.7194 344.972C30.773 344.598 30.7998 344.219 30.7998 343.841V333.508L31.7476 325.925C31.9203 324.544 32.4505 323.231 33.2859 322.117L39.2791 314.126L42.3074 308.675L47.1944 301.616C47.5689 301.075 48.0087 300.583 48.5039 300.15L51.4197 297.598C52.2015 296.914 52.8426 296.084 53.3071 295.155L55.0263 291.717L58.0546 286.872L61.3496 282.165C61.9644 281.286 62.2942 280.24 62.2942 279.168C62.2942 277.888 62.7638 276.653 63.6141 275.696L65.1187 274.004C66.4204 272.539 67.1395 270.648 67.1395 268.689V267.763C67.1395 267.179 67.2033 266.597 67.33 266.028L67.6838 264.435C68.1105 262.515 69.2901 260.847 70.9581 259.804C72.4047 258.9 73.4912 257.52 74.0306 255.902L75.2082 252.369C75.4801 251.554 75.6187 250.699 75.6187 249.84V244.997C75.6187 243.855 75.8632 242.726 76.3358 241.687L78.647 236.602L80.8977 230.75C81.4069 229.426 82.2591 228.261 83.3669 227.375L85.9218 225.331C87.1042 224.385 88.5309 223.794 90.0359 223.627L98.6338 222.672H102.781C104.391 222.672 105.936 222.032 107.074 220.894C107.891 220.077 108.923 219.51 110.05 219.26L112.918 218.623C113.488 218.496 114.07 218.432 114.653 218.432H121.043H125.702C126.229 218.432 126.754 218.484 127.271 218.587L130.649 219.263C131.899 219.513 133.19 219.461 134.416 219.111L135.759 218.727C136.443 218.531 137.152 218.432 137.863 218.432Z" fill="#851939" stroke="white" stroke-width="2"/>
<path d="M142.768 229.413L143.288 228.894C144.557 227.624 146.278 226.911 148.073 226.911C149.02 226.911 149.957 227.11 150.822 227.495L151.307 227.71C153.528 228.698 154.96 230.901 154.96 233.332C154.96 234.288 154.738 235.23 154.311 236.084L154.139 236.428C153.123 238.461 151.269 239.947 149.065 240.498L148.763 240.574C148.053 240.751 147.37 241.026 146.734 241.389L143.453 243.264L140.143 245.155C139.526 245.508 138.958 245.942 138.456 246.444L136.55 248.35C135.153 249.747 133.258 250.532 131.282 250.532C130.125 250.532 128.984 250.801 127.949 251.319L127.165 251.711C126.321 252.133 125.409 252.402 124.471 252.507L122.173 252.762C121.03 252.889 119.927 253.261 118.941 253.853L115.924 255.663C114.908 256.273 114.04 257.1 113.383 258.085L110.747 262.04L106.938 268.026C106.652 268.476 106.411 268.952 106.22 269.449L104.012 275.189C103.66 276.106 103.479 277.079 103.479 278.061V281.561C103.479 282.272 103.384 282.98 103.197 283.666L101.831 288.674C101.719 289.087 101.573 289.49 101.396 289.88L98.634 295.957L96.817 301.408L94.3943 309.281L92.3822 315.317C92.1103 316.133 91.9717 316.987 91.9717 317.847V322.519C91.9717 323.379 91.8331 324.233 91.5612 325.049L89.7996 330.333C89.633 330.833 89.4174 331.315 89.156 331.773L87.9202 333.935C87.3962 334.852 87.059 335.864 86.928 336.912L86.5208 340.17L86.007 345.821C85.946 346.493 85.8004 347.153 85.5738 347.788L83.3529 354.006C83.0445 354.87 82.8868 355.78 82.8868 356.697V361.281C82.8868 362.141 83.0254 362.995 83.2973 363.811L84.4894 367.387C84.6321 367.815 84.7383 368.254 84.8069 368.7L85.8221 375.299C85.884 375.702 85.9151 376.108 85.9151 376.516V380.693C85.9151 381.133 85.9515 381.573 86.024 382.008L86.3172 383.768C86.4521 384.577 86.4617 385.402 86.3457 386.214L86.2459 386.913C86.0312 388.416 85.3347 389.809 84.2612 390.882C83.3618 391.782 82.7239 392.908 82.4154 394.142L81.5362 397.659C81.2296 398.885 81.218 400.167 81.5022 401.398L82.8868 407.398L84.7038 412.243L86.5208 417.694L88.7636 424.423C88.8833 424.782 89.0284 425.132 89.1977 425.471L90.2996 427.675C90.6055 428.287 90.8317 428.935 90.9726 429.604L93.0198 439.329C93.1284 439.844 93.2875 440.348 93.4951 440.832L95 444.343L99.2396 454.64L101.269 458.191C101.531 458.649 101.746 459.131 101.913 459.631L103.652 464.847C103.938 465.708 104.369 466.513 104.926 467.229L107.692 470.785C108.112 471.325 108.461 471.916 108.73 472.545L109.839 475.131C110.039 475.598 110.326 476.022 110.685 476.381L111.859 477.555C113.129 478.825 112.844 480.956 111.284 481.847C110.562 482.26 109.692 482.32 108.92 482.011L106.625 481.093C104.98 480.435 103.607 479.24 102.728 477.702L102.263 476.889C101.865 476.192 101.574 475.439 101.4 474.656L100.804 471.976C100.571 470.927 100.129 469.936 99.5045 469.062L97.894 466.807C97.5806 466.368 97.3123 465.899 97.0933 465.406L95.8398 462.586C95.2999 461.371 94.3212 460.405 93.0995 459.882C91.6217 459.248 90.5138 457.975 90.0908 456.424L89.1981 453.151C89.0289 452.531 88.7856 451.933 88.4733 451.371L85.9151 446.766L83.6039 441.681C83.1313 440.642 82.8868 439.513 82.8868 438.371V438.283C82.8868 435.976 81.891 433.781 80.1548 432.262L78.906 431.17C78.3326 430.668 77.8338 430.087 77.4248 429.444L75.0526 425.716C74.2358 424.433 73.8019 422.943 73.8019 421.421V417.751C73.8019 417.31 73.7655 416.87 73.693 416.436L72.7883 411.007C72.6572 410.221 72.4092 409.458 72.0526 408.745L68.9566 402.553L65.1654 395.918C64.4747 394.709 64.1113 393.341 64.1113 391.949V391.228C64.1113 389.915 64.4346 388.622 65.0525 387.464L68.0154 381.908C68.6334 380.749 68.9566 379.457 68.9566 378.143V372.095C68.9566 371.011 69.1767 369.939 69.6035 368.944L70.394 367.099C70.6462 366.511 70.8268 365.894 70.932 365.263L72.5906 355.311L74.23 347.661C74.348 347.11 74.4076 346.548 74.4076 345.985V337.381C74.4076 336.422 74.5801 335.47 74.9169 334.572L75.7152 332.443C76.052 331.545 76.2245 330.594 76.2245 329.634V324.937C76.2245 324.194 76.3281 323.454 76.5323 322.74L77.128 320.655C77.3323 319.94 77.4359 319.2 77.4359 318.457V306.324C77.4359 305.082 77.725 303.858 78.2804 302.747L79.4406 300.426C79.7183 299.871 79.9303 299.285 80.0725 298.681L82.0671 290.204C82.2093 289.6 82.4214 289.014 82.699 288.459L83.9008 286.055C84.4289 284.999 84.7038 283.834 84.7038 282.654V281.66C84.7038 279.977 85.4685 278.386 86.7823 277.335C87.408 276.835 87.9177 276.204 88.2761 275.488L92.3384 267.363C92.8939 266.252 93.183 265.027 93.183 263.785V263.338C93.183 262.478 93.3216 261.624 93.5936 260.808L95.8725 253.971C96.0974 253.297 96.4112 252.655 96.8056 252.063L100.263 246.877C100.788 246.09 101.448 245.402 102.214 244.845L106.348 241.839C107.252 241.181 108.284 240.72 109.377 240.486L114.782 239.328C115.718 239.127 116.607 238.752 117.403 238.221C117.81 237.95 118.243 237.718 118.694 237.53L125.283 234.785L133.136 232.167C133.952 231.895 134.806 231.757 135.666 231.757H137.111C139.233 231.757 141.267 230.914 142.768 229.413Z" fill="#851939" stroke="white" stroke-width="2"/>
</svg>
