<svg width="1440" height="1024" viewBox="0 0 1440 1024" fill="none" xmlns="http://www.w3.org/2000/svg">
<g clip-path="url(#clip0)">
<rect width="1440" height="1024" fill="#2F3046"/>
<path d="M768.5 749C700 746.5 435 739.5 224 876.5V1102H1153.5C1181.17 1004 1219.9 804.1 1153.5 788.5C1070.5 769 837 751.5 768.5 749Z" fill="#080922"/>
<path d="M387.895 870.02C252.041 828.024 40.3793 734.035 -455 751.033V1051H851C741.917 1004.67 496.579 903.616 387.895 870.02Z" fill="#0E103E"/>
<path d="M774.615 907.982C965.398 825.63 1252.5 739 1574 709.5L1707 1102H408C466.61 1064.78 621.988 973.865 774.615 907.982Z" fill="#181C67"/>
<g filter="url(#filter0_d)">
<circle cx="1221.5" cy="167.5" r="124.5" fill="#F2F2F2"/>
</g>
</g>
<defs>
<filter id="filter0_d" x="1032" y="-22" width="379" height="379" filterUnits="userSpaceOnUse" color-interpolation-filters="sRGB">
<feFlood flood-opacity="0" result="BackgroundImageFix"/>
<feColorMatrix in="SourceAlpha" type="matrix" values="0 0 0 0 0 0 0 0 0 0 0 0 0 0 0 0 0 0 127 0" result="hardAlpha"/>
<feMorphology radius="5" operator="dilate" in="SourceAlpha" result="effect1_dropShadow"/>
<feOffset/>
<feGaussianBlur stdDeviation="30"/>
<feComposite in2="hardAlpha" operator="out"/>
<feColorMatrix type="matrix" values="0 0 0 0 1 0 0 0 0 1 0 0 0 0 1 0 0 0 0.6 0"/>
<feBlend mode="normal" in2="BackgroundImageFix" result="effect1_dropShadow"/>
<feBlend mode="normal" in="SourceGraphic" in2="effect1_dropShadow" result="shape"/>
</filter>
<clipPath id="clip0">
<rect width="1440" height="1024" fill="white"/>
</clipPath>
</defs>
</svg>
